<?xml version="1.0" encoding="UTF-8" standalone="no"?>
<svg
   width="208.51199"
   height="191.92599"
   viewBox="0 0 208.51199 191.92599"
   version="1.1"
   id="svg1"
   xmlns="http://www.w3.org/2000/svg"
   xmlns:svg="http://www.w3.org/2000/svg">
  <defs
     id="defs1">
    <rect
       x="176.03687"
       y="122.27343"
       width="86.021507"
       height="109.3702"
       id="rect1" />
  </defs>
  <title
     id="title1">logo-</title>
  <g
     id="Page-1"
     stroke="none"
     stroke-width="1"
     fill="none"
     fill-rule="evenodd"
     transform="translate(-100,-83.000002)">
    <g
       id="logo-">
      <rect
         id="Rectangle"
         x="0"
         y="0"
         width="1200"
         height="357" />
      <path
         d="m 180.5535,256.208 c 0,0 -1.2365,-0.226 -1.4619,-0.287 -3.6174,-0.975 -7.363,-0.014 -10.0442,1.303 -2.6128,1.285 -1.5029,0.751 -1.5029,0.751 -4.3597,2.178 -8.9788,4.188 -13.8266,6.03 -13.1732,5.006 -27.4306,8.582 -41.7844,10.921 1.2716,-1.914 2.4436,-3.748 3.5085,-5.499 2.8742,-4.726 6.5577,-11.462 10.8574,-19.703 0,0 3.5458,-6.241 4.9594,-9.506 1.4021,-3.239 -0.2168,-6.295 -2.2328,-8.271 -2.016,-1.975 -6.112,-6.412 -6.112,-6.412 C 108.087,209.978 100,190.835 100,170.747 100,123.0488 146.0412,83 204.256,83 c 58.214,0 104.256,40.0488 104.256,87.747 0,45.089 -41.142,83.342 -94.817,87.393 -1.183,0.089 -19.721,0.086 -21.03,-0.048 -4.093,-0.419 -8.0555,-1.087 -12.1115,-1.884 z"
         id="Path"
         fill="#903232" />
      <text
         xml:space="preserve"
         id="text1"
         style="font-size:96px;text-align:start;writing-mode:lr-tb;direction:ltr;white-space:pre;shape-inside:url(#rect1);display:inline;fill:#000000"
         transform="translate(-3.3794163,-7.3732719)"><tspan
           x="176.03711"
           y="209.85715"
           id="tspan3"><tspan
             style="font-family:Tahoma;-inkscape-font-specification:Tahoma;fill:#ffffff"
             id="tspan2">E</tspan></tspan></text>
    </g>
  </g>
</svg>
