<svg xmlns="http://www.w3.org/2000/svg" viewBox="0 0 25 25" xml:space="preserve" width="25" height="25"><path style="fill:#fff" d="M21.371 7.142H11.304v1.499h12.889V7.142h-1.209a.403.403 0 0 1-.403-.403h-.807a.403.403 0 0 1-.403.403M.807 11.751h23.387v1.497H.807zm21.774 6.509c0-.222.18-.403.403-.403h1.209V16.36H.807v1.497h20.564c.222 0 .403.18.403.403z"/><path style="fill:#259245" d="M22.984 18.663a.403.403 0 0 1-.403-.403h-.807a.403.403 0 0 1-.403.403H.807v1.497h23.387v-1.497zM.807 14.055h23.387v1.499H.807zm10.497-4.608h12.889v1.497H11.304zm0-3.111h10.067c.222 0 .403.18.403.403h.807c0-.222.18-.403.403-.403h1.209V4.839H11.304z"/><path style="fill:#ed1f34" d="M.775 10.976V4.808h9.754v6.168zM4.932 7.39a.4.4 0 0 0-.399.399v1.263a1.12 1.12 0 0 0 2.238 0V7.789a.4.4 0 0 0-.399-.399zm.72-1.009a2.637 2.637 0 0 1 2.634 2.634.372.372 0 0 0 .745 0c0-1.863-1.516-3.379-3.379-3.379S2.274 7.154 2.274 9.017a.372.372 0 0 0 .745 0 2.637 2.637 0 0 1 2.634-2.634"/><path style="fill:#ed1f34" d="M.807 10.945h9.691V4.838H.807zm5.996-1.892a1.151 1.151 0 0 1-2.3 0V7.79a.43.43 0 0 1 .43-.43h1.441a.43.43 0 0 1 .43.43zm-1.15-3.446a3.414 3.414 0 0 1 3.411 3.411.403.403 0 1 1-.805 0c0-1.436-1.168-2.604-2.604-2.604S3.051 7.582 3.051 9.018a.403.403 0 1 1-.805 0 3.414 3.414 0 0 1 3.411-3.411"/><path style="fill:#fff" d="M5.362 9.053a.289.289 0 0 0 .579 0v-.834h-.58z"/><path d="M6.372 7.359h-1.44a.43.43 0 0 0-.43.43v1.263a1.151 1.151 0 0 0 2.3 0V7.789a.43.43 0 0 0-.43-.43m-.431 1.694a.289.289 0 0 1-.579 0v-.834h.58v.834z"/><path style="fill:#fff" d="M2.645 9.42a.403.403 0 0 0 .403-.403c0-1.436 1.168-2.604 2.604-2.604s2.604 1.168 2.604 2.604a.403.403 0 1 0 .805 0c0-1.88-1.53-3.411-3.411-3.411s-3.408 1.53-3.408 3.411c0 .222.18.403.403.403"/><path d="M24.597 4.032H.403A.404.404 0 0 0 0 4.436v16.129c0 .222.18.403.403.403h24.193a.403.403 0 0 0 .403-.403V4.436a.403.403 0 0 0-.403-.403m-.403 2.304h-1.209a.403.403 0 1 0 0 .805h1.209v1.499H11.304V7.142h10.067a.403.403 0 1 0 0-.805H11.304V4.839h12.889zM.807 15.554v-1.499h23.387v1.499zm0-2.305v-1.498h23.387v1.497zm10.497-2.304V9.447h12.889v1.497zm-.807 0H.807V4.838h9.691zm-9.69 9.217v-1.497h20.564a.403.403 0 1 0 0-.805H.807v-1.497h23.387v1.497h-1.209a.403.403 0 1 0 0 .805h1.209v1.497z"/></svg>