<svg width="25" height="16.667" xmlns="http://www.w3.org/2000/svg" viewBox="0 0 25 16.667"><path fill="#007df9" opacity=".96" d="M0 0h25v16.667H0z"/><path fill="#017c01" opacity=".96" d="M0 11.111h25v2.778H0z"/><path fill="#7d3d00" opacity=".96" d="M0 8.333h25v2.778H0z"/><path fill="#017c01" opacity=".96" d="M0 2.778h25v2.778H0z"/><path fill="#7d3d00" opacity=".96" d="M0 0h25v2.778H0z"/><path d="M13.47 12.276c1.225-.373 2.165-1.366 2.578-2.723.169-.557.18-1.785.019-2.356-.361-1.287-1.424-2.453-2.659-2.824-.739-.15-1.479-.17-2.218.052-1.136.406-1.918 1.56-2.258 2.772-.16.572-.15 1.799.019 2.356.449 1.476 1.501 2.497 2.897 2.81.364.082 1.218.035 1.621-.087z" fill="#fff" stroke="#000" stroke-width=".186"/><path d="M11.519 10.163c-.023-.023-.042-.254-.042-.514-.001-.492-.101-.963-.272-1.282a.9.9 0 0 1-.101-.265c-.001-.139-.161-.082-.301.108a.67.67 0 0 1-.292.225c-.17.043-.253.247-.186.458.023.072.149.185.281.253s.259.181.281.253c.052.164-.123.37-.315.37-.156 0-.254-.173-.155-.272.108-.108.074-.166-.154-.261-.173-.072-.256-.171-.402-.477-.109-.229-.162-.412-.13-.451.03-.036.074-.303.098-.594.05-.598.149-.888.386-1.137.142-.148.212-.171.527-.171.2 0 .417.034.484.076.095.06.182.06.405 0 .548-.147 1.551-.06 2.212.192.624.237 1.069.627 1.187 1.042.044.153.117.323.162.377s.092.148.083.207c-.037.23-.129-.218-.31-.377l-.217-.19.171.894c.031.164-.022.464.036.652.192.622.3.582-.028.707-.285.109-.298.109-.378 0-.048-.209-.019-.296-.064-.423s-.147-.283-.173-.252c-.036.044.201.508.04.665-.065.059-.218.104-.352.104h-.237l.035-.297c.041-.35-.148-.996-.28-.954a4 4 0 0 1-.501.054c-.363.024-.42.044-.42.148 0 .156.165.549.288.684a.35.35 0 0 1 .075.251c-.019.134-.456.492-.56.153l-.083-.269c-.014-.046-.155-.267-.194-.262-.078.008.093.596.08.609-.059.058-.629.085-.686.029z"/><path d="M9.863 8.565c-.41.096-.321-.012-.437-.036" fill="none" stroke="#000" stroke-width=".067"/><path d="M9.857 8.405c-.334.101-.262-.013-.357-.039" fill="none" stroke="#000" stroke-width=".062"/></svg>