<svg xmlns="http://www.w3.org/2000/svg" viewBox="0 0 25 25" xml:space="preserve" width="25" height="25"><path style="fill:#ffe000" d="M.356 8.452h24.289v8.096H.356z"/><path style="fill:#333" d="m9.776 11.888 2.006-.104.718-1.875.718 1.876 2.006.104-1.562 1.263.521 1.94-1.683-1.096-1.684 1.095.521-1.94z"/><path style="fill:#259245" d="M.356 16.548h24.289v8.096H.356z"/><path style="fill:#ed1f34" d="M.356.356h24.289v8.096H.356z"/><path d="m15.242 11.533-1.775-.092-.636-1.659a.356.356 0 0 0-.665 0l-.636 1.659-1.775.092a.357.357 0 0 0-.205.632l1.382 1.117-.461 1.716a.356.356 0 0 0 .538.391l1.491-.969 1.49.969a.36.36 0 0 0 .194.058.356.356 0 0 0 .344-.448l-.461-1.716 1.382-1.117a.355.355 0 0 0 .115-.387.36.36 0 0 0-.32-.245m-1.804 1.341a.36.36 0 0 0-.12.369l.28 1.043-.905-.589a.36.36 0 0 0-.388 0l-.905.589.28-1.043a.36.36 0 0 0-.12-.369l-.839-.679 1.078-.056a.36.36 0 0 0 .314-.228l.385-1.008.386 1.008a.36.36 0 0 0 .314.228l1.078.056z"/><path d="M24.644 0H.356A.356.356 0 0 0 0 .356v24.288A.356.356 0 0 0 .356 25h24.288a.356.356 0 0 0 .356-.356V.356A.356.356 0 0 0 24.644 0m-.356.712v7.385H.712V.712zM.712 24.288v-7.384h20.694a.356.356 0 1 0 0-.712H.712V8.808h23.577v7.385h-1.263a.356.356 0 0 0 0 .712h1.263v7.385H.712z"/></svg>