<svg xmlns="http://www.w3.org/2000/svg" viewBox="0 0 25 18.75" width="25" height="18.75"><path fill="#3f9c35" d="M.004 0h25v18.75h-25z"/><path fill="#ed2939" d="M.004 0h25v12.5h-25z"/><path fill="#00b9e4" d="M.004 0h25v6.25h-25z"/><path fill="#fff" d="M14.688 9.375a2.813 2.813 0 0 1-2.813 2.813 2.813 2.813 0 0 1-2.812-2.813 2.813 2.813 0 0 1 5.625 0"/><path fill="#ed2939" d="M14.844 9.375a2.344 2.344 0 0 1-2.344 2.344 2.344 2.344 0 0 1-2.344-2.344 2.344 2.344 0 0 1 4.688 0"/><path fill="#fff" d="m15 7.813.301.84.805-.383-.383.809.84.296-.84.301.383.805-.805-.383-.301.84-.301-.84-.805.383.383-.805-.839-.301.84-.301-.383-.805.805.383z"/></svg>