<svg width="25" height="16.667" viewBox="0 0 25 16.667" xmlns="http://www.w3.org/2000/svg"><path d="M0 8.333h25v8.333H0z" fill="#007000"/><path d="M0 0h25v8.333H0z" fill="#0070ff"/><path d="M0 5.556h25v5.556H0z" fill="#fff"/><path fill="none" stroke="gold" stroke-width=".278" d="M14.583 8.333a2.083 2.083 0 0 1-2.083 2.084 2.083 2.083 0 0 1-2.083-2.084 2.083 2.083 0 0 1 4.166 0z"/><path fill="gold" d="M12.944 8.333a.444.444 0 0 1-.444.445.444.444 0 0 1-.444-.445.444.444 0 0 1 .888 0"/><path d="M450 300h1.388M450 300l1.202-.694M450 300l.694-1.202M450 300v-1.388m0 1.388-.694-1.202M450 300l-1.202-.694M450 300h-1.388" stroke="gold" stroke-width=".112"/><path d="M12.5 8.333v1.389" stroke="gold" stroke-width=".111"/></svg>