<svg xmlns="http://www.w3.org/2000/svg" width="25" height="12.5" viewBox="0 0 25 12.5"><path fill="#ffd900" d="M0 0h25v12.5H0z"/><path fill="#fff" d="M0 0h25v9.375H0z"/><path fill="#0039a6" d="M0 0h25v6.25H0z"/><g fill="#ffd900"><path d="M4.612 3.438a1.667 1.667 0 1 0 3.275 0 1.667 1.667 0 0 1-3.275 0"/><path d="M7.5 3.333a1.25 1.25 0 0 1-1.25 1.25A1.25 1.25 0 0 1 5 3.333a1.25 1.25 0 0 1 2.5 0M6.237.417c.01.071.052.128.092.184a.24.24 0 0 1 .012.186c-.01.063-.021.136.021.191.045.06.087.13.075.209-.001.081-.056.156-.046.237.021.053.082.121.117.037.043-.069-.021-.145-.002-.218.013-.072.073-.133.057-.211C6.562.963 6.466.899 6.54.834c.026-.03.069-.09.065-.014.044.052.096.112.089.186-.006.073-.035.157.034.211.07.074.131.166.132.271a.36.36 0 0 1-.072.26.6.6 0 0 1-.27.151c-.075.011-.148.031-.197.093-.069.057-.137.002-.179-.054-.073-.029-.156-.021-.23-.046a.37.37 0 0 1-.239-.185.6.6 0 0 1-.046-.309.32.32 0 0 1 .108-.214c.057-.051.034-.133.036-.2.029-.075.107-.114.149-.18.05-.061.036.087.037.118.002.054-.057.088-.046.143-.006.071.078.106.085.174.031.068-.04.141.004.204.023.031.083.104.09.024a.22.22 0 0 0 .002-.199c-.011-.072-.072-.139-.039-.213.025-.067.105-.101.11-.178.01-.07-.038-.131-.047-.199a.23.23 0 0 1 .073-.22c.015-.014.029-.03.047-.04"/></g></svg>