<svg width="25" height="16.667" xmlns="http://www.w3.org/2000/svg" viewBox="0 0 25 16.667"><path fill="#fff" fill-rule="evenodd" d="M0 0h25v16.667H0z"/><path d="M0 0v16.667h2.568l.557-.557-.475-.475-.397.397.16.16.238-.238.156.156-.394.397-.479-.475.557-.557-.557-.553.479-.479.394.397-.156.16-.238-.238-.16.16.397.397.475-.479-.557-.553.557-.557-.475-.475-.397.397.16.156.238-.238.156.16-.394.397-.479-.475.557-.557-.557-.557.478-.474.394.397-.156.16-.238-.241-.16.16.397.397.475-.475-.557-.557.557-.557-.475-.475-.397.397.16.16.238-.238.156.156-.394.397-.479-.475.557-.557-.557-.553.479-.479.394.397-.156.16L2.412 10l-.16.16.397.397.475-.479-.557-.553.557-.557-.475-.475-.397.397.16.156.238-.238.156.16-.394.397-.479-.475.557-.557-.557-.557.479-.475.394.397-.156.16-.238-.238-.16.156.397.397.475-.475-.557-.557.557-.553-.475-.479-.397.397.16.16.238-.238.156.16-.394.397-.479-.479.557-.553-.557-.557.479-.475.394.397-.156.156-.238-.238-.16.16.397.397.475-.475-.557-.557.557-.557-.475-.475-.396.399.16.16.238-.241.156.16-.394.397-.479-.476.557-.557-.557-.557.479-.475.394.397-.156.16-.238-.238-.16.156.397.397.475-.475-.557-.557.557-.553-.475-.478-.397.397.16.16.238-.238.156.16-.394.397-.479-.479.557-.553-.557-.557.478-.475.394.397-.156.156-.238-.238-.16.16.397.397.475-.475L2.568 0z" fill="#a92211"/><path fill="#b17842" stroke="#b17842" stroke-width=".026" d="M12.869 3.396h2.363v.154h-2.363z"/><path d="M14.05.865a4 4 0 0 0-.319.349c.119.091.218.192.319.29.102-.098.201-.199.319-.29a4 4 0 0 0-.319-.349zm-1.001.494a1.2 1.2 0 0 0-.166.314q.146.095.282.204c.052-.11.099-.22.164-.33a4 4 0 0 0-.279-.188zm2.001 0a4 4 0 0 0-.279.188c.065.11.112.22.164.33a3 3 0 0 1 .282-.204 1.3 1.3 0 0 0-.166-.314zm-1.43.005a4 4 0 0 0-.354.601 2 2 0 0 1 .276.308c.047-.125.115-.248.19-.37q.074.08.139.169c-.12.187-.218.376-.284.561a3 3 0 0 0-.392-.507 4.4 4.4 0 0 0-.212.628 6.5 6.5 0 0 0-.528-.869.9.9 0 0 1 .37.185l-.048.064.177.266q.063-.187.142-.37c-.268-.259-.698-.562-1.148-.595.439.482.728 1.1.923 1.711l-.024.008.021.282a11 11 0 0 1 2.363 0l.019-.282-.021-.005c.195-.612.483-1.231.923-1.714-.45.033-.883.337-1.151.595q.08.183.145.37l.174-.266-.048-.064a.9.9 0 0 1 .37-.185q-.302.42-.528.869a4.5 4.5 0 0 0-.209-.628 3 3 0 0 0-.394.507 2.8 2.8 0 0 0-.284-.563 2 2 0 0 1 .142-.166c.076.122.143.245.19.37.077-.104.165-.208.274-.308a4 4 0 0 0-.351-.601 3.5 3.5 0 0 0-.432.455 3.4 3.4 0 0 0-.429-.456zm.429.976c.113.201.198.416.239.625a4 4 0 0 0-.475 0c.041-.209.123-.424.236-.625z" fill="#d1a345" stroke="#b17842" stroke-linejoin="round" stroke-width=".026"/><path d="m14.748 3.299.224-.074-.218-.11-.23.07zm-.939-.125.241-.102.241.102-.241.095zm-.457.125-.224-.074.218-.11.23.07z" fill="#b17842"/><path d="M15.232 3.434c.075.038.016.124 0 .116-.149-.079-.656-.129-1.182-.125-.526-.004-1.032.046-1.182.125-.016.009-.075-.077 0-.116.15-.077.656-.129 1.182-.125.526-.004 1.031.048 1.182.125zm.027-.383c.046.021.046.125-.006.103-.146-.065-.677-.118-1.202-.114-.526-.004-1.056.049-1.202.114-.051.023-.052-.081-.006-.103.145-.066.682-.118 1.208-.114.526-.004 1.063.048 1.208.114z" fill="#d1a345" stroke="#b17842" stroke-linejoin="round" stroke-width=".052"/><path d="M9.958 3.538v8.512c0 .58.448 1.029.98 1.029h2.08c.336 0 .548.112.693.26s.223.338.264.488l.013.046h.124l.013-.046c.04-.151.118-.34.264-.488.145-.148.358-.26.693-.26h2.08c.532 0 .98-.448.98-1.029V3.538zm.156.156h7.871v8.356c0 .501-.379.872-.824.872h-2.08c-.372 0-.632.134-.804.309a1.1 1.1 0 0 0-.228.355 1.1 1.1 0 0 0-.225-.355c-.172-.176-.435-.309-.807-.309h-2.08c-.444 0-.824-.372-.824-.872V3.694z" color="#000" style="block-progression:tb;text-indent:0;text-transform:none"/><g fill="#1f1a17" fill-rule="evenodd" stroke="#1f1a17" stroke-width=".28"><path d="M13.915 5.595c.029-.071.087-.119.178-.107.052.007.072.012.11.049.022.022.028.088.041.096-.031.064-.161.061-.214.031-.045-.026-.096-.013-.115-.07zm-.427 2.744a.3.3 0 0 1-.19-.064c-.068-.05-.148-.119-.158.003-.004.048-.104-.137-.104-.056 0 .018-.014.082-.005.096.042.067-.204-.074-.228-.091-.061-.045-.088-.11-.142-.166-.019-.057-.114-.204-.153-.265-.078-.124-.16-.122-.177-.166-.049-.128-.23-.509-.41-.396-.07.044-.04-.321-.04-.396 0-.262.007-.511.279-.217.292.317.452.487.855.656.177.074.282-.253.433-.25.283.342.387 1.002.04 1.313z"/><path d="M14.006 10.58c-.029-.017-.074-.117-.137-.113v.394c0 .107-.057.214-.036.25-.058-.024-.083-.124-.099-.122-.01.012.02.081.03.185.019.211.081.368.026.435-.022.027-.143.062-.212.12-.101.085-.192.195-.213.204-.12.054-.218.054-.49.054-.144 0-.345.072-.396.122a.3.3 0 0 1 .016-.103c.018-.064.057-.075.055-.074-.003 0-.082.013-.155.077s-.05.058-.053.054c-.063-.092.121-.225.106-.232-.046-.02-.191.104-.228.113-.019-.08.193-.234.193-.23-.003.022-.164.073-.187.082-.004-.017-.005-.07.074-.113.133-.072.225-.085.398-.095.112-.007.201.004.263-.02a.33.33 0 0 0 .142-.102c.054-.069.1-.19.052-.35-.024-.08-.063-.118-.075-.146-.034.03-.074.022-.084.076-.049-.063-.055-.199-.088-.222-.026-.018-.095.07-.108.129-.011-.122.01-.369-.018-.375-.019.055-.059.06-.105.082a.3.3 0 0 0 .05-.106c.029-.099.014-.236.015-.272.007-.194.06-.373.127-.495.097-.177.34-.253.49-.38a1.35 1.35 0 0 0 .357-.54c.036-.237-.148-.337-.178-.314-.013-.009-.024-.024-.033-.035-.09-.114-.029-.288-.082-.426-.034-.088-.056-.162-.087-.112-.021-.051-.018-.025-.032-.121s.07-.449.055-.444c-.079.024-.084.049-.124.059.028-.055.058-.093.086-.154.037-.082.099-.228.128-.286s.112-.171.123-.194c-.06.021-.127.088-.139.088-.007-.036.081-.148.086-.261.003-.067-.054-.124-.098-.167s-.105-.065-.17-.065c-.041 0-.068.035-.085.037q-.023.004-.023-.101c0-.018.001-.041.016-.044.033-.029.12-.027.194-.006.053.015.103.056.128.062.167.04.195-.112.082-.183-.06-.038-.165-.031-.261-.027-.057.002-.107.021-.148.012-.019-.004-.039-.036-.049-.052-.012-.021-.031-.069-.063-.107-.03-.036-.071-.064-.073-.093-.001-.014.019-.036.031-.045.085-.063.258-.103.39-.125.081-.013.124-.002.186-.038.058-.034.171-.126.235-.13.084-.004.181.011.269.023.031.004.055.02.085.02.107-.03.287-.147.348.015.011.029.023.07.027.108.002.02-.006.041 0 .055.006.017.057.021.092.055.102.098.25.278.3.33.031.031.049.055.043.062s-.054-.012-.071-.005q-.006.018.022.083c.03.07.192.13.263.174.018.011.04.042.038.052-.019 0-.099.005-.074.077.005.015.049.03.106.049a.8.8 0 0 1 .291.199l.069.092c.022.03.051.051.003.056-.013.001.005.075.036.075-.333.459-.596.949-.278 1.479.088.147.556.409.741.339.035.041.191.207.163.292-.043-.017-.027-.031-.023.018l.013.151c.008.089-.061-.008-.11-.008-.068 0 .008.021.047.076.042.061.092.302.117.478.012.082.129.154.162.193-.088-.028-.022.136.065.28.064.106.145.213.193.314.034.071.144.275.091.349-.027.037-.088.07-.143.14a1.03 1.03 0 0 0-.213.505c-.019.222-.256.24-.416.281-.079.094-.096.081-.109.084-.027-.031-.016-.063-.011-.139.001-.009-.027.021-.067.041-.057.03-.134.057-.148.062-.006-.025.032-.105.027-.095-.008.014-.049.018-.089.037-.037.018-.07.042-.085.049-.001-.031-.019-.005.001-.078.01-.039.018-.052.015-.052s-.071.006-.098.032a.24.24 0 0 1-.089.058.27.27 0 0 1 .058-.145c.042-.058.083-.107.151-.123.072-.016.153-.01.212-.066.081-.078.196-.222.229-.347.052-.199.021-.471-.216-.531-.037-.009-.024.05.017.086-.033.04-.154-.112-.166-.096-.004.037-.002.087.024.114-.022.004-.048-.038-.095-.074-.099-.075-.12-.077-.232-.077.133-.181.265-.398.124-.663-.418-.782-1.128-.121-1.408.263a.56.56 0 0 0-.105.24z"/></g><g stroke="#1f1a17" stroke-width=".28"><path d="M14.192 5.708c.068.022.122-.095.212-.043.055.032.055.096.055.154" fill="none"/><path d="M16.149 9.004c.053.035.018.014.059.067-.002.003-.01-.005-.025-.006.068.075.059.028.089.127-.026-.017-.047-.049-.079-.056a.3.3 0 0 1 .058.141c-.011-.013-.043-.046-.048-.054 0 .047.06.101.045.166-.039-.027-.053-.048-.105-.063.006.016.002.019.009.037-.027-.011-.11.002-.136-.011l.043-.359c.031.009.059-.009.09.012z" fill="#a92211" fill-rule="evenodd"/><path d="M13.962 5.77c-.052.015.02.067-.052.078-.05.008-.091.032-.146.032" fill="none"/></g><g fill="#a92211" fill-rule="evenodd"><path d="m13.504 6.553.025-.015.003.017.024-.013-.01.03.033-.026v.035l-.01.034.008-.002c-.006.056-.016.122-.008.156l.173-.059.007.021-.015.036.021-.016.006.021-.022.041.027-.024.008.026.059-.025-.035.054-.013.017-.015.026-.022-.009-.057.029.009-.115-.068.054-.035.064.035-.01-.157.188c-.056.088-.121.181-.165.276l.136-.08.004.061.112-.18-.006.188.056-.104.024-.046c.025.057.014.073.04.164l.038-.107.009.084.026-.064.019.059.015-.055.022.048.033-.06.02.033.745-.114.004-.059-.006-.035.087-.141v.02l.034-.042-.117-.163-.02.089-.16-.129-.001.067-.023.083-.038-.039-.038-.07-.012.044-.04.048-.044-.026-.007-.03.05.032.026-.031.007-.058.019-.002.07.098.011-.063-.004-.086.153.107.003-.114.04.023.007-.021.118.129.008-.101.074.019-.054-.096.143.065-.053-.08.19.061-.11-.133.155.067-.099-.132.138.068-.131-.117.026.002-.203-.117.106.023-.048-.096.058-.029-.099-.09-.027.072-.112.018.013.037-.054-.008.007.067-.042-.023.06.073-.013-.001.001.036-.068-.036.001.082-.082-.042.008.104-.107-.064-.02.153-.091-.105.056.026.032-.108.088.041.012-.092.079.05-.021-.105.055.029-.035-.06.061.01-.025-.075.058.017s-.027-.04-.02-.039.083-.001.083-.001l-.052-.054.107.017-.064-.043.015-.003.066-.007c-.013-.027-.079-.022-.06-.068.007-.018-.058-.053-.074-.063v-.018h.033c0-.014-.026-.041-.046-.041l-.087-.034c-.028 0-.035-.034-.032-.061l-.004-.073c-.01-.087-.024-.11-.069-.137-.094-.059-.278.045-.285.041-.017 0-.182-.037-.242-.043-.052 0-.093-.008-.127.001-.133.038-.15.127-.27.15-.154.03-.209.037-.318.061-.085.032-.104.067-.121.144a.174.174 0 0 0 .096.195c.026.005.295-.031.331-.026.125.005.283.218.177.288-.068.041-.368-.082-.466-.082-.107 0-.078.078-.052.073.078-.014.042-.018.117 0 .078.019.183.031.224.097l-.011.047z"/><path d="M15.944 9.553c-.004.003-.047-.008-.065-.008.026.045-.05-.022-.056-.023-.046-.011.158.161.126.148.01.022.052-.343.14-.288a.6.6 0 0 1 .173.314c.001.022-.067-.036-.061-.016.012.04.072.112.083.147.006.02-.092-.02-.086 0 .075.008.076.078.108.132l-.047-.007.123.138-.14-.094.146.14-.109-.043.14.105-.165-.056.21.149-.174-.012.211.097a1 1 0 0 1-.152 0c.018.03.111-.006.191.069.027.025.06.081.091.132l.107.188.063.12c.008.016.026.155.008.169-.09.07-.261.295-.292.416l-.025.099c-.017.053-.063.245-.106.277-.047.034-.038.036-.09.056l-.011.027-.007-.025-.04.018-.016-.027-.038.052-.01-.05-.034.04-.008-.036-.026-.01-.084.03.056-.081c-.16.117-.126.079-.16.03-.002-.004-.044.002-.046-.002-.003-.007.123-.084.118-.091-.003-.004-.126.062-.131.062l-.036.018-.046-.019-.007-.013.073-.034.091-.055c.033-.039.078-.064.136-.127-.053-.016-.158.1-.193.128l-.103.049-.035.01-.013.005-.023-.009-.017-.048.077-.014.037-.016.062-.036-.026-.007.154-.092-.061-.007.102-.04-.05-.024.124-.165-.039.002.059-.041-.043-.002.072-.055-.038-.001.066-.042-.047-.002.072-.052-.057-.014-.05-.046.014-.179-.035.005.014-.056-.035.034-.003-.094-.03.059-.022-.06.025-.07-.044.064.01-.121-.031.088-.019-.141-.008.14-.051-.184.014.153-.079-.116.022.136-.084-.103.017.134-.119-.15c.003.05-.003.096.008.155l-.195-.098.033-.174.167-.088.165-.257c.084-.196.017-.616.165-.761.034-.008.055-.013.077.002.015.01-.132.146-.134.147z" stroke="#1f1a17" stroke-width=".008"/><path d="m12.757 8.064.017-.096c.012.035.032.128.042.155v-.139l.047.183.011-.11.038.141-.002-.109.108.234c0-.005-.004-.166.012-.23l.031.092.024-.083.01-.009.023.009.013.027.02-.009.026.014.023-.027.029.05.02-.027.02.023.023-.009.026.046.033-.014.061.112v-.017a1.64 1.64 0 0 1 .005-1.153c-.067.03-.251.188-.319.205-.038.001-.031-.005-.111-.027a1 1 0 0 1-.46-.261c-.11-.105-.433-.501-.524-.478v.055c0 .041-.029.041-.003.087.016.027.033.046.049.073.046.078 0 .087-.003.182-.072.047-.091.208-.017.267.025.02.068-.001.109.038s.118.151.128.169c.022.031.047.173.101.219.03.025.076-.038.1 0 .095.144.188.281.293.417z"/><path stroke="#1f1a17" stroke-width=".008" d="m-45.413-26.413.3.107-.117-.025.225.12-.115-.025.083.06-.154-.03.17.07-.125-.026.204.095-.126-.032.13.07-.099-.012.11.053-.088-.011.073.046-.367.123-.378-.014-.104-.144.041-.07.063-.039.044-.03.006-.044-.069.016.11-.146-.115.053.055-.062.089-.028.04-.02.128-.003Z"/></g><g fill-rule="evenodd"><path d="m13.92 9.849.007.032c-.049.014-.052-.087-.104.096l-.029.009-.006.055-.029-.005-.114.114.003.046-.085.073.003.023.01-.023c.029 0 .052.087.052.105 0 .036-.026.027-.006.068l.006-.014c.072.009-.01-.032.072-.009.046-.068.02-.182.078-.251.026-.023.075-.178.104-.192.026 0 .091.041.107.068-.003-.091.065.123.042.005-.023-.114-.016-.073.023.005.042.078-.016-.114-.013-.119.007-.027.068.164.078.087.003-.027-.068-.164-.042-.151.01.009.085.178.055.068 0-.005-.065-.201-.016-.091.052.11.01-.055-.007-.087l.003.023-.062-.005-.02-.027-.016.046-.023-.009.003.032-.007-.005z" fill="#1f1a17"/><path d="m13.565 10.292.023.205-.013.005-.072-.064-.026.005c-.003.027.042.146.042.196v.036c0 .018 0 .014-.01.027l-.046-.041-.007.005-.006.055-.02.009.039.032v.055h.007l.013-.014.007-.027.065-.023.003-.027.003-.005-.01-.055v-.046c0-.027 0-.014.013-.032l.026.059c.039-.014.023-.164.023-.205-.02-.041.007-.032.007-.068 0-.018-.023-.105-.052-.105z" fill="#1f1a17"/><path d="m15.59 12.028.178-.137c.02-.16-.192.056-.178.137" fill="#d1a345"/></g><path class="fil0 str4" fill="none" stroke="#1f1a17" stroke-width=".069" d="m-47.15-25.47-.059.313.094-.103"/><g fill-rule="evenodd"><path d="m15.756 12.034.161-.099c.037-.145-.206.016-.161.099m-.311-.063.202-.155-.028-.044h-.024c-.055-.011-.155.167-.151.2" fill="#d1a345"/><path d="M14.2 5.721c.003.068.081.091.13.05l-.02-.046.01-.009.055.023.026-.023c.075.009.042.078.062.105.033-.05-.013-.137-.078-.16-.052-.018-.16.027-.186.059" fill="#1f1a17"/><path d="m13.949 5.574.209.018h.013l.023-.005c-.006-.036-.075-.078-.117-.078h-.036c-.033 0-.095.027-.091.064" fill="#a92211"/></g><g fill="none" stroke="#1f1a17"><path d="M13.775 5.886c.032 0 .052 0 .081-.01.008-.003.015-.013.024-.013.017 0 .083-.018.085-.033.002-.014-.015-.023-.015-.04 0-.02.014-.018.022-.024" stroke-width=".035"/><g stroke-linejoin="round"><path d="m14.148 5.859.032.004h.022m-.094.038c.025 0 .044.009.066.014q.015.004.024-.001m-.118.035c.02.001.037.006.059.006.015 0 .017 0 .029-.003m-.135.043c.013 0 .014.004.024.007.017.005.044.005.064.005m-.119.027a.3.3 0 0 0 .109.016m-.181.006c0 .017.071.024.094.024m-.165.013c.013 0 .024.006.036.01q.04.012.085.01" stroke-width="1.246"/><path d="M12.717 7.714a1 1 0 0 0 .046.128l.018-.073.039.141s.024-.115.024-.11.036.125.036.13.027-.079.027-.072.042.119.042.119.017-.089.018-.083l.039.076s.009-.07.01-.065l.024.063s.002-.071.009-.062.04.069.04.069l.006-.069.03.046s.008-.074.012-.069.029.055.029.055" stroke-width=".017"/></g></g><path d="m12.452 11.809.059-.023.006-.005c-.003-.023-.016-.046-.016-.046l-.029-.009c-.072 0-.176.078-.182.141.091 0 .078-.05.163-.059m.09.085v-.014l.003-.009-.078-.027c-.052.032-.117.091-.101.16.026.005.059-.023.075-.041.039-.036.046-.023.098-.046zm.064.015c-.052.032-.101.082-.085.151.026.005.052-.036.068-.055.075-.037.179-.005.016-.096zm-.348-.136c.024-.011.104-.058.171-.074.001-.014.009-.027.01-.036l-.007-.024c-.054.013-.182.05-.174.134" fill="#d1a345" fill-rule="evenodd"/><path d="M13.145 6.044c-.01.014-.01.026-.006.046v.004l.002.003m.04-.038c-.009.014-.006.047.004.06m.023-.054c-.005.012-.004.057.021.057m.016-.061c-.021.02.006.053.022.055m.01-.059c-.023.025.013.06.034.049m.002-.046c.001.018.01.044.034.037m.003-.037c.001.009.01.031.031.026" fill="none" stroke="#1f1a17" stroke-width=".623"/><path d="m13.344 9.433-.182.114c-.078.049-.167.161-.244.274-.088.129-.104.269-.13.418l.003.102.041-.093-.068.205.127-.199-.103.262.131-.203-.092.297.151-.26-.177.419.174-.342-.15.408.153-.364-.082.305.107-.222-.065.253.081-.169-.056.239.08-.179-.048.266.083-.187-.05.203.08-.128-.008.132.049-.045c-.003.028 0 .074-.001.103.014-.01.037-.044.054-.059l-.026.129.052-.074-.027.126c.02-.015.03-.013.047-.027l-.034.074.028-.004-.047.064.038-.017-.043.056.048-.009-.064.047.055-.005-.073.045.072-.012-.086.045.056-.001-.071.037.045.023c-.03.014-.045.001-.073.013l.047.025-.081.007.115.047-.151-.023c-.089.038-.067.039-.252.05-.132.008-.139.013-.269.06.007.018.001.032.007.042.017.028.038.024.042.032.012.025.034.02.043.051.007.025-.002.075.016.093.015.015.034.022.044.034.016.019.038.025.049.033.033.022.046.017.08.02l.021-.022.009-.018.014-.011-.001.022-.014.029.01.01c.025-.034.027-.034.048-.057l.006.016-.007.016-.013.024.011.001.022-.024.01-.019.01-.011.012.006-.011.016-.021.031.019.002.031-.033.014-.017-.023.045.018.003.043-.046c-.001.08.117.031.184.034.095 0 .142-.039.211-.1.054-.048.089-.11.13-.142.124-.094.239-.106.246-.174.018-.165-.048-.342-.053-.481-.002-.048.004-.051.015-.109.003-.017.054.042.075.095.005-.046-.019-.169-.022-.188.013.013.038.04.045.05.005-.066-.03-.127-.045-.189.013.025.015.014.044.062-.007-.056-.059-.165-.059-.197.022.018.058.081.065.092a1 1 0 0 0-.034-.185l.037.078-.023-.142.024.027.005-.076.04.038.009-.066.049.107-.012-.119.056.16-.012-.162.038.04-.033-.151c.044.092.04.087.056.106-.005-.037-.029-.093-.033-.15l.04.06-.021-.137.037.065-.007-.077.042.079.016-.055.018.164.072-.209-.118-.663.019-.041-.158-.329-.04.023-.032.013c.133.198.259-.186.016-.007l-.153-.215-.013.216-.015-.124-.013.132-.026.119-.017-.003.013-.109c-.024.069-.022.13-.045.201l-.003-.147-.03.155-.01.029-.004-.12-.025.11-.022.046.003-.122-.054.166.019-.119-.058.193.011-.123-.058.161.001-.112-.07.13z" fill="#a92211" fill-rule="evenodd" stroke="#1f1a17" stroke-width=".008"/><path d="m13.369 7.841.064.12.022-.145.027.086.043-.142.026.072.048-.097.028.093.083-.201-.074.106-.018-.115-.061.117-.031-.048-.033.117a.8.8 0 0 0-.016-.221c-.022.058-.027.12-.071.242l-.016-.123-.097.182.076-.457.048-.101.03.092.072-.152-.008.206.094-.15.065.13.078-.139.008.088.026-.077.018.031.039-.056.016.007.026-.036.073 1.767-.076-.074c.009-.179-.044-.065-.04-.272l-.015.2-.033-.149-.038.075.011-.194-.042.064.017-.108-.051.047.008-.152-.056.091-.012-.161-.041.096-.005-.145-.054.136-.012-.214-.04.063-.011-.238-.061.029z" fill="#a92211" fill-rule="evenodd" stroke="#1f1a17" stroke-width=".008"/><path d="M16.649 10.832c.024.034.061.041.072.086l.01.047c.003.011.002.027.005.039m-.11-.106c.019.023.057.055.063.082.003.012.002.022.012.031.008.007.005.023.006.032m-.088-.093a.27.27 0 0 1 .056.135m-.058-.078c-.001.03.027.061.037.088.004.01.012.025.011.038m-.077-.077q.006.027.019.05l.011.018c.006.015.005.029.008.045m-.07-.054c.007.014.012.035.019.046a.2.2 0 0 1 .032.068" fill="none" stroke="#1f1a17" stroke-linejoin="round" stroke-width=".935"/><path d="m16.578 11.234-.027.003v-.007l-.001-.001-.001-.001-.001-.001-.001-.001-.001-.001-.001-.002-.001-.002-.001-.002-.001-.001-.001-.002-.001-.002-.001-.002-.001-.002-.001-.002-.001-.002-.001-.002-.001-.002-.001-.002-.001-.002-.001-.002-.001-.002-.001-.002-.001-.002-.001-.002-.001-.002-.001-.002.026-.009.001.002.001.002.001.002.001.002.001.002.001.002.001.002.001.002.001.002.001.002.001.002.001.002.001.002.001.002.001.002.001.002.001.002.001.002.001.002.001.002.001.002.001.002.001.002.001.002.001.002.001.002.001.002.001.002.001.002.001.002v.002zm0 .038-.027-.003v-.032l.027-.003v.033z" fill="#1f1a17"/><g fill="none" stroke="#1f1a17"><g stroke-linejoin="round"><path d="M16.504 11.214c.008.018.02.031.022.05.001.009.009.017.008.027m-.04.005c-.005.018-.001.031-.001.05q0 .01.008.015c.003.003.003.013.004.017" stroke-width=".026"/><path d="m13.526 10.779-.014-.149.076.066-.052-.27.135.152s-.069-.353-.052-.318.1.169.1.169m-.055-.241c.029.037.048.056.059.1.007.03.014.069.014.1m-.028-.266c.014.031.038.058.045.09.006.028.011.064.021.09m-.053-.229c.011.04.047.085.066.121.019.037.014.024.014-.017 0-.037-.003-.075.003-.111q0 .027.007.052c.013.049.003-.045.003-.066 0-.099.031.114.031.017 0-.012-.004-.131.017-.052.019.073.017-.043.017-.055 0-.021-.003-.045.003-.066.008-.026.033.054.041.045.016-.016.024-.058.024-.08" stroke-width=".312"/><path d="M13.656 10.822a.14.14 0 0 1 .045.059.2.2 0 0 1 .009.055m-.111-.145.048.085a.3.3 0 0 1 .028.06c.003.015.001.041.009.053m-.088-.147c.033.049.085.128.085.188m-.073-.126c.006.015.012.035.019.048a.16.16 0 0 1 .019.085m-.049-.081c0 .032.025.052.026.085l.002.06m-.054-.057c.003.025.033.04.04.064a.2.2 0 0 1-.002.052m-.058-.088q.001.038.005.074c.001.019.002.029-.012.043m-.037-.065v.055c0 .012.005.029-.012.014-.01-.009-.012-.021-.019-.031-.018-.026-.017.04-.017.05 0 .005-.005.011-.005.01-.013-.007-.016-.036-.028-.036-.009 0-.006.019-.009.028-.013.042-.01-.007-.01-.022 0-.016-.012-.026-.012-.043" stroke-width="1.246"/></g><path d="M13.253 11.713c.011-.011.047-.016.047-.016l.033-.041.029.011.045-.064m.041-.058c-.003.007-.001.006-.003.012l-.004.011q-.003.004-.004.009c0 .009-.007.012-.007.021v.015m.069-.107c-.003.019-.002.035-.009.051v.005c-.002.006-.01.025-.015.028m.053-.126c-.007.036.006.09-.025.111m.071-.175c0 .034.006.082-.009.112-.003.006-.024.04-.024.045m.056-.107q.006.03.016.059l.008.017c.008.02.005.004.009-.015.004-.018.003-.046.003-.066 0-.066-.002.072.021.062.015-.007.011-.117.011-.142 0-.046.001-.012.007.009.002.007.013.095.029.072.023-.032.015-.078.015-.114" stroke-width=".623"/><path d="M12.144 7.186c-.005.01-.004.032-.004.043q-.001.01.001.02a.1.1 0 0 1 .005.028m.031-.073q-.003.024-.001.049c.002.025-.003.051.004.063m.024-.071a.2.2 0 0 0 .001.068c.001.007.003.054.007.055m.034-.072c-.011.038-.001.093.004.13m.008-.157c.01.025.008.093.008.12 0 .024.002.058.007.083" stroke-linejoin="round" stroke-width=".312"/></g><path fill="#1f1a17" d="M-48.205-25.594v-.019l.002-.006v-.018l.002-.005v-.006l.001-.006.001-.006.001-.006v-.011l.002-.005v-.01l.002-.004v-.007l.001-.003v-.004l.001-.001.008.003v.005l-.001.003v.007l-.002.004v.009l-.002.005v.006l-.001.005-.001.006v.006l-.001.006v.006l-.002.005v.012l-.001.005v.006l-.001.005v.025h-.001l-.003.011-.002-.002-.002-.003-.001-.003v-.011Z"/><path d="M12.318 7.403a.33.33 0 0 0-.012.17m.024-.156a.5.5 0 0 0 .002.211" fill="none" stroke="#1f1a17" stroke-linejoin="round" stroke-width=".009"/><path fill="#1f1a17" d="m-48.123-25.454-.002-.008-.002-.008v-.008l-.003-.009-.001-.008-.001-.01-.002-.008-.001-.01v-.009l-.002-.01-.001-.008-.001-.01v-.017l-.002-.009v-.032l.001-.008.001-.006v-.007l.002-.006.001-.005.002-.006.008.004-.001.004-.002.005v.006l-.002.005v.007l-.001.007v.04l.001.01v.008l.001.009.001.009.002.01v.008l.002.01.002.008v.01l.002.008.001.009.002.008.001.008.002.007v.008l.003.007.001.006.001.006.002.005v.005l.003.004-.01.003v-.005l-.002-.005-.001-.005-.001-.006-.002-.007v-.007Z"/><path d="M12.379 7.484a.2.2 0 0 0-.006.057c.001.014.023.107.025.121m.009-.161a.4.4 0 0 0 .037.152m.023-.12c-.005.023-.007.131.011.143m.046-.036c-.014.042.004.092.012.131m.043-.067a.4.4 0 0 0 .031.186m.002-.138c.002.037.02.076.021.115.001.025.016.049.019.071m.019-.151c-.02.049.009.158.027.202m.038-.083q-.002.02.004.037c.007.019.007.037.012.056.003.012.007.058.013.067m.012-.037c.008.031.012.067.029.092.015.023.025.051.04.074m.085-.006c-.013.041.001-.013.001.015q.001.016.007.032c.004.013.008.031.012.041.005.013.02.028.023.041m.265-1.028c0 .038-.045.071-.053.108a.4.4 0 0 0-.011.104m.026-.186c-.009.025-.051.077-.058.103-.006.02-.004.046-.004.07" fill="none" stroke="#1f1a17" stroke-linejoin="round" stroke-width=".312"/><path d="m13.164 7.344-.006-.006.001-.001.001-.001.001-.001.001-.001.001-.001.001-.001.001-.001.001-.001.001-.001.001-.001.001-.001.001-.001.001-.001.001-.001.001-.001.001-.001.002-.002.001-.001.001-.001.001-.001.001-.001.001-.001.001-.001.001-.001.001-.001.001-.001.001-.001.001-.001.001-.001.001-.001.001-.001.007.005-.001.001-.001.001-.001.001-.001.001-.001.001-.001.001-.001.001-.001.001-.001.001-.002.002-.001.001-.001.001-.001.001-.002.002-.001.001-.001.001-.001.001-.001.001-.001.001-.001.001-.001.001-.001.001-.001.001-.001.001-.001.001-.001.001-.001.001-.001.001-.001.001zm-.006-.006.006.006h-.005zm-.035.115h-.009v-.035l.001-.004.001-.004.001-.004.001-.004.001-.004.001-.003.001-.003.001-.003.001-.003.001-.003.002-.003.002-.003.002-.003.002-.003.002-.003.002-.003.002-.003.002-.003.002-.003.003-.003.003-.003.003-.003.003-.003.003-.003.006.006-.003.003-.003.003-.003.003-.003.003-.002.003-.002.003-.002.003-.002.003-.002.003-.002.003-.002.003-.002.003-.001.003-.001.003-.001.003-.001.003-.001.003-.001.003-.001.003-.001.003-.001.003-.001.003-.001.004-.001.004v.034z" fill="#1f1a17"/><path d="M13.144 7.294c-.001.018-.021.046-.032.06-.004.005-.008.016-.012.023-.005.008-.005.019-.011.025m.002-.109a.2.2 0 0 0-.023.063m-.015-.063c-.015.001-.029.027-.034.04m-.014-.052-.04.041m-.005-.04c-.014-.003-.043.021-.046.035" fill="none" stroke="#1f1a17" stroke-linejoin="round" stroke-width=".312"/><g fill-rule="evenodd" stroke="#1f1a17"><path d="M13.679 5.769a.08.08 0 0 0 .031.057.1.1 0 0 0 .05.017c.026-.001.065-.032.054-.089-.07-.012-.074-.004-.135.014z" fill="#fff" stroke-width=".035"/><path d="M13.704 5.766a.1.1 0 0 0 .011.04c.014.029.079.028.079-.015 0-.006.001-.042-.011-.043a.1.1 0 0 0-.043.005c-.007.003-.032.009-.036.014z" fill="#1f1a17" stroke-width=".008"/><path d="M13.752 5.812c.011-.005.014-.01.02-.02l.001-.003.002.021c-.001.006-.009.008-.015.006z" fill="#fff" stroke-width=".008"/></g><path d="M12.825 6.304c.169 0 .255-.098.427-.098.086 0 .158.008.228.022.039.008.083.007.124.027.063.038.056.111.004.123a.3.3 0 0 1-.123-.001c-.107-.033-.31-.114-.415-.063a.4.4 0 0 1-.155.038c-.025.001-.046.005-.069-.006-.014-.007-.046-.035-.02-.043z" fill="none" stroke="#1f1a17" stroke-linejoin="round" stroke-width=".017"/><g fill-rule="evenodd"><path d="M12.825 6.304c.169 0 .255-.098.427-.098.086 0 .158.008.228.022.039.008.083.007.124.027.063.038.056.111.004.123a.3.3 0 0 1-.123-.001c-.107-.033-.31-.114-.415-.063a.4.4 0 0 1-.155.038c-.025.001-.046.005-.069-.006-.014-.007-.046-.035-.02-.043z" fill="#a92211"/><g stroke="#1f1a17"><path d="M13.342 6.148c.003.002-.007.047-.008.053-.002.018-.004.042-.009.06-.001.004-.01.041-.015.036a.27.27 0 0 1-.056-.138z" fill="#fff" stroke-width=".026"/><path d="m12.584 11.784.027-.006a.4.4 0 0 1 .066-.03l.12-.017.027-.015.029-.007.034-.008-.01.009c-.01.009-.034.016-.034.016l.023.014-.018.008-.135.012-.118.065-.02-.043h.007zm.06.114.041-.045.041-.013.066.012-.067.016s-.036.021-.04.021l-.027.017z" fill="#1f1a17" stroke-width=".008"/></g></g><g stroke="#1f1a17"><path d="M12.522 11.714c.013-.007.03-.017.043-.017.006 0 .018-.006.025-.008.015-.003.03-.012.045-.012.008 0 .025-.003.029-.008" fill="none" stroke-width=".052"/><path fill="#d1a345" fill-rule="evenodd" stroke-width=".008" d="M-44.52-21.026v.02l.045-.03.043-.044.057-.032.031-.012-.033-.028-.026-.002-.039.003-.049.04-.022.05Z"/><path d="m13.504 5.758.106-.018c.06-.017.122-.07.181-.092v-.005l-.029.002-.042.026-.057.039-.052.031" fill="none" stroke-width=".008"/></g><g fill-rule="evenodd"><path fill="#1f1a17" stroke="#1f1a17" stroke-width=".008" d="m-46.686-27.427-.038.018-.04.022-.036.02-.028.018-.037.012.002-.004.058-.035.022-.014.026-.018.019-.015.015-.011.044-.006ZM13.095 5.859c-.035.008-.139.021-.128.073a.1.1 0 0 0 .031.054c.012.012.051.089.077.068.028-.021.025-.018.031-.049.004-.018-.007-.032-.017-.046s.037-.029.042-.043c.013-.034-.03-.044-.036-.058z"/><path d="M13.052 5.857q-.012 0-.019.01l-.017.008c-.023.012.004.037.023.018l.024-.023c.011-.011-.002-.014-.01-.013" fill="#fff"/></g><path d="M13.449 7.091c-.043.076-.157.231-.177.313.03-.027.143-.077.163-.094" fill="none" stroke="#1f1a17" stroke-width=".069"/><path d="m11.777 4.518-.072.013-.101.996-.713.039v.127l.885.117.882-.117v-.127l-.713-.039-.101-.996z" fill="#405a9f"/><path fill="#405a9f" d="M11.582 5.637h.387v6.169h-.387z"/><path d="m11.775 4.402.149.148-.149.149-.148-.149zm-.947 1.082.148.148-.148.149-.149-.149zm1.896 0-.148.148.148.149.149-.149z" fill="#d1a345" stroke="#405a9f" stroke-width="2.813"/><path fill="#d4cac6" d="M11.703 5.637h.146v1.909h-.146z"/><path d="M11.348 5.471h.856v.377h-.856zm.429 5.815a.3.3 0 0 0-.094.13l.052.114c-.026.002-.092-.001-.153.013v.264c0 .047.055.156.195.156s.192-.11.192-.156v-.264c-.061-.014-.124-.011-.15-.013l.049-.114a.3.3 0 0 0-.091-.13zm0-1.234a.5.5 0 0 0-.195.029c-.034.034-.034.129 0 .169.062.007.105.016.195.016s.13-.01.192-.016c.034-.04.034-.135 0-.169a.44.44 0 0 0-.192-.029zm-.001-1.842a.5.5 0 0 0-.195.029c-.034.034-.034.129 0 .169.062.007.105.016.195.016s.13-.01.192-.016c.034-.04.034-.135 0-.169a.44.44 0 0 0-.192-.029z" fill="#d1a345" stroke="#103e6f" stroke-width=".938"/><path d="M15.824 10.234c.359-.77.248-1.994.308-2.999 0 0-.306-.061-1.105-.061s-1.105.061-1.105.061c.06 1.006-.051 2.229.308 2.999.171.367.373.624.797.83.424-.206.626-.462.797-.83z" fill="#405a9f" stroke="#d1a345" stroke-width=".08"/><g fill-rule="evenodd"><path d="m14.871 8.581.174-.174.174.174-.174.174zm.174.291-.291-.291.291-.291.291.291zm.756.058-.174.174-.291-.291.058-.058.232.232.058-.058-.291-.291-.291.291.291.291.058-.058-.232-.233.058-.058.291.291-.174.174-.349-.349-.349.349-.174-.174.291-.291.058.058-.232.232.058.058.291-.291-.291-.291-.291.291.058.058.232-.232.058.058-.291.291-.174-.174.349-.349-.349-.349.174-.174.291.291-.058.058-.233-.232-.058.058.291.291.291-.291-.291-.291-.058.058.233.232-.058.058-.291-.291.174-.174.349.349.349-.349.174.174-.291.291-.058-.058.232-.233-.058-.058-.291.291.291.291.291-.291-.058-.058-.233.232-.058-.058.291-.291.174.174-.349.349z" fill="#d1a345"/><path d="M11.582 6.456c-.112.209-.126.358-.035.591.011.028.022.048.055.05.007 0 .048.09.07.104.009.005.096.076.096.034 0-.044-.053-.109-.075-.148-.002-.004.037.034.091.052.078.026-.059-.181-.078-.204-.004-.005.054.019.085.026.104.023.012-.07-.011-.105-.025-.037-.111-.078-.035-.078.128 0 .042-.048-.002-.11-.05-.071-.101-.15-.163-.212" fill="#1f1a17"/><path d="M11.554 6.546c0 .124-.068.237-.022.357.006.017.069.174.088.105.018-.065-.026-.096-.014-.153.015-.077-.027-.15.005-.231.016-.04-.006-.106-.057-.078" fill="#a92211"/></g><path d="M11.642 6.601c-.04 0-.023.061-.014.082.027.061.076.078.138.078.021 0 .003-.008-.008-.021-.009-.012-.029-.021-.039-.032q-.025-.025-.049-.055c-.013-.016-.019-.04-.028-.052m.033.201c-.012-.011-.064-.009-.045.033.025.056.09.102.153.106.025.002-.034-.055-.045-.065-.012-.012-.053-.062-.063-.074m.013.152c-.016-.015-.025-.038-.046-.011-.047.063.074.143.11.177.017.016.017.015.015-.008a.3.3 0 0 0-.042-.093c-.016-.021-.021-.047-.038-.064m-.015.144c-.005-.011-.016-.054-.032-.055-.038-.004-.031.045-.014.069l.055.077c.013.018.085.08.056.017l-.03-.057c-.008-.014-.03-.04-.036-.051" fill="#bb9858" fill-rule="evenodd"/><path d="M12.001 6.512c-.02-.006-.041-.025-.067-.016-.032.01-.09.083-.114.117-.005.008-.051.055-.044.055.029 0 .05.005.077-.012.026-.016.042-.036.072-.036.011 0 .078.012.078-.004 0-.035.004-.068-.001-.103z" fill="#1f1a17" fill-rule="evenodd"/><path d="M11.981 6.519c-.018-.001-.037-.011-.059-.002-.027.011-.069.068-.086.095-.004.006-.038.044-.032.043.025-.004.044-.003.065-.019.021-.015.032-.03.058-.034.009-.001.059-.001.057-.012-.004-.024-.002-.047-.002-.071" fill="#bb9858" fill-rule="evenodd"/></svg>