<svg xmlns="http://www.w3.org/2000/svg" width="25" height="16.667" viewBox="0 0 25 16.667"><path d="M0 0h25v16.667H0z" fill="#fff"/><path d="M0 0h25v5.556H0z" fill="#ed2024"/><path d="M0 11.111h25v5.556H0z" fill="#278e43"/><path d="m12.5 4.167.312 2.118.923-1.932-.326 2.116 1.451-1.574-.935 1.926 1.851-1.077-1.462 1.565 2.086-.483-1.858 1.065 2.136.153-2.089.47 1.996.776-2.135-.167 1.678 1.33-1.991-.789 1.212 1.765-1.67-1.341.638 2.044-1.2-1.773.007 2.141-.624-2.048-.625 2.048.007-2.141-1.2 1.773.638-2.044-1.67 1.341 1.212-1.765-1.991.789 1.678-1.33-2.135.167 1.996-.776-2.089-.47 2.136-.153-1.858-1.065 2.086.483-1.462-1.565 1.851 1.077-.935-1.926 1.451 1.574-.326-2.116.923 1.932z" fill="#febd11"/></svg>