<svg width="25" height="16.667" viewBox="0 0 23.438 15.625" xml:space="preserve" xmlns="http://www.w3.org/2000/svg"><g fill-rule="evenodd"><path d="M0 0h23.438v15.625H0z" fill="#2042a1"/><path d="M0 5.208h23.438v10.417H0z" fill="#da2d1c"/><path d="M0 10.417h23.438v5.208H0z" fill="#007e3c"/></g><path d="m11.719 1.302.22.674.709.002-.572.418.217.675-.574-.415-.574.415.217-.675-.572-.418.709-.002zm3.557 1.295.22.674.709.002-.572.418.217.675-.574-.415-.574.415.217-.675-.572-.418.709-.002zm1.893 3.278.22.674.709.002-.572.418.217.675-.574-.415-.574.415.217-.675-.572-.418.709-.002z" fill="#fff" fill-rule="evenodd"/><path d="M15.625 7.813a3.906 3.906 0 0 1-3.906 3.906 3.906 3.906 0 0 1-3.906-3.906 3.906 3.906 0 0 1 3.906-3.906 3.906 3.906 0 0 1 3.906 3.906" fill="#fff7ff"/><path d="m16.511 9.603.22.674.709.002-.572.418.217.675-.574-.415-.574.415.217-.675-.572-.418.709-.002zm-2.9 2.433.22.674.709.002-.572.418.217.675-.574-.415-.574.415.217-.675-.572-.418.709-.002z" fill="#fff" fill-rule="evenodd"/><g fill="#299c3a"><path d="M.615-16.823c-.044 0-.242-.178-.25-.332l-.08.01a.24.24 0 0 1-.12.227c-.002.034.022.073.008.108-.076-.005-.193.005-.257-.008l-.031.015-.071-.073a1 1 0 0 0-.164-.144l.09-.022c-.058-.333 1.351-.518 1.036-.069.061.03.108.105.166.137a.56.56 0 0 1-.31.23z"/><path d="m.615-16.823.022.079a.5.5 0 0 1-.26.014c.08.074.155.188.238.279-.11.058-.078.097-.193.093.032.21-.044.4-.078.586a1.2 1.2 0 0 1-.281-.35c-.012.06-.059.11-.069.174a1.2 1.2 0 0 1-.298-.213c.008-.05.189-.33.2-.38.206-.01.091-.157-.009-.262l.032-.015c.063.013.18.003.256.008.015-.035-.01-.076-.007-.108q.122-.08.12-.227l.08-.01c.008.154.205.332.25.332m-.174-1.46c.024.024.09.107.1.122-.012.051-.03.13-.056.176-.09.044-.025.034-.078.102 0-.007-.056.01-.064.015l.03.144c-.142.022-.257.022-.41.042-.013-.044-.035-.345-.045-.391.159-.08.3-.205.523-.21m-.782-.45-.022-.012q-.014.01.022.012m0 .05q0 .006.01.004zm-.146-.064c-.115-.054-.237-.169-.12-.367.11.066.212.125.29.222.037-.07.137-.122.179-.195.1.093.22.205.237.352.032.005.078-.01.11.002.024.017-.025.064-.007.086.039.007.08-.003.117.002-.015.232-.19.276-.376.235-.11-.118-.294-.142-.286-.284l.002-.017-.039-.005a.5.5 0 0 1-.1-.036"/><path d="M-.081-18.405q.02.085.034.166c-.076.01-.115-.008-.188-.03-.003.025.01.088-.015.108q-.039-.113-.107-.14l-.02-.004q-.085-.017-.154.122l-.11.012c.008-.14.003-.22.098-.31-.039-.015-.103-.022-.142-.027-.012.002.013-.064.01-.064q.11.02.2.04a.5.5 0 0 0 0-.198v.066h-.012v-.081a.5.5 0 0 0 .1.037l.04.005-.003.017c-.007.141.178.166.286.283z"/><path d="M-5.064-14.973c.259-.174.52-.32.798-.465l.152-.078.112-.056.093-.049.059-.03a3.4 3.4 0 0 0 .496-.32l.163-.131.022.012a.7.7 0 0 0 .218-.21c.244-.2.488-.396.779-.532l.085-.037q.196-.068.391-.12a1.2 1.2 0 0 0 .523-.242c.142-.127.168-.295.273-.422l.003-.005a.7.7 0 0 1 .12-.103c.092-.066.195-.122.263-.21a.8.8 0 0 0 .137-.34l.02.006-.003.005c.069.078.078.178.052.29a1 1 0 0 1-.127.286q-.025-.005-.005.007-.025.003-.003.005a3.2 3.2 0 0 1-.42.518h-.005q-.012.005 0 .003l.005-.005c.164-.025.362.06.515.173a1 1 0 0 1 .164.144l.071.074c.1.107.215.254.01.26h-.008c-.073-.004-.197-.14-.3-.243a.7.7 0 0 0-.12-.103c-.378-.208-.62-.1-.928.044l-.137.063-.046.02c-.327.14-.599.178-.882.442-.247.225-.46.445-.728.618a2 2 0 0 1-.256.144l-.294.147q-.232.124-.461.261l-.198.115q-.073.042-.134.09c-.25.193-.391.465-.655.638l-.005-.007c-.103-.105-.208-.2-.278-.313a5 5 0 0 1 .466-.35"/><path d="M-.189-18.027a1 1 0 0 0 .11-.046 3 3 0 0 0-.049.413c-.053-.005-.254-.054-.307-.061a1 1 0 0 0 .127-.286h.004a.5.5 0 0 0 .115-.022m.08 1.49a.7.7 0 0 0-.192.11l-.005-.013.002-.002c-.178-.198-.32-.32-.527-.364.127-.03.185.022.28.064.06.026.179.195.138-.035l.007-.007c.102.103.227.24.3.244"/><path d="m-1.056-16.622-.012-.005.012.007zm.225-.183c.205.041.35.163.527.363l-.002.003c-.088.041-.147.122-.21.176v-.005a.5.5 0 0 1-.115-.01c-.33-.058-.569-.398-.857-.325l-.025.008a.5.5 0 0 0-.122-.157l-.002-.005.046-.02.137-.063.01.022c.097.003.256.013.378.025l.013.01v-.037a.7.7 0 0 1 .224.015"/><path d="m-.65-16.192.017-.086a.5.5 0 0 0 .114.01v.005a1 1 0 0 0 .022.405c-.031.012-.068-.014-.097-.01.024.086-.008.191.007.279-.188-.04-.4-.059-.542-.208l.039-.049c-.01-.036.002-.124 0-.122l.056-.056a1.2 1.2 0 0 1 .01-.266l.09.007v.005l.044-.005a.4.4 0 0 0 .237.09"/><path d="M-1.022-16.29a1.2 1.2 0 0 0-.01.266l-.056.056c.003-.002-.01.086 0 .122l-.039.05c-.017.048-.056.087-.075.141-.203-.203-.875-.67-.3-.918l-.01-.02.024-.007c.286-.074.527.266.857.325l-.017.085a.37.37 0 0 1-.237-.09l-.044.005v-.005zm.19-1.502a.07.07 0 0 1 .047.022l.008.01a.7.7 0 0 0-.12.102l-.003.005-.007-.005q-.041 0-.034-.044l.005-.01a.24.24 0 0 1-.086-.115h-.01c-.021.071-.08.152-.056.276-.044-.31-.728-.02-.657-.576.076.002.154-.051.232-.049.013-.112.071-.21.069-.33.078.052.178.04.254.076-.017-.063 0-.137-.017-.2.39.005.532.474.278.713.032.066.068.11.1.1z"/></g><path d="M-3.003-19.505a.5.5 0 0 0-.154-.088l-.017-.039c.047-.141-.127-.664.652-.242.115.062.435-.207.538-.058.088.127-.03.32-.134.369.302.13.823.359.837.674l-.005.022c-.508-.083-1.067-.452-1.641-.044h-.056l-.003-.012c-.012-.166-.029-.386-.024-.58" fill="#e6e631"/><path d="M-2.23-17.616c.439-.396.436.222.817.139-.022.19-.151.342-.288.469l.005.02q-.195.048-.39.119l-.008-.017c-.388-.064-.39-.5-.137-.73" fill="#299c3a"/><path d="M-2.898-18.757a.49.49 0 0 1 .567.28.7.7 0 0 1 .046.282h-.002a.27.27 0 0 0-.235.156l-.012-.002a.24.24 0 0 0 .022-.098c.005-.516-.593-.244-.813-.064a1.7 1.7 0 0 0-.257.267l-.014-.013a2 2 0 0 0-.044-.303l-.008-.01.064-.046.022-.022h.022c.034-.085.225-.237.325-.359-.017-.036-.04-.058-.05-.098-.006-.034-.239-.288-.253-.315-.051-.083.041-.38-.113-.251.027-.276.335-.53.455-.281l.017.039c-.208-.064-.39.095-.293.308.051.112.185.244.437.364l.032-.003.002.012h.01c-.002.06.03.123.066.135z" fill="#fff"/><path d="M-2.285-18.195h.003c-.015.244-.156.471-.227.69-.057.172-.1.338-.157.494-.044-.066-.178-.168-.268-.144l-.005-.005c.176-.23.32-.527.322-.728a.7.7 0 0 0 .086-.153l.012.002a.27.27 0 0 1 .234-.156" fill="#e6e631"/><path d="M-3.58-17.936a1.7 1.7 0 0 1 .257-.267c.22-.178.819-.452.814.064a.24.24 0 0 1-.022.098.7.7 0 0 1-.086.153q0-.034-.005-.063c-.202-1.231-1.438.76-.94.872q-.044 0-.056.034l.044.022c.083.371.388.18.632-.14l.005.006c.09-.025.225.078.269.144a1.7 1.7 0 0 1-.19.393l-.035.003-.012-.103a.7.7 0 0 0-.3-.002l-.042-.003c-.13.061-.178.315-.296.413-.078.066-.307.178-.322.293v.022c-.005.059.02.254.012.34l-.058.029-.093.049-.02-.037a2.4 2.4 0 0 1-.068-.31c-.03-.017-.059-.007-.086-.027.013-.122-.017-.254-.005-.376-.026-.015-.058-.01-.085-.027-.059-.225.083-.667-.012-.738l-.022-.002a2 2 0 0 1 .046-.254l.042.01c.034.08.031.139.144.131.08-.239.476-.823.325-.938l-.025-.026q.054-.05.117-.096l.008.01a2 2 0 0 1 .044.303z" fill="#fff"/><path d="M-2.59-13.62a1 1 0 0 1-.151-.02c.017.05.056.08.07.132-.073-.022-.095-.024-.153-.063l.022.095c-.31.049-.687-.237-.697-.557-.002-.005-.053 0-.063-.015v-.012l.085.005q.24-.2.504-.347l.056-.034c.124.183.261.364.334.57l-.124.002c.056.075.06.17.112.244m-.022-4.268c-.002.2-.146.499-.322.728-.245.318-.55.508-.633.14l-.044-.022q.012-.035.056-.035c-.498-.114.738-2.105.94-.872q.006.03.006.064m-.83 1.588c-.099.114-.28.205-.421.283.015-.117.247-.23.322-.293.118-.098.164-.352.296-.413l.042.002a.7.7 0 0 1 .3.003l.012.102a.5.5 0 0 1-.063.316l-.237.197a.32.32 0 0 1-.152-.207l-.029.005a.1.1 0 0 1-.066.01z" fill="#e6e631"/><path d="m-3.47-15.003-.002-.051q.052-.007.08-.03l.062-.038a.07.07 0 0 0 .061-.005l.076-.003a1.47 1.47 0 0 0 .28.696l-.056.035a3.4 3.4 0 0 0-.503.346l-.085-.004q.007-.081.017-.164c-.037-.005-.086.01-.12-.003.034-.09.012-.207.051-.298-.068-.017-.117-.078-.146-.16a1.2 1.2 0 0 1-.051-.289h.01l.324-.03" fill="#fff"/><path d="M-3.45-19.285c-.097-.212.086-.369.293-.308a.5.5 0 0 1 .154.088c-.005.196.01.416.025.58l-.032.002c-.254-.12-.386-.25-.437-.364m-.027 4.233.002.051-.325.03h-.01a2.4 2.4 0 0 1 .02-.416l-.012-.022.293-.146a2 2 0 0 0 .257-.144c.024.19.026.38.053.566l-.075.003a.07.07 0 0 1-.062.005l-.06.039c-.023.012-.045.029-.081.029m-.154-4.294c.154-.13.059.166.112.251.017.027.247.281.254.315.008.04.032.064.05.098-.103.122-.292.274-.326.36h-.022c-.158-.174-.307-.77-.114-.978q.026-.03.048-.046m.272 3.38a3.4 3.4 0 0 1-.496.32c.005-.085-.02-.28-.013-.34v-.021c.142-.078.32-.169.42-.283l.005.004q.04.005.066-.01l.03-.004a.32.32 0 0 0 .151.207l-.163.132m-.386-2.171c.151.117-.247.698-.325.938-.113.005-.11-.054-.144-.132l-.042-.01a1.56 1.56 0 0 1 .481-.816l.008-.007z" fill="#e6e631"/><path d="M-3.811-14.67c.051.148.024.332.049.512-.189-.029-.377-.105-.56-.151l-.012.01c.012.07-.022.163-.005.242-.188-.113-.794-.655-.225-.704-.014-.044-.017-.159-.022-.166l-.01-.012a1 1 0 0 1 .135-.09l.198-.115.002.004c-.107.333.205.174.362.333a.5.5 0 0 1 .083.136" fill="#299c3a"/><path d="m-4.131-15.604-.015-.002c0-.007-.027-.066-.03-.127-.014-.012-.058.01-.065.005-.012-.052.01-.11 0-.161-.022-.015-.064.012-.086-.003-.012-.061.005-.127-.005-.186-.01-.012-.05.003-.063-.014.061-.362.059-.69.1-.997l.022.003c.098.07-.046.513.012.737.027.017.059.013.086.027-.012.122.017.254.005.376.027.02.058.01.085.027.015.113.059.276.069.31l.02.037-.113.056-.008-.014q-.017-.03-.012-.074" fill="#e6e631"/><path d="m-5.064-15.04-.01-.01c.044-.046.085-.11.124-.156-.004 0-.024-.002-.024-.01-.107.01-.244.013-.344.032l-.044-.01c-.093-.153-.55-.473-.059-.517.017-.213.078-.403.105-.613a.8.8 0 0 1 .423.325c.085-.086.183-.09.28-.145.044.198-.036.386-.031.59.09-.028.205.019.288.002.012.029.012.068.024.097.071 0 .069.013.066.013l.003.002a7 7 0 0 0-.799.464q-.039-.027-.002-.066" fill="#299c3a"/><g fill="none" stroke="#000" stroke-linecap="round" stroke-linejoin="round"><g stroke-width="1.392"><path d="M-3.562-18.33c-.159-.173-.308-.77-.115-.977l.049-.046c.154-.13.059.166.112.251.017.027.247.281.254.315.008.04.032.064.05.098-.103.122-.292.274-.326.36m.032-.213v-.225"/><path d="M-3.628-19.348v-.005c.027-.276.335-.53.454-.281l.017.039m-.38.237c.038.012.002.032.038.012"/><path d="M-3.003-19.505a.5.5 0 0 0-.154-.088c-.207-.063-.39.096-.293.308.052.113.186.244.437.364m.022-.571-.012-.013m.012-.19a2 2 0 0 0-.012.19h0a5 5 0 0 0 .027.591"/><path d="M-3.19-19.605q.011-.007.019-.03c.046-.14-.127-.664.652-.241.115.061.435-.208.537-.059.088.127-.029.32-.134.37.303.129.823.358.838.673m-1.647-.02c.574-.407 1.134-.038 1.642.045h.005"/><path d="M-2.9-19.583a1.2 1.2 0 0 1 .315.005c.122.015.237.034.313.02"/><path d="M-2.587-19.707a.24.24 0 0 1 .002.127l-.002.007m.065-.166a1.2 1.2 0 0 1 .357-.034m-.332-.035h.146m-.527.594c.447-.137 1.29-.037 1.522.313"/><path d="M-2.71-19.067a1 1 0 0 1 .863.012m-1.366-.047c.051.003.203.025.122-.012m.013.069q-.025-.008-.035.012m.035-.012c.002.029.02-.008.022-.01m-.616.188a.5.5 0 0 0 .022.212m-.046-.525a.24.24 0 0 0-.013.135m.26-.403c-.006.09-.008.095-.003.163l.002.017m.147.4q.07-.009.141-.009a.5.5 0 0 1-.063.098m.256-.132c-.002.059.03.122.066.134m-.21.19a.4.4 0 0 1 .218-.17.49.49 0 0 1 .566.28.7.7 0 0 1 .047.282c-.015.244-.156.471-.227.69-.057.172-.1.338-.157.494a1.7 1.7 0 0 1-.19.394m-.357-.066-.022-.013m.022.013a.39.39 0 0 0-.127.373.32.32 0 0 0 .174.22.7.7 0 0 0 .217-.21.5.5 0 0 0 .064-.315l-.013-.103a.7.7 0 0 0-.3-.002"/><path d="M-2.925-16.752a.7.7 0 0 0 .123-.256m-.76-.069q-.044 0-.056.035"/><path d="M-3.562-17.077c-.498-.114.738-2.105.94-.872q.005.03.005.064c-.002.2-.146.498-.322.728-.245.317-.55.508-.633.139"/><path d="M-3.931-17.255a2.03 2.03 0 0 1 .608-.948c.22-.178.819-.452.814.064a.24.24 0 0 1-.022.098.7.7 0 0 1-.086.153l-.005.005"/><path d="M-3.897-17.155a2.4 2.4 0 0 1 .19-.247m-.202.46.169-.169m-.169.337c.056-.051.2-.2.2-.2m-.188.39a2.4 2.4 0 0 1 .303-.246m-.269.415c.11-.112.247-.215.36-.334m-.36.535c.118-.135.276-.24.403-.36m-.315.404c.11-.093.24-.198.335-.303m-.423.459c.142-.078.32-.169.42-.283l.005-.005m-.412.65c.005-.086-.02-.281-.013-.34m.425-.3q.04.004.066-.01m-.781.691v.022"/><path d="m-4.153-15.611.005.005c0-.007-.027-.066-.03-.127-.014-.012-.058.01-.066.005-.012-.052.01-.11 0-.161-.022-.015-.063.012-.085-.003-.012-.061.005-.127-.005-.186-.01-.012-.051.003-.064-.014.062-.362.06-.69.1-.997a2 2 0 0 1 .047-.254 1.56 1.56 0 0 1 .481-.816l.125-.102.063-.047"/><path d="M-3.64-18.252a2 2 0 0 1 .044.303m-.613.616c.034.08.031.14.144.132.08-.24.476-.823.325-.938m-.538 1.053c.098.07-.046.513.012.737.027.017.059.013.086.027-.012.122.017.254.005.376.027.02.058.01.085.027.015.113.059.276.069.31m-.1-1.265a3.4 3.4 0 0 0-.01.5l.141.028c-.002.049.008.122.01.176-.102.056-.073.053-.076.2a1 1 0 0 1 .145.35v.011m-.076-1.502c-.042.298-.098.535.044.794m.271.25c-.03.053-.15.295-.066.256m.21-.335a.7.7 0 0 0 .174.176l.007.005"/></g><g stroke-width="1.637"><path d="m-5.54-14.614.012-.01a5 5 0 0 1 .466-.35c.259-.173.52-.32.799-.464l.151-.078.113-.056.092-.049.06-.03a3.4 3.4 0 0 0 .495-.32l.164-.131q.122-.098.237-.198c.244-.2.488-.396.779-.532l.085-.037q.196-.068.391-.12a1.2 1.2 0 0 0 .523-.242c.142-.127.168-.295.273-.422l.003-.005a.7.7 0 0 1 .12-.103c.092-.066.195-.122.263-.21a.8.8 0 0 0 .137-.34l.005-.033"/><path d="M-5.53-14.624s0 0 0 0c.07.112.175.207.278.313m4.391-2.88c.103-.105.289-.306.42-.518l.003-.005.005-.007a1 1 0 0 0 .127-.286c.027-.11.017-.213-.051-.291m-.504 1.107h-.004q-.01.004 0 .002z"/><path d="m-5.252-14.302.004-.002c.267-.171.408-.442.655-.638a1 1 0 0 1 .134-.09l.198-.115q.232-.137.462-.261l.293-.147a2 2 0 0 0 .257-.144c.268-.173.48-.393.727-.618.284-.261.555-.3.882-.442l.047-.02.136-.063c.308-.144.55-.254.929-.044q.049.03.12.102c.102.103.227.24.3.245h.007c.205-.01.09-.157-.01-.262l-.07-.073a1 1 0 0 0-.164-.144c-.156-.112-.354-.198-.516-.173m-4.457 2.005c.1-.02.237-.022.344-.032 0 .008.02.01.024.01-.036.046-.08.11-.124.156l-.02.02m-.268-.164c-.093-.154-.55-.474-.059-.518.017-.212.078-.403.105-.613a.8.8 0 0 1 .423.325c.085-.085.183-.09.28-.144.044.198-.036.386-.031.589.09-.027.205.02.288.002.012.03.012.069.024.098.071 0 .069.012.066.012h0"/><path d="M-5.252-16.002c.053.218.312.308.366.51a.34.34 0 0 1-.017.218"/><path d="m-4.903-15.499.017.005a.6.6 0 0 0 .274.027m-.157.071c.022.027.122.18.078.09m-.212-.596c-.015.047-.015.2-.022.19m.144-.221c0 .004.007.222 0 .29m-.55.044c.071.005.257.012.27.01m-.201.08a2 2 0 0 1 .212.035m.47.547c.002.007.004.122.021.166-.569.049.037.591.225.704-.02-.076.017-.169.005-.242l.012-.01c.18.046.371.122.56.151-.025-.18.002-.364-.05-.513a.5.5 0 0 0-.082-.136c-.157-.16-.47 0-.362-.333m-.24.504-.012.012m.013-.012.002-.003h0m-.002.003-.013.256m.013-.259v.003m.234-.022.01.278"/><path d="M-4.222-14.68c-.012-.037-.031-.05-.022-.098.071.19.237.359.347.5m-.068-.124a.7.7 0 0 0 0-.225"/><path d="M-4.49-14.793c.193-.044.408-.031.515.1m1.88-2.193c-.387-.064-.39-.5-.136-.73.44-.396.437.222.818.139-.022.19-.151.342-.288.469"/><path d="M-2.197-17.592a.7.7 0 0 0 .022.335m.08.024c.013.064.02.076.013-.022m.188-.347c.01-.017 0 .066 0 .066m-.09.047c0 .029.005.168.012.234m-.056.112.212-.012m-.234.012a1 1 0 0 1 .034.2m-.212-.168c0 .025.024.069.056.09m.39-.19a.27.27 0 0 0 .157-.225m.603-.39a.24.24 0 0 0 .086.114l.017.01m-.012-.212c.031.065.068.11.1.1l.022-.013"/><path d="M-1.031-17.827c-.022.071-.081.152-.057.276-.044-.31-.728-.02-.657-.576.076.002.154-.051.232-.049.013-.112.071-.21.069-.33.078.052.178.04.254.076-.017-.063 0-.137-.017-.2.39.005.532.474.278.713l-.012.01m.1-.12h.09"/><path d="M-1.603-17.892a7 7 0 0 1 .437.012m-.493-.09c.095 0 .207.007.29.021m-.122-.1.022-.168v-.003m.034-.21v-.012m0 .012c.03 0 .022.049 0 .122m.079.022c.017-.073-.005.056-.01.08v.006m.088-.008c-.008-.024-.005.098-.012.135m.124-.022h.235m-.079.022a.7.7 0 0 0-.043.2m-.103-.57a1.5 1.5 0 0 0-.078.314m.134-.235a.4.4 0 0 1 .213.178m-.748 1.434a.5.5 0 0 1 .122.157l.01.02c-.574.248.098.715.3.918.02-.052.06-.093.076-.142.142.151.354.168.543.208-.018-.088.017-.191-.008-.279.03-.005.066.022.098.01a1 1 0 0 1-.022-.406v-.005a.5.5 0 0 1-.115-.01c-.33-.058-.569-.397-.857-.324.002-.008.029-.066.031-.083"/><path d="M-1.312-16.54c-.003.17-.086.511.066.548m.117-.318-.003-.005m-.034-.18a2 2 0 0 1 .037.185h0m.12-.05-.013.07a1.2 1.2 0 0 0-.01.266m-.056.056c.003-.002-.01.086 0 .122m.157-.434v.005a.9.9 0 0 0 .2.476m-.156-.481a.4.4 0 0 0 .237.09h.01m-.817-.618a1.7 1.7 0 0 1 .389.18l.012.008v-.002a.7.7 0 0 0 0-.162l-.012-.01a5 5 0 0 0-.379-.024m.381 0h.008a1 1 0 0 1 .224.015c.206.041.35.164.528.364l-.002.002c-.088.042-.147.122-.21.176l-.02.015"/><path d="M-.997-16.573a1.05 1.05 0 0 1 .515.168m-.484-.212c-.004.012.125-.096.213-.135m-.244.169a.2.2 0 0 0-.059-.037l-.012-.005-.01-.002m.674.29c-.014.003.037-.043.103-.09a.7.7 0 0 1 .193-.11h.007c-.012.052-.193.33-.2.381a1.5 1.5 0 0 0 .298.213c.01-.064.056-.115.068-.174.061.137.166.245.281.35.034-.186.11-.377.078-.587.115.005.083-.034.193-.092-.083-.088-.156-.203-.237-.279a.5.5 0 0 0 .26-.015.56.56 0 0 0 .31-.23c-.06-.028-.105-.107-.167-.136.316-.45-1.094-.264-1.035.068l.005.022"/><path d="m-.091-16.818.01.003c.063.012.18.002.256.007.015-.034-.01-.076-.007-.107q.122-.081.12-.228a.5.5 0 0 0-.01-.09m-.335.269a.28.28 0 0 0 .2-.247m.225.056c.008.154.205.332.25.332q.007 0 .01-.01m-.172-.253c.076.022.2.026.213.022m-.054.1c0 .002.149.068.156.068h0m-.694.222c.145.015.223-.048.213-.2m-.034.19a.37.37 0 0 0 .168.123m-.471.078a.7.7 0 0 0-.056.225m.068-.26c-.01.067.088.037.19 0m-.034.113v.169m0-.225c.115.049.279.049.325.022m-.18.112-.035.325m-.557-2.675q-.01 0-.01-.004v-.005"/><path d="m-.326-18.677-.01-.004-.007-.008-.005-.01m.01-.034-.022-.012m.022.012q-.036 0-.022-.012"/><path d="M-.382-18.71a.5.5 0 0 1-.1-.037c-.115-.054-.237-.169-.12-.367.11.066.213.125.291.222.037-.07.137-.122.178-.195.1.093.22.205.237.352.032.005.079-.01.11.002.025.017-.024.064-.007.086.039.007.08-.003.117.002-.014.232-.19.276-.376.235-.11-.118-.293-.142-.286-.284l.003-.017.005-.027"/><path d="M-.506-18.901c-.015.049-.013.102 0 .112m.315-.1.002.12a.5.5 0 0 0 .232.024m-.347.059c.01-.003.074.005.098.002a.5.5 0 0 1-.03.108m.18-.01c.07.007.197.027.234.034m-.662-.112h.012m0-.069a.5.5 0 0 1 0 .198q-.088-.015-.2-.039c.002 0-.022.066-.01.064.039.004.1.012.141.026-.095.09-.09.171-.097.31l.11-.012c.041-.095.1-.132.154-.122l.02.005q.068.027.107.14c.024-.018.012-.081.014-.108.074.022.113.039.188.03q-.014-.081-.034-.167a.5.5 0 0 1-.142.03c-.01-.025-.01-.106-.024-.123m.166.428a3 3 0 0 0-.049.413c-.053-.005-.254-.054-.307-.061q-.025-.005-.005.007m.361-.36c.159-.08.3-.204.523-.21.024.025.09.108.1.123-.012.051-.03.13-.056.176-.09.044-.025.034-.078.102 0-.007-.056.01-.064.015l.03.144c-.142.022-.257.022-.41.042-.013-.044-.035-.345-.045-.391m-.225.068a.5.5 0 0 0 .115-.022 1 1 0 0 0 .11-.046"/><path d="M-.189-18.1v.073a2.4 2.4 0 0 1-.014.335m.212-.303a.7.7 0 0 1-.044.225m.166-.144c.137-.03.232-.118.247-.235m-.335.804c.044-.088.118-.14.147-.235l.063.012a.5.5 0 0 1-.144.245"/></g><g stroke-width="1.392"><path d="M-3.784-15.386a2.4 2.4 0 0 0-.02.415 1 1 0 0 0 .051.288c.032.083.079.144.147.161-.04.09-.017.208-.051.298.034.013.083 0 .12.003q-.013.08-.018.164v.012c.01.014.061.01.064.014.01.32.386.606.696.557l-.022-.095c.056.037.08.042.154.064-.015-.052-.052-.083-.071-.132.039.007.115.022.151.02-.05-.074-.056-.17-.112-.245l.125-.002c-.074-.206-.21-.386-.335-.57a2 2 0 0 1-.154-.259 1.5 1.5 0 0 1-.127-.437c-.027-.188-.03-.376-.054-.567v-.002"/><path d="M-3.616-15.408a.4.4 0 0 0-.012.224m.1-.056q-.007.088.003.179l.05.01q.052-.008.081-.03m-.078-.35c0 .047.017.208.034.28m-.359.18.325-.03q.061-.004.088-.002m.025-.137.026.018a.07.07 0 0 0 .062-.005m-.435.178v.335m.234.561q.24-.2.503-.346"/></g><path d="m-5.038-15.061-.026.022q-.035.039.002.066l.002.002" stroke-width=".046"/><path d="M-4.131-15.611v.005q-.005.044.012.073" stroke-width=".039"/><path d="M-.853-17.792h.022a.07.07 0 0 1 .046.022m-.156.068q-.007.044.034.044m.513-.044-.049-.005q-.024-.005.003-.005m-.044-1.02v-.079m0 .235v-.157m.012.135v-.14" stroke-width="1.637"/><path d="M-2.934-17.155c.09-.024.224.078.268.144v.003m.144-1.031a.27.27 0 0 1 .235-.156" stroke-width=".039"/><path d="m-.858-16.796.027-.007c.127-.03.185.022.28.063.06.027.179.196.138-.034" stroke-width=".046"/><path d="M-3.863-15.997v-.017h0c.015-.117.247-.23.323-.293.117-.098.164-.352.295-.413l.027-.01" stroke-width=".039"/></g><path d="M-2.905-18.398a1.2 1.2 0 0 1-.21.093m-.144 1.443c-.017.15-.266.545-.418.599-.3.107-.34-.235-.354-.472a1.8 1.8 0 0 1 .31-1.033m-.007-.007a.5.5 0 0 1 .127-.135" stroke-width="1.392" fill="none" stroke="#000" stroke-linecap="round" stroke-linejoin="round"/><path stroke="#000" stroke-linecap="round" stroke-linejoin="round" stroke-width=".039" d="M-3.247-19.365a.024.024 0 0 1-.02.022.024.024 0 0 1-.022-.022.022.022 0 0 1 .042 0"/><path d="M-3.33-19.212c.149.127.308-.012.217-.193" fill="none" stroke="#000" stroke-width=".039"/><path d="M-3.171-18.041a.7.7 0 0 0-.125.33c.059.019.086-.015.117-.032m.16-.189c-.037.096-.245.506-.008.323m-.271-.017c-.096.088-.171.2-.169.337.071.024.078-.017.127-.059m.286-.176a.54.54 0 0 0-.176.333c.064.039.078 0 .125-.027m-.21-.035c-.083.086-.132.191-.11.296a.34.34 0 0 0 .154-.066m.44-.933a1 1 0 0 0-.11.415c.007 0 .036-.002.04.003q.025-.042.052-.078m-.11.185a.7.7 0 0 0-.049.159c.04.005.059-.015.093-.024m-.444-.626a1.5 1.5 0 0 0-.142.337c.032-.007.046-.049.049-.049m-.135 2.707a1.47 1.47 0 0 0 .154.747m-.078-.757c.017.222.017.496.154.68m-.068-.663q-.01 0-.008.008m.008-.008a1.05 1.05 0 0 0 .136.57m-.01-.604c.06.186.155.335.17.535m-.22-.474c.019.15.063.288.102.433m.186.156a2.4 2.4 0 0 0 .288.413m-.4-.333c.07.181.229.509.378.555m-.474-.476c.054.151.222.618.374.571m-.484-.481c.054.215.147.332.283.481" stroke-width="1.392" fill="none" stroke="#000" stroke-linecap="round" stroke-linejoin="round"/><path d="m9.826 12.036.22.674.709.002-.572.418.217.675-.574-.415-.574.415.217-.675-.572-.418.709-.002zm-2.9-2.433.22.674.709.002-.572.418.217.675-.574-.415-.574.415.217-.675-.572-.418.709-.002zm-.657-3.728.22.674.709.002-.572.418.217.675-.574-.415-.574.415.217-.675-.572-.418.709-.002zm1.893-3.278.22.674.709.002-.572.418.217.675-.574-.415-.574.415.217-.675-.572-.418.709-.002z" fill="#fff" fill-rule="evenodd"/></svg>