<svg width="25" height="16.667" viewBox="0 0 25 16.667" xml:space="preserve" xmlns="http://www.w3.org/2000/svg"><path fill="red" d="M0 0h25v16.667H0z"/><g fill="#fff"><path d="M1.25.833h1.188v15H1.25zm2.222 0H4.66v15H3.472zm2.222 0h1.188v15H5.694z"/><path d="M12.353 10.713s.002-.124.087-.468c.102-.413.417-1.205 1.5-2.287 2.151-2.151 4.832-4.128 7.666-3.816-1.319.652-2.599 1.253-3.697 2.01-1.062.732-1.891 1.841-2.636 3.101-.219.371-.554 1.37-.614 1.686h6.435c.609.002 1.076.551 1.093 1.162a.597.597 0 0 1-.547.608s-7.597-.002-10.355-.001c-1.873 0-1.687-1.211-1.454-1.486.265-.314 1.595-.282 1.595-.282l.015-5.569c.001-.393-.561-.246-.561-.715 0-.422.17-.499.545-.625.19-.064.336-.122.598 0 .397.183.356.533.371.677.04.382.045 1.686.045 1.686z" fill-rule="evenodd"/></g></svg>