<svg xmlns="http://www.w3.org/2000/svg" width="25" height="16.662" viewBox="0 0 25 16.662"><style>.B{stroke-width:.521}.C{stroke-linecap:round}.D{stroke-linejoin:round}</style><path fill="#ffcd00" d="M0 0h25v16.662H0z"/><path d="M0 16.662h25V0z" fill="#ff671f"/><g stroke="#000"><g fill="#fff" class="B"><path d="M13.387 5.212q-.213-.075-.225.2c-.013.275.1.287.237.213z"/><path d="M13.5 4.875q-.187-.125-.275.125c-.088.25 0 .3.15.275z"/><path d="M13.7 4.55q-.163-.175-.288.075c-.125.25-.05.3.112.3zm-.125 1.575c-.175.063-.188.3-.075.438s.3.175.413 0z"/><path d="M13.375 5.638c-.163-.05-.3.163-.325.363-.037.25-.375.325-.188.7.037-.237.2-.363.325-.375s.313-.037.388-.188zm.513.963c-.188.05-.213.3-.075.475.112.15.475.112.462-.037zm.537 1.512c.013-.163-.25-.225-.375-.188s-.363 0-.425-.137q-.075.175.2.287c.137.05.137.137.1.188.1.013.413.013.5-.137z"/><path d="M14.262 7.075c-.188-.075-.287.037-.363.163-.1.175-.425-.05-.525.188.15-.063.287.075.363.112.2.125.575.088.625-.213z"/><path d="M14.375 7.287q-.263.225-.25.413c.013.188.163.363.325.375.1-.2.15-.625-.075-.787zm-.762.863c0-.063.1-.1.163-.075s.175.088.137.163zM12.6 7.787c-.013-.075.112-.225.287-.137s.2.225.125.287z"/><path d="M13.025 7.925c-.013-.05.112-.137.325-.075s.263.188.263.3zm-.45-.15c.112-.088.075-.25-.037-.3-.188-.088-.113-.325-.238-.363s-.225-.124-.237-.199q-.076.174.062.287c.137.113-.062.363.037.438zm-2.4-.062c-.1-.15-.312-.126-.412-.013s-.075.25.013.325zm.538-.226c-.038-.2-.275-.225-.4-.174s-.225.25-.138.387l.538-.225z"/><path d="M11.075 7.475c.087-.162-.075-.413-.262-.45-.163-.025-.338-.025-.401-.187-.037.137.063.224.176.299s-.025.275.162.388z"/><path d="M11.063 7.475c-.038-.113.037-.275.2-.263s.25.125.188.275z"/><path d="M11.412 7.487c-.024-.125.076-.262.238-.237s.237.163.137.3z"/><path d="M11.775 7.55c-.013-.125.087-.263.25-.225s.225.175.125.3zm-2.7 2.05c-.3 0-.375.075-.413.375-.05.388.475.425.413-.375z"/><path d="M9.213 9.188c-.463-.176-.713.55-1.163.425.163.263.563 0 .713.025.25.05.787-.05.462-.45zm-.3 1c-.225-.1-.475.25-.425.4.062.187.575.037.424-.4zm-1.063 1.5c.125.037.275.112.25.35s-.487.737-.9.762-.563.525-.912.388c.325-.063.325-.438.588-.55-.188-.063-.287.363-.525.363s-.363.388-.65.363-.325.462-.912.475c-.45 0-1.012.537-1.213.3.438-.063.613-.3.875-.575.425-.425.9-.237 1.05-.613a1.25 1.25 0 0 1-.637.188c-.275 0-.575.438-.887.237.175-.025.3-.1.487-.3s.475-.075.7-.275c.349-.326.649-.051.986-.451-.1-.05-.3-.012-.487.088s-.426-.063-.65.05c.025-.263.524-.113.837-.3.35-.201.65-.151.925-.125-.387 0-.538-.375-1.075-.263-.237.05-.425-.325-.65-.137.013-.137.25-.25.5-.112s.35-.113.85.199c.2.125.563-.075.787.063-.025-.088-.162-.138-.312-.125.1-.188.7-.163.963.025z"/><path d="M8.25 11.4c-.2-.15-.475.038-.663-.037a.41.41 0 0 0 .263.388l.388-.351z"/><path d="M8.55 10.963c-.312-.163-.362.237-.6.15.013.112.1.25.3.287l.313-.437z"/><path d="M8.737 10.612c-.45-.174-.512.263-.787.175.063.15.45.237.65.175zM9.362 8.7c-.124-.175-.375-.038-.412.175s.063.487.225.425l.188-.588z"/><path d="M9.675 8.162c-.212-.049-.45-.024-.425.176-.075.037-.1.299.113.362z"/><path d="M9.813 8.025c-.2-.238-.438-.238-.563-.137-.238.187-.463.075-.475.262.137-.113.262.025.387-.012s.2.188.525.088zm-.5 3.6c.037.063.224.088.312-.012.125-.125-.012-.488-.213-.525s-.212.412-.112.537z"/><path d="M9.088 11.638c.287.099.4-.125.25-.275z"/><path d="M8.037 12.025c-.05.163-.324.188-.65.687s-.613.287-.688.637c.375-.3.675-.1.9-.4.338-.45.625-.388.75-.7.189-.436 1.014-.424 1.051-1.112-.275-.049-1.15.688-1.363.9zm7.062-6.763c.363.112.363.588.775.737s.45.513.787.425c-.311-.086-.286-.449-.611-.537-.388-.099-.525-.687-.837-.775m1.525 2.575c.063.137.05.4-.175.462.125.075.3 0 .4-.163-.15.325-.05.625.188.675-.112-.225.137-.338.063-.487.15.063.275.263.275.388.188-.213-.137-.5-.075-.7zm-2.313 2.3c-.225-.187-.312.051-.425-.037-.1-.075-.238-.087-.287-.012.188.013.1.15.462.188-.363.025-.3.438-.537.413.263.25.388-.225.6-.137-.063.013.1.163-.013.363.175 0 .25-.25.275-.388zM9.6 12.075c-.075-.063-.313-.1-.4-.05s-.063.063.05.075.25.188.013.188c-.112 0-.075.263-.3.287.088.112.35.037.45-.088-.013.1.112.188.063.313.163.013.075-.338.325-.313-.112.013-.063.25.125.188-.112.05-.05.188.075.15-.075.025-.112.125 0 .188.112-.151-.013-.675-.413-.95zm9.738-4.938c.338 0 .625-.275.625-.625s-.275-.625-.625-.625-.625.275-.625.625.275.625.625.625z"/><path d="M16.087 7.888c.188-.175.475-.263.675-.137s.85.3 1.175.075.475-.338.613-.313q.163.237.4.25c.05.05.225.1.325.088q.225.063.45-.163c.213.037.413-.125.487-.375.225-.025.237-.287.1-.45-.137-.025-.037-.475-.525-.388.2.125.05.375.225.487-.112 0-.263.05-.3.225.05-.125-.013-.2-.037-.225 0-.1-.225-.35-.438-.263.15.037.063.287.175.375a.25.25 0 0 0-.213.112.63.63 0 0 0-.388-.225l-.024-.136a.63.63 0 0 1-.075-.4 1.3 1.3 0 0 0-.25.388c-.175-.112-.588.05-.787.1s-.862-.063-1.013-.225-.45-.263-.725-.338c-.375-.112-.388-.525-.8-.813a7.5 7.5 0 0 0 .963 2.337zM11.7 11.837c.325 0 .6-.262.6-.599s-.263-.601-.6-.601-.6.263-.6.601.263.6.6.6z"/><path d="M10.275 11.388c.125.163.325.15.413.137.075.188.3.188.4.287s.437.1.537.038a.63.63 0 0 1-.312-.162c-.138-.113-.075-.338-.176-.425.076-.088.101-.238.076-.3q.137-.088.162-.176a.63.63 0 0 0 .325-.137c.075.075.263-.025.375.1.025-.3-.262-.45-.45-.35-.075-.038-.275-.013-.312.038-.063-.026-.238.062-.313.125.088-.051.1-.201.063-.25q.125-.076.175-.213c.112.013.262-.05.337-.037-.112-.151-.312-.2-.5-.188-.2.013-.288.15-.313.313-.125.074-.162.312-.112.4q-.125.024-.163.1a1.3 1.3 0 0 0-.325-.076m.038-.237c-.038-.113.012-.225.037-.312q.125-.338-.187-.263a2.5 2.5 0 0 0 .138.575z"/><path d="M10.025 9.8c.05.05.237.075.262-.087q.038-.313-.224-.201z"/><path d="M10.063 9.512c.075.025.224.088.312-.074.075-.138-.025-.25-.175-.238a1.3 1.3 0 0 0-.137.313z"/><path d="M10.188 9.188c.013.05.2.237.338.1s.136-.325-.063-.388a1.3 1.3 0 0 0-.263.287z"/><path d="M10.463 8.887c.037.113.162.301.4.213s.137-.375.024-.438a1.3 1.3 0 0 0-.425.225z"/><path d="M10.887 8.662c-.012.1 0 .363.313.363s.225-.375.15-.425c-.125 0-.35 0-.462.063z"/><path d="M11.363 8.612c-.038.076-.113.576.499.438.076-.013.288-.475-.499-.438z"/><path d="M11.7 8.662c-.062.063.1.563.525.488s.062-.562-.525-.488z"/><path d="M12.063 8.737c-.063.138.037.55.549.55.475 0-.025-.537-.549-.55z"/><path d="M12.475 8.85c-.037.075-.075.513.537.55.438.025.338-.6-.537-.55z"/><path d="M13.125 9.037c-.075.137-.163.475.513.5.425.013.163-.487-.513-.5z"/><path d="M13.688 9.137c-.1.137-.025.4.225.45.313.063.363-.237.137-.375s-.362-.075-.362-.075z"/><path d="M13.988 9.2c-.075.125-.025.425.45.425.1 0 .475-.388-.45-.425zm-3.662 5.838a.7.7 0 1 0 0-1.4.7.7 0 0 0 0 1.4z"/><path d="m15.425 4.925-.188.275c-.237.7.388 1.213.75 1.962a2.13 2.13 0 0 1-.2 2.113c-.15.2-.112.263-.3.462-.075.075-.163.175-.137.462.125-.05.3.075.338.175.088-.05.213-.025.263.025q.213-.112.413.112a.38.38 0 0 1 .363.125c.063-.125.188-.175.275-.137a.213.213 0 0 1 .3-.213.263.263 0 0 1 .338-.313c.163-.125.487-.137.65.05-.287-.075-.275.225-.525.2.063.175-.1.287-.263.338.1-.05.213-.112.25-.05.088-.075.263-.05.313-.013q.188-.075.287.137c.163.1.263.35.15.537-.037-.2-.175-.188-.225-.263q-.214.091-.289-.034c-.075.075-.313.137-.425.025-.037.163-.175.3-.338.3.05.125-.075.338-.175.45.15.075.112.263.075.363.237.037.037.237.438.375-.2.063-.575 0-.637-.237-.2-.013-.325-.2-.325-.413-.151-.138-.176-.35.036-.488-.175.05-.275-.237-.537-.112-.125.063-.475-.037-.462-.163-.05.088-.375.05-.425-.1-.112.063-.363-.037-.35-.188-.138.063-.326-.05-.313-.187-.125-.013-.137-.137-.137-.237-.113-.051-.088-.163-.038-.3q-.1-.15.013-.325-.112-.125-.05-.325a12.5 12.5 0 0 1-2.201-.513c-1.862-.575-2.362.775-1.949 1.612.474.976-.05 1.176.112 1.901a.3.3 0 0 1 .25.325q.175 0 .137.275a.38.38 0 0 1 .263.075c.063-.112.263-.137.375-.013.237-.013.35.175.338.4a.65.65 0 0 1-.05.675v-.313c-.013-.15-.213-.175-.188-.3a.25.25 0 0 1-.25-.125q-.1.075-.225.05c.125.05.213.263.175.413.063.112.05.3-.025.388q-.075.275-.35.163a.25.25 0 0 0 .125-.263.38.38 0 0 1-.1-.225c-.175.025-.413-.125-.462-.175a.7.7 0 0 0-.7.7c-.013-.137-.2-.287-.175-.4-.112-.325.05-.637.487-.7-.05-.125.137-.25.063-.4a3.8 3.8 0 0 0-.513-.701 1 1 0 0 0 .013-.824c-.125-.313-.25-.238-.713.262-.737.813-1.738.588-2.612 1.125-.237.137-.462.2-.213-.05s.913-.5 1.337-.712a3.13 3.13 0 0 0 1.75-2.375c.625-3.063 2.95-2.063 4.412-1.487 1.375.537 1.125-.675.425-1.413-.838-.887-.675-1.575-.275-2.125.713-.1 2.063.15 1.787.388z"/><path d="M17.913 12.463c.425 0 .762-.338.762-.762s-.337-.763-.762-.763-.762.338-.762.762.338.762.762.762z"/></g><g fill="none" class="B"><path d="M14.988 4.95c-.175.75-.025 1.087.225 1.425.513.688.925 2.25.338 3.263"/><g class="C"><path d="M15.887 8.762a.38.38 0 0 0 .238-.262m-.188-.062c.025-.125.225-.188.225-.325m-.225-.188c-.013-.137.2-.25.175-.388m-.287-.087c-.013-.075.175-.225.125-.338m-.275-.125c-.037-.088.1-.188.037-.275m-.25-.1c-.013-.063.075-.188.025-.263m-.237-.174c.013-.025.088-.075.063-.137m-.213-.176c.025-.013.112-.037.1-.112"/><path d="M10.625 14.262c-.175-.063-.4.025-.45.175m.137.15c.025-.15.25-.225.325-.15-.15-.075-.225.2-.088.213m1.201-3.6c-.112.05-.137.25 0 .4m.162-.35c-.075.062-.075.25.038.3-.1-.062 0-.187.062-.187s.113.074.038.162m6.15.175c-.25-.063-.45.225-.225.487 0-.25.175-.413.388-.375m-.1.175a.125.125 0 0 0-.1.1q0 .088.112.1.075-.013.075-.088m.8-5.625c.037.15.25.213.413.175m0-.1c-.125 0-.237-.112-.225-.225 0 .075.175.112.225.063" class="D"/><path d="M10.688 11.513c-.038-.088.112-.175.112-.263s.163-.15.325.013m-.075-.95-.087.037m.388.45q-.076 0-.163-.038m0 .2-.138.05m-1.387 2.65c0 .075.075.2.125.237m.225-.425a.38.38 0 0 0-.05.263m.713 0c-.075-.05-.025-.188-.037-.287s.1-.237.3-.112m-1.012-.112a.5.5 0 0 1 .225.013m.8-.263-.05.137m.425-.15q-.1.013-.137.088m-.727-2.376c.075.025.263.137.263.263m.5-.838c-.226 0-.301-.225-.138-.225m.525.525c-.088.038-.05.188.075.25m-.6 1.15c-.038-.05.012-.212.15-.162m.175 1.8c.013-.137.175-.213.25-.063m-.887.45q0-.213.137-.213c.137 0 .163.05.213.15m-1.675.175c.013-.088.088-.188.163-.175m8.011-3.799c-.063.037-.1.237.125.25m-.462.063q0 .037.05.063m1.012.287c-.063-.05-.213.137-.075.263m-1.35 1.25c-.037-.125.088-.163.2-.137m-.488-.777a.5.5 0 0 1 .225-.112m-.25.613q.013-.176.1-.226M17 10.487a1.3 1.3 0 0 0 .088.325m.975-.312q-.1.037-.15.1m.075.263.088-.075m1.6-3.825c0 .125-.163.188-.263.112m.6-.112c.075.05.313 0 .25-.137m-.537.863a.4.4 0 0 1-.175-.112m.662-.263-.175-.014m-1.1.462.225-.05m-.363-.737a.13.13 0 0 0-.137.025m1.038.188a.4.4 0 0 1-.1.175"/><path d="M18.663 7.387c.112-.05.25.325.525.2m.025-.388a.4.4 0 0 0-.063.188" class="D"/></g><path d="M13.85 6.613q.075 0 .112-.063M9.25 10.775q.225.1.175.4M15.4 6.2c.037.025.188.025.275 0m.112.1c0 .063.013.3-.112.35m.05-.037c.112.037.338.025.413-.188m-.163.175c.063.088.075.263-.1.363m.137-.213c.125.05.425.05.4-.2m-.099.2c.088.125.487.275.425.013m-.787.35c.15.037.363-.063.275-.338m.425.137c.025.1.525.213.45-.025M17 7.025c.1.213.588.2.438-.088m-.075.225c.1.125.537.05.363-.237m0 .237c.275.2.588-.088.25-.3m.163.237c.237.188.537-.163.325-.25m-2.237.175c.075.025.237.013.275-.125M16.438 7c-.013.2.338.287.425.05m-.112.125c.063.137.363.188.413 0m-.05.088c.05.137.313.125.375-.013m-.1.088c.075.175.413.175.487-.075m-.063.112c.125.075.413.05.388-.2m-.05.175c.188.163.462 0 .325-.263m-.013.462c.1-.013.163-.225.05-.275m-2.438.313c.213-.112.25-.313.112-.5m.075.313c.137.075.388 0 .438-.2m-.25.225q.125.163-.013.325m.075-.2c.237-.15.537.125.313.287m-.037-.3c.05-.013.15-.112.163-.225m-.05.325c.1-.1.775.112.35.325m-.039-.6c.125.05.2.237 0 .3m.175.15c.137-.15.588-.05.425.137m-.112-.186c.075-.275.563-.1.4.013m-.5-.35c.013.05.013.188-.075.263M18 7.375a.25.25 0 0 1-.025.188m.325-.175c.025.05.075.137-.025.225m-3.787-2.3c0 .25.1.425.438.263m-.338.049c-.175.225.025.475.363.225m-.875-.112c.237.25.65.063.375-.313m.275.525c-.05.25.163.3.325.188m-1.188-.363c.037.25.3.438.537.287m-.237.05c0 .35.487.388.6.025m-.175.225c.163.325.5.188.613 0m-.951-.512c.063.163.188.325.475.2m-1.375-.275c.037.125.275.287.537.112m-.375.063c-.137.213.137.413.487.1m-.313.163c.063.3.175.537.6.15m-.213.15c.15.188.388.3.6-.013"/><path d="M14.838 6.563q-.025.338.2.325.213-.037.35-.237m-.375.237c0 .25.2.45.575.2m-.413.1c-.075.188.137.5.563.35m-1.463-.863c-.025.25.2.413.563.1m-.388.175c.013.2.237.438.575.1m-.413.163c-.025.35.287.438.563.175m-1.038-.438q.112-.025.163-.1m-.013.35c.063.013.175-.05.2-.112m-.05.525c.075.075.313.025.35-.075m-.075.075c.137.313.487.3.637-.05m-.063.125q.1.313.513.237m-.374-.05c-.163.25.05.55.4.263m-.313.125a.375.375 0 0 0 .325.363m-.987-.839c-.05.363.2.537.537.35m-.924-.199q.15.1.375.025m.175.213c-.075.3.237.525.5.188M14.575 8c0 .163.163.325.425.275m.737.313c-.175.125-.213.338.037.475m-.474-.538q0 .287.3.3m-.562-.4c-.263.25 0 .537.313.287m-.125.075c-.088.287.25.45.425.163m-.976-.762c-.1.275.025.462.25.438m-.6-.488c.013.163.163.225.313.188m-.213-.013c-.125.237.063.363.3.263m.737.513c-.037.15-.013.25.2.3m-.187-.102c-.263.125-.287.375-.075.537M15.263 9a.25.25 0 0 0 .037.425m-1.212-1.237c-.15.15-.013.563.325.338m.537.188c-.2.175-.112.475.225.388m-.55-.502q-.137.425.237.413m-1-.813c-.188.137-.137.338-.05.425s.237.05.287-.063m-.625-.487c-.2.263 0 .575.287.487m.813.3c-.213.075-.375.263-.237.438.075.1.413.112.5-.263m-.637-.425q-.188.275.137.425m-.162-.099q-.2.1-.188.313m-.112-.589q-.063.313.137.4m-.137-.15q-.313-.013-.237.263m.013-.225q-.287-.125-.137-.425m-.025.263q-.313.025-.313.263m.013-1.1c-.163.063-.2.275-.15.388s.237.125.35.05m-.614-.576c-.137.163.025.475.275.4m-.638-.525c-.137.188.013.5.363.413m.013.875c-.038-.226.199-.376.487-.076m-.138-.45a.38.38 0 0 0-.112.3m-.988-1.175c-.15.25.037.475.35.388m.475.237c-.213.213-.137.425.013.537m-.138-.287c-.313 0-.338.375-.075.487m-.162-.849c-.125.088-.175.338.05.438m-.062.111c-.138-.062-.3.013-.288.176m.075-.163c-.125-.287-.475-.237-.438.062m.538-.412c-.075.013-.225.063-.287.175m.025-.5c-.138.163-.038.35.087.388m-.512-.863q-.05.287.287.263m-.2-.026c-.1.238.038.338.275.326m-.225-.038c-.137.175-.05.35.1.425m-.163-.212c-.249-.038-.299.262-.212.399"/><path d="M11.563 7.487c-.163.063-.25.263-.163.388s.25.075.35.013m-.3.037c-.125.2-.012.35.125.4"/><path d="M10.95 7.462c-.1.113-.038.325.212.325.201 0 .301-.187.238-.325m-.275.325c-.075.176-.037.375.275.338m.125.287c-.187-.087-.437.001-.325.225m-.025-.537a.25.25 0 0 0 .037.35m-.05-.062c-.125.025-.25.087-.174.287m-.013-.162c-.162-.05-.363.062-.237.237m-.025-.162c-.138-.025-.301.124-.176.274m-.05-.125c-.125.038-.275.175-.137.288m.775-.988c-.175.076-.2.288-.113.426m-.074-.801c-.263.101-.263.463.037.576m-.125-.076c-.162.101-.188.276-.088.388m-.199-1.013c-.113.038-.1.363.187.363m-.5-.262c-.213.137.05.5.388.25m-.188.087c-.038.15.013.312.25.325m-.237-.125c-.176.063-.201.413.112.437m-.65-.762c-.225.2.175.375.325.088m-.637.25c-.113.125.262.474.437-.1m.038-.013q.013.213.25.225m0 .125c-.263.038-.35.375-.051.437m-.437-.474c-.013.125.125.225.263.2m.137.274c-.237.05-.275.363-.062.351m-.1.299c-.2-.062-.2-.299-.025-.387"/><path d="M9.925 9.3c-.175.1-.1.35-.013.388s.163-.013.176-.088m-.025.338c.012.112-.413.075-.188-.288m0 .313c-.15.225.088.412.238.225m-.225.049c-.063.188.162.313.312.175m-.788-1.887c-.074.163.326.225.351-.112m-.463.349c-.075.325.525.25.375-.163m.013.213c.087.05.337.05.4-.224m-.188.225c.012.087.1.187.163.224m-.45-.137c-.025.175.15.313.35.3m-.325-.112c-.101.137-.126.387.175.412m-.651-.363c-.05.138.238.288.413.051m-.5.3c-.025.1.238.25.388-.201m-.113.225c.062.113.275.201.4-.012m-.213.138c-.049.162.101.3.276.262M9.2 9.6c-.038.225.225.35.388.238M9.037 9.7c-.074.288.288.388.426.175m-.088.088c.012.162.263.299.463.162m-.913-.037c-.013.074.288.137.325-.113m-.15.175c.075.188.313.225.45 0m-.075.087c.037.175.25.263.438.15m.075.063c-.05.225.187.413.337.288m-.712-.326c-.075.25.237.388.413.25m-.788-.375c-.013.237.163.375.375.263m-.775-.25c-.063.15.262.275.424.15m-.625.263c.088.1.375 0 .413-.225m-.075.162c.112.125.363.188.462-.075m-.087.138c0 .188.338.325.45-.025m.4.075c-.038.1.037.237.2.262m-.488-.3c-.024.113.138.263.3.2m.038.05c-.05.113-.013.288.15.288m-.138-.063c-.112.1-.062.275.1.275m-.162-.112c-.162.112-.112.362.113.35m-.625-.838c0 .237.3.275.363.05m-.113.138c-.05.137.075.287.25.237m-.225 1.487c.037.063.2-.037.163-.137s-.225-.05-.2.063m.163-.1c.024-.201-.214-.226-.264-.063m.087-.1c.063-.1-.137-.237-.224-.087m.075-.063c.05-.138-.175-.2-.188-.075m-.05-.188c.025-.074.275-.025.175.125m.188.175c.1-.087-.063-.274-.175-.2m.838.475c-.075.013-.163.063-.1.225.037.112.213.125.237.05"/><path d="M10.438 12.7c-.075-.05-.237.037-.163.2a.125.125 0 0 0 .225.013m-.487.025c.037.063.225.037.263-.037m-.137-.188c.037-.025.112.013.125.037m-.139-1.137c-.125.087-.05.35.15.274m-.187-.062c-.1.075-.013.325.187.238m-.15 0c-.075.074 0 .275.188.237m-.213-.138c-.037-.012-.15 0-.188.063m.076-.962c-.1.1-.05.287.137.3m-.162-.1c-.138.075-.138.35.137.362m-.15-.05c-.075.062-.038.3.163.275m-.1-.013q-.05.063-.013.138m-.075-.225q-.125 0-.188.125m-.124-.262c.025-.076.25-.063.262.137m.025-.25a.125.125 0 0 0-.112.1m.013-.75c-.101.087-.139.362.149.413m-.35.15c0-.075.2-.137.263-.025m-.413-.375c.025.05.163.137.25.075m-.975-.513c0 .125.1.25.25.225s.175-.15.137-.238M9 11c-.1.125.025.287.137.238m-.025-.326c.063-.025.251-.049.313.038m-.925 0c-.05.063.237.137.325 0m-.1.075c-.013.088.037.238.262.175"/><path d="M9.025 11.338c.038-.075-.138-.201-.263-.063s.013.3.1.237m-.437-.475c-.062.113.187.326.337.138m-.512.075c-.1.1.025.275.163.225s.125-.2.1-.237"/><path d="M8.075 11.425c-.075.075 0 .238.1.238s.175-.088.15-.188m.175-.063c-.012.101.137.176.237.076m0-.188a.13.13 0 0 0-.025-.075m-.8.338c-.087.075.1.262.226.087m.45-.125c-.05.05.037.2.124.15m-.425-.05c.013.1.2.163.325.025m-.212.075c-.025.062.025.162.1.137m1.663.413c-.075.137.15.3.313.125m-.151.075q-.037.125.063.213m-.275-.063c.013-.063.112-.125.2-.1M10 12.45c.013-.063.1-.125.15-.1m5.112-2.688c-.313 0-.188.513.088.413m-.187-.037c-.063.1.063.263.188.175m-.037.025c-.1.163.237.4.375.15m-.112.1c0 .15.438.237.375-.05m-.037.163c.1.175.487.188.45-.063m-.088.175c.075.112.45.188.438-.05m-1.965-1.45c.05.137.237.188.438.112m-.55-.012c.125.075-.063.45-.25.3m.25-.075c.137.063.313.013.363-.175m-.088.15c.013.1.163.188.35.137m-.7-.037c.175.15-.075.462-.2.325m.262-.2c.088.063.3.025.325-.137m-.1.137q.025.163.225.15m-.5 0c.088.125.313.163.413 0m-.1.1c-.013.125.125.225.263.188m-.75.075c.112.063.237-.163.137-.313m-.013.55c.137.013.163-.2.025-.313m.287.513c.112-.025.075-.287-.2-.3m.55.487c.112-.037.025-.313-.287-.3m.713.388c.075-.112-.175-.313-.375-.213m.588.375c.137.037.237-.325-.2-.263m.462.263c.125-.037.2-.25-.15-.175m.413.2c.112.05.163-.263-.175-.175m-1.613-.813c.137.075.35-.013.325-.188m-.05.151c.05.075.025.237-.063.275m.075-.088q.15.063.288-.137m-.125.137c.025.063.037.188-.025.25m.05-.137q.163.063.263-.125m-.063.088c.075.05.137.25.013.338m.062-.101c.088 0 .213 0 .287-.1m-.063.063c.075.025.163.15.137.263m0-.037c.088-.013.237-.063.275-.175m-.037.063q.125.063.112.225m0-.075a.25.25 0 0 0 .188-.137m-.025.063q.125.05.137.175m-.011-.053a.25.25 0 0 0 .15-.112m.175-.013c.075.075-.025.35-.188.3m-1.525-5.713c-.163.1-.637.063-.4-.325m.45.063c-.325.125-.725-.125-.313-.388m-.112-.087c-.275 0-.45.438-.088.588m-.975-.413c-.075.137.188.287.363.15.137-.112.125-.4.05-.513m-.55.688c-.088.3.563.313.462-.163m-.5.6c.025.225.625.15.438-.3m.075-.125a.5.5 0 0 0 .413.163m-.313-.475q.063.137.325.088m-6.425 6.712c-.15.112.087.287.175.088m-.287-.013c-.15.113.087.287.175.087m-.301-.012c-.149.112.088.288.176.087m-.301-.012c-.149.075.025.275.176.1m-.325-.025c-.151.075.024.275.174.1m.576-.325c0 .112.213.163.287-.013m-.162.113c-.063.087.05.187.125.15m-.413-.163c-.012.1.175.151.275.05m-.175.05c-.062.076.063.188.138.15m-.363-.162a.163.163 0 0 0 .225.112m-.162-.012c-.051.037-.025.137.037.162m-.275-.174c-.013.074.1.187.225.112m-.2-.038c-.075.051-.062.138.025.151m-.2-.163c-.012.05.05.125.125.112m-.513-.112c-.074.038.113.237.225.05m-.399.025c-.088.037.137.263.224.037m.35-.049c-.075.012-.112.112-.05.162m-.175-.125c-.012.037.076.112.15.088m-.2-.063c-.062.038-.037.163.05.137m-.287-.062c-.062.05-.025.138.063.113m.05-.125q.025.05.1.05m-.438-.088c-.075.038-.075.225.188.125m-.363-.05c-.112.05-.075.2.163.063m.025.013c-.025.024-.063.124.05.086m-.25-.037c-.051.037-.013.125.087.088m-.312-.076c-.076.051.1.113.212-.012m-.163.075c-.037.037-.037.137.063.1m-.287-.062c-.05.037.037.1.2.025m-.137.037q-.1.1.037.1m-.225-.063c-.075.063.037.1.15.05m-.15.013c-.112.05-.063.15.013.112m3.95.225c-.025.063.063.112.15.1s.163-.075.1-.175m0 .112c.075.063.225-.013.225-.1"/></g><g fill="#fff" class="B"><path d="M15.163 3.575c-.363-.175-1.1-.512-1.313-.237.188-.075.75 0 1.225.438z"/><path d="M15.388 3.562c-.413-.487-.662-.375-.95-.537-.276-.15-.725-.188-.813.062.413-.2.787.112 1.012.15.313.05.5.3.588.413l.163-.075zM16.95 3.5c-.213-.487-.675-.363-.875-.575-.3-.3-1.038-.588-1.35-.375.675-.037.975.462 1.337.65.263.125.537.388.9.3zm-.813-.05c-.362-.45-.924-.863-1.187-.713.338.013.45.25.688.413s.137.375.5.3zm-1.75.8c-.387-.138-1.137-.212-1.487.225.588.1 1.463.05 1.487-.225z"/><path d="M14.325 4.425c-.387-.175-.688.075-1.05.037-.688-.062-1.175-.024-1.238.301.388-.35 1.05-.063 1.325-.137s1.263-.013 1.575.125c-.162-.201-.412-.251-.612-.326zM15.538 3.4c-.088-.3-.088-.613.363-.588-.114-.137-.526-.212-.588.313-.488-.362-1.026-.425-1.113-.113q.388-.325 1.1.475zm-.675.413c-.275-.175-.65-.475 0-.588-.287-.15-.688-.088-.65.438-.75-.3-1.287-.2-1.4.1-.125.325.338.513.425.3-.088.037-.375-.063-.225-.25s.925-.05 1.675.338c.2.112.912.088.175-.338zm-.2.487c-.213-.438-.913-.037-1.051-.463-.188.625.988.275 1.05.462zm4.412.475c.15.075.275-.037.05-.125.15.075.275-.037.05-.125.15.075.275-.037.05-.125a1.3 1.3 0 0 0-.15.388zm.075-.838c.325-.338-.025-.45.363-.8.325-.287.063-.475.363-.7.1-.075.313-.213.325-.363.125.325-.4.363-.363.887.025.325-.2.3-.287.863-.013.112-.1.375-.413.112z"/><path d="M19.287 4.075c.175-.388.388-.375.487-.525.188-.287.588.05.925-.2-.063.363-.513.237-.713.462s-.363.338-.7.263z"/><path d="M19.337 4.2c.313-.25.537-.088.762-.213.55-.325.762.063 1.25-.088-.125.313-.85.05-1.163.275s-1.413.45-.85.025zm-.912 1.787c0-.137-.137-.325-.325-.35s-.262-.225-.412-.225-.238-.3-.438-.287-.275.263.188.487.975.5.988.375zm-.588.125c-.2.013-.225.3-.413.3.263.137.45-.063.575-.237z"/><path d="M18 6.15c-.175.137-.225.438.025.525-.15-.2.263-.3.137-.487z"/><path d="M18.175 6.15c-.137.263.213.287.125.487.2-.05.225-.413.05-.513z"/><path d="M16.863 5.6a1 1 0 0 1 .813.438c.125.175.55.25.688.112s.063-.45-.3-.35c-.089-.15-.351-.1-.477-.225s-.613-.487-.737.025z"/><path d="M18.063 5.8c-.088.013-.112.163-.063.237m.237-.15a.13.13 0 0 1 0 .137m-.875-.413c.163.013.2.125.375.175" class="C"/><path d="M17.262 5.212q.875.2 1.3.425c.425.225.713.2 1.1.1s1.113-.2 1.075.263c.2-.237-.05-.487-.563-.537.013-.237-.237-.438-.413-.3.163-.025.313.287-.013.413.063-.237-.163-.438-.413-.338.15.05.313.3-.037.4-.213.063-.537-.013-.775-.163s-1.561-.662-1.273-.263z"/><path d="M18.7 4.975c-.175.075-.063.263-.338.375s-.475.35-.413.563c.188-.413.525-.388.637-.55s.287-.4.112-.388z"/><path d="M18.75 5c-.013.325-.263.213-.163.662a1 1 0 0 1-.013.613c.287-.213.1-.65.237-.813a1.3 1.3 0 0 0 .175-.313c-.063.188-.063.537.125.625-.15-.35.4-.637.025-1.038-.05.1-.225.275-.375.263zm-.912-.325c.05.063.088.237.05.325a1.3 1.3 0 0 0 .263-.287c.188.025.25.25.075.35.112 0 .287 0 .388-.125-.125-.137-.513-.35-.787-.275z"/><path d="m15.063 4.038-.163-.076c-.275-.049-.125-.3.1-.3.487-.537.762-.125 1.363-.287a.63.63 0 0 1 .462.013.625.625 0 0 1 .813.088.25.25 0 0 1 .112-.088c.213-.063.375.125.438.35a.63.63 0 0 1 .475.163q.263-.125.325 0c.15-.075.35-.112.45.125s-.237.175-.287.675c-.037.313-.388.438-.662.25-.438-.3-.875-.35-1.087.112s-.388.725-.9.575c-.188-.05-.425.013-.575.225s-.388.013-.662.037c.35-.05.213-.137.525-.163.275-.013.2-.275.388-.313-.7.175-.675-.075-1.238.1.25-.325.65-.137.838-.325-.528-.011-.753-.349-.99-.199-.363.225-.2.863-1.163.8-.462-.025-.762.037-1.038.313.487-1 1.137-.45 1.463-.775q.275-.25.425-.513a.25.25 0 0 1 .137-.112c-.8-.25-.313-.637.462-.662z"/><path d="m18.987 3.888.013.1c0 .2-.3.2-.313.5q0 .237-.125.225c-.124-.013-.187-.176-.099-.363" class="C"/><path d="M15.2 3.737a.4.4 0 0 0-.213-.075m1.838-.287c.237.1.35.35.7.363.325.013.537.487 1.087.175l.05-.025m-1.025-.425a.5.5 0 0 0-.05.287m-1.025.725c-.425 0-.525.213-.525.425s.2.475.55.475.537-.213.537-.45-.213-.45-.55-.45z"/><path d="M16.637 5.362c-.012-.112-.225-.099-.212-.187s.112-.125.112-.25.188-.137.25-.037.25.287.287.188m-.286-.188a.375.375 0 0 0-.013.45m.15-.3a.25.25 0 0 0 0 .237"/><path d="M18.588 4.713c.325.025.388-.338.137-.363m-.537-.625c-.112-.15-.375-.2-.375.112" fill="none"/><path d="M17.775 4.2c-.112-.275-.4-.312-.55-.175-.125.112-.125.413.137.475a1.25 1.25 0 0 1 .413-.3zm-.125-.175c-.163-.137-.4.125-.188.375m-2.875.3q.15-.037.513.137c.15.075.613.225.9.075-.3.112-.513-.338-.737-.287s-.638.138-.8-.025c.425.025.65-.3 1.125-.013a1.3 1.3 0 0 0 .45.125c-.388-.474-.913-.175-.963-.549.237.25.813-.063 1.113.425m-1.038-.363c-.05-.075-.025-.137-.087-.187"/></g><path d="M18.188 3.725c-.1-.1-.313-.025-.25.188a.38.38 0 0 1 .25-.188m-.613.575.2-.112A.5.5 0 0 0 17.637 4c-.05-.037-.2.163-.063.287" stroke="none" stroke-width=".028"/><g class="B"><path d="M17.313 3.938q-.263-.163-.363-.013-.188 0-.213.25m.25.075c-.188-.137-.45-.088-.438.213m-.111.162c.1-.075.225-.125.325 0m1.1-.3q-.075.075 0 .237c-.075-.1-.25-.1-.438.163m.875-.413c-.237.025-.225.175-.037.25m-1.625-.8c-.2-.037-.338.075-.063.175m.437-.312c-.275-.063-.388 0-.263.063m-.537 1.05c-.013.1.05.225.2.075m-.15.213q0 .05-.025.075m-.612-1.376c-.175-.05-.2-.2 0-.188m-.05.55c-.188-.063-.188-.25-.037-.225m.375.137c-.226-.049-.226-.199-.063-.186m.088-.287c-.112-.013-.3.125 0 .2m.325.063c-.276-.039-.263.073-.113.136m.313-.4c-.213-.037-.288.087-.138.137m-.525.637c-.05-.037-.1-.25.15-.188m.363.125c-.163-.05-.325.112-.175.213m.388-.4c-.175-.037-.325.013-.225.075" fill="none" class="C"/><path d="M18.175 3.725a.25.25 0 0 0-.237.188" fill="#fff"/></g></g></svg>