<svg image-rendering="optimizeQuality" shape-rendering="geometricPrecision" text-rendering="geometricPrecision" xmlns="http://www.w3.org/2000/svg" viewBox="0 0 25 16.675" xml:space="preserve" width="25" height="16.675"><path d="M0 .012h25v16.65H0z" style="fill-rule:evenodd;clip-rule:evenodd;fill:#00923f"/><path d="M0 5.603h25v5.518H0z" style="fill-rule:evenodd;clip-rule:evenodd;fill:#da251d"/><path d="m4.944 6.653.415 1.294h1.367l-1.099.806.415 1.318-1.099-.806-1.123.806.439-1.318-1.123-.806h1.367zm7.556 0 .415 1.294h1.367l-1.099.806.415 1.318-1.099-.806-1.099.806.415-1.318-1.099-.806h1.367zm7.581 0 .415 1.294h1.367l-1.099.806.415 1.318-1.099-.806-1.123.806.439-1.318-1.123-.806h1.367z" style="fill-rule:evenodd;clip-rule:evenodd;fill:#fff500"/></svg>