<svg xmlns="http://www.w3.org/2000/svg" width="25" height="12.5" viewBox="0 0 25 12.5"><style>.B{stroke-miterlimit:4.8}.C{stroke:#000}.D{fill:#862633}.E{stroke-width:.78}.F{fill:#00ad50}.G{stroke-width:.48}.H{stroke-miterlimit:3}</style><clipPath id="A"><path d="M0 0v3.125h14.588V6.25H12.5zm0 6.25v2.087h6.25V0h6.25z"/></clipPath><path fill="#012169" d="M0 0h25v12.5H0z"/><path stroke="#fff" stroke-width="1.25" d="m0 0 12.5 6.25M0 6.25 12.5 0"/><path stroke="#c8102e" stroke-width=".833" d="m0 0 12.5 6.25M0 6.25 12.5 0" clip-path="url(#A)"/><path stroke="#fff" stroke-width="2.083" d="M6.25 0v8.338M0 3.125h14.588"/><path stroke="#c8102e" stroke-width="1.25" d="M6.25 0v8.338M0 3.125h14.588"/><path fill="#62b5e5" d="M0 6.25h12.5V0H25v12.5H0z"/><path fill="#fff" d="M16.225 3v4.275c0 1.4 2.525 2.225 2.525 2.225s2.525-.825 2.525-2.225V3z"/><g fill="#c8102e"><path d="M18.4 4.5v1.925h-2.175v.7H18.4v2.237l.35.138.35-.137V7.125h2.175v-.7H19.1V4.5z"/><path d="M16.225 3h5.05v1.65h-5.05z"/></g><g class="C"><g fill="#fff"><path stroke-width=".017" d="M16.913 4a.287.225 0 0 1-.287.237.287.225 0 0 1-.275-.237.287.225 0 0 1 .563 0z"/><g stroke-width=".805"><path d="M16.887 3.888a.25.125 0 0 1-.263.125.25.125 0 0 1-.25-.125.25.125 0 0 1 .513 0z"/><path d="M16.887 4.138a.25.125 0 0 1-.263.125.25.125 0 0 1-.25-.125.25.125 0 0 1 .513 0z"/><path d="M16.887 4a.25.125 0 0 1-.263.137.25.125 0 0 1-.25-.137.25.125 0 0 1 .513 0z"/></g></g><path fill="#fedd00" stroke-width=".025" d="m21.15 4.325-.037-.112s-.113-.05-.125-.113q-.038-.238-.163-.238c-.087-.025-.137.013-.137.013-.025.037-.15.037-.225.037q-.1-.012-.076-.024-.074-.026-.074-.038-.051-.1-.088-.113.125 0 .263-.15c.112-.125.2-.075.2-.075-.05.112.013.1.013.1.15-.075.025-.275-.025-.263s-.063-.024-.063-.024c0 .037-.05.05-.05.05.037-.225-.088-.287-.088-.287l-.037.063c-.037.137-.163.112-.3.05s-.5.063-.613.112-.325.112-.513.013-.237-.088-.313-.063-.2.05-.25.025l-.099-.025q0-.025-.013-.037c-.063-.075.013-.125.013-.125s-.112.025-.063.213l.025.025s.013.063.05.075v.013s.025-.013.037.025q.025.037.063-.025s-.025.163.175.2q-.012-.002-.012-.04-.012-.037-.025-.062c-.012-.025-.05-.037-.012-.062s.063-.063.15 0 .163.037.163.037-.051-.112-.026-.112.175.175.237.163.2-.088.263-.063c0 0 0-.037.263-.075s.563-.163.675-.063c0 0 .013.088.063.112 0 0-.013.175-.325.075l-.113-.024s-.013-.05-.613.1l-.063.025c-.025.013-.05-.013-.175.037-.112.037-.55.188-.825.137L18.15 3.8h.037l-.024-.025c-.225-.025-.188-.125-.188-.125l.013.037c.037-.05-.013-.163-.013-.163v-.011l.013-.013a.6.6 0 0 1 .237-.112c-.075-.088-.237-.037-.237-.037 0-.112-.037-.237-.037-.237-.15.013-.237.15-.237.15 0-.112-.15-.175-.15-.175.05.063.025.225.025.225h-.013v.037s-.05.025-.112.163l-.025.063v-.015s-.075.088-.237 0c0 0-.225-.125-.3-.125s-.125.037-.125.063c0 0-.175-.013-.237.088 0 0-.137.05-.025.163q0 .025.05.075s0-.1.025-.075l.013.013.037.075h.013l.013-.075.037.05.037-.025.037.013.037-.037c.037.013.05-.075.05-.075q.063.013.1-.025c.013.063.163.137.163.137l-.025.013c.063.05.188.037.188.037-.05.025-.05.112-.05.112L17.2 4q.15.037.163.013v.037l-.063.175v.013s-.175.063-.25.15l-.025-.026-.125-.063h-.088c-.013-.013 0-.112-.025-.125l-.025-.062c-.013.037-.075.025-.075.025l-.025.013h-.025l-.012.038h-.013v-.013h-.05l-.013.025h-.063v.075c-.075.037-.037.1-.037.1.037.188.363.1.388.125s.075.025.112.025.063.075.112.075 0-.05.188-.1.25-.125.25-.125c.063-.013.075-.088.075-.112v.05c.013.063-.037.088-.037.088l.163-.05c.063-.013.063-.075.063-.075.063.175.175.188.175.188l.025-.089h.05q-.013-.062-.05-.075l.075.05h.037q.025.05.037.05v-.038q.075.063.1.037v-.024c.15.088.375-.025.375-.025q.088 0 .075-.025c.076.012.088-.037.088-.037.163-.013.287-.137.287-.137.088 0 .088-.063.088-.063s.088.013.163-.088c.188-.263.462-.125.462-.125l-.163.013c-.425 0-.25.287-.25.287h.025c.037.013.175.112.125.2-.088.112-.25 0-.287-.088-.05-.1-.137-.075-.137-.075s-.237.037-.137.225q0 .075.112.15c.05.063.2.075.325.05L19.7 4.5c.025-.063.088-.05.15-.137s-.088-.125-.125-.175.013-.037.013-.037c.137.075.15-.163.15-.163.013.137.137.175.137.175.075-.075.025-.225.025-.225.175.313.287.263.287.263-.1-.063-.05-.137-.05-.137.088.338.438.037.438.037q-.025.063.037.112c.063.05.063.05.05.1-.013.063-.175.05-.175.05s-.163-.013-.15.125c.013.037.112.037.15.037l.037.013h.063l.138-.013c.088-.025.075-.05.075-.05.137-.025.15-.125.15-.125z" class="H"/></g><path d="m16.5 3.737.025-.025.037.025h.013q-.025-.012-.025-.087l.05-.037V3.6l-.05.037v.025l.013.05-.025-.013-.025.025zm4.412.75c-.1.013-.237.025-.25 0q-.025 0 .075-.075l-.012-.012q-.088.063-.088.1c.025.05.225.025.263.013zm-1.825.05q-.037-.05.025-.137l-.012-.013q-.063.1-.025.15z"/><path d="M18.962 4.4q0 .088.125.163l.013-.013q-.113-.063-.113-.15c0-.075.075-.137.088-.137l-.012-.013s-.088.063-.088.15zm1.625.025q-.025.075-.013.088h.013q-.013 0 .013-.075l.063-.037v-.014q-.05.013-.075.05zm-3.737-.737-.025.062H16.8l-.038-.025-.024-.013-.013-.037v-.013q0-.037.05-.063v-.012q-.05.037-.05.075l.013.05h.025l.037.025h.025q.037-.037.037-.063c.1.025.188-.1.188-.112h-.013s-.088.125-.188.1z"/><path d="m16.613 3.662.013.063.037.025.037-.013.025-.013h.025l-.012-.012-.025.013-.025.013-.025-.025-.013-.05q.037-.075.063-.075v-.013s-.063.037-.075.088zm-.137.65.037-.05.037.025.013-.013q.025 0 .037.088v.025h.013c.025-.063-.037-.125-.037-.125l-.013.013-.037-.013q-.037.013-.05.05m.325-.163-.1.037v.037l.013.025q.025.088.063.112v-.01l-.052-.1-.013-.025V4.2q.037-.037.088-.037l.025.075h.013zm-.164.051-.012.025s0 .125.063.15v-.013c-.051-.025-.063-.137-.063-.149l.013-.025h.05v-.013h-.063z"/><path d="M16.587 4.2q-.037.037-.025.075h.013q0-.025.025-.063h.037V4.2zm1.375-.675.025.112v.025l-.012-.025-.013.025q-.013 0 .013.063.037.063.188.075h-.013v.013l.037.013h.025l.075.013h-.025l.025.013s.175.075.25.137c-.025.013-.112.088-.263.05l-.024-.014.013.025s.1.112.125.188c-.037 0-.175 0-.213-.037l-.013.013s.063.1.075.175q-.037 0-.088-.025l-.012-.014-.012.037-.025-.037v-.013l-.037.013-.075-.05-.013-.013-.013.013.013.013q.037.025.05.063h-.05v.013l-.013.075c-.025 0-.112-.037-.163-.188h-.013q.013.037-.05.063l-.136.036.013-.05v-.062q0-.05.025-.063l-.013-.012s-.2.075-.3.05l.05-.163.013-.05v-.012h-.013q0 .025-.15 0l.025-.025v-.013q0-.063.037-.1v-.013s-.112.013-.174-.025l.1-.037h.013v-.012l-.014-.038h.063v-.062h-.013v.05l-.062-.013-.025-.013.013.025.013.05q-.1.037-.1.05l-.013.013.013.013q.088.05.163.037-.025.05-.025.088V4l-.037.05v.013q.137.037.163.013v.025l-.063.175v.013h.013c.075.037.225-.013.287-.037l-.013.05v.073q-.025.075-.037.063l.013.013.163-.05q.05-.025.063-.05c.063.15.163.175.175.175h.013v-.013L18 4.425h.05v-.013l-.012-.037.025.013h.025l.05.05.013.013v-.039q.075.037.1.025h.013v-.012l-.064-.162c.075.037.2.025.213.025h.013v-.013c-.013-.062-.088-.15-.113-.187.175.037.263-.063.263-.063v-.012h-.013l-.237-.125h.013l-.014-.013q-.075-.038-.125-.025l-.037-.025Q18 3.8 17.988 3.75v-.013L18 3.688l-.025-.113-.013.013z"/><path d="M17.438 3.5q0 .025-.063.1-.063.037-.163 0h-.013v.013q0 .013.037.063.05.037.125.025c-.013.025-.075.088-.075.163v.011c.013 0 .1.025.137-.025 0 .025.013.1.037.125l.025.05v.037l.015-.012s.088-.063.112-.137q0-.013.037-.025v.013q-.013.063.1.112h.013v-.025q0-.05.025-.088l.013-.037v-.026q.037 0 .075.05c.025.05.112.013.112.013v-.012q-.012.012-.062-.013l-.012-.038v-.049l-.013-.051q.025 0 .05.025.037.05.075.037h.013l-.013-.011s-.05-.026-.037-.076L18 3.688q.037-.1.013-.188H18v.05l-.025.137-.013.025v.013l.025.063-.05-.025q-.024-.038-.062-.026h-.013l.013.013.013.05v.05l.025.037.037.013q-.05.025-.075-.012c-.025-.051-.087-.063-.087-.063h-.013v.013l.013.025-.013.037q-.025.05-.025.088V4q-.1-.062-.087-.1v-.038h-.013q-.05.025-.05.037l-.1.126v-.012q0-.037-.025-.063c-.025-.025-.037-.125-.037-.125v-.012l-.013.013c-.037.063-.125.025-.125.025 0-.075.075-.175.088-.175l.013-.013h-.013q-.075.013-.125-.025l-.038-.051q.088.037.163 0 .088-.075.075-.1.1-.188.112-.163v-.011q-.013-.025-.125.163z"/><path d="m17.575 3.288-.05.063h.013a.75.75 0 0 1 .413.188v.013L18 3.5c-.137-.212-.425-.212-.425-.212m0 .013c.037 0 .275.013.4.2l-.025.025a.66.66 0 0 0-.4-.188z"/><path d="m17.538 3.438-.05.1v.013l-.05.112.013.075v.012q.013.125.163.1c.112-.037.112-.037.137-.088l.011-.012.05-.037q.025 0 .063-.05l.013-.025q.037-.037.05-.1h-.013q0 .063-.05.1l-.025.025q-.025.05-.05.05l-.05.037-.013.013c-.025.037-.025.05-.137.088s-.125-.025-.15-.088V3.75q-.037-.125.037-.188l.013-.012h-.013l.037-.088.088-.063v-.011l-.088.063z"/><path d="M17.488 3.725h.075q0 .025.025.05.037.037.112.013v-.013q-.075.025-.1-.013l-.025-.05V3.7h-.088q-.037-.063-.025-.075h-.013s0 .063.037.088z"/><path d="m17.538 3.65-.013.025q0 .037.05.05.037.025.063-.013v-.037c-.038-.063-.1-.038-.1-.038m.037.063q-.05 0-.05-.037l.013-.013s.05-.025.088.037v.025h-.05zm0 .063v.05l.025-.037zm.013.013.013.013-.013.025v-.026m-.088-.051v.05l.037-.05zm.013 0-.001.013z"/><path d="m17.475 3.712.037.088.037.037h.05l.026-.024.025-.013v-.012l-.025.012-.025.025h-.05l-.038-.025zm.037-.175q-.05.037-.05.063h.013l.037-.05h.05v-.013H17.5zm.225.112s.063.05.025.112h.013c.037-.063-.037-.125-.037-.125zm-.188.013s-.013.037.037.05l-.048-.012zm.126.038-.013.013zm-.137-.088h-.013zm-.026-.012H17.5zm.101-.162s.075.05 0 .125q.025 0 .037-.075 0-.075-.037-.063m.287.125q-.05 0-.075-.037-.037-.05-.075.013-.05.075-.05.05 0-.013.063-.05.05-.037.075.013t.063.013"/><path d="M17.887 3.562h-.05q-.024-.037-.062-.025-.063.037-.063.05c0 .013.075-.05.088-.037s.05.037.063.025zm-.05.025c-.025-.013-.05.025-.063.013q-.036-.025-.036-.038c0-.013.013.037.037.025s.037-.025.063-.013 0 .013 0 .013"/><path d="M17.8 3.6q-.062-.025-.05-.038 0 .025.05.025zm0-.025-.013.013-.025-.013zm-.163-.062h-.024l.012-.013z"/><path d="M17.587 3.45s.075 0 .037.1q.013-.013.013-.088c0-.075-.05-.025-.05-.025z"/><path d="M17.587 3.488q0 .037.037.063v-.014zl.013-.025V3.45z"/><path d="m17.6 3.513.025.025v-.013L17.6 3.5l.013-.037H17.6zm.112.05s.013.037-.013.063l-.025.037s.025-.05.013-.063.013-.037.013-.037m.3.325.263.163.013-.013c-.013 0-.188-.15-.275-.163zm.075.2c0 .075.088.112.088.112l.013-.013s-.076-.037-.076-.099zm-.188.013c0 .075.075.175.075.175l.013-.013s-.075-.1-.075-.175zm-.25.013.013.05-.013.013v.013l.025-.013q.013-.025-.013-.063z"/><g fill="#fff" class="C H"><path d="M16.5 3.725s0 .05.05.088l.013-.088q0-.025-.05 0zm.088.037.037.075h.013l.013-.063q0 .013-.075 0zm.062-.012.037.05.037-.025-.013-.063-.063.025zm.15.012-.037.037-.037-.013.013-.05s.025-.025.075.037zm-.287.5v-.074h.037l.013.088q-.013.025-.05 0zm.188-.075.013-.075s.063.013.075-.025l.025.063s-.064-.012-.114.038z" stroke-width=".36"/><path stroke-width=".007" d="m16.625 4.2.025-.063h.037v.075s0-.037-.063-.013zm-.075.013.025-.063h.05v.037s-.05-.012-.062.063z"/></g><g class="C"><g class="F"><g class="B E"><path d="M17.5 5.412s.163.15.125.287c0 0 .1-.225-.013-.3-.112-.062-.112-.011-.112.013z"/><path d="M17.3 5.563s-.037.063 0 .1c0 0-.05.075-.013.137q-.025.013-.025.137s-.025.112.037.163c0 0 .063.037.088 0 0 0 .05-.088.025-.175 0 0 .037-.075 0-.163q.013 0-.025-.112.013 0 0-.075s-.074-.088-.087-.038z" class="D"/><path d="M17.337 5.375S17.137 5 17 4.988s-.15-.15-.15-.15.013.063.125.063.325.15.35.275.05.1.05.1z"/><path d="M17.337 5.35s.075-.475.375-.487c.313-.013.213.025.287-.025 0 0-.213.112-.338.125s-.237.263-.237.313-.075.137-.1.1.013-.037.013-.037z"/><path d="M17.413 5.525s.075-.188.188-.125c0 0-.1-.175-.263-.025 0 0 .075.1.075.15zm-.238-.188s.1.425-.05.55c0 0 0-.213-.088-.35s.1-.275.15-.2z"/><path d="M17.188 5.412s.188.175.2.237.05-.175-.037-.237q-.151-.087-.176-.075z"/><path d="M16.85 5.875s.013.075.063.088q0 .025.037.075-.025.013.013.075s-.013.088.025.112c0 0 .088 0 .112-.025q.013-.013-.025-.125.025-.025-.037-.088s.012-.075-.038-.1q0-.025-.05-.088s-.075.1-.1.088z" class="D"/><path d="M16.938 5.775s-.237-.088-.375.037c0 0 .2.025.237.075s.15-.063.137-.112z"/><path d="m16.863 5.938-.038-.038c-.013-.025-.225-.075-.25.125 0 0-.075-.2.037-.225s.2.037.263.125m-.163-.4s.075.163.1.175q.05 0 .05-.025c0-.025-.1-.15-.15-.15zm-.05-.25s-.062-.212-.137-.15-.05.2-.05.2-.15-.15-.063-.275.25.013.25.225z"/><path d="M16.825 5.713s0 .037.025.05.075.037.075.013-.038-.113-.05-.101z" class="D"/><path d="M16.775 5.463s-.013-.175.112-.25l.037-.037s-.1.225-.063.338v.013"/><path d="M16.8 5.25s.213-.438.475-.287c0 0-.275.05-.375.25l-.1.15z"/><path d="M16.688 5.412s-.063-.3-.101-.337-.099-.087-.187-.012c0 0 .137-.125.287-.025s.112.263.112.263l-.011.199-.113-.088"/><path d="M16.913 5.763s-.263-.488-.425-.138c0 0-.037.088 0 .125 0 0-.1-.075-.05-.237s.325-.1.413.05a1.3 1.3 0 0 1 .1.225q-.025 0-.037-.013zm.725.137s.188-.388.3-.213c0 0 .037.088-.013.125 0 0-.075-.088-.137.025s-.038.101-.038.101-.075.025-.1-.037z"/><path d="M17.925 5.813s.1.05.063.163c0 0 .137-.263-.05-.287 0 0 .037.088-.013.125zm.013-.263s.25.075.25.175c0 0 .037-.2-.1-.263 0 0-.175.025-.163.088zm.112-.338c.1-.213.237.063.237.063s.05-.213-.088-.25-.225.462-.225.462l-.163.037s.037-.438.275-.475h.025"/><path d="M17.863 5.337s-.15-.312-.25-.337.05-.075.112-.025.175.137.175.287l-.037.063zm-.15.425s.037-.212.162-.275.225-.037.225-.037-.137.037-.163.1q-.05.1-.062.075z"/><path d="M17.637 5.9s-.063.125-.05.15c0 0-.075.1-.037.15 0 0 .075.05.1.037 0 0 .088-.112.063-.175 0 0 .05-.075.037-.125 0 0-.088 0-.1-.037z" class="D"/></g><path fill="#000" stroke="none" d="M17.3 5.675q.025.013.075.013l.025-.013-.013-.013q-.037.013-.063 0zm-.013.125v.013s.088.013.125-.013l-.012-.012q-.075.025-.112.013m-.025.137-.013.012s.088.063.15 0l-.013-.012c-.05.063-.125 0-.125 0m-.363.025v.013s.088-.037.088-.088h-.013c0 .05-.075.088-.075.088m.05.075v.013s.075 0 .088-.063h-.013c-.013.05-.075.05-.075.05m.013.075v.013s.088 0 .112-.037h-.013c-.025.037-.1.037-.1.037zm.613-.05q0 .025.075.037l.05-.025-.013-.013-.037.025q-.063-.013-.063-.025z" stroke-width=".021"/></g><g stroke-width=".42" class="B D"><path d="m20.025 6.338-.013.013zm.287-.075L20.3 6.25l-.012-.025h-.013l-.025-.05V6.15h-.013v-.063l-.012-.037v-.325.075l-.1-.188-.013.213.013.237-.013.137-.075.075-.025.05.05-.013-.037.025h.05l.025.013.013-.013.013-.013h.037l.025-.025.025-.013.025.013.025-.013.013-.025h.075v-.023z"/><path d="M20.1 6.338h.163l.025-.013h.063l.025.013.025-.013-.013-.013V6.3l-.013-.013h-.013l-.012-.012h-.013l-.012-.012H20.3l-.012-.026-.013-.012v.025h-.013l-.012.013-.025.025h-.013l-.013.013h-.013l-.011-.014-.013.013v.013l-.013.013h-.024v-.039l-.013.013v.025q-.013.025-.013.037h.013v.013h.025m-.062-.088h-.013l-.013.013q0 .025-.025.037h-.013v.05l.013.013h.063v-.025l.013-.013c0-.025-.025 0-.013-.025"/></g><g class="B E"><path d="M20.3 5.65q0 .05-.037.05t-.038-.05q0-.063.037-.05.037 0 .037.05zm-.137-.062q0 .037-.037.05-.05 0-.037-.05.025-.063.037-.05.025.013.037.05z"/><path d="M20.225 5.612q0 .037-.037.05-.05 0-.037-.05.013-.063.037-.05.037.013.037.05z"/><path d="M20.163 5.65q0 .05-.037.05-.05 0-.037-.05.013-.063.037-.05.037.013.037.05z"/><path d="M20.225 5.7q0 .05-.037.05-.05 0-.037-.05.013-.063.037-.05.037.013.037.05z"/></g><path d="M20.25 5.137s.438-.613.9.025q0 .013-.037.125l-.013-.05-.025.013-.012-.038h-.05l.013-.063-.05.037.013-.05-.063.063.013-.137-.063.112.013-.075-.025.037-.013-.05-.025.05-.037-.025v.037l-.051-.048-.025.063-.025-.063-.013.05-.025-.05v.063l-.087-.038.025.05-.037-.037.013.037-.064-.013v.037l-.062-.011.013.037-.088-.013.037.037-.013.013s.475-.15.5.438l-.088.037.025-.05-.025-.013-.074-.049.025-.075-.025.013v-.038l-.013.013-.024-.038-.013.013-.025-.05-.025.037-.012-.088-.037.05v-.037l-.013.025-.037-.05-.013.037-.013-.025-.013.025-.037-.037v.037l-.025-.025-.013.013-.063-.037v.037l-.036-.037-.013.037s.425.237.3.637l-.025.05-.013-.137-.037.075.025-.15-.025.025v-.063l-.037.063-.013-.063-.013.025-.025-.1-.025.037-.037-.111-.025.05-.013-.1-.013.063-.05-.088-.013.037-.025-.075-.013.025s-.075 0-.1-.025-.088.112-.088.112l.015-.087-.025.05v-.05l-.05.163-.013-.112-.025.1-.013-.037-.013.037-.013-.013-.013.05-.025-.025v.063l-.023-.038-.025.1-.012-.038v.037l-.025-.025-.025.1-.025-.037v.063l.013.05-.037-.013.013.088s-.125-.225.025-.45.338-.275.338-.275l-.027-.025v-.026l-.112.063v-.037l-.037.025-.014-.038-.025.037V5.4l-.025.037-.012-.062-.025.075-.013-.05-.037.112v-.087l-.037.088-.013-.1-.025.112v-.1l-.037.1-.025-.1-.013.088-.025-.075-.025.1-.037-.1-.025.137-.025-.05v.1l-.025-.062.025.137-.037-.05.013.088-.05-.088v.1l-.026-.037-.013.037s-.013-.413.263-.487.462.025.462.025l-.1-.088.013-.025h-.037l.013-.037h-.089l.025-.037-.063.013v-.027l-.037.038.013-.037-.05.037v-.05l-.025.05-.013-.05-.125.125.037-.125-.025.025v-.025l-.037.05-.012-.038-.013.05-.013-.05-.025.05-.025-.05-.013.063-.025-.037-.025.05-.037-.038v.037l-.062-.025.013.05-.05-.037-.013.063-.025-.038-.025.075-.025-.075-.025.063s.25-.625.863-.225l.087.112c.025.05 0 .013 0 .013l-.012-.438.025.188.013-.063v.1l.063-.137s-.075.225-.05.313c0 0 .025-.263.125-.3l-.088.188h.025l-.025.037h.025l-.025.063-.013.037.013.037.025-.025z" class="B E F"/></g><path d="m20.175 5.388.013.013s.037-.037.1.013l.013-.013c-.075-.063-.125-.013-.125-.013m-.026-.213v.013l.025-.013-.025.037.05-.013-.05.075.013.013.088-.112-.05.013.025-.037-.05.025.013-.063h-.013zm-.088 0 .025.037-.025-.013.088.163.013-.013-.013.05h.013l.037-.1-.013-.013-.037.037-.05-.1.025.013-.025-.05.037.025V5.15h-.012v.025l-.05-.038.013.025zm-.062.2.013.013h.063l.025.025h.013l-.039-.038zm.075.175-.012-.087h.013zm.125-.013-.025-.062h.013zm.05.05-.012-.062h.013z"/><path d="M16.9 7.6s-.075-.037-.112-.013q-.025.05-.063.063s.112.025.137 0l.025-.037m.013.025s-.05.063-.037.1.05.037.05.075c0 0 .05-.1.025-.137l-.025-.038m-.088-.176s-.075.025-.088.063v.088s.1-.05.1-.1v-.051m.037.025s.037-.075.013-.112q-.05-.038-.05-.062s-.025.112 0 .137l.037.025M16.8 7.45s0-.075-.037-.1-.063 0-.075-.025c0 0 .025.112.063.125l.05.013m.137.137s.088-.025.088.063v.063s-.051-.101-.088-.114z" class="B C E F"/><path d="m16.913 7.638.013.075h.013zl.025-.15h-.013z"/><path d="M16.837 7.612v.013q.075 0 .1-.037l-.012-.013q-.013.025-.088.025m.1-.088-.187-.1.013-.013.188.1z"/><path d="m16.813 7.5-.013-.013.037-.037.013.013zm.062-.013-.038-.087.013-.013.037.088zm.05.112v.013q.063.013.063.025h.013q0-.037-.088-.037z"/><g fill="#fff" class="B C"><path d="M17.8 7.625c.063-.037.075-.163.075-.163-.013.05-.137.088-.137.088.088-.05.188-.287.188-.287-.025.088-.25.163-.4.237s-.063.313-.063.313a.5.5 0 0 1-.137-.263q-.013-.163-.163-.163c-.15 0-.163.1-.163.1l-.15.075H17s.112.037.112.125-.088.413.063.6c.112.125.5.2.5.2"/><path d="M17.512 7.888s.025-.15.125-.15.125-.112.188-.125.363-.1.388-.237c0 0-.025.237-.3.363 0 0 .225-.075.25-.125 0 0-.1.213-.338.25 0 0 .225-.013.263-.075 0 0-.1.137-.263.15 0 0 .15.063.2.013 0 0-.088.1-.188.1l.025.013s-.1.112-.213.037-.112.025-.112.025"/><path d="M17.738 8.113s.125.213.137.325c0 0 .237.263.338.287q0 .025-.125-.05l.075.075c.013.013-.05 0-.063-.025l.05.05h-.013l-.049-.013v.037l-.05-.024V8.8L18 8.787l-.025.013H17.9l-.05.05-.163-.388"/></g><path d="m17.887 8.813-.199-.388.025-.013.2.388zm.175-.025-.349-.388.013-.013.35.388zm.075-.038-.387-.362.012-.013.388.363zm-.987-1.238s-.025-.05-.05-.025l-.037.025.037-.012q.025-.013.05.025zm-.138-.025.013.025-.013.05h.013l.013-.05-.013-.037z"/><path d="M17.15 7.512s-.025.025-.05.013l-.025-.013h.037l.038-.012z"/><path d="M17.137 7.512s-.024-.025-.037-.012q0-.013.05.013zm0 0h-.05z"/><path d="m17.125 7.5-.013.013V7.5zm.012.713s-.024.037-.012.062l.063.063.05.025h.025s-.1-.05-.125-.137z"/><g class="C B"><g class="D"><path d="M20.25 7.438s.175-.225.325-.175l.263.088s0 .15-.075.15c-.088 0-.163-.15-.237-.112q-.125.088-.137.125c-.013.037-.2.025-.125-.1z" class="G"/><g class="E"><path d="M19.587 8.55s-.05.05-.025.063q.05.013.063-.025 0-.037-.037-.037z"/><path d="M19.55 8.6s-.088-.05-.163.075-.125.313-.175.35.4-.2.4-.287c0 0 .025-.125-.013-.112q-.063.013-.063-.013z"/></g><path d="M19.563 8.612s-.088.025-.112.15-.15.2-.15.2m1.55-1.613s-.139.051-.113.151" class="G"/></g><path fill="#fedd00" d="M19.762 7.638s0-.338.275-.313c.05 0 .025.063.025.063s.063-.037.088.025c0 0 .088-.037.1.05 0 0 .088-.013.075.063 0 0 .063-.013.063.037 0 0 .075-.025.063.05 0 0 .075-.05.063.037 0 0 .088-.063.112.037s-.088.3-.188.363" class="G"/></g><path d="M20.512 7.662s.037.263-.112.35v.013c.15-.1.112-.363.112-.363m-.175.287.013.013c.088-.087.112-.337.112-.337h-.013s-.025.25-.112.338M20.25 7.9a1.3 1.3 0 0 1 .125-.325s-.125.175-.137.325m-.063-.05h.013a.6.6 0 0 1 .137-.313l-.012-.012s-.125.137-.137.325m-.101-.063h.013c.013-.213.15-.313.15-.325V7.45s-.15.112-.15.325M20 7.725h.013c-.013-.2.137-.313.15-.313V7.4s-.15.125-.15.325zm-.163-.075h.013c.025-.213.213-.263.213-.263v-.012s-.2.063-.225.275"/><path d="M19.6 8.037s-.05-.313.137-.4q.013-.013.05.037s.1-.037.1.037c0 0 .05-.037.063.013 0 0 .1-.025.088.05 0 0 .088-.025.075.05 0 0 .088-.037.075.037 0 0 .088-.025.075.05 0 0 .112-.013.075.063 0 0 .088-.025.063.05 0 0 .112.025.063.088s-.175.175-.3.225m-.662 0s-.075-.263.063-.325q0-.013.037.025s.037-.037.05 0c0 0 .075-.037.088.025 0 0 .05-.037.075.025 0 0 .05-.025.05.025 0 0 .063-.025.063.037 0 0 .063-.025.05.037 0 0 .088.013.063.063 0 0 .088.025.05.05 0 0 .088-.013.037.05 0 0 .063-.025.025.05s-.163.163-.25.163m-.328-.012s-.163-.15-.087-.2l.05.037s.037-.05.063 0c0 0 .063-.025.063.025l.05.037s.05 0 .05.025c0 0 .063-.013.05.025 0 0 .05 0 .05.037 0 0 .088.013.05.063 0 0-.15.037-.263-.013z" class="B C F G"/><path d="M20.137 8.3v.013c.1-.037.263-.263.263-.275h-.013s-.175.237-.263.263zm-.05-.037v.013a1.3 1.3 0 0 0 .25-.275h-.013s-.175.225-.25.275zm-.049-.025v.012c.088-.075.213-.313.225-.325h-.013s-.137.25-.213.325zM20 8.188c.013-.125.188-.313.188-.313v-.013c-.013.013-.176.201-.188.313zm-.338-.151h.013c-.013-.175.125-.363.125-.363h-.013s-.15.188-.137.363m.088.013h.013c-.025-.137.137-.338.137-.338h-.013c-.013.013-.163.2-.137.338m.137.05c0-.163.15-.313.15-.313v-.012s-.15.163-.15.325m-.325.287c-.05-.15.037-.325.037-.338h-.013s-.1.188-.037.338m.063.013c-.05-.15.037-.35.037-.35h-.013s-.088.2-.037.35m.263.15v.013c.15-.05.263-.2.263-.2h.012s-.1.137-.25.2zm-.013-.037v.013a1.3 1.3 0 0 0 .237-.213h-.013s-.112.15-.237.213zm-.024-.013v.013c.1-.075.225-.25.225-.25h-.013s-.125.175-.225.25zm-.151-.087c-.012-.15.088-.338.088-.338h-.013s-.1.188-.075.35m.063.037.013.013c.1-.088.137-.338.137-.338h-.013s-.037.25-.137.338zm.063.025V8.5c.137-.1.175-.3.175-.3h-.013s-.037.188-.175.287zm.013-.425v.025l-.112.35h.013l.112-.35a.5.5 0 0 1 .137-.35h-.013s-.137.163-.137.325m.112.088s-.038.238-.163.325v.013c.137-.088.163-.325.163-.338l.188-.313h-.013l-.188.313zm-.375.263s.025.125.05.163h.013c-.026-.038-.051-.163-.051-.163zm.063 0v.163h.013z"/><path d="m19.613 8.575.05-.15h-.013zm.012 0v.013c.075-.05.1-.125.1-.125h-.013s-.013.075-.088.112"/><path d="M19.637 8.575v.013c.075-.013.125-.1.125-.1h-.012s-.05.088-.125.1z"/><path d="M19.65 8.588v.013q.175-.05.175-.088h-.013s-.05.075-.175.075"/><path d="M19.65 8.588v.013c.013 0 .163.037.213-.05h-.013c-.05.075-.2.037-.2.037"/><path fill="none" stroke-width=".088" d="M16.225 3v4.275c0 1.4 2.525 2.225 2.525 2.225s2.525-.825 2.525-2.225V3z" class="B C"/></svg>