<svg xmlns="http://www.w3.org/2000/svg" xmlns:xlink="http://www.w3.org/1999/xlink" width="25" height="17.308" viewBox="0 0 25 17.308"><defs><path id="a" d="M0 .33a.443.443 0 0 1-.385-.44.192.22 0 0 1 .192-.22.165.22 0 0 1 .165.192.027.027 0 1 0 .055 0A.165.22 0 0 1 .192-.33a.192.22 0 0 1 .192.22A.44.44 0 0 1 0 .33" fill="#ee3e34" transform="rotate(34.695)scale(4.625)"/></defs><path fill="#0155a5" d="M0 0h25v17.308H0z"/><path d="M0 7.38v4.95l7.15 4.95h7.15zM3.51 0H0v2.43l21.45 14.85h3.51v-2.43zm7.15 0h7.15l7.15 4.95V9.9z" fill="#fff"/><use xlink:href="#a" x="455" y="315"/><use xlink:href="#a" x="91" y="423"/><use xlink:href="#a" x="819" y="207"/><use xlink:href="#a" x="212.333" y="147"/><use xlink:href="#a" x="697.667" y="483"/><use xlink:href="#a" x="661.315" y="97.834"/><use xlink:href="#a" x="248.685" y="532.166"/></svg>