<svg xmlns="http://www.w3.org/2000/svg" xmlns:xlink="http://www.w3.org/1999/xlink" width="375" height="250"><path fill="#ffd228" d="M0 0h375v250H0z"/><g fill="#b4001e" stroke="#000" stroke-width=".6"><g id="b"><path d="M53.716 55.716c.143-2.61-1.402-4.965-3.4-6.963 1.885-.566 4.023-1.706 5.281-3.176-2.727.39-5.414.848-7.958-1.696-1.089-1.089-2.056-3.096-2.196-4.64l-8.204 8.204c1.544.14 3.552 1.107 4.64 2.196 2.543 2.544 2.085 5.231 1.696 7.958 1.47-1.258 2.611-3.396 3.176-5.281 1.999 1.999 4.353 3.543 6.963 3.4zm-25.63-22.243c-7.991-7.991-18.006-4.017-18.005 1.407 0 3.888 6.25 8.883 13.167 3.255-2.152.046-4.041-.742-4.042-2.087-.001-2.412 6.044-3.871 8.808-1.107l4.927-4.927c-2.764-2.765-1.304-8.808 1.107-8.808 1.344 0 2.132 1.89 2.087 4.041 5.627-6.916.632-13.165-3.256-13.166-5.424-.001-9.398 10.014-1.407 18.005z"/><path d="M29.065 33.891s-10.66-5.008-15.035-9.375c-2.402-2.402-3.646-5.85-4.03-12.515 6.665.384 10.116 1.625 12.515 4.03 4.371 4.371 9.375 15.035 9.375 15.035z"/></g><g id="a"><path d="M112 16c-1.947 1.745-2.52 4.502-2.52 7.328-1.733-.933-4.051-1.638-5.98-1.488 2.203 1.653 4.428 3.229 4.428 6.826 0 1.54-.736 3.643-1.729 4.834h11.602c-.993-1.191-1.729-3.294-1.729-4.834 0-3.597 2.224-5.174 4.428-6.826-1.93-.15-4.248.556-5.98 1.488 0-2.826-.573-5.584-2.52-7.328zm2.395 26.488c0 11.301 9.891 15.572 13.726 11.737 2.748-2.75 1.861-10.7-7.009-11.612 1.554 1.489 2.333 3.382 1.383 4.334-1.705 1.706-7.011-1.536-7.011-5.446h-6.967c0 3.91-5.306 7.151-7.011 5.446-.951-.951-.171-2.844 1.382-4.334-8.869.912-9.756 8.862-7.008 11.612 3.835 3.836 13.726-.436 13.726-11.737z"/><path d="M113.998 41.5s3.997 11.079 4.002 17.261c0 3.397-1.558 6.714-6 11.699-4.442-4.984-6.004-8.302-6-11.699 0-6.182 4.002-17.261 4.002-17.261z"/></g><g id="d"><path d="M187.5 56c-1.947-1.745-2.52-4.502-2.52-7.328-1.733.933-4.051 1.638-5.98 1.488 2.203-1.653 4.428-3.229 4.428-6.826 0-1.54-.736-3.643-1.729-4.834h11.602c-.993 1.191-1.729 3.294-1.729 4.834 0 3.597 2.224 5.174 4.428 6.826-1.93.15-4.248-.556-5.98-1.488 0 2.826-.573 5.584-2.52 7.328zm3.484-25.5c0-2.764 5.305-5.687 7.01-4.48.951.673.171 2.143-1.383 3.197 8.87-.645 9.758-6.269 7.01-8.213-3.835-2.713-13.727.511-13.727 8.5h-4.789c0-7.989-9.892-11.213-13.727-8.5-2.748 1.944-1.86 7.568 7.01 8.213-1.554-1.054-2.333-2.524-1.383-3.197 1.705-1.206 7.01 1.716 7.01 4.48z"/><path d="M185.502 30.5s-3.997-7.849-4.002-12.219c0-2.402 1.558-4.756 6-8.281 4.442 3.524 6.004 5.879 6 8.281 0 4.371-4.002 12.219-4.002 12.219z"/></g><use xlink:href="#a" x="-375" transform="scale(-1 1)"/><use xlink:href="#b" x="-375" transform="scale(-1 1)"/><g id="c"><path d="M14 125c1.745-1.947 4.502-2.52 7.328-2.52-.933-1.733-1.638-4.051-1.488-5.981 1.653 2.204 3.229 4.428 6.826 4.428 1.54 0 3.643-.736 4.834-1.729V130.8c-1.191-.993-3.294-1.729-4.834-1.729-3.597 0-5.174 2.224-6.826 4.428-.15-1.93.556-4.248 1.488-5.98-2.826 0-5.584-.573-7.328-2.52zm26.488 2.395c11.301 0 15.573 9.891 11.737 13.726-2.75 2.748-10.7 1.861-11.612-7.009 1.489 1.554 3.382 2.333 4.334 1.383 1.706-1.705-1.536-7.011-5.446-7.011v-6.967c3.91 0 7.151-5.306 5.446-7.011-.951-.951-2.844-.171-4.334 1.382.912-8.869 8.862-9.756 11.612-7.008 3.836 3.835-.436 13.726-11.737 13.726z"/><path d="M39.5 126.998s11.079 3.997 17.261 4.002c3.397 0 6.714-1.558 11.699-6-4.984-4.442-8.302-6.004-11.699-6-6.182 0-17.261 4.002-17.261 4.002z"/></g><use xlink:href="#c" x="-375" transform="scale(-1 1)"/><use xlink:href="#b" y="-250" transform="scale(1 -1)"/><use xlink:href="#a" y="-250" transform="scale(1 -1)"/><use xlink:href="#d" y="-250" transform="scale(1 -1)"/><use xlink:href="#a" x="-375" y="-250" transform="scale(-1)"/><use xlink:href="#b" x="-375" y="-250" transform="scale(-1)"/><path d="M338.5 38.5h-302v173h302zm-297 5h292v163h-292z"/><path d="M348.5 28.5h-322v193h322zm-317 5h312v183h-312z"/><path d="m141.617 76.582-1.42-3.775c-1.528 1.542-4.17 1.64-6.516.689 1.644 3.86 5.593 3.697 7.936 3.086zm9.821-16.358-4.204.101c.951-2.013.086-4.519-1.696-6.352 4.369.076 5.645 3.829 5.9 6.251z" fill="#1e82d2" stroke-width=".8"/><path d="M144.54 69.692c-2.173 3.016-3.674.401-5.473 3.199-.378.588.811.906 1.33 1.668.552.81.627 3.326 1.142 2.808 3.437-3.456 3.261-3.748 6.104-2.144 2.655 1.497 2.605 6.793 3.905 9.206.188-2.568 1.303-3.231 1.661-1.891s-.648 6.135-.153 7.403c1.327-2.133 2.056-2.483 2.056-2.483s-1.427 7.439-.766 8.494c1.001-2.799 2.803-3.518 3.409-4.274s-2.172 5.39-1.518 8.355c1.758-3.474 2.797-3.965 2.797-3.965s-1.223 5.025-.41 7.747c1.041-3.022 1.924-2.907 2.302-3.663-.795 5.856 6.974 11.64 6.974 11.64l13.999-12.014c-6.924-5.366-12.941-5.682-17.477-18.14-1.532-4.206-6.358-9.336-10.862-12.303-5.536-3.647.545-7.325-2.166-10.109-.211-.108-.35-.142-.477-.136-.383.018-.572.405-1.552.408-1.375.004-3.091-.948-2.865.732.264 1.965-.008 3.443.87 4.544" stroke-width=".9"/><path d="m144.184 58.675-2.642 3.272c-.595-2.145-2.2-3.161-4.749-3.389 2.956-3.07 5.614-1.552 7.39.117z" fill="#1e82d2" stroke-width=".8"/><path d="M148.238 65.761c-2.624-2.563.132-5.448-4.183-7.843-1.024-.568-.53 1.521-1.345 2.369-.72.749-3.054 1.494-1.947 2.257 2.4 1.655 2.771 1.34 5.056 4.766" stroke-width=".9"/><path d="m140.079 62.25-1.137 4.041c-1.648-1.498-4.304-1.409-6.582-.247 1.356-4.146 5.325-4.262 7.719-3.794z" fill="#1e82d2" stroke-width=".8"/><path d="M146.781 66.908c-2.315-1.183-7.242-7.041-7.941-5.531-.492 1.061.248 1.817.041 2.703-.236 1.01-1.372 2.541-.228 3.248 1.42.877 3.101-2.503 5.88 2.365" stroke-width=".9"/><path d="m133.223 121.911-.984 4.08c-1.704-1.436-4.354-1.247-6.587 0 1.199-4.194 5.161-4.458 7.571-4.08zm-4.066 8.863 2.196 3.579c-2.222.188-3.961 2.192-4.656 4.65-2.125-3.811.488-6.795 2.46-8.229zm7.504 5.153 3.487 2.345c-1.943 1.092-2.691 3.636-2.3 6.16-3.519-2.586-2.383-6.384-1.187-8.506z" fill="#1e82d2" stroke-width=".8"/><path d="M180.619 98.109c-16.682 11.914-23.311 15.857-33.92 23.651-2.171 1.595-5.71 2.757-8.253 2.494-2.328-.241-5.434-4.56-7.117-3.287-.755.571.342 1.256.268 2.678s-1.912 1.987-.912 2.687c1.586 1.11 4.656.353 6.284.642-3.016 2.091-9.771 2.457-9.881 4.118-.077 1.167 1.925 1.065 2.423 1.889.537.889.541 2.715 1.704 2.04 2.322-1.348 3.874-5.075 7.836-5.101.24 4.03-3.546 5.28-3.71 7.103-.063.696 2.195-.034 2.953.491.807.558 1.653 2.481 2.082 1.889 1.564-2.154-.319-8.455 3.975-10.314 2.263-.98.959 5.541 1.439 8.236 1.969-1.839 3.521-4.131 4.543-7.33.543 1.058.669 2.116.606 3.174.921-1.562 1.199-3.123 1.514-4.685 0 0 1.174 2.002 1.211 3.023.757-.718.909-4.836.909-4.836s.606 3.023 2.574 3.854c-.227-1.36.303-4.307.303-4.307s2.082 4.08 5.149 4.534c-1.552-1.7-1.817-4.987-1.817-4.987s2.801 2.985 3.937 3.325c-.984-2.418.606-4.08.606-4.08s1.136 2.418 4.316 2.456c-2.158-1.662-1.59-3.06-1.59-3.06s3.521 2.342 5.3 2.267c-.871-2.116 1.817-2.569 1.817-2.569s1.06 1.133.644 2.947c1.514-1.247 4.202-4.458 4.202-4.458 1.64 2.96 5.089 7.912 10.491 8.553 3.224.382 6.21-.31 9.762 2.517l-3.294-36.611-16.354 1.058z" stroke-width=".9"/><path d="m154.494 152.754-2.769 3.159c-.841-2.061-3.277-3.121-5.835-3.051 3.012-3.16 6.645-1.559 8.604-.108zm-.95 14.969 2.977 2.965c-2.115.703-3.335 3.059-3.432 5.611-2.962-3.206-1.124-6.719.455-8.576z" fill="#1e82d2" stroke-width=".8"/><path d="M156.783 163.918c-.184 4.033-3.097.696-5.269 4.646-.337.612 2.336-.107 3.035.494.744.639 1.353 3.027 1.91 2.553 3.788-3.226 1.158-6.741 4.399-6.228 2.051.325 1.547 4.78 4.27 6.206.139-2.28 1.073-2.859 2.158-3.892 1.189 2.345 2.226 4.5 4.701 6.014.102-1.774.811-3.094 1.897-4.414 0 0 2.965 5.756 4.536 6.416-.171-2.023 2.353-6.194 2.353-6.194s1.648 3.013 2.191 4.422c.902-.758 3.15-3.926 3.15-3.926 3.822 1.246 6.281.414 7.226-2.912-13.151 4.509-10.739-15.094-.008-14.848 3.55.081 7.05.724 7.05.724l.598-15.949s-5.445.496-9.342.153c-4.031-.355-2.063-2.016-6.514-2.28-4.542-.272-8.823 6.466-12.007 5.718-2.527-.594-6.434-1.66-3.102-7.76-3.584 2.43-5.351 4.747-2.575 8.764-3.052-.109-6.407-1.578-8.475-4.748.87 5.19 3.443 7.924 8.628 7.862-1.428 2.96-3.423 4.861-7.349 4.459 3.915 2.189 5.862 1.43 9.702-2.502.102 1.32-.326 2.564-1.057 3.846 1.842-.488 3.683-.711 5.525-.442-.934 3.902 2.561 6.633 2.421 10.347l-13.709-.511c-3.387-.076-4.108-1.76-6.207-3.216-1.457-1.011-1.143-6.128-2.95-5.037-.81.489-.176 1.549-1.074 2.655-.866 1.066-2.906-.202-2.251 1.361.767 1.829 2.293 2.585 3.427 3.421" stroke-width=".9"/><path d="m150.388 155.65-.608 4.158c-1.605-1.545-3.505-1.606-5.816-.509.981-4.144 4.043-4.185 6.423-3.649z" fill="#1e82d2" stroke-width=".8"/><path d="M157.025 160.481c-3.473-1.191-3.6-5.579-8.527-5.894-1.169-.075.846 1.952.474 3.067-.328.985-1.855 2.325-.527 2.54 2.879.467 3.201.718 6.738 2.834" stroke-width=".9"/><path d="m148.827 160.11-.047 4.197c-1.982-1.02-4.523-.245-6.421 1.468.23-4.355 4.034-5.496 6.468-5.664z" fill="#1e82d2" stroke-width=".8"/><path d="M156.134 161.853c-2.594-.295-8.29-4.337-8.573-2.697-.199 1.152.516 1.978.546 2.887.035 1.037-1.2 3.082-.072 3.813 1.163.753 1.28-2.074 8.744-1.931" stroke-width=".9"/><path d="m206.17 182.681.559 4.16c-2.108-.725-4.511.406-6.143 2.374-.4-4.343 3.2-6.018 5.584-6.534zm16.796 5.219-3.662 2.063c1.85 1.242 2.395 3.837 1.805 6.322 3.713-2.3 2.881-6.176 1.857-8.385z" fill="#1e82d2" stroke-width=".8"/><path d="M211.33 185.479c-1.322.489-3.315 3.153-5.269 2.791-1.669-.31.402-2.181-.017-3.489-.435-1.356-.989-1.897-.955-2.842.076-2.106 4.151.509 5.797-.153 2.371-.954 1.989-1.196 3.022-3.839.975-2.495 2.827-2.101 3.089-5.266s-2.079-7.807-2.079-7.807c-3.962 6.469-7.961 5.948-11.279 2.14 0 0-2.496 4.919 3.294 7.262-2.576 2.154-6.329-2.122-6.329-2.122s-.812 2.617-.178 5.367c-2.319-.613-2.737-6.762-2.737-6.762-1.255.61-1.941 2.807-2.287 4.778-1.633-3.924.141-8.3 5.473-10.335.023-4.584-5.374-11.454-5.231-15.679.297-8.587 6.872-12.486-4.418-23.452l2.114-24.709c9.161 7.802 16.242 22.027 18.177 26.139 10.528 22.376 29.85 4.986 25.202-4.986-4.176-8.96-17.092-4.908-8.253 1.515-5.697 3.136-6.957-2.416-6.957-2.416s-4.426 1.361-1.739 9.36c-7.799-5.716-.686-12.275-.686-12.275s-5.207-.872-4.088-6.087c1.762 3.21 6.139 3.778 6.139 3.778.238-2.342 2.065-3.021 3.325-3.625 0 0-4.312-7.054 2.605-9.103-3.115 5.734.986 8.008.986 8.008 3.852.453 7.249 2.229 9.283 6.234 0 0-.138-12.018-12.192-20.778-13.439-9.767-13.778-27.978-4.314-36.417 1.096-.977 4.097-2.58 7.787-2.655 5.166-.529 7.68-3.306 7.576-6.109 3.417 2.637-.08 6.418-.08 6.418 3.193 2.193 4.04 6.124 6.362 7.712 2.687.408 5.113.355 6.889-1.821-.287 2.321-2.278 5.36-4.799 4.658.342 2.101.192 4.201-1.549 5.659.577 1.826 1.231 3.841 4.004 4.345-2.927 2.695-5.626.478-6.735-2.57 0 0-4.713 5.446-2.042 10.772-5.203.867-4.386-8.815-4.386-8.815s-.807 5.058-.039 8.021c-4.179-1.448-4.906-6.812-2.466-10.47 1.463-2.194 5.028-7.245 5.028-7.245s-3.958 3.938-6.021 6.64c-1.609-3.797-.322-7.782 1.213-10.985.416-.869-.25-3.994-3.518-3.82-2.049.109-13.172 7.917-8.059 22.777 2.044 5.94 12.115 12.937 19.541 23.348 6.498 9.11 3.526 27.558-4.553 33.405-6.44 4.661-17.469 3.389-22.03.442-.549 4.458-.153 8.917-.153 8.917 2.637 5.041 10.234 3.546 14.31-2.71-.784 4.519.551 6.015 3.628 6.113-2.887 2.205-.967 6.11 3.717 6.501-.999 2.492-3.74 1.509-5.61 2.263 0 0 .103 1.825 4.024 2.127-.243 1.285-4.996 3.012-4.996 3.012s.324 1.894 4.467 3.029c-.74 1.135-5.763 2.417-5.763 2.417s.761 1.435 4.092 1.736c-.379 1.963-8.031 2.944-8.031 2.944s3.615 2.55 5.529 2.984c-2.553 2.021-6.808 1.474-6.808 1.474-.345.788-.05.144-.256 2.161-.423 4.148 3.914 2.088 3.444 5.582-.097.724-1.853.189-2.796.459-.887.254-1.634 3.517-2.455 2.825-3.448-2.907.824-4.052-2.455-6.416" stroke-width=".9"/><path d="m205.255 190.067 2.829 2.508c-1.951.445-2.932 1.842-3.243 4.121-2.635-2.782-1.16-5.104.413-6.629z" fill="#1e82d2" stroke-width=".8"/><path d="M210.811 184.689c-2.901 2.247-4.94 1.893-6.821 5.713-.378.767 1.381.137 2.111 1.058.646.813 1.008 2.671 1.916 1.681 1.969-2.148 2.685-5.585 6.397-7.378" stroke-width=".9"/><path d="m208.798 191.757 3.656 2.075c-1.854 1.236-2.407 3.829-1.825 6.317-3.705-2.312-2.862-6.185-1.83-8.391z" fill="#1e82d2" stroke-width=".8"/><path d="M213.862 185.388c-1.668 2.004-7.549 6.334-6.329 7.469.857.797 2.054-.103 2.833.371.888.539 1.282 2.162 2.513 1.62 1.268-.559-1.529-5.492 3.967-9.001" stroke-width=".9"/><path d="M201.214 154.177c2.423 4.609 5.981 4.081 5.981 4.081m10.221-1.965c1.969.831 4.846-1.511 4.846-1.511v5.063" fill="none" stroke-width=".9"/><path d="M188.244 98.871h6.799v28.372h-6.799z" stroke="none"/><path d="M180.334 87.397s.629-3.833 1.433-3.907c-.424 2.087 1.368 4.666 1.368 4.666z" fill="#fff" stroke-width=".4"/><path d="M190.614 80.314c-18.256.423-17.613-3.268-17.149-8.274-3.814.586-3.378 10.393 2.158 10.503 5.121.102 14.688 0 14.688 0z" fill="#1e82d2"/><path d="M179.773 74.304s.814 4.893 1.855 4.987c-.549-2.664 1.476-4.798 1.476-4.798z" fill="#fff" stroke-width=".4"/><path d="M166.401 98.39c2.415 6.067 10.922 2.85 16.383 4.275l17.56-2.778 7.511 2.888c-.709-4.417.126-10.346.068-14.876-.075-5.798-.606-9.597-.606-9.597-.071-2.173-.959-4.187-2.315-5.505 0 0 3.279-1.322 2.409-3.366-1.138 1.322-4.979 1.656-4.979 1.656.5-2.761-2.159-5.468-5.675-6.626 0 0 1.78-2.939-.803-3.954-.709 2.03-3.373 4.221-3.373 4.221s-3.498-.455-6.425 1.282c-1.109.659-2.631 1.843-5.523 2.083-1.029.086-2.68-.092-2.99.401-.203.323-.803.054.013 1.83.568 1.236.468 4.689.147 6.105 0 0 1.175.787 4.176.534 3.012-.254 7.509-.468 7.509-.468s-1.992 1.618-.696 4.007c2.9 5.349-5.117 8.108-9.704 4.849.625 2.298.125 3.687-1.499 4.969 4.39-1.371 9.155-.018 12.688-1.87 0 0 2.364 5.536-4.069 4.862-3.828-.401-13.191 6.058-19.809 5.076z" stroke-width=".9"/><path d="M207.316 78.302c.278 2.205.925 4.655 4.031 4.233-4.155 5.782-7.489.116-8.816-1.588m5.391 6.951c.278 2.205 1.758 5.146 4.863 4.724-4.041 4.573-8.322-.375-9.649-2.079" stroke-width=".9"/><path d="M189.329 69.673c0 .702-.984 1.271-2.197 1.271s-2.197-.569-2.197-1.271 1.697-1.525 2.91-1.525 1.541.456 1.484 1.525z" fill="#000" stroke-width=".9" stroke-linecap="round"/><path d="M203.871 96.097c.278 2.205 4.068 7.111 7.173 6.689-4.571 3.666-12.184-.602-13.511-2.305" stroke-width=".9"/><path d="M187.509 95.842c-3.88.472-6.985.678-10.633 3.655-3.194 2.607-9.348 4.546-12.422 10.815 5.259-1.1 13.326-8.199 13.326-8.199s-2.508 4.817-6.246 7.254c3.644.775 10.221-5.063 10.221-5.063s-.511 5.781-3.331 7.783c2.177 2.985 7.193-3.703 7.193-3.703s-1.42 4.288-4.694 8.463c6.114 1.53 8.859-10.503 8.859-10.503s.322 6.706-1.666 10.126c6.417.397 5.527-11.259 5.527-11.259s.208 13.243 5.149 11.788c-1.571-2.739-2.953-10.05-2.953-10.05s2.783 10.39 8.177 8.614c-3.54-4.345-2.678-12.591-2.271-14.13-.88 2.39 1.552 13.45 7.534 7.972-3.748-.907-3.596-7.519-3.596-7.519" stroke-width=".9"/></g></svg>