<svg xmlns="http://www.w3.org/2000/svg" width="25" height="13.75" viewBox="0 0 25 13.75"><path d="M0 0h25v13.75H0z" fill="#0038a8"/><path d="M0 0h25v9.167H0z" fill="#fff"/><path d="M0 0h25v4.583H0z" fill="#d52b1e"/><path d="M14.243 6.875c0 0.963 -0.78 1.743 -1.743 1.743 -0.962 0 -1.743 -0.78 -1.743 -1.743 0 -0.962 0.78 -1.742 1.743 -1.742 0.963 0 1.743 0.78 1.743 1.742z" stroke-miterlimit="10" fill="#fff" stroke="#000" stroke-width="0.07681249999999999"/><path d="M13.343 6.605c-0.042 -0.002 -0.043 0.045 -0.043 0.045s0.001 -0.014 0 0.002c-0.001 0.015 0.007 0.053 0.038 0.056 0.033 0.003 0.044 -0.036 0.044 -0.054 0 -0.007 -0.002 -0.048 -0.04 -0.049" fill="#009b3a" stroke="#000" stroke-width="0.020520833333333332"/><path d="m11.407 7.572 -0.015 -0.025c-0.001 -0.003 -0.005 -0.007 -0.012 -0.014a0.017 0.017 0 0 0 -0.012 -0.006 0.021 0.021 0 0 0 -0.014 0.003c-0.006 0.004 -0.01 0.008 -0.01 0.014 -0.001 0.006 0.002 0.014 0.008 0.025l0.015 0.026zm0.147 -0.008 -0.19 0.113 -0.058 -0.097c-0.011 -0.018 -0.017 -0.033 -0.02 -0.044 -0.003 -0.012 -0.002 -0.023 0.003 -0.033 0.005 -0.011 0.013 -0.02 0.026 -0.027a0.066 0.066 0 0 1 0.031 -0.01c0.011 0 0.02 0.003 0.03 0.008 0.006 0.003 0.013 0.008 0.02 0.016 -0.002 -0.008 -0.003 -0.014 -0.002 -0.019a0.125 0.125 0 0 1 0.005 -0.015c0.003 -0.007 0.005 -0.012 0.007 -0.015l0.038 -0.061 0.039 0.066 -0.039 0.066c-0.005 0.008 -0.008 0.015 -0.008 0.019 0 0.006 0.001 0.012 0.004 0.017l0.003 0.005 0.077 -0.046zm-0.334 -0.154 -0.058 -0.173 0.045 -0.015 0.036 0.108 0.033 -0.011 -0.034 -0.101 0.043 -0.014 0.034 0.1 0.041 -0.013 -0.037 -0.112 0.047 -0.016 0.059 0.176zm0.006 -0.352 -0.002 -0.016c-0.002 -0.013 -0.005 -0.022 -0.01 -0.027a0.024 0.024 0 0 0 -0.019 -0.006 0.027 0.027 0 0 0 -0.016 0.009c-0.004 0.005 -0.006 0.014 -0.004 0.027l0.002 0.019zm-0.086 0.079 -0.013 -0.112c-0.003 -0.024 0.001 -0.043 0.011 -0.057 0.01 -0.013 0.026 -0.022 0.048 -0.024 0.022 -0.003 0.04 0.002 0.054 0.014 0.014 0.012 0.022 0.032 0.026 0.059l0.004 0.037 0.081 -0.009 0.008 0.068zm-0.008 -0.43 0.007 -0.068 0.131 0.014a0.115 0.115 0 0 1 0.036 0.01 0.074 0.074 0 0 1 0.028 0.022c0.008 0.01 0.013 0.019 0.015 0.029 0.003 0.013 0.004 0.029 0.002 0.048a0.25 0.25 0 0 1 -0.006 0.034c-0.003 0.012 -0.007 0.023 -0.012 0.031a0.081 0.081 0 0 1 -0.021 0.021 0.069 0.069 0 0 1 -0.027 0.011c-0.014 0.003 -0.027 0.004 -0.038 0.002l-0.13 -0.014 0.007 -0.068 0.134 0.014c0.012 0.001 0.022 -0.001 0.029 -0.007 0.007 -0.006 0.012 -0.015 0.013 -0.026 0.001 -0.012 -0.001 -0.021 -0.007 -0.029 -0.006 -0.007 -0.015 -0.012 -0.027 -0.013zm0.219 -0.185 0.012 -0.033c0.004 -0.011 0.005 -0.02 0.002 -0.026a0.02 0.02 0 0 0 -0.013 -0.012c-0.007 -0.002 -0.012 -0.002 -0.017 0.001 -0.005 0.003 -0.01 0.01 -0.014 0.021l-0.012 0.033zm-0.082 -0.029 0.01 -0.028c0.003 -0.01 0.004 -0.018 0.002 -0.023 -0.002 -0.005 -0.006 -0.009 -0.013 -0.011a0.019 0.019 0 0 0 -0.016 0.001c-0.005 0.003 -0.009 0.009 -0.012 0.019l-0.01 0.028zm-0.104 0.037 0.042 -0.121c0.007 -0.02 0.018 -0.033 0.031 -0.041a0.052 0.052 0 0 1 0.042 -0.003c0.012 0.005 0.021 0.012 0.028 0.023 0.004 0.007 0.006 0.016 0.006 0.027 0.009 -0.014 0.019 -0.022 0.03 -0.026 0.011 -0.004 0.024 -0.004 0.037 0.001 0.01 0.004 0.019 0.01 0.026 0.017 0.007 0.008 0.011 0.017 0.013 0.028 0.001 0.007 0.001 0.016 -0.002 0.027 -0.003 0.015 -0.005 0.025 -0.007 0.03l-0.039 0.111zm0.112 -0.282 0.036 -0.058 0.142 0.086 0.055 -0.091 0.046 0.028 -0.09 0.149zm0.146 -0.217 0.044 -0.052 0.168 0.142 -0.044 0.052zm0.305 -0.118 0.057 -0.024c0.007 0.015 0.012 0.03 0.012 0.044a0.085 0.085 0 0 1 -0.008 0.04c-0.007 0.013 -0.017 0.025 -0.032 0.038 -0.019 0.015 -0.036 0.025 -0.052 0.029q-0.024 0.006 -0.054 -0.003c-0.019 -0.006 -0.038 -0.02 -0.055 -0.041 -0.023 -0.028 -0.034 -0.056 -0.031 -0.083 0.002 -0.028 0.017 -0.052 0.044 -0.075 0.022 -0.018 0.042 -0.027 0.061 -0.029 0.019 -0.002 0.04 0.004 0.06 0.017l-0.038 0.049c-0.006 -0.004 -0.01 -0.006 -0.015 -0.007a0.033 0.033 0 0 0 -0.018 0 0.039 0.039 0 0 0 -0.017 0.008q-0.018 0.015 -0.015 0.037c0.001 0.011 0.008 0.024 0.02 0.039 0.016 0.019 0.029 0.029 0.041 0.031 0.012 0.002 0.023 -0.001 0.033 -0.009 0.01 -0.008 0.015 -0.017 0.016 -0.027 0 -0.01 -0.002 -0.022 -0.009 -0.034m0.223 -0.132 -0.058 -0.06 0.014 0.082zm0.034 0.036 -0.069 0.035 0.007 0.037 -0.062 0.032 -0.026 -0.234 0.066 -0.034 0.174 0.159 -0.063 0.032zm0.268 -0.23 0.017 0.119 0.017 -0.002c0.014 -0.002 0.024 -0.005 0.03 -0.009 0.005 -0.004 0.009 -0.01 0.011 -0.019 0.002 -0.008 0.002 -0.021 0 -0.038 -0.003 -0.023 -0.009 -0.038 -0.018 -0.046 -0.009 -0.007 -0.022 -0.01 -0.039 -0.007zm-0.074 -0.04 0.1 -0.014c0.02 -0.003 0.036 -0.002 0.049 0.001a0.08 0.08 0 0 1 0.034 0.019 0.096 0.096 0 0 1 0.022 0.032 0.154 0.154 0 0 1 0.011 0.042c0.004 0.023 0.004 0.042 0 0.055a0.094 0.094 0 0 1 -0.017 0.036c-0.008 0.01 -0.018 0.017 -0.028 0.021a0.152 0.152 0 0 1 -0.039 0.012l-0.1 0.014zm0.3 -0.043 0.182 0.013 -0.003 0.047 -0.114 -0.008 -0.003 0.035 0.106 0.008 -0.004 0.045 -0.105 -0.007 -0.003 0.043 0.117 0.009 -0.004 0.05 -0.185 -0.014zm0.28 0.026 0.065 0.018 -0.045 0.16 0.102 0.029 -0.015 0.052 -0.168 -0.047zm0.372 0.244 0.014 0.009c0.011 0.007 0.02 0.01 0.027 0.009a0.02 0.02 0 0 0 0.016 -0.01 0.027 0.027 0 0 0 0.004 -0.019c-0.001 -0.006 -0.007 -0.013 -0.018 -0.02l-0.016 -0.011zm-0.005 -0.116 0.095 0.062c0.02 0.013 0.033 0.029 0.036 0.045 0.004 0.017 0 0.034 -0.012 0.052 -0.012 0.018 -0.027 0.029 -0.045 0.032 -0.018 0.003 -0.038 -0.003 -0.061 -0.018l-0.031 -0.021 -0.045 0.068 -0.057 -0.038zm0.239 0.336 0.038 -0.073 -0.073 0.039zm-0.023 0.044 -0.055 -0.054 -0.033 0.018 -0.049 -0.049 0.102 -0.047 0.112 -0.052 0.053 0.052 -0.096 0.215 -0.051 -0.05zm0.205 0.096 0.016 0.025c0.002 0.002 0.005 0.007 0.012 0.014a0.018 0.018 0 0 0 0.012 0.005 0.019 0.019 0 0 0 0.013 -0.003c0.006 -0.004 0.009 -0.008 0.01 -0.014 0.001 -0.006 -0.002 -0.014 -0.009 -0.025l-0.016 -0.025zm-0.147 0.013 0.186 -0.119 0.061 0.096c0.011 0.018 0.018 0.032 0.022 0.043a0.054 0.054 0 0 1 -0.003 0.033c-0.004 0.011 -0.013 0.02 -0.024 0.028 -0.011 0.007 -0.021 0.01 -0.031 0.01 -0.01 0.001 -0.02 -0.002 -0.03 -0.006a0.115 0.115 0 0 1 -0.02 -0.016c0.002 0.008 0.003 0.015 0.003 0.019a0.125 0.125 0 0 1 -0.004 0.015 0.083 0.083 0 0 1 -0.007 0.016l-0.036 0.062 -0.042 -0.065 0.037 -0.067c0.005 -0.009 0.007 -0.015 0.007 -0.02 0 -0.006 -0.001 -0.012 -0.005 -0.017l-0.003 -0.005 -0.076 0.048zm0.26 0.297 0.066 -0.05 -0.083 0.005zm-0.04 0.029 -0.026 -0.073 -0.038 0.003 -0.024 -0.065 0.235 0.003 0.025 0.069 -0.179 0.153 -0.024 -0.067zm0.105 0.234 0.045 -0.006 0.013 0.105 -0.093 0.011c-0.016 -0.018 -0.028 -0.035 -0.034 -0.049 -0.007 -0.015 -0.012 -0.033 -0.014 -0.054 -0.003 -0.026 -0.002 -0.048 0.006 -0.065 0.007 -0.017 0.018 -0.032 0.034 -0.043 0.016 -0.011 0.036 -0.018 0.058 -0.021 0.024 -0.003 0.045 -0.001 0.064 0.007 0.019 0.007 0.034 0.02 0.046 0.038 0.009 0.014 0.015 0.033 0.018 0.059 0.003 0.024 0.003 0.042 0 0.055a0.066 0.066 0 0 1 -0.017 0.033 0.085 0.085 0 0 1 -0.032 0.022l-0.02 -0.064c0.008 -0.004 0.014 -0.009 0.017 -0.016 0.004 -0.007 0.004 -0.016 0.004 -0.025 -0.002 -0.015 -0.009 -0.026 -0.02 -0.034 -0.012 -0.007 -0.029 -0.01 -0.051 -0.007 -0.024 0.003 -0.04 0.01 -0.049 0.02 -0.009 0.01 -0.012 0.024 -0.01 0.039 0.001 0.007 0.003 0.014 0.006 0.021 0.003 0.007 0.008 0.014 0.014 0.023l0.021 -0.003zm0.139 0.33 -0.008 0.067 -0.13 -0.015a0.11 0.11 0 0 1 -0.036 -0.01 0.079 0.079 0 0 1 -0.028 -0.022c-0.007 -0.009 -0.013 -0.019 -0.015 -0.029 -0.003 -0.014 -0.004 -0.03 -0.002 -0.048 0.001 -0.011 0.004 -0.022 0.006 -0.035 0.003 -0.012 0.007 -0.023 0.013 -0.03a0.085 0.085 0 0 1 0.021 -0.021c0.01 -0.006 0.018 -0.01 0.027 -0.011 0.014 -0.003 0.027 -0.004 0.038 -0.002l0.13 0.015 -0.008 0.067 -0.133 -0.015c-0.012 -0.001 -0.022 0.001 -0.029 0.007 -0.007 0.006 -0.012 0.015 -0.013 0.026 -0.001 0.012 0.001 0.021 0.007 0.029 0.006 0.007 0.015 0.012 0.027 0.013zm-0.203 0.251 0.083 0.003 -0.067 -0.049zm-0.049 -0.002 0.025 -0.073 -0.031 -0.022 0.023 -0.066 0.181 0.15 -0.025 0.07 -0.235 0.006 0.023 -0.067zm0.122 0.203 -0.038 0.065 -0.087 0 0.042 0.076 -0.038 0.064 -0.067 -0.139 -0.079 -0.047 0.035 -0.059 0.079 0.047z"/><path d="M13.959 6.875c0 0.806 -0.653 1.459 -1.459 1.459 -0.806 0 -1.459 -0.653 -1.459 -1.459 0 -0.805 0.653 -1.459 1.459 -1.459 0.806 0 1.459 0.653 1.459 1.459z" stroke-miterlimit="10" fill="none" stroke="#000" stroke-width="0.03072916666666667"/><path d="M13.585 6.87c0 0.6 -0.486 1.086 -1.086 1.086 -0.6 0 -1.086 -0.486 -1.086 -1.086 0 -0.599 0.486 -1.085 1.086 -1.085 0.6 0 1.086 0.486 1.086 1.085z" stroke-miterlimit="10" fill="none" stroke="#000" stroke-width="0.03072916666666667"/><path d="m12.5 6.479 0.091 0.261 0.276 0.006 -0.22 0.167 0.08 0.265 -0.227 -0.157 -0.227 0.157 0.08 -0.265 -0.22 -0.167 0.276 -0.006z" fill="#fedf00" stroke="#000" stroke-width="0.012541666666666666"/><path d="M13.001 7.619c-0.009 0.008 -0.046 0.012 -0.056 0.013 -0.01 0.001 -0.049 0.002 -0.065 0.002 -0.009 0.001 -0.027 0.003 -0.036 0.003 -0.08 -0.009 0.13 -0.008 0.157 -0.019m-0.209 -0.062c0.005 -0.009 0.031 -0.068 0.041 -0.084 0.01 -0.016 0.031 -0.059 0.044 -0.077 0.007 -0.01 0.033 -0.038 0.039 -0.025 -0.045 0.039 -0.081 0.108 -0.1 0.154 -0.002 0.005 -0.017 0.031 -0.023 0.037 -0.005 0.007 -0.003 0.019 -0.011 0.02 -0.009 0.001 -0.003 0.003 -0.003 0.003s0.008 -0.017 0.013 -0.027zm0.301 0.044s-0.036 -0.005 -0.058 -0.013c-0.022 -0.007 -0.06 -0.013 -0.091 -0.012 -0.032 0 -0.06 0.01 -0.086 0.02 -0.026 0.01 -0.059 0.01 -0.059 0.01s-0.019 0.003 -0.01 -0.001c0.008 -0.004 0.037 -0.027 0.037 -0.027l0.019 -0.026c0.005 -0.001 0.101 -0.127 0.09 -0.16 0.015 -0.025 0.032 -0.069 0.025 -0.076 -0.003 -0.003 -0.074 0.023 -0.09 0.037 -0.018 0.016 -0.031 0.048 -0.036 0.067 -0.005 0.019 -0.033 0.034 -0.033 0.034 -0.022 0.016 -0.038 0.067 -0.046 0.108 -0.008 0.041 -0.108 0.064 -0.108 0.064s-0.028 0.01 -0.003 0.018c0.004 0.001 0.015 0.02 0.024 0.02 0.012 0.001 0.075 -0.025 0.085 -0.023a0.75 0.75 0 0 1 0.063 0.017c0.024 0.008 0.044 0.012 0.06 0.006 0.017 -0.006 0.041 -0.004 0.059 0 0.018 0.004 0.038 0.002 0.049 -0.001 0.012 -0.004 0.045 -0.022 0.045 -0.022s0.035 -0.015 0.055 -0.025c0.02 -0.009 0.008 -0.014 0.008 -0.014" fill="#009b3a" stroke="#000" stroke-width="0.01570833333333333"/><path d="M12.819 7.724s-0.139 -0.073 -0.146 -0.074c-0.004 -0.001 -0.063 -0.033 -0.09 -0.041 -0.019 -0.006 -0.046 -0.008 -0.056 -0.007 -0.023 0.002 -0.06 0.012 -0.06 0.012l0.034 0.014s0.032 0.016 0.048 0.024c0.023 0.012 0.024 0.027 0.024 0.027l0.126 0.055 0.025 0.018s0.023 -0.032 0.094 -0.027" fill="#009b3a" stroke="#000" stroke-width="0.012541666666666666"/><path d="M12.958 7.435c0.044 -0.039 0.065 -0.094 0.101 -0.125 0.006 0.004 0.006 0.011 -0.001 0.023 -0.007 0.012 -0.016 0.016 -0.02 0.023 -0.007 0.01 -0.029 0.028 -0.035 0.039 -0.005 0.01 -0.012 0.025 -0.031 0.036 -0.019 0.011 -0.013 0.029 -0.015 0.037 -0.002 0.008 -0.031 0.029 -0.045 0.055 -0.003 0.027 -0.004 0.016 -0.02 0.025 0.03 -0.045 0.045 -0.074 0.066 -0.113m-0.098 0.123c-0.003 0.006 -0.089 0.055 -0.062 0.048 0.027 -0.007 0.106 -0.036 0.129 -0.046 0.028 -0.012 0.044 -0.037 0.065 -0.058 0.021 -0.021 0.087 -0.084 0.098 -0.108 0.011 -0.025 0.021 -0.059 -0.023 -0.137 0 0 -0.007 0.015 -0.023 0.029 -0.016 0.015 -0.041 0.031 -0.041 0.031l-0.029 0.027s-0.101 0.185 -0.114 0.214" fill="#009b3a" stroke="#000" stroke-width="0.016541666666666666"/><path d="M13.21 7.494s-0.055 -0.005 -0.06 -0.005c-0.005 0 -0.035 -0.004 -0.079 -0.004 -0.043 0 -0.06 0.015 -0.071 0.027 -0.012 0.014 -0.047 0.045 -0.047 0.045l0.018 -0.002c0.044 -0.034 0.078 -0.022 0.092 -0.023 0.014 -0.001 0.031 0.001 0.076 -0.015 0.045 -0.016 0.042 -0.001 0.037 0.001a0.233 0.233 0 0 1 -0.067 0.013c-0.033 0.002 -0.062 0.008 -0.075 0.008 -0.013 0 -0.11 0.027 -0.11 0.027s0.105 0.006 0.116 0.01c0.011 0.005 0.029 0.002 0.043 -0.005 0.04 -0.019 0.058 -0.022 0.075 -0.026 0.017 -0.003 0.036 -0.014 0.036 -0.014s0.011 -0.007 0.02 -0.024c0.01 -0.018 -0.006 -0.013 -0.006 -0.013m0.052 -0.288c0.007 -0.016 0.023 -0.055 0.041 -0.07 0.011 -0.009 0.029 -0.014 0.039 -0.018 0.004 -0.001 0.034 -0.003 -0.003 0.007 -0.016 0.004 -0.037 0.013 -0.046 0.029 -0.013 0.037 -0.025 0.068 -0.049 0.092 -0.018 0.019 -0.029 0.043 -0.029 0.043l-0.019 0.007c0.035 -0.022 0.051 -0.062 0.067 -0.09zm0.171 -0.021c-0.02 0.007 -0.027 0.012 -0.027 0.012 -0.045 0.013 -0.063 0.042 -0.083 0.065 -0.01 0.012 -0.024 0.021 -0.072 0.041 -0.043 0.019 -0.077 0.047 -0.078 0.047 0 0 -0.014 0.003 -0.011 0.009 0.001 0.003 0.013 0.001 0.013 0.001s0.089 -0.013 0.127 -0.035c0.024 -0.015 0.037 -0.026 0.06 -0.061 0.01 -0.015 0.021 -0.044 0.022 -0.026 0.002 0.049 -0.075 0.097 -0.108 0.112 -0.018 0.008 -0.042 0.011 -0.073 0.016 -0.031 0.006 -0.05 0.004 -0.047 -0.003 0.003 -0.01 0.007 -0.012 0.015 -0.022 0.015 -0.018 0.05 -0.024 0.076 -0.036 0.031 -0.014 0.06 -0.034 0.075 -0.052 0.015 -0.018 0.02 -0.024 0.024 -0.039 0.011 -0.039 0.012 -0.06 0.023 -0.074 0.038 -0.046 0.043 -0.061 0.045 -0.082 0 -0.005 -0.02 0.011 -0.03 0.017 -0.02 0.012 -0.028 0.012 -0.07 0.023 -0.042 0.011 -0.041 0.038 -0.048 0.051 -0.002 0.005 -0.019 0.027 -0.027 0.03 -0.008 0.004 -0.028 0.033 -0.036 0.05 -0.005 0.012 -0.015 0.021 -0.023 0.02 -0.008 -0.002 0.016 -0.092 0.021 -0.106 0.006 -0.015 0.007 -0.044 0.007 -0.053 0 -0.009 0 -0.034 -0.016 -0.037 -0.016 -0.003 -0.017 -0.025 -0.017 -0.025 -0.039 0.034 -0.017 0.093 -0.013 0.129 0.004 0.035 -0.008 0.1 -0.008 0.1 0.038 0.016 0.008 0.062 -0.004 0.077 -0.012 0.015 -0.036 0.018 -0.046 0.031 -0.011 0.014 -0.09 0.124 -0.09 0.124l0.098 -0.028s0.009 0.002 -0.006 -0.009c-0.015 -0.011 0.005 -0.052 0.017 -0.062 0.024 -0.019 0.057 -0.005 0.057 -0.005s0.046 0.007 0.102 -0.015c0.047 -0.018 0.067 -0.048 0.089 -0.071 0.012 -0.012 0.034 -0.053 0.048 -0.077 0.008 -0.014 0.023 -0.04 0.014 -0.037" fill="#009b3a" stroke="#000" stroke-width="0.01570833333333333"/><path d="M13.153 7.45c0.007 -0.003 0.009 -0.004 0.022 -0.019 0.014 -0.015 0.002 -0.04 -0.019 -0.039 -0.01 0.001 -0.021 -0.002 -0.041 0.025 -0.019 0.027 0.009 0.037 0.02 0.038 0.005 0 0.011 -0.002 0.018 -0.005" fill="#009b3a" stroke="#000" stroke-width="0.017499999999999998"/><path d="M13.102 7.278c-0.013 0.022 -0.02 0.047 -0.01 0.055 0.002 0.001 0.011 0.009 0.019 0.009 0.008 0 0.029 -0.01 0.041 -0.029 0.012 -0.018 0.022 -0.038 -0.003 -0.051 -0.023 -0.011 -0.038 -0.001 -0.048 0.016" fill="#009b3a" stroke="#000" stroke-width="0.017875"/><path d="M13.177 7.012s0.002 -0.003 -0.007 -0.012c-0.014 -0.014 -0.031 -0.039 -0.031 -0.039 -0.027 0.015 -0.036 0.045 -0.036 0.057 0 0.012 0.005 0.039 0 0.067 -0.001 0.009 -0.003 0.02 -0.016 0.054 -0.014 0.033 0.002 0.064 0.005 0.075 0.002 0.011 0.013 0.044 0.013 0.044s0.011 -0.007 0.014 -0.008c0.004 -0.001 0.019 -0.001 0.019 -0.001s0.016 -0.029 0.017 -0.046c0 -0.012 -0.002 -0.033 -0.007 -0.064 -0.008 -0.046 -0.007 -0.059 -0.002 -0.084 0.005 -0.026 0.03 -0.043 0.03 -0.043" fill="#009b3a" stroke="#000" stroke-width="0.01570833333333333"/><path d="M13.217 7.058s0.015 -0.004 0.023 -0.018c0.01 -0.017 0.007 -0.035 0.007 -0.035 -0.024 -0.046 -0.056 -0.009 -0.056 -0.009 -0.029 0.059 0.025 0.061 0.025 0.061" fill="#009b3a" stroke="#000" stroke-width="0.017249999999999998"/><path d="M13.298 6.973c-0.035 0.002 -0.053 0.066 -0.053 0.066s-0.006 0.016 -0.025 0.028c-0.02 0.012 -0.008 0.03 -0.008 0.062s-0.022 0.088 -0.022 0.088l-0.008 0.019s0.001 0.014 0.014 -0.012c0.022 -0.044 0.046 -0.033 0.055 -0.08 0.006 -0.035 0.064 -0.046 0.064 -0.046l-0.016 -0.003c-0.06 -0.028 0.003 -0.098 0.014 -0.111 0.011 -0.012 0.021 -0.012 -0.014 -0.011" fill="#009b3a" stroke="#000" stroke-width="0.020499999999999997"/><path d="M13.288 7.049c-0.016 0.035 0.03 0.037 0.041 0.03 0.004 -0.002 0.014 -0.014 0.014 -0.014 0.019 -0.027 0.002 -0.045 -0.008 -0.048 -0.009 -0.003 -0.03 -0.006 -0.047 0.031" fill="#009b3a" stroke="#000" stroke-width="0.017458333333333333"/><path d="M13.2 6.914c0.012 0.023 0.046 0.085 0.054 0.082 0.005 -0.002 0.001 -0.015 0.001 -0.015s-0.001 -0.017 -0.007 -0.038c-0.005 -0.021 -0.004 -0.047 -0.015 -0.064 -0.01 -0.017 -0.036 -0.037 -0.046 -0.064 -0.01 -0.027 -0.002 -0.078 -0.001 -0.084 0.001 -0.006 0.004 -0.002 -0.001 -0.008 -0.005 -0.007 -0.048 -0.029 -0.048 -0.029s0.002 0.017 0.001 0.047c0 0.007 -0.002 0.016 -0.004 0.028 -0.001 0.012 0.006 0.027 0.024 0.062 0.02 0.04 0.03 0.065 0.041 0.084m0.257 -0.299s-0.012 0.021 -0.017 0.025c-0.005 0.005 -0.074 0.065 -0.078 0.067 -0.003 0.003 -0.04 0.014 -0.073 0.104 -0.033 0.089 -0.019 0.173 -0.019 0.173l0.016 -0.002 0.003 -0.009s0.005 -0.03 0.01 -0.052c0.005 -0.022 0.029 -0.053 0.046 -0.076 0.016 -0.022 0.028 -0.055 0.028 -0.055 0.019 -0.038 0.028 -0.071 0.046 -0.098 0.001 0.031 -0.118 0.224 -0.131 0.289l0.035 -0.005c0.028 -0.026 0.065 -0.08 0.09 -0.115 0.025 -0.035 0.036 -0.09 0.04 -0.114 0.004 -0.024 0.003 -0.133 0.003 -0.133" fill="#009b3a" stroke="#000" stroke-width="0.01570833333333333"/><path d="M13.22 6.634c-0.018 -0.017 -0.032 -0.022 -0.032 -0.022s0.004 0.033 0.004 0.052c0 0.02 0.002 0.053 0.001 0.071 -0.001 0.018 -0.01 0.047 0.003 0.076 0.013 0.028 0.028 0.043 0.038 0.061 0.009 0.018 0.027 0.109 0.027 0.109s-0.006 -0.123 -0.001 -0.158c0.005 -0.034 0.007 -0.088 -0.001 -0.114 -0.008 -0.027 -0.021 -0.058 -0.039 -0.075m0.082 -0.12c0.005 -0.011 0.018 -0.032 0.023 -0.065 0.002 -0.014 0.003 -0.037 0.003 -0.053 0 -0.011 -0.005 -0.029 0 -0.03 0.004 -0.001 0.001 0.006 0.003 0.021 0.001 0.006 -0.003 0.021 -0.003 0.041 -0.001 0.016 -0.002 0.029 -0.009 0.05 -0.006 0.019 -0.001 0.04 -0.004 0.046 -0.004 0.006 -0.015 0.029 -0.015 0.029s-0.007 0.018 -0.005 0.035c0.001 0.017 0.002 0.035 0.002 0.035s0.008 -0.015 0.025 -0.017c0 0 0.004 -0.029 0.004 -0.037 0 -0.009 0.011 -0.067 0.017 -0.085 0.008 -0.026 0.014 -0.072 0.001 -0.124 -0.004 -0.014 -0.006 -0.059 -0.006 -0.059s-0.017 0.013 -0.027 0.064c-0.003 0.015 0.003 0.057 0.001 0.101 -0.001 0.024 -0.024 0.123 -0.028 0.13" fill="#009b3a" stroke="#000" stroke-width="0.01570833333333333"/><path d="M13.302 6.514c-0.001 0.001 -0.001 0.002 -0.001 0.002s0.001 -0.001 0.001 -0.002" fill="#009b3a" stroke="#000" stroke-width="0.01570833333333333"/><path d="M13.236 6.257c0.009 0 0.009 0.01 0.007 0.017 -0.001 0.008 -0.001 0.023 -0.001 0.026 0 0.003 0.004 0.024 0.007 0.035 0.003 0.011 0.009 0.015 0.006 0.037 -0.002 0.014 -0.016 0.031 -0.011 0.055 0.003 0.013 0.012 0.026 0.016 0.037 0.004 0.008 0.002 0.026 0.003 0.041 0 0.015 0.009 0.025 0.009 0.025s-0.01 0.019 -0.013 -0.005c-0.004 -0.027 -0.005 -0.039 -0.01 -0.051 -0.008 -0.02 -0.016 -0.056 -0.003 -0.084 0.002 -0.005 0.004 -0.015 0.004 -0.027 0 -0.012 -0.007 -0.033 -0.009 -0.045 -0.001 -0.01 0 -0.032 0 -0.039m-0.047 0.113c0.002 0.015 0.007 0.024 0.024 0.057 0.005 0.011 0.017 0.039 0.019 0.048 0.002 0.009 0.004 0.02 0.004 0.022 0 0.003 0.002 0.024 0.002 0.024v0.009s-0.048 -0.028 -0.069 -0.043c-0.021 -0.015 -0.044 -0.036 -0.06 -0.048 -0.017 -0.014 -0.058 -0.063 -0.058 -0.101l-0.019 -0.017s-0.014 0.086 0.053 0.142c0.019 0.016 0.041 0.034 0.086 0.054 0.046 0.021 0.04 0.04 0.059 0.08 0.019 0.041 0.03 0.064 0.033 0.075 0.002 0.012 -0.005 0.185 -0.005 0.185l0.002 0.016s0.042 -0.16 0.062 -0.177c0 0 -0.04 -0.006 -0.037 -0.068l-0.007 -0.041s-0.008 -0.049 0.007 -0.08c0 0 0.018 -0.056 0.012 -0.105 -0.004 -0.029 -0.005 -0.038 -0.009 -0.066 -0.005 -0.043 -0.023 -0.105 -0.025 -0.113 -0.006 -0.022 -0.008 -0.025 -0.015 -0.042 -0.002 -0.006 -0.006 -0.026 -0.012 -0.026 -0.004 0 -0.009 0.026 -0.009 0.026s-0.008 0.028 -0.01 0.036c-0.005 0.023 -0.018 0.042 -0.024 0.094 -0.001 0.009 -0.002 0.034 -0.003 0.038 -0.001 0.003 -0.002 0.018 -0.001 0.023" fill="#009b3a" stroke="#000" stroke-width="0.01570833333333333"/><path d="M13.228 6.61s-0.007 -0.015 -0.014 -0.023c-0.014 -0.017 -0.033 -0.031 -0.088 -0.057 -0.054 -0.027 -0.068 -0.071 -0.096 -0.089 -0.013 -0.009 -0.037 -0.013 -0.037 -0.013s0.024 0.033 0.03 0.045c0.007 0.015 0.009 0.025 0.039 0.052 0.03 0.028 0.066 0.038 0.089 0.044 0.033 0.01 0.077 0.042 0.077 0.042m-0.171 -0.256c0.001 0.004 0.015 0.052 0.045 0.089 0.045 0.057 0.131 0.097 0.131 0.097 -0.008 -0.035 -0.022 -0.076 -0.033 -0.094 -0.039 -0.063 -0.143 -0.094 -0.143 -0.094s-0.002 -0.002 0 0.002m0.124 0.027c0.023 -0.051 -0.046 -0.099 -0.066 -0.135 0.007 -0.006 0.016 0.009 0.024 0.019 0.011 0.015 0.043 0.059 0.043 0.059l0.01 -0.046 -0.083 -0.075c-0.001 0.011 -0.026 0.02 -0.026 0.02 -0.012 0.069 0.098 0.158 0.098 0.158" fill="#009b3a" stroke="#000" stroke-width="0.01570833333333333"/><path d="M13.037 6.263c-0.02 0.009 -0.027 0.009 -0.027 0.009l0.011 0.029 0.006 0.008s0.026 0.037 0.041 0.042c0.006 0.002 0.03 0.006 0.054 0.017 0.03 0.013 0.078 0.055 0.078 0.055s-0.081 -0.091 -0.112 -0.16l-0.01 -0.039 -0.029 0.002s0.008 0.028 -0.012 0.037" fill="#009b3a" stroke="#000" stroke-width="0.01570833333333333"/><path d="M12.734 6.204a0.292 0.292 0 0 0 0.044 0.033c0.018 0.011 0.069 0.041 0.108 0.048 0.009 0.001 0.057 0.007 0.057 0.007 0.002 -0.021 0.025 -0.023 0.025 -0.023l-0.068 -0.007c-0.055 -0.004 -0.097 -0.027 -0.13 -0.064 0.044 0.027 0.107 0.068 0.158 0.066 0.21 -0.021 -0.063 -0.026 -0.087 -0.041 -0.025 -0.015 -0.047 -0.041 -0.047 -0.041l-0.062 -0.003s-0.03 -0.002 0.001 0.025" fill="#009b3a" stroke="#000" stroke-width="0.01570833333333333"/><path d="M12.982 6.324c0.014 -0.001 0.023 -0.004 0.026 -0.018 0.003 -0.017 -0.004 -0.029 -0.024 -0.033 -0.011 -0.003 -0.031 -0.003 -0.039 0.016 -0.009 0.02 0.023 0.033 0.023 0.033s0.006 0.003 0.013 0.002m0.024 -0.12c-0.018 0 -0.024 0.014 -0.02 0.043 0.005 0.029 0.048 0.016 0.048 0.016l0.008 -0.004s0.006 -0.005 0.003 -0.027c-0.003 -0.023 -0.021 -0.027 -0.039 -0.027m0.071 0.02h-0.001c0 0 0.001 0 0.001 0" fill="#009b3a" stroke="#000" stroke-width="0.01570833333333333"/><path d="M13.076 6.224c0.001 0 0.002 -0.001 0.006 -0.002 0.009 -0.003 0.018 -0.025 0.018 -0.025 0.005 -0.029 -0.017 -0.037 -0.017 -0.037 -0.036 -0.007 -0.036 0.024 -0.036 0.024 -0.01 0.041 0.023 0.04 0.028 0.04m-0.158 -0.14c0.002 0.013 0.021 0.033 0.024 0.036 0.003 0.003 0.028 0.029 0.036 0.04 0.008 0.011 0.036 0.063 0.036 0.063s0.005 -0.001 0.007 -0.005c0.005 -0.008 -0.018 -0.071 -0.021 -0.075 -0.008 -0.019 -0.022 -0.033 -0.036 -0.048 -0.003 -0.002 -0.015 -0.017 -0.027 -0.033 0.025 0.032 0.089 0.122 0.107 0.162 0 0 -0.002 -0.043 -0.005 -0.066 -0.008 -0.067 -0.025 -0.088 -0.031 -0.098 -0.01 -0.018 -0.035 -0.036 -0.053 -0.042 -0.018 -0.006 -0.039 -0.015 -0.062 -0.023 -0.023 -0.007 -0.005 0.014 0.003 0.032 0.011 0.022 0.019 0.041 0.021 0.055" fill="#009b3a" stroke="#000" stroke-width="0.01570833333333333"/><path d="M12.83 6.194c0.023 0.02 0.034 0.033 0.082 0.04 0.048 0.008 0.053 0.004 0.053 0.004s0.025 -0.012 0.012 -0.023c-0.071 -0.031 -0.139 -0.069 -0.173 -0.111 0 0 0.006 -0.006 0.031 0.019 0.014 0.014 0.024 0.022 0.033 0.029 0.026 0.018 0.037 0.023 0.063 0.037 0.014 0.007 0.048 0.016 0.048 0.016s0.005 -0.01 0.009 -0.012c0.004 -0.001 -0.003 -0.017 -0.033 -0.042a0.24 0.24 0 0 1 -0.044 -0.047s-0.035 -0.008 -0.074 -0.014c-0.029 -0.005 -0.082 -0.046 -0.081 -0.035 0.001 0.012 0.008 0.048 0.023 0.071 0.015 0.023 0.028 0.047 0.052 0.067" fill="#009b3a" stroke="#000" stroke-width="0.01570833333333333"/><path d="M12.429 7.644c-0.021 0.006 -0.179 0.065 -0.179 0.065l-0.044 0.018c0.061 -0.014 0.107 0.017 0.107 0.017l0.176 -0.081s-0.001 -0.003 -0.005 -0.006c-0.005 -0.003 -0.034 -0.019 -0.055 -0.013" fill="#009b3a" stroke="#000" stroke-width="0.012541666666666666"/><path d="M12.2 7.732c-0.001 0.001 -0.002 0.005 0.001 0.006 0.009 0.005 0.006 0.007 0.046 0.012 0.04 0.004 0.066 -0.003 0.073 -0.011 0.008 -0.009 -0.099 -0.025 -0.12 -0.007" fill="#009b3a" stroke="#000" stroke-width="0.013416666666666667"/><path d="m11.948 7.165 -0.007 -0.049s-0.009 -0.133 -0.024 -0.16c-0.003 -0.006 -0.002 -0.02 -0.011 -0.02 -0.018 -0.001 -0.018 0.042 -0.021 0.081 -0.03 0.198 0.128 0.349 0.128 0.349z" fill="#009b3a" stroke="#000" stroke-width="0.017416666666666664"/><path d="M12.729 7.752s-0.017 -0.004 -0.006 -0.017c0.01 -0.012 0.04 -0.019 0.046 -0.019 0.006 0 0.023 0.001 0.035 0.005 0.013 0.003 0.03 0.014 0.025 0.022 -0.005 0.008 -0.022 0.017 -0.046 0.017 -0.02 0 -0.03 -0.001 -0.039 -0.003 -0.008 -0.003 -0.015 -0.006 -0.015 -0.006" fill="#009b3a" stroke="#000" stroke-width="0.016041666666666666"/><path d="M12.558 7.658s-0.054 -0.025 -0.106 -0.05c-0.068 -0.033 -0.149 -0.079 -0.206 -0.163 -0.071 -0.104 -0.133 -0.16 -0.148 -0.171 -0.015 -0.011 -0.018 -0.015 -0.023 -0.007 -0.005 0.007 -0.002 0.013 0.003 0.02 0.015 0.024 0.05 0.068 0.063 0.092 0.022 0.043 0.068 0.089 0.068 0.117 0 0.004 -0.013 -0.003 -0.013 -0.003s-0.107 -0.037 -0.151 -0.167c-0.032 -0.094 -0.018 -0.122 -0.026 -0.169 -0.013 -0.084 -0.015 -0.09 -0.057 -0.184 -0.001 -0.002 -0.025 -0.042 -0.029 -0.033 -0.004 0.011 0.004 0.053 0.004 0.053l0.004 0.048s-0.004 0.107 -0.004 0.114 -0.027 0.073 0.088 0.186c0 0 0.002 0.019 -0.014 0.002 -0.011 -0.012 -0.093 -0.075 -0.118 -0.179 -0.026 -0.104 -0.029 -0.208 -0.01 -0.251 0.018 -0.039 0.053 -0.134 0.038 -0.218 -0.002 -0.009 -0.004 -0.034 -0.01 -0.028 -0.002 0.003 -0.013 0.045 -0.019 0.06 -0.009 0.02 -0.022 0.04 -0.026 0.053 -0.008 0.023 -0.048 0.06 -0.04 0.126 0.009 0.076 0.014 0.088 0.023 0.116 0.003 0.01 0.011 0.035 0.006 0.038 -0.005 0.002 -0.021 -0.03 -0.021 -0.03s-0.073 -0.143 -0.028 -0.259c0.045 -0.115 0.159 -0.225 0.159 -0.225s0.092 -0.077 0.111 -0.094c0.007 -0.007 0.006 -0.012 0.003 -0.011 -0.023 0.006 -0.201 0.043 -0.263 0.254 0 0 -0.003 0.009 -0.008 0.007 -0.006 -0.003 0 -0.012 0 -0.012s0.039 -0.15 0.149 -0.218c0.12 -0.075 0.106 -0.064 0.145 -0.087 0.025 -0.015 0.047 -0.036 0.075 -0.082 0.003 -0.005 0.014 -0.032 0.013 -0.037 -0.001 -0.005 -0.007 0.002 -0.009 0.009 0 0 -0.034 0.052 -0.085 0.07 -0.051 0.018 -0.092 -0.007 -0.143 0.049 -0.051 0.057 -0.092 0.136 -0.092 0.136s-0.013 0.02 -0.016 0.02c-0.006 -0.002 0.003 -0.022 0.003 -0.022s0.068 -0.145 0.123 -0.175c0.055 -0.03 0.104 -0.058 0.135 -0.082 0.038 -0.03 0.103 -0.103 0.127 -0.128 0.005 -0.005 0.04 -0.041 0.048 -0.052 0.005 -0.006 0.016 -0.015 0.014 -0.017 -0.005 -0.004 -0.038 0.012 -0.038 0.012s-0.181 0.05 -0.294 0.22c-0.005 0.008 -0.018 0.024 -0.024 0.031 -0.012 0.012 -0.018 0.033 -0.018 0.033 -0.007 -0.006 0.064 -0.095 0.064 -0.095l0.012 -0.057s0.021 -0.086 0.065 -0.147c0.004 -0.006 0.03 -0.032 0.035 -0.037 0.009 -0.009 -0.017 0.008 -0.012 0.004 0 0 -0.169 0.121 -0.169 0.274 0 0.027 -0.017 0.052 -0.041 0.087 -0.028 0.04 -0.037 0.064 -0.049 0.123a4.833 4.833 0 0 1 -0.016 0.074s0.002 0.022 -0.005 0.02c-0.007 -0.002 -0.005 -0.02 -0.005 -0.02s0.017 -0.114 0.029 -0.149c0.012 -0.034 0.02 -0.057 0.02 -0.057s-0.007 -0.086 0.012 -0.133c0.016 -0.041 0.057 -0.095 0.063 -0.108 0.003 -0.006 0.022 -0.044 0.027 -0.088 0.001 -0.006 -0.004 -0.001 -0.012 0.016 -0.019 0.042 -0.034 0.053 -0.065 0.092 0 0 -0.078 0.057 -0.107 0.226 0 0 -0.001 0.063 -0.01 0.162 -0.007 0.072 -0.001 0.14 0.007 0.181 0.005 0.025 0.015 0.025 0.009 0.028 -0.004 0.002 0.002 0 -0.006 -0.018 -0.011 -0.023 -0.019 -0.057 -0.019 -0.105 0 -0.088 0.008 -0.159 0.008 -0.159s0.006 -0.142 -0.053 -0.206c-0.003 -0.003 0.01 0.029 0.016 0.061 0.007 0.04 -0.006 0.095 -0.01 0.116 -0.004 0.022 -0.043 0.116 -0.029 0.204 0 0 0.033 0.15 0.076 0.222 0 0 0.027 0.031 0.003 0.002 -0.023 -0.029 -0.071 -0.146 -0.076 -0.156 -0.004 -0.01 -0.038 -0.082 -0.07 -0.111 -0.017 -0.016 -0.063 -0.043 -0.063 -0.043s-0.025 -0.019 -0.006 0.006c0.015 0.02 0.035 0.056 0.045 0.071a0.833 0.833 0 0 1 0.053 0.1c0.015 0.034 0.051 0.133 0.051 0.133l0.023 0.063s0.038 0.021 0.059 0.045c0.017 0.019 0.053 0.062 0.082 0.139 0.013 0.034 0.04 0.065 0.04 0.065s-0.006 0.011 -0.029 -0.03c-0.023 -0.041 -0.046 -0.119 -0.102 -0.179 -0.043 -0.046 -0.157 -0.093 -0.157 -0.093s0.074 0.128 0.092 0.151c0.031 0.037 0.076 0.088 0.087 0.102 0.012 0.014 0.081 0.099 0.091 0.113 0.016 0.021 0.027 0.031 0.035 0.039 0.018 0.019 0.072 0.055 0.077 0.06 0.001 0.006 0.002 0.001 -0.003 -0.002 -0.024 -0.014 -0.053 -0.037 -0.082 -0.056 -0.029 -0.02 -0.143 -0.068 -0.22 -0.174 -0.018 -0.031 -0.027 -0.044 -0.033 -0.041 -0.009 0.005 0.052 0.207 0.177 0.271 0 0 0.139 0.062 0.169 0.08 0.017 0.01 0.051 0.025 0.067 0.038 0.009 0.007 -0.008 0.007 -0.009 0.007 -0.074 -0.006 -0.179 -0.015 -0.244 -0.053 0 0 -0.028 -0.02 -0.005 0.008 0.018 0.021 0.053 0.074 0.119 0.103 0.067 0.029 0.164 0.046 0.199 0.048 0.035 0.002 0.159 0.003 0.183 0.01 0.023 0.008 0.063 0.033 0.086 0.041 0.021 0.007 0.083 0.03 0.083 0.03s0.019 0.01 0.029 0.014c0.011 0.004 0.058 0.004 0.061 -0.005 0.003 -0.008 -0.013 -0.02 -0.013 -0.02" fill="#009b3a" stroke="#000" stroke-width="0.012541666666666666"/><path d="M13.363 6.606c0.014 0.005 0.02 0.047 0.02 0.047s-0.001 -0.024 -0.001 -0.036c0 -0.012 -0.006 -0.056 -0.006 -0.056l-0.012 0.009c-0.015 0.012 -0.023 0.033 -0.023 0.033s0.009 -0.001 0.022 0.003" fill="#009b3a" stroke="#000" stroke-width="0.01570833333333333"/></svg>