<svg xmlns="http://www.w3.org/2000/svg" width="25" height="16.667" version="1.0" viewBox="0 0 20 13.333"><path fill="#008c00" d="M0 0h20v13.333H0z"/><g stroke="#fff"><path fill="#008c00" d="M4.044 6.637c1.208 0 2.33-.362 3.267-.982l1.012 1.012-1.012 1.012a5.9 5.9 0 0 0-3.267-.982m5.925 5.925c0-1.208-.362-2.33-.982-3.267l1.012-1.012 1.012 1.012a5.9 5.9 0 0 0-.982 3.267m5.926-5.925c-1.208 0-2.33.362-3.267.982l-1.012-1.012 1.012-1.012c.937.62 2.059.982 3.267.982M10.029.711c0 1.208.362 2.33.982 3.267L9.999 4.99 8.987 3.978c.62-.937.982-2.059.982-3.267"/><path fill="#008c00" fill-rule="evenodd" d="m10 4.991 1.676 1.676L10 8.343 8.324 6.667z"/><path fill="none" stroke-width=".356" d="m7.57 2.686 6.41 6.412a1.096 1.096 0 0 1 0 1.55 1.096 1.096 0 0 1-1.55 0L6.02 4.236a1.096 1.096 0 0 1 0-1.55 1.096 1.096 0 0 1 1.55 0z"/><path fill="none" stroke-width=".356" d="m13.98 4.236-6.41 6.41a1.096 1.096 0 0 1-1.551.002 1.096 1.096 0 0 1 0-1.551l6.411-6.41a1.096 1.096 0 0 1 1.55-.001 1.096 1.096 0 0 1 0 1.55z"/><path fill="none" stroke-width=".188" d="M42.933-.014a3.011 3.252 0 0 1 3.011-3.252" transform="matrix(1.96817 0 0 1.82238 -2010.796 341.474)"/><path fill="none" stroke-width=".188" d="M45.944 3.238a3.011 3.252 0 0 1-3.011-3.252" transform="matrix(1.96817 0 0 1.82238 -2010.796 19.866)"/><path fill="none" stroke-width=".188" d="M45.944-3.265a3.011 3.252 0 0 1 3.011 3.252" transform="matrix(1.96817 0 0 1.82238 -2332.404 341.474)"/><path fill="none" stroke-width=".188" d="M48.956-.014a3.011 3.252 0 0 1-3.011 3.252" transform="matrix(1.96817 0 0 1.82238 -2332.404 19.866)"/></g></svg>