<svg xmlns="http://www.w3.org/2000/svg" width="25" height="12.5" viewBox="0 0 1 0.5" fill="#012169"><clipPath id="a"><path d="M0 0h.5v.292H0z"/></clipPath><clipPath id="b"><path d="M0 0v.125h.458V.25H.437zm.438 0H.219v.271H0V.25z"/></clipPath><path d="M0 0h1v.5H0z"/><path d="m0 0 .583.333M.438 0 0 .25" stroke="#fff" stroke-width=".05" clip-path="url(#a)"/><path d="m0 0 .583.333M.438 0 0 .25" stroke="#c8102e" stroke-width=".033" clip-path="url(#b)"/><path d="M.219 0v.292M0 .125h.5" stroke="#fff" stroke-width=".083"/><path d="M1 0v.083H.458L.437.062V0zm0 .188v.083H.438V.188zm0 .188v.125H0V.376z" fill="#fff"/><path d="M1 .063V.15H0V.1h.438V.063zm0 .188v.063H0V.251zm0 .188v.063H0V.439zM.194 0h.05v.271h-.05z" fill="#c8102e"/><path d="M1 .125v.052H.438V.125z"/></svg>