<svg xmlns="http://www.w3.org/2000/svg" xmlns:xlink="http://www.w3.org/1999/xlink" width="25" height="12.5" viewBox="0 0 25 12.5"><path fill="#00abc2" d="M0 0h25v12.5H0z"/><g fill="#ffec2d"><g transform="matrix(.5 0 0 .5 540.236 210)"><g id="c"><g id="b"><path id="a" d="M0-3.823c.2-.003.275-.128.275-.278 0-.2-.275-1.153-.275-1.153S-.275-4.3-.275-4.1c0 .15.075.278.275.278"/><use xlink:href="#a" transform="rotate(90)"/><use xlink:href="#a" transform="scale(-1)"/><use xlink:href="#a" transform="rotate(270)"/></g><use xlink:href="#b" transform="rotate(22.5)"/><use xlink:href="#b" transform="rotate(45)"/><use xlink:href="#b" transform="rotate(67.5)"/></g><use xlink:href="#c" transform="rotate(11.25)"/></g><g transform="scale(.5)"><path d="M26.412 17.787c-.09.005-.177.017-.263.044-.118.016-.23.057-.347.076l-.047.007-.078.007a.25.25 0 0 1 0 .128.2.2 0 0 1-.033.053.2.2 0 0 1-.055.044.2.2 0 0 1-.065.016.2.2 0 0 1-.068-.008.2.2 0 0 1-.063-.038l-.07.013a.2.2 0 0 1-.066 0q-.036-.01-.07-.023a.4.4 0 0 1-.065-.034c-.085.05-.18.098-.232.185-.029.04-.035.086-.042.133a.4.4 0 0 0 .036.174c.009.016.017-.057.045-.068a.4.4 0 0 1 .167-.083c.051-.026.044.002.023.042-.005.021-.033.1.005.06.169-.075.357-.09.539-.104.265-.028.531-.033.797-.037l.75.016c.119.003.239.03.357.01.028-.007.072-.009.089-.026-.053-.031-.116-.032-.175-.039h-.476c-.133-.013-.271-.015-.396-.065-.033-.013-.064-.045-.096-.011a.6.6 0 0 1-.148.032.6.6 0 0 1-.256-.044c.058-.081.128-.152.193-.227a2 2 0 0 1-.153-.032c.091-.063.175-.133.263-.2"/><path d="M30.305 18.65c-.181.109-.319-.084-.471-.142-.108.059-.118.255-.219.348-.121.138-.269-.038-.258-.174-.145.122-.218.398-.451.361-.111-.09-.193-.28-.278-.064-.069.106-.253.256-.348.096-.029-.141-.1-.306-.177-.083-.053.158-.221.274-.384.205-.089-.073.072-.343-.042-.324-.17.112-.269.391-.506.369-.092-.103.056-.279-.045-.393-.119.153-.252.377-.458.393-.1-.081.004-.313-.06-.347-.212.127-.435.353-.701.282.104-.397.537-.536.902-.567.627-.077 1.287.065 1.891-.162.098-.059.334-.143.25-.281-.074-.109.194-.066.22-.193-.016-.161.123-.139.259-.153.609-.026 1.211.102 1.819.124.046.296-.283.504-.547.413-.126.02-.316-.29-.279-.064-.025.119-.008.275-.116.355m-5.185-.606c.141.129.24-.024.372-.08.442-.152.828-.418 1.209-.684.231-.191.43-.438.74-.5.604-.183 1.246-.16 1.852-.329.462-.632 1.246-.857 1.902-1.221.147-.046.204-.167.252-.301.251-.396.592-.746.996-.986.191-.104.419-.165.635-.117-.015.258-.163.486-.342.664.146-.003.272-.095.419-.09.051.264-.235.403-.387.568.085.02.409.044.232.129-.225.156-.482.264-.69.445.192.034.214.075.019.145-.106.072-.309.097-.328.236.145.089-.067.177-.148.206-.156.036-.32.104-.113.223-.078.118-.247.144-.384.132.042.134.102.284-.072.344-.391.295-.849.51-1.34.559.613.047 1.245-.067 1.769-.4.069-.082.432-.17.229-.239-.096-.04-.3-.084-.314-.157.284-.175.642-.113.947-.217.008-.099-.232-.071-.322-.094-.214-.017-.201-.072.005-.092.261-.069.556-.083.775-.252-.178-.083-.403-.01-.593-.077.323-.141.704-.155.993-.368.132-.147-.169-.101-.257-.097-.179.031-.261-.054-.058-.129.347-.256.786-.422 1.029-.792.058-.083.136-.333-.048-.243-.242.08-.455.353-.731.268.543-.421 1.06-.901 1.432-1.483.019-.168-.245-.186-.313-.054-.349.336-.665.733-1.112.944.428-.413.782-.902 1.091-1.409.066-.151.244-.332.148-.5-.156-.129-.35-.011-.431.143-.271.354-.477.768-.826 1.056.306-.583.622-1.204.63-1.876-.001-.138-.029-.342-.217-.317-.149.027-.114.25-.175.363-.135.459-.199.957-.476 1.359.062-.373.172-.763.088-1.139-.039-.168-.311-.096-.276.071-.325 1.647-1.43 3.087-2.875 3.92a6.2 6.2 0 0 1-2.152.725c-.202.044-.421.018-.614.087-.468.359-.752.96-1.345 1.148-.266.132-.612.159-.802.406a.2.2 0 0 0-.019.103"/><path d="M26.895 16.374c-.088.159-.139.341-.252.484-.339-.308-.829-.298-1.259-.318-.354-.019-.74-.052-1.014-.304-.288-.236-.524-.543-.846-.735-.294-.08-.591-.18-.827-.382-.505-.412-.795-1.023-1.289-1.448-.094-.093-.205-.165-.311-.243-.1.024-.055.241-.178.131-.067-.048-.234-.052-.249.014.151.199.302.426.323.681-.103.011-.286-.022-.337.017.137.205.312.387.511.532-.096.015-.284.007-.32.046.198.161.41.326.669.367.053.07-.078.205.032.264.064.026.274.069.129.142-.099.067-.062.223.065.219.08.041.26.051.275.122-.071.072-.292.158-.104.226.176.098.377.161.578.168-.101.085-.225.133-.329.213.464.272.978.451 1.486.623.202.068.407.131.617.17-.609-.035-1.198-.216-1.753-.462a16 16 0 0 0-.872-.357c.129-.067.279-.084.413-.142-.278-.056-.582-.074-.827-.227.038-.067.18-.07.258-.104.148-.035.239-.078.031-.091-.21-.057-.451-.031-.636-.158.012-.076.206-.05.285-.082.099-.017.21-.031.289-.098-.325-.135-.75-.039-1.004-.326-.059-.109.182-.021.251-.039.174 0 .362.055.528-.015-.473-.208-.98-.402-1.341-.787-.04-.062-.16-.231-.063-.252.281.037.484.344.785.296.04-.054-.175-.142-.228-.219-.438-.376-.864-.784-1.171-1.277-.021-.165.237-.189.306-.062.335.323.638.699 1.055.92.148.072-.085-.085-.116-.142-.386-.448-.753-.921-1.022-1.448-.048-.095-.128-.267.016-.318.144-.072.288.026.361.15.284.358.492.783.845 1.081-.301-.584-.622-1.199-.63-1.871.007-.13.015-.327.192-.322.148-.023.125.167.174.258.146.494.21 1.028.503 1.464-.065-.366-.16-.743-.097-1.116.015-.122.152-.159.242-.085.073.178.088.397.154.587.377 1.288 1.222 2.421 2.324 3.181a6.1 6.1 0 0 0 3.083 1.059c.099.009.199.012.298.018m-1.339 1.645a.06.06 0 0 1-.059.059.06.06 0 0 1-.059-.059.059.059 0 0 1 .118 0"/><path stroke="#ffec2d" stroke-width=".01" d="M25.519 18.013a.024.024 0 0 1-.024.024.024.024 0 0 1-.024-.024.024.024 0 0 1 .048 0z"/><g id="f"><g id="e"><path d="M3 1.823s-.24-.202-.322-.101c-.131.163.404.974.404 1.26 0 .469-.313.597-.699.663-.259.045-.681-.019-.681-.019.08-.107.131-.138.265-.147a.56.56 0 0 1-.301-.507c0-.403.166-.57.166-1.025 0-.252-.207-.574-.207-.574.366.037.547.375.444.646a.18.18 0 0 0 .156-.048c.027.075-.015.162-.072.237.046.024.079.01.152-.005-.007.077-.053.159-.167.237.329-.085.531.144.531.384 0 .181-.127.311-.251.311a.26.26 0 0 1-.132-.041c-.023.05-.011.117.013.167-.091-.024-.149-.078-.108-.191a.23.23 0 0 1-.163-.075.2.2 0 0 1 .163-.075c-.051-.105.006-.164.088-.211 0 0-.053.211.082.211.06 0 .115-.02.115-.109 0-.077-.068-.185-.224-.178s-.283.108-.283.358c0 .23.186.345.431.352.221.007.388-.113.388-.341 0-.303-.438-.994-.438-1.264 0-.203.182-.316.361-.316.231 0 .426.229.426.229l-.136.17z"/><path id="d" d="M3.05 7.303c0 .507-.455.767-.812.767-.482 0-.738-.288-.738-.665 0-.214.039-.348.138-.552l1.104-2.291a.7.7 0 0 0 .051-.303c0-.205-.199-.373-.408-.378-.19-.005-.398.178-.398.385 0 .252.131.365.265.365.165 0 .231-.068.231-.184 0-.081-.039-.116-.095-.116-.142 0-.102.191-.102.191a.13.13 0 0 1-.095-.177.26.26 0 0 1-.138-.082.26.26 0 0 1 .138-.075c-.033-.11.011-.163.107-.186a.2.2 0 0 0-.014.118c.151-.043.383.025.383.286 0 .259-.18.477-.517.423.08.038.121.117.129.205-.061-.024-.129-.027-.129-.027.039.069.094.129.092.266-.063-.028-.121-.081-.201-.048.126.247-.029.588-.422.668a.82.82 0 0 0 .214-.532c0-.587-.163-.686-.163-1.095 0-.171.088-.355.262-.481v.007c-.115-.031-.189-.087-.231-.164.263-.075.645-.073.85.008.236.027.401.208.449.3s.143.424 0 .723l-1.122 2.38a.8.8 0 0 0-.078.334c0 .301.276.406.432.406.187 0 .378-.143.378-.321 0-.113-.061-.181-.15-.181-.211 0-.199.18-.156.293-.132-.059-.208-.165-.187-.276a.34.34 0 0 1-.211-.119c.052-.065.114-.114.211-.116-.042-.173.073-.246.187-.286-.036.127-.059.273.156.273.158 0 .281.027.354.13l.017-.675c.009-.202-.271-.197-.449-.136.067-.233.205-.359.524-.327a.25.25 0 0 1-.16-.246c0-.19.154-.4.255-.462l.051 1.976z"/><use xlink:href="#d" transform="matrix(1 0 0 -1 0 645.08)"/></g><use xlink:href="#e" transform="matrix(-1 0 0 1 240 0)"/></g><use xlink:href="#f" transform="matrix(1 0 0 -1 0 1000)"/></g></g></svg>