<svg xmlns="http://www.w3.org/2000/svg" width="25" height="15" viewBox="0 0 13.762 8.257"><path fill="red" d="M0 0h13.762v8.257H0Z"/><path fill="#ff0" fill-rule="evenodd" d="m7.237 2.522.046-.895a.008.008 0 0 0-.016-.002l-.229.863-.002.008a.101.101 0 1 0 .2.026m.247.076.187-.876a.008.008 0 0 0-.015-.005l-.362.816-.003.008a.101.101 0 1 0 .194.057m.232.113.322-.836a.008.008 0 0 0-.014-.007l-.486.748a.101.101 0 1 0 .178.095m.211.148.449-.775a.008.008 0 0 0-.013-.009l-.597.663-.005.007a.101.101 0 1 0 .167.115m.186.179.564-.696a.01.01 0 0 0-.001-.011.01.01 0 0 0-.011 0l-.693.562a.1.1 0 0 0-.006.149.1.1 0 0 0 .147-.004m.155.206.666-.6a.008.008 0 0 0-.01-.013l-.772.447a.101.101 0 1 0 .116.165m.121.228.752-.488a.008.008 0 0 0-.007-.014l-.833.321-.008.004a.101.101 0 1 0 .097.178m.084.244.819-.364a.008.008 0 0 0-.005-.015l-.873.186a.101.101 0 1 0 .059.193m.045.255.866-.23a.008.008 0 0 0-.003-.016l-.891.046a.101.101 0 1 0 .028.2m.004.258.891-.093a.008.008 0 0 0 0-.016l-.888-.093a.101.101 0 1 0-.003.202m-.036.256.895.046a.008.008 0 0 0 .002-.016l-.863-.229a.101.101 0 1 0-.035.199m-.076.247.876.187a.008.008 0 0 0 .005-.015l-.816-.362a.101.101 0 1 0-.065.191m-.113.232.836.322q.006.002.01-.004a.01.01 0 0 0-.003-.011l-.748-.486a.101.101 0 1 0-.095.178m-.148.211.775.449a.008.008 0 0 0 .009-.013l-.663-.597a.101.101 0 1 0-.121.161m-.179.186.696.564a.008.008 0 0 0 .011-.011l-.562-.693a.101.101 0 1 0-.145.14m-.206.155.6.666a.008.008 0 0 0 .013-.01l-.447-.772a.101.101 0 1 0-.165.116m-.228.121.488.752a.008.008 0 0 0 .014-.007l-.321-.833a.101.101 0 1 0-.181.089m-.244.084.364.819a.008.008 0 0 0 .015-.005l-.186-.873a.101.101 0 1 0-.193.059m-.255.045.23.866a.008.008 0 0 0 .016-.003l-.046-.891a.101.101 0 1 0-.2.028m-.258.004.093.891a.008.008 0 0 0 .016 0l.093-.888v-.009a.101.101 0 1 0-.202.005zm-.256-.036-.046.895a.008.008 0 0 0 .016.002l.229-.863a.101.101 0 1 0-.199-.035m-.247-.076-.187.876a.008.008 0 0 0 .015.005l.362-.816.003-.008a.101.101 0 1 0-.194-.057m-.232-.113-.322.836q-.002.006.004.01.006.003.01-.003l.486-.748.004-.008a.101.101 0 1 0-.182-.087m-.211-.148-.449.775a.008.008 0 0 0 .013.009l.597-.663L6 5.512a.101.101 0 1 0-.167-.115m-.186-.179-.564.696a.01.01 0 0 0 .001.011.01.01 0 0 0 .011 0l.693-.562.006-.006a.101.101 0 1 0-.147-.139m-.155-.206-.666.6a.008.008 0 0 0 .01.013l.772-.447.007-.005a.101.101 0 1 0-.123-.16m-.121-.228-.751.487a.008.008 0 0 0 .007.014l.833-.321.008-.004a.101.101 0 1 0-.097-.178m-.084-.244-.819.364a.008.008 0 0 0 .005.015l.873-.186a.101.101 0 1 0-.059-.193m-.045-.254-.866.23a.008.008 0 0 0 .003.016l.891-.046a.101.101 0 1 0-.028-.2m-.004-.258-.891.093a.008.008 0 0 0 0 .016l.888.093h.009a.101.101 0 1 0-.005-.202zm.036-.256-.895-.046a.008.008 0 0 0-.002.016l.863.23.009.002a.101.101 0 1 0 .026-.201m.076-.247-.876-.187a.008.008 0 0 0-.005.015l.816.362.008.003a.101.101 0 1 0 .057-.194m.114-.232-.836-.322a.008.008 0 0 0-.007.014l.748.486.008.004a.101.101 0 1 0 .087-.182m.148-.211-.775-.449a.01.01 0 0 0-.01.002.01.01 0 0 0 .001.011l.663.597.007.005a.101.101 0 1 0 .115-.167m.179-.186-.698-.562a.008.008 0 0 0-.011.011l.562.693.006.006a.101.101 0 1 0 .139-.147m.206-.155-.6-.666a.008.008 0 0 0-.013.01l.447.772.005.007a.101.101 0 1 0 .16-.123m.228-.121-.488-.752a.008.008 0 0 0-.014.007l.321.833.004.008a.101.101 0 1 0 .178-.097m.244-.084-.364-.819a.008.008 0 0 0-.015.005l.186.873.002.008a.101.101 0 1 0 .191-.068m.255-.045-.23-.866a.008.008 0 0 0-.016.003l.046.891.001.009a.101.101 0 1 0 .199-.037m.258-.004-.093-.891a.008.008 0 0 0-.016 0l-.093.888a.101.101 0 1 0 .202.003m-.101.107a1.535 1.535 0 1 1 0 3.07 1.535 1.535 0 0 1 0-3.07m0 .184a1.351 1.351 0 1 1 0 2.702 1.351 1.351 0 0 1 0-2.702M5.753 4.532c.138-.289.329-.544.55-.759q.052.034.102.07a2.7 2.7 0 0 0-.586.832 1 1 0 0 1-.066-.143m1.223-.697.093.081.099-.077-.092-.08zm-.196-.15q.051.035.101.074l.101-.074-.101-.074zm.009.314.092.087.092-.087-.092-.084zm-.195-.16q.05.037.099.077l.093-.081-.099-.076-.092.08m.604-.291-.102-.074q-.058.033-.116.07l.104.072q.056-.035.114-.068m.179.148-.091-.079-.109.069.094.078.107-.069m-.618-.286.122-.074q.061.035.122.074l-.122.07zm-.196.137.101-.074q.058.033.116.07-.053.035-.104.072zm-.179.148.091-.079q.055.033.109.069l-.094.078-.107-.069m-.564-.177a3 3 0 0 1 .371.184 2.6 2.6 0 0 0-.493.643 1.2 1.2 0 0 1-.025-.248c0-.21.054-.407.148-.579m.103-.157q.222.072.441.191-.047.038-.092.078a3 3 0 0 0-.406-.187 1 1 0 0 1 .058-.081m.129-.142q.252.066.502.194-.053.035-.104.073a3 3 0 0 0-.469-.194 1 1 0 0 1 .071-.073m.188-.145.011.004.013.003q.256.067.511.198-.064.035-.127.074a3 3 0 0 0-.498-.192l-.021-.007a1 1 0 0 1 .112-.079m1.179-.058-.013.004a3 3 0 0 0-.525.204 3 3 0 0 0-.515-.201l-.01-.003-.013-.004a1.2 1.2 0 0 1 .538-.126 1.2 1.2 0 0 1 .538.126m.216.138-.012.003q-.258.074-.508.195l-.128-.074q.261-.134.524-.201l.013-.003a1 1 0 0 1 .111.079m.146.138a3 3 0 0 0-.469.194l-.104-.073q.25-.128.502-.194.037.035.071.073m.115.151a3 3 0 0 0-.406.187l-.092-.078q.218-.119.441-.191a1 1 0 0 1 .058.082m.167.902a2.6 2.6 0 0 0-.493-.643 3 3 0 0 1 .371-.184 1.2 1.2 0 0 1 .148.579q0 .128-.025.248m-.12.328a2.7 2.7 0 0 0-.586-.832q.051-.037.102-.07c.221.215.412.47.55.759a1 1 0 0 1-.066.143m-.188.258a2.7 2.7 0 0 0-.598-.932l.097-.08c.252.248.464.548.602.892a1 1 0 0 1-.101.121m-.228.187-.016-.043a2.7 2.7 0 0 0-.541-.899l.092-.091c.253.264.46.583.585.946a1 1 0 0 1-.12.087m-1.169.068.015-.048c.111-.327.29-.618.508-.866.218.248.396.539.507.866l.016.048a1.2 1.2 0 0 1-.523.119 1.2 1.2 0 0 1-.523-.119m-.243-.155c.125-.363.332-.682.585-.946l.092.091a2.7 2.7 0 0 0-.541.899l-.016.043a1 1 0 0 1-.12-.087m-.209-.221c.138-.343.35-.644.602-.892l.097.08a2.7 2.7 0 0 0-.598.932 1 1 0 0 1-.101-.121"/></svg>