<svg xmlns="http://www.w3.org/2000/svg" width="25" height="16.667" viewBox="0 0 25 16.667"><path fill="#f6c50a" style="fill:#fcdd09;fill-opacity:1" d="M0 0h25v16.667H0z"/><path fill="#2d558e" style="fill:#0f47af;fill-opacity:1" d="M0 0h25v10H0z"/><path fill="#fdfdfc" d="M0 0h25v6.667H0z"/><path style="fill:#d90c15;fill-opacity:1" d="M3.504 15.731a.32.32 0 0 1-.203-.106.6.6 0 0 1-.121-.264c-.007-.034-.006-.041.011-.071.049-.085.187-.112.281-.055.017.01.05.046.054.057a.1.1 0 0 1-.006.036.5.5 0 0 0 .011.313.3.3 0 0 0 .057.092.3.3 0 0 1-.085-.002m5.098-.134a.38.38 0 0 1-.217-.295.7.7 0 0 1 .012-.238.15.15 0 0 1 .075-.051.3.3 0 0 1 .102.003.3.3 0 0 1 .082.039.2.2 0 0 1 .075.115c.001.014.001.016-.014.034a.5.5 0 0 0-.093.211.4.4 0 0 0 .011.18q.006.018.002.017zm-4.113-.13c.026-.113-.021-.256-.116-.361l-.033-.036.003-.022c.011-.081.088-.157.18-.177a.15.15 0 0 1 .125.024c.017.013.021.022.035.084a.6.6 0 0 1 .007.253.38.38 0 0 1-.202.254zm5.043 0 .01-.024a.3.3 0 0 0 .024-.134.4.4 0 0 0-.007-.088.5.5 0 0 0-.066-.165l-.017-.028.005-.017c.017-.056.067-.101.136-.125a.2.2 0 0 1 .068-.008.2.2 0 0 1 .065.008c.026.01.057.034.069.054l.009.015v.076a.5.5 0 0 1-.021.176.36.36 0 0 1-.237.249l-.035.011zm-7.038-.103a.4.4 0 0 1-.071-.152q-.047-.194.11-.405c.017-.023.024-.027.056-.032.041-.006.095.018.137.061q.059.061.074.139a.2.2 0 0 1-.004.085c-.004.011-.007.013-.022.019a.5.5 0 0 0-.116.067.37.37 0 0 0-.14.227l-.004.023zm.625-.036a.3.3 0 0 1-.092-.164l.026-.016a.3.3 0 0 0 .081-.081.5.5 0 0 0 .055-.15q-.001-.002-.013-.006l-.017-.006q-.004-.002-.015.031-.045.14-.133.186a.2.2 0 0 1-.09.022.2.2 0 0 1-.091-.02q-.024-.01-.016-.013l.013-.022a.26.26 0 0 0-.026-.223l-.045-.057a.2.2 0 0 0-.063-.052c-.049-.026-.084-.033-.129-.022l-.023.003-.012-.036a.3.3 0 0 1 .038-.265.4.4 0 0 1 .089-.088.3.3 0 0 1 .155-.012.5.5 0 0 1 .198.096c.025.02.034.024.043.017q.02-.015-.009-.041a.55.55 0 0 0-.215-.111.4.4 0 0 0-.13-.004l-.028.005-.017-.012c-.02-.014-.041-.038-.05-.057s-.014-.054-.012-.077c.001-.01.003-.019.004-.019l.012.014.009.014.029-.002a.18.18 0 0 0 .123-.06c.091-.092.117-.249.057-.341l-.011-.02a.19.19 0 0 1 .162-.042c.05.013.094.052.117.105a.3.3 0 0 1 .025.111.4.4 0 0 1-.02.148l-.011.044c.001.001.269-.012.597-.03l.611-.033h.015l.005-.027c.04-.206.11-.387.222-.574.087-.145.184-.276.325-.437l.054-.062-.032-.07a7 7 0 0 1-.112-.257 1.2 1.2 0 0 1-.065-.248 1 1 0 0 1 0-.235c.01-.074.036-.177.066-.258l.007-.018-.016-.01q-.015-.009-.018-.007c-.003.002-.015.024-.031.049a1 1 0 0 1-.093.132.36.36 0 0 1-.201.126 1 1 0 0 1-.105.009c-.142.006-.196.021-.262.075l-.012.008a1 1 0 0 1 .017-.108c.034-.156.078-.264.209-.511l.053-.101-.039.01a.3.3 0 0 1-.061.01.17.17 0 0 1-.145-.08.27.27 0 0 1-.039-.154.5.5 0 0 1 .005-.106l.007-.072c0-.03-.009-.07-.024-.107-.008-.019-.012-.033-.01-.032l.033.026a.6.6 0 0 0 .243.129c.041.01.123.009.161-.001.121-.033.224-.127.327-.296.106-.176.25-.341.412-.474a1.53 1.53 0 0 1 1.046-.366c.24.014.466.082.693.211l.048.027-.002.013c-.01.072-.013.237-.006.303a.7.7 0 0 0 .144.378l.012.013-.01.045a1 1 0 0 0-.023.123c0 .011.003.011-.052-.013a.9.9 0 0 0-.695-.033.62.62 0 0 0-.34.307l-.014.034.015.012.014.011.019-.018a1 1 0 0 1 .22-.159 1 1 0 0 1 .191-.079l-.015.037a2 2 0 0 0-.083.229 1.7 1.7 0 0 0-.059.397.8.8 0 0 1-.076.36.5.5 0 0 1-.237.213l-.046.023a1 1 0 0 0 .08.053c.204.124.281.191.323.284.043.094.033.188-.035.322a.7.7 0 0 0-.074.309c0 .053.005.095.021.173.025.124.032.191.032.287 0 .12-.017.212-.055.304q-.016.039-.017.023a1 1 0 0 0-.047-.098 1.3 1.3 0 0 0-.221-.252 1.3 1.3 0 0 1-.157-.165.4.4 0 0 1-.072-.142l-.006-.026H5.67l-.004.015a.5.5 0 0 0-.004.23c.027.119.089.228.238.418.065.083.079.102.108.15a.8.8 0 0 1 .115.301 1 1 0 0 1 .002.13q-.003 0-.01-.017a.85.85 0 0 0-.241-.291 2 2 0 0 0-.301-.182c-.07-.034-.187-.1-.228-.128a.4.4 0 0 1-.168-.215l-.011-.026a.4.4 0 0 0-.042.085.3.3 0 0 0-.002.116.5.5 0 0 0 .052.116 1 1 0 0 0 .112.142.5.5 0 0 1 .135.216c.006.024.01.094.006.093a.1.1 0 0 1-.017-.025c-.039-.067-.098-.106-.237-.156l-.093-.036a.3.3 0 0 1-.092-.07l-.025-.026-.016.011-.014.011.01.018a1 1 0 0 1 .09.246c.009.049.009.048-.011.034a.7.7 0 0 0-.25-.1 3 3 0 0 0-.163-.027l.037.037c.054.053.072.079.082.125a.24.24 0 0 1-.033.17l-.005.008-.015-.013c-.057-.051-.134-.06-.215-.025a.27.27 0 0 0-.162.196c-.004.021-.002.061.003.061l.012.009.01.009-.043-.002a.2.2 0 0 1-.108-.027c-.074-.039-.121-.105-.149-.214l-.01-.039-.023-.002-.049-.003c-.03-.001-.028-.005-.032.038a.58.58 0 0 1-.203.367 1 1 0 0 1-.144.097q-.011.006-.006-.005l.008-.019c.005-.01.004-.012-.005-.033a.22.22 0 0 0-.204-.113.2.2 0 0 0-.077.01.2.2 0 0 0-.098.062.17.17 0 0 0-.046.087l-.003.018zm5.649-.109-.009-.002.007-.007c.006-.006.007-.009.005-.029a.24.24 0 0 0-.134-.184c-.072-.037-.155-.04-.213-.008q-.062.034-.071.082c-.004.023-.005.023-.038.005a.23.23 0 0 1-.094-.095.33.33 0 0 1-.008-.257.5.5 0 0 1 .161-.218.2.2 0 0 0 .038-.038c-.013 0-.077.008-.094.011a.2.2 0 0 0-.109.071.7.7 0 0 0-.072.13.4.4 0 0 1-.063.115c-.05.057-.108.041-.159-.045a.5.5 0 0 1-.038-.084c-.002-.008-.002-.008.008-.006s.012.001.032-.022a.2.2 0 0 0 .047-.088.5.5 0 0 0-.001-.155c-.026-.1-.084-.169-.158-.188l-.023-.006v-.02c0-.037.015-.073.036-.085a.2.2 0 0 1 .073-.006c.013.002.06.012.103.024.107.029.124.031.176.023.057-.008.053-.006.053-.03v-.02l-.028-.006-.071-.022a.33.33 0 0 1-.147-.091q-.066-.08.013-.171a.4.4 0 0 1 .072-.064c.001 0 .004.01.005.022.003.021.004.022.018.033a.2.2 0 0 0 .037.02.25.25 0 0 0 .13 0 .3.3 0 0 0 .167-.142.2.2 0 0 0 .023-.092l.002-.037.016-.005a.3.3 0 0 1 .056-.007.14.14 0 0 1 .066.006c.035.01.062.028.091.058q.074.077.109.231c.023.102.032.19.031.331v.103l.01.002.073.016c.236.054.351.032.452-.087l.016-.019-.006-.087c-.015-.233 0-.367.061-.548.069-.205.088-.288.088-.376 0-.086-.022-.134-.075-.163a.2.2 0 0 0-.107-.023.5.5 0 0 0-.112.007c-.152.022-.235.015-.313-.026-.1-.053-.17-.165-.218-.347a2.5 2.5 0 0 1-.068-.493c-.002-.034 0-.031-.028-.036-.011-.002-.012-.002-.016.013a.25.25 0 0 1-.137.153.8.8 0 0 1-.191.062.2.2 0 0 0-.071.021.2.2 0 0 0-.08.09.3.3 0 0 0-.025.111.3.3 0 0 0 .032.164.33.33 0 0 0 .123.145l-.062.036c-.115.054-.202.023-.286-.101l-.025-.036c-.001-.002-.011.013-.023.034a.5.5 0 0 1-.179.202.5.5 0 0 1-.099.044c-.013 0-.031-.106-.033-.197a1.2 1.2 0 0 1 .021-.247l.011-.073-.026.02c-.086.071-.144.098-.225.102q-.127.007-.217-.086a.3.3 0 0 1-.066-.104L7 12.397l.038-.004a.42.42 0 0 0 .258-.122.26.26 0 0 0 .077-.205.4.4 0 0 0-.075-.198c-.223-.342-.237-.671-.051-1.155l.052-.127a1.2 1.2 0 0 0 .086-.256.8.8 0 0 0 .019-.206c0-.131-.016-.235-.056-.367-.112-.369-.391-.73-.697-.906a1 1 0 0 0-.185-.082c-.298-.106-.459-.196-.577-.324a.6.6 0 0 1-.071-.092l.044-.012q.434-.094.65-.281a1 1 0 0 0 .156-.177l.021-.031.005.008c.016.026.065.096.092.128.033.039.088.097.119.123a.69.69 0 0 0 .571.152c.046-.008.127-.029.174-.044.036-.013.127-.051.159-.067a.4.4 0 0 1 .102-.032l.018-.002.129.14c.241.263.394.447.552.666.169.234.305.466.398.682a.2.2 0 0 0 .052.085c.046.049.1.084.174.111a.6.6 0 0 0 .249.037.6.6 0 0 0 .279-.064.42.42 0 0 0 .248-.347q.015-.2-.142-.447a2 2 0 0 0-.117-.162 1.5 1.5 0 0 1-.206-.303.4.4 0 0 1-.044-.202v-.048l-.102.14a3 3 0 0 1-.103.136c-.001-.002.003-.03.007-.063.022-.157.029-.248.029-.377 0-.114-.004-.167-.019-.253a.9.9 0 0 0-.325-.557l-.057-.044-.018-.014a3 3 0 0 1 .194.028c.229.04.368.132.469.311.051.09.095.216.124.353l.012.059h.017c.009 0 .018-.002.019-.004.006-.01.013-.291.017-.661.005-.417.01-.608.024-.822a4.5 4.5 0 0 1 .14-.889l.02.015a1 1 0 0 1 .078.088c.006.007.005.009-.006.061-.08.383-.118.759-.153 1.506-.017.361-.022.477-.031.623l-.007.147a1 1 0 0 0 .086-.079l.085-.084.004-.047c.023-.277.101-.459.24-.564a.7.7 0 0 1 .35-.118l.021-.002-.007.008a1 1 0 0 0-.126.202c-.094.2-.162.499-.21.917-.007.062-.01.099-.01.138a.3.3 0 0 1-.032.162.1.1 0 0 1-.052.05c-.015.008-.022.009-.047.009-.044 0-.074-.012-.127-.05q-.112-.081-.143-.039c-.016.02-.014.049.005.099a.3.3 0 0 0 .067.107c.098.11.157.199.204.303a.75.75 0 0 1-.063.747 1.2 1.2 0 0 1-.156.172.8.8 0 0 1-.309.158.4.4 0 0 1-.105.008.3.3 0 0 1-.098-.008.4.4 0 0 1-.111-.05l-.037-.023q-.002 0 .002.01l.028.071c.128.331.167.604.122.859l-.008.042q-.002.006.015.01a.7.7 0 0 1 .177.095c.081.055.154.113.316.25.064.054.096.072.141.081.03.006.052.004.083-.006.061-.021.162-.1.333-.262a3 3 0 0 1 .238-.21c.09-.068.149-.096.203-.096.027 0 .031.001.051.011.028.015.054.046.054.064 0 .039-.012.421-.013.422q-.003 0-.026-.016a.2.2 0 0 0-.133-.045c-.156.01-.259.249-.343.791l-.009.057.017.008.018.006.044-.068c.093-.143.151-.207.224-.246l.028-.014-.017.061a1.7 1.7 0 0 0-.077.382c-.007.078-.004.217.007.292a1 1 0 0 0 .068.276c.087.165.139.336.159.525.006.057.01.224.006.261l-.003.025-.174-.172a6 6 0 0 0-.208-.201 1.3 1.3 0 0 1-.196-.197 1 1 0 0 1-.14-.269l-.015-.044a.1.1 0 0 0-.033.006c-.003.002-.002.015.004.064a.6.6 0 0 0 .034.153c.036.098.102.195.224.328.039.043.089.095.111.116.03.029.047.049.068.079.111.164.168.306.175.439l.001.037-.014-.019a.4.4 0 0 0-.085-.088.4.4 0 0 0-.136-.064.4.4 0 0 1-.158-.096.7.7 0 0 1-.128-.178 4 4 0 0 0-.131-.204c-.005-.007-.029.04-.034.067-.021.109.093.339.359.722l.052.076.035.02a.6.6 0 0 1 .154.125.7.7 0 0 1 .116.189c.014.035.041.116.041.125 0 .002-.013-.006-.03-.018a.3.3 0 0 0-.2-.07c-.062 0-.095.011-.192.061-.138.073-.202.097-.255.097q-.113.002-.042-.274l.009-.036-.011-.045c-.014-.057-.02-.077-.036-.112s-.03-.053-.058-.074l-.044-.039c-.012-.012-.023-.021-.024-.018s.001.043.003.091c.008.173.003.311-.013.4a.4.4 0 0 1-.107.227c-.032.028-.032.028-.046.008a.2.2 0 0 0-.064-.058.2.2 0 0 0-.112-.022.2.2 0 0 0-.101.023.23.23 0 0 0-.137.171c-.002.015-.002.017.005.025q.01.009.002.01a.3.3 0 0 1-.089-.001.11.11 0 0 1-.074-.058.3.3 0 0 1-.007-.159 1.4 1.4 0 0 1 .066-.228l.006-.016-.016-.007q-.015-.007-.019-.006l-.018.04c-.128.316-.246.498-.367.564a.2.2 0 0 1-.106.028l-.051-.001zM7.5 14.745a.6.6 0 0 1-.004-.182q.035-.185.239-.299c.031-.017.035-.019.05-.017.05.006.103.059.128.126a.25.25 0 0 1 .017.108.2.2 0 0 1-.007.067c-.013.038-.037.072-.047.068a.5.5 0 0 0-.122.003.4.4 0 0 0-.125.045.3.3 0 0 0-.118.119l-.01-.036m-4.882-.649a.4.4 0 0 0-.149-.108.3.3 0 0 0-.196-.017q-.012.003-.014.002a.4.4 0 0 1 .045-.086.35.35 0 0 1 .173-.142.46.46 0 0 1 .267.004c.029.008.037.013.052.037a.2.2 0 0 1 .023.093c0 .106-.066.211-.149.235-.027.008-.031.007-.051-.017m5.525-.329c-.032-.01-.042-.018-.042-.034a.5.5 0 0 0-.035-.119.4.4 0 0 0-.15-.183l-.043-.021-.021-.007.018-.011q.182-.117.354-.022a.6.6 0 0 1 .154.134l.021.026.001.029a.17.17 0 0 1-.051.13.22.22 0 0 1-.168.083.1.1 0 0 1-.039-.005m-1.016-2.882a.6.6 0 0 1-.107-.255c-.03-.165-.02-.347.037-.636l.018-.091-.01-.034a1.5 1.5 0 0 0-.147-.341 1.3 1.3 0 0 0-.16-.217L6.72 9.27l.029-.044c.016-.024.03-.046.032-.047.003-.004.02.006.073.041.106.071.197.148.322.276l.052.053.022.049a1.4 1.4 0 0 1 .113.404c.006.052.005.2-.002.249a1 1 0 0 1-.094.31c-.051.122-.077.19-.108.287l-.018.058zm-4.673-.609a.4.4 0 0 1-.148-.068.3.3 0 0 1-.068-.073.53.53 0 0 1-.083-.253c-.007-.071-.004-.086.023-.114q.06-.062.16-.05c.073.009.133.048.159.104l.01.022-.007.01a.5.5 0 0 0-.054.22.33.33 0 0 0 .044.195c.012.019.013.019-.035.007m.969-.247a.3.3 0 0 1-.085-.034.54.54 0 0 1-.171-.168c-.024-.035-.025-.037-.025-.056 0-.082.071-.163.166-.189.048-.013.105-.006.137.018.011.008.012.01.014.034a.5.5 0 0 0 .073.229.36.36 0 0 0 .135.123.37.37 0 0 1-.244.044m-.876-.212q-.008 0-.019-.023c-.071-.135-.283-.165-.381-.054l-.017.019h-.038c-.064 0-.087-.009-.099-.039a.25.25 0 0 1 .016-.212c.031-.063.065-.113.163-.235.102-.128.143-.191.158-.244a.5.5 0 0 0 .015-.099 1 1 0 0 0-.113.109l-.08.098A1.5 1.5 0 0 1 2 9.315c-.061.051-.109.061-.158.035a.3.3 0 0 1-.08-.081L1.75 9.25l.01-.015.018-.041a.2.2 0 0 0 .008-.066.25.25 0 0 0-.024-.118c-.038-.09-.106-.152-.179-.164l-.026-.004-.01-.03a.6.6 0 0 1-.032-.156c-.003-.063.005-.096.029-.119.02-.02.043-.019.11.001a.6.6 0 0 0 .237.034 1 1 0 0 0 .09-.018l.082-.016c.029-.002.028-.001.032-.027.002-.015.002-.016-.007-.022a.3.3 0 0 0-.104-.027 1 1 0 0 0-.108-.001c-.108.003-.131-.003-.172-.051a.25.25 0 0 1-.053-.098.4.4 0 0 1 .001-.14.5.5 0 0 1 .059-.127c.001-.002.011-.001.022.001.094.017.203-.064.247-.182a.24.24 0 0 0 .016-.113l-.002-.043.02-.017a.3.3 0 0 1 .059-.043.19.19 0 0 1 .189-.004c.089.048.145.155.155.295a1 1 0 0 1-.009.134.2.2 0 0 0 0 .062c.018.163.075.253.18.284a.4.4 0 0 0 .146-.002c.165-.038.387-.171.701-.422.12-.096.115-.091.146-.139.155-.245.328-.44.506-.57a1 1 0 0 1 .161-.1l-.006.031a1.2 1.2 0 0 0-.022.353 1.7 1.7 0 0 0 .288.786l.022-.094c.056-.245.095-.371.153-.497.118-.256.3-.441.578-.591l.057-.03-.018.033a.64.64 0 0 0-.099.316c-.005.072.003.179.019.253.011.049.017.257.009.312-.003.024-.005.029-.011.03q-.184.045-.266.085a.38.38 0 0 0-.207.24.7.7 0 0 0-.026.252c-.001.106-.001.123-.008.162a1 1 0 0 1-.14.364l-.013.021-.002-.047a.6.6 0 0 0-.098-.29c-.062-.102-.069-.12-.072-.184a.4.4 0 0 1 .057-.214l.025-.054a1 1 0 0 0-.085.038c-.091.057-.143.18-.13.305a.5.5 0 0 0 .062.192.6.6 0 0 1 .054.143c.022.107-.014.193-.115.275q-.02.017-.023.017c-.003 0 .002-.011.005-.024a.26.26 0 0 0-.063-.244c-.049-.054-.111-.08-.16-.069q-.034.007-.057.046a.3.3 0 0 1-.126.113c-.149.068-.328-.041-.393-.239a.6.6 0 0 1-.026-.129L3.405 8.8a.4.4 0 0 0-.054.07c-.015.032-.017.048-.017.103 0 .042.002.066.01.115l.018.115.009.053.02-.002a.2.2 0 0 1 .099.007q.107.04.122.136c.01.062-.026.141-.086.191-.024.02-.027.022-.027.014 0-.006-.029-.032-.048-.042a.16.16 0 0 0-.092-.021.2.2 0 0 0-.122.033.24.24 0 0 0-.131.175c-.004.031-.006.034-.036.042a.2.2 0 0 1-.085 0c-.057-.019-.12-.09-.163-.184a1 1 0 0 1-.042-.122 1 1 0 0 0-.077-.204 1 1 0 0 0-.076-.117.3.3 0 0 0-.017.095c0 .057.015.103.064.198a.42.42 0 0 1 .055.266q-.017.083-.102.1a.3.3 0 0 1-.081.003zm-1.154-.365a.4.4 0 0 1-.051-.207c0-.098.034-.185.112-.282q.058-.073.085-.078c.039-.008.091.013.129.052.069.07.098.178.068.252l-.007.018-.043.012a.4.4 0 0 0-.222.151.5.5 0 0 0-.052.109c-.001.002-.009-.011-.017-.027m3.833-.694-.008-.044a.95.95 0 0 1 .012-.492.7.7 0 0 0 .041-.236 2 2 0 0 0-.015-.263.9.9 0 0 1 .01-.383.6.6 0 0 1 .108-.204l.029-.037c.003-.005-.013-.033-.019-.033-.007 0-.093.041-.15.073-.16.087-.278.178-.384.296-.163.181-.262.398-.341.745l-.016.065c-.002.006-.007-.001-.026-.034-.186-.33-.254-.674-.192-.972a1 1 0 0 1 .146-.345 1.3 1.3 0 0 1 .206-.224 1 1 0 0 0-.142-.064.8.8 0 0 0-.242-.047.55.55 0 0 0-.362.104.7.7 0 0 0-.17.204 1.1 1.1 0 0 0-.102.323 1.5 1.5 0 0 1-.134-.464 2 2 0 0 1-.005-.243 1.06 1.06 0 0 1 .338-.725.9.9 0 0 1 .393-.199 1 1 0 0 1 .208-.024l.017-.002-.024-.032a.8.8 0 0 1-.184-.436c-.017-.242.113-.434.32-.474a.6.6 0 0 1 .151-.002 1 1 0 0 1 .166.049l.009.004-.021.034a.44.44 0 0 0-.074.312.33.33 0 0 0 .113.195c.119.102.3.143.527.122.047-.004.133-.019.179-.03.019-.005.323-.061.674-.125l.648-.118c.008-.002.009-.003.009-.023 0-.017-.001-.021-.006-.021l-.315-.037-.309-.037-.032.017a.25.25 0 0 1-.123.032q-.11 0-.147-.08c-.01-.023-.011-.025-.01-.068 0-.041.001-.046.011-.076l.022-.056.011-.024-.011-.022a.28.28 0 0 1 .017-.259l.007-.012.005.014a.4.4 0 0 0 .085.153.2.2 0 0 0 .086.058c.023.009.029.009.063.008a.2.2 0 0 0 .087-.019 1 1 0 0 1 .138-.041.8.8 0 0 1 .211-.019 1 1 0 0 1 .217.026l.106.02c.078.014.117 0 .14-.048.016-.035.015-.071-.019-.386a7 7 0 0 0-.033-.286.37.37 0 0 0-.164-.223.2.2 0 0 0-.105-.023c-.047.002-.067.01-.14.055-.07.043-.097.058-.158.087a1 1 0 0 1-.257.083 1.4 1.4 0 0 1-.199.001l-.013-.002-.004.035a.8.8 0 0 1-.075.262.87.87 0 0 1-.219-.502l-.011-.143-.02-.012a.38.38 0 0 1-.199-.226 1 1 0 0 1-.036-.128c-.001-.008.032-.032.378-.277l.38-.269.01-.034a.44.44 0 0 1 .128-.21.37.37 0 0 1 .209-.094 1 1 0 0 1 .201.014 5.2 5.2 0 0 1 1.541.492l.016.009-.049.026c-.077.041-.117.075-.134.115-.014.032-.008.056.012.056.01 0 .018-.011.018-.024l.005-.018a.2.2 0 0 1 .047-.051.7.7 0 0 1 .169-.084l.056-.022a.5.5 0 0 0 .183-.146l.059-.064.004.009.017.043a.8.8 0 0 1 .015.527.3.3 0 0 1-.034.091.8.8 0 0 1-.189.223c-.045.033-.051.038-.051.048 0 .008.011.02.019.02.006 0 .051-.03.087-.059a.8.8 0 0 0 .158-.195c.004-.012.018.015.027.05a.5.5 0 0 1 0 .159.5.5 0 0 1-.081.202.6.6 0 0 0-.074.159.4.4 0 0 0-.006.15c.016.069.056.117.114.135a.2.2 0 0 0 .099 0 .4.4 0 0 0 .098-.044.1.1 0 0 1 .028-.016l-.006.038c-.034.177-.126.324-.24.386a.35.35 0 0 1-.269.018.42.42 0 0 1-.237-.224.6.6 0 0 1-.044-.165q-.003-.032-.012-.038c-.006-.005-.017-.003-.023.004s-.006.01-.002.041c.025.217.157.383.339.43a.3.3 0 0 0 .092.009.4.4 0 0 0 .128-.018c.006-.002.007.001.01.019a.9.9 0 0 1-.048.426l-.021.077a.22.22 0 0 0 .034.173.2.2 0 0 0 .07.049c.028.01.077.01.107.002a.36.36 0 0 0 .196-.174q.01-.017.012-.017a1 1 0 0 1-.004.133c-.018.161-.073.284-.159.357a.4.4 0 0 1-.111.059l-.074.013a1 1 0 0 1-.35-.038.67.67 0 0 1-.388-.269.4.4 0 0 1-.062-.178c-.002-.021-.004-.028-.01-.035q-.011-.012-.026 0c-.008.007-.001.067.014.12.072.25.365.431.717.443.046.002.064.003.064.006a1.1 1.1 0 0 1-.28.395.46.46 0 0 0-.138.16c-.065.139-.027.27.088.302a.3.3 0 0 0 .121-.002.6.6 0 0 0 .125-.046l.027-.014-.002.01a.6.6 0 0 1-.135.236.43.43 0 0 1-.361.137c-.065.001-.118 0-.143-.002-.131-.013-.217-.052-.281-.127a.6.6 0 0 1-.112-.276L7.577 6.4l-.063.064c-.033.035-.074.075-.09.091a.9.9 0 0 1-.408.232 1 1 0 0 1-.234.014c-.305-.001-.461.02-.557.072l-.015.008.036-.082.06-.138a1.6 1.6 0 0 0 .129-.83l-.042.048a3 3 0 0 1-.187.209.73.73 0 0 1-.371.192 1 1 0 0 1-.159.02 1 1 0 0 0-.256.043 1 1 0 0 0-.121.048q0-.003.014-.025c.076-.115.15-.318.184-.507.027-.154.078-.248.213-.4.039-.044.048-.055.048-.064a.03.03 0 0 0-.004-.015c-.005-.005-.017-.005-.025-.001a2 2 0 0 0-.14.164.7.7 0 0 0-.128.297c-.015.085-.048.21-.075.287-.03.084-.074.172-.118.234a.7.7 0 0 1-.104.114l-.015.014c0 .003.019.032.021.032l.036-.025a1 1 0 0 1 .083-.052.8.8 0 0 1 .38-.102.87.87 0 0 0 .435-.123 1 1 0 0 0 .24-.221.4.4 0 0 1 .059-.063c.005.003 0 .18-.006.235a1.6 1.6 0 0 1-.062.295c-.031.1-.067.189-.145.36l-.053.115.015.012.015.012.015-.014a.4.4 0 0 1 .206-.087c.086-.015.141-.019.359-.021l.217-.005.04-.008a.7.7 0 0 0 .216-.079q.153-.083.303-.241.029-.03.031-.027l.012.047c.043.179.127.286.264.336a.6.6 0 0 0 .213.035l.067.002-.002.027a.5.5 0 0 1-.299.431c-.026.011-.04.024-.067.06a.4.4 0 0 0-.058.12.2.2 0 0 0 .021.142.2.2 0 0 0 .069.072c.087.057.173.125.243.19.033.031.13.137.13.142q-.002.002-.02-.002a.6.6 0 0 0-.155-.015.4.4 0 0 0-.193.048c-.107.052-.226.09-.333.105a1 1 0 0 1-.197 0q-.308-.046-.523-.39l-.031-.049-.006-.008-.022.036a.9.9 0 0 1-.226.252c-.149.11-.359.19-.644.246a1 1 0 0 0-.261.106.6.6 0 0 0-.294.312c-.011.029-.015.035-.015.031zm1.552-5.889c.081-.028.127-.132.099-.223l-.006-.018.016.007c.16.069.305.165.316.208q.006.024.028.024c.024 0 .035-.032.021-.061-.021-.044-.103-.107-.225-.171-.151-.08-.297-.129-.386-.128-.088.001-.157.057-.184.15a.3.3 0 0 0-.012.098q.006.024.029.026c.019-.001.024-.009.028-.047q.011-.114.081-.15c.015-.007.047-.017.049-.014l-.012.016a.19.19 0 0 0-.021.208.17.17 0 0 0 .101.081.2.2 0 0 0 .078-.005M1.73 7.994a.44.44 0 0 0-.219-.202.3.3 0 0 0-.107-.017c-.016.002-.017.001-.014-.004a1 1 0 0 1 .09-.098.32.32 0 0 1 .204-.075.5.5 0 0 1 .256.089c.011.015.02.052.02.081a.2.2 0 0 1-.025.101.2.2 0 0 1-.046.067.2.2 0 0 1-.059.049.1.1 0 0 1-.062.017l-.033.002zm8.322-.678-.089-.142c-.045-.074-.047-.077-.045-.092l.008-.142c.003-.07.007-.128.008-.128.002-.002-.005-.015.095.174.086.162.151.286.151.29l-.023.027a.5.5 0 0 0-.062.079zm-.326-.557a4.7 4.7 0 0 1-.361-.87 2 2 0 0 1-.085-.541c0-.148.02-.261.068-.368a.64.64 0 0 1 .403-.35c.029-.009.032-.011.036-.022q.005-.014.005-.005 0 .007.004.01.008.002.038-.007a.8.8 0 0 1 .382.002c.233.058.422.22.498.425a.7.7 0 0 1 .044.285 1 1 0 0 1-.034.237 2 2 0 0 1-.117.314c-.142.336-.187.485-.194.643l-.002.047-.006-.012a1 1 0 0 1-.038-.132.8.8 0 0 1 .054-.45c.033-.087.058-.181.071-.267.01-.061.01-.202.001-.247a.3.3 0 0 0-.078-.168q-.059-.051-.138-.015l-.012.005.008.017a.8.8 0 0 1 .059.191c.007.042.008.19.002.234a2 2 0 0 1-.028.152c-.012.051-.05.188-.053.188l-.018-.048a1 1 0 0 0-.149-.287 1 1 0 0 0-.122-.141 2 2 0 0 1-.159-.174c-.116-.161-.143-.298-.086-.431a.6.6 0 0 1 .06-.103q.048-.073.011-.104c-.01-.008-.013-.009-.03-.008-.016.001-.024.005-.057.027a.7.7 0 0 0-.255.286 1 1 0 0 0-.051.168c-.01.057-.011.198-.001.265.034.248.136.529.339.928l.017.034-.007.121-.007.147-.002.035c-.002.007-.003.006-.013-.012zm-6.307-.795.005-.017q.044-.139-.034-.336a1.3 1.3 0 0 1-.082-.257.8.8 0 0 1 .017-.356l.012-.057-.025.022c-.145.14-.28.183-.419.132a.5.5 0 0 1-.115-.064 1 1 0 0 1-.112-.099l-.014-.016.025.004a.5.5 0 0 0 .137 0q.183-.039.233-.268c.008-.035.008-.046.008-.111a.5.5 0 0 0-.026-.19.5.5 0 0 0-.068-.145 1.1 1.1 0 0 1-.174-.374.6.6 0 0 1-.005-.196 1 1 0 0 0-.038.086c-.076.183-.11.247-.153.295q-.079.087-.178.026-.015-.01-.016-.013a.3.3 0 0 0 .025-.07.3.3 0 0 0-.01-.12c-.037-.122-.141-.21-.236-.2-.029.003-.03.004-.04.023l-.021.033-.012.017-.005-.008a.4.4 0 0 1-.025-.067.3.3 0 0 1 .003-.118c.02-.073.059-.13.172-.257.091-.102.128-.146.153-.183a.4.4 0 0 0 .042-.077l-.077.045c-.177.108-.265.144-.333.139q-.092-.006-.137-.114L1.88 3.03l-.005-.02q-.002-.008.053.004l.023.005.016-.013c.063-.053.089-.159.065-.264l-.023-.065a.2.2 0 0 0-.041-.064.2.2 0 0 0-.083-.055c-.011-.002-.011-.002-.009-.017a1 1 0 0 1 .034-.109c.05-.108.122-.144.234-.116.063.016.148.061.298.156.079.05.088.055.102.055.033 0 .064-.018.073-.042q.01-.022-.013-.054c-.01-.015-.013-.017-.038-.024-.17-.049-.295-.128-.351-.221a.27.27 0 0 1-.041-.15.37.37 0 0 1 .059-.195q.023-.04.022-.015 0 .008.015.018c.085.055.199.03.283-.06a.24.24 0 0 0 .071-.153c.002-.032-.005-.068-.016-.081q-.006-.007-.005-.01a.3.3 0 0 1 .229-.034c.065.02.114.064.141.124A.3.3 0 0 1 3 1.748a.6.6 0 0 1-.122.354c-.024.035-.025.037-.022.047.008.02.04.022.068.004a.4.4 0 0 0 .088-.107.7.7 0 0 0 .087-.259.4.4 0 0 1 .058-.199c.033-.04.088-.047.151-.02.024.01.072.038.078.044q.004.004-.014.02c-.016.016-.017.017-.017.034 0 .078.05.155.128.2.09.052.184.051.246-.002q.014-.012.02-.013a.2.2 0 0 1 .053.044c.061.064.072.149.03.239-.049.107-.155.225-.359.398a.2.2 0 0 0-.062.083c-.065.14-.044.308.069.556.047.103.076.159.094.181q.197.243.255.492c.009.038.022.119.027.167l.005.043c.001.009.057.085.224.309l.224.302a.1.1 0 0 1-.019.029.5.5 0 0 0-.104.229 1 1 0 0 0 0 .208.84.84 0 0 0 .16.365q.001.006-.017.005l-.054.005q-.286.039-.496.226a1 1 0 0 0-.145.16c-.004.002-.019-.018-.022-.031-.009-.029-.001-.086.022-.155l.013-.041.003-.113c.002-.062.003-.119.002-.127l-.001-.014-.016.015a.2.2 0 0 0-.046.072.5.5 0 0 0-.02.166 1 1 0 0 1-.007.106.4.4 0 0 1-.107.156c-.035.032-.04.037-.04.035zm7.01-1.315-.051-.029a.3.3 0 0 1 .015-.064c.144-.505.159-.956.042-1.308a1 1 0 0 0-.117-.247q-.163-.23-.329-.285a.26.26 0 0 0-.295.078c-.1.117-.126.307-.067.501a.9.9 0 0 0 .198.341c.117.134.165.234.17.351a.37.37 0 0 1-.045.195.7.7 0 0 1-.196.215l-.029.02.003-.018a.4.4 0 0 0-.001-.124 1 1 0 0 0-.129-.297 7 7 0 0 0-.187-.288 6 6 0 0 1-.163-.247q-.068-.118-.092-.259a1.3 1.3 0 0 1-.002-.222.8.8 0 0 1 .401-.585.6.6 0 0 1 .258-.073.62.62 0 0 1 .378.114c.074.056.168.142.215.196.188.217.291.472.316.782.006.08.005.259-.003.339a3.6 3.6 0 0 1-.146.689c-.048.159-.084.257-.094.255l-.05-.028zM5.17 4.412a.9.9 0 0 1-.351-.074.62.62 0 0 1-.319-.428 1 1 0 0 1-.009-.164.54.54 0 0 1 .086-.254.48.48 0 0 1 .4-.172c.18.02.298.148.343.373l.008.043c0 .002-.012-.003-.027-.01a.3.3 0 0 0-.15-.04.19.19 0 0 0-.152.064c-.071.077-.08.198-.025.319.052.115.165.174.378.199.067.008.272.009.364.002.208-.016.413-.041.742-.091.149-.023.156-.023.239-.025.097-.002.168.002.249.015.087.014.176.041.18.054l.004.034.002.028-.014-.008a1 1 0 0 0-.101-.04.9.9 0 0 0-.283-.029c-.136.003-.211.014-.531.077-.069.013-.13.025-.134.027q-.009.002-.009-.003l-.004-.015-.004-.01-.012.017c-.014.02.001.016-.136.041-.31.058-.536.08-.732.072zM2.068 4.08a.36.36 0 0 1-.233-.163l-.02-.029.028.002c.085.008.182-.034.26-.113a.4.4 0 0 0 .065-.084c.005-.012.017-.014.046-.009.043.007.091.04.123.084.02.028.042.078.048.11.01.05 0 .108-.023.133a.5.5 0 0 1-.154.063.7.7 0 0 1-.139.006m-.513-1.009a.5.5 0 0 1 .006-.174q.048-.19.269-.292c.029-.013.039-.012.071.004.053.028.092.099.101.183a.23.23 0 0 1-.018.124c-.013.03-.036.057-.046.054a.4.4 0 0 0-.3.061.3.3 0 0 0-.075.078l-.008-.039m6.838-.378a5.7 5.7 0 0 0-1.257-.437 6 6 0 0 0-.498-.086l.007-.073.008-.075c0-.006.228.027.365.053a5.8 5.8 0 0 1 1.55.535l.037.019-.027.022a.5.5 0 0 1-.11.064l-.018.007zm.161-.13a6 6 0 0 0-1.786-.573l-.075-.013-.003-.068q-.006-.173.03-.331l.01-.053-.029-.013a1 1 0 0 1-.116-.063.33.33 0 0 1-.111-.129.3.3 0 0 1-.021-.097l.001-.015.026.018c.096.068.249.154.435.245l.064.032a.1.1 0 0 1-.01.029.5.5 0 0 0-.053.219c0 .059.007.094.029.142a.287.287 0 0 0 .393.123c.11-.06.166-.187.154-.347l-.006-.054c-.002-.007 0-.008.02-.012q.165-.03.345-.127l.062-.034.01.019c.055.108.137.236.224.349.021.028.039.051.038.052l-.026.019a.34.34 0 0 0-.102.116.22.22 0 0 0-.014.139c.025.108.133.211.258.247a.3.3 0 0 0 .146.003q.11-.034.144-.171a.4.4 0 0 0 .006-.1V2.04l.027.003c.049.005.177.007.244.005a2 2 0 0 0 .302-.037q0 .003-.017.026a.24.24 0 0 1-.128.09.3.3 0 0 1-.085.008l-.085-.002-.026-.003-.022.055a3 3 0 0 1-.113.234 1 1 0 0 1-.101.158l-.037-.017m-.801-.461a.6.6 0 0 0 .119-.132c.04-.058.116-.184.12-.198a.2.2 0 0 0 0-.066c-.016-.075-.085-.125-.172-.125a.14.14 0 0 0-.098.032c-.021.018-.026.038-.041.186-.008.076-.008.22 0 .254q.018.082.073.049zM3.573 1.86c-.088-.02-.159-.087-.174-.165l-.004-.02.024-.027a.45.45 0 0 0 .112-.321l-.008-.053-.004-.02a.4.4 0 0 1 .079.046.5.5 0 0 1 .098.106.4.4 0 0 1 .056.205.7.7 0 0 1-.015.169c-.006.029-.008.033-.021.046-.034.035-.086.047-.143.035m-1.236-.03-.029-.011c-.014-.008-.015-.009-.018-.029a.5.5 0 0 0-.118-.233.3.3 0 0 0-.124-.079l-.014-.004.017-.012a.5.5 0 0 1 .146-.065.4.4 0 0 1 .116 0 .44.44 0 0 1 .215.128c.046.046.056.06.058.081q.003.029-.007.066c-.029.1-.149.18-.242.16z"/><path style="fill:#fff" d="M3.497 15.777q-.216-.031-.313-.254a1 1 0 0 1-.038-.116q-.002-.006-.015-.015a.4.4 0 0 1-.069-.057.4.4 0 0 1-.07-.13l-.006-.021-.014.002a.4.4 0 0 1-.118-.005.4.4 0 0 1-.087-.041l-.009-.007-.025.014a.36.36 0 0 0-.152.164.3.3 0 0 0-.025.136l-.002.062-.039-.046a.6.6 0 0 1-.083-.116.44.44 0 0 1-.062-.225c0-.107.035-.207.107-.313l.027-.04a.6.6 0 0 1-.033-.147.3.3 0 0 1 .029-.156.4.4 0 0 1 .097-.128l.021-.018-.019-.02c-.046-.048-.058-.099-.044-.189l.002-.014-.025-.018a.3.3 0 0 0-.215-.068.3.3 0 0 0-.097.033.2.2 0 0 1-.043.018 1 1 0 0 1 .058-.143.4.4 0 0 1 .27-.228.4.4 0 0 1 .09-.006c.065 0 .084.002.146.018l.035.009.009-.007c.094-.076.216-.075.295.004.073.073.098.191.069.325l-.006.027.034-.002.567-.031.532-.029.009-.042c.067-.316.235-.622.525-.957l.054-.064-.049-.115a2 2 0 0 1-.109-.275 1 1 0 0 1-.045-.293 1 1 0 0 1 .025-.233c.002-.009 0-.007-.018.014a.42.42 0 0 1-.356.168c-.155.006-.191.02-.278.11-.039.04-.044.044-.044.036a2 2 0 0 1 .019-.178c.029-.168.083-.31.202-.534l.026-.049-.027-.002a.2.2 0 0 1-.094-.028c-.059-.032-.1-.094-.116-.177a.7.7 0 0 1-.003-.168.4.4 0 0 0 .003-.126.6.6 0 0 0-.098-.19l-.023-.035.017-.016.017-.016.046.047c.152.154.271.224.393.229a.3.3 0 0 0 .127-.02c.09-.036.181-.127.261-.261.029-.049.076-.118.118-.173.043-.057.16-.185.215-.236.302-.278.655-.436 1.02-.455.07-.004.193.001.259.01.2.027.408.098.587.201a.2.2 0 0 0 .04.02l.006-.031c.007-.048.017-.103.032-.179l.014-.072-.014-.045a1.35 1.35 0 0 0-.317-.548l-.039-.041.052-.08.054-.08a1.8 1.8 0 0 1 .32.236l.048.044-.017-.027a2 2 0 0 0-.239-.29 1.3 1.3 0 0 0-.251-.191 1 1 0 0 0-.216-.092c-.23-.083-.368-.156-.487-.255a.7.7 0 0 1-.142-.163c-.011-.02-.009-.02-.078.007-.218.086-.349.192-.415.335a.6.6 0 0 0-.037.112c-.003.017-.01.021-.031.019l-.017-.001-.006-.025a1.4 1.4 0 0 1-.048-.358c0-.101.009-.162.04-.261l.019-.067c0-.012-.172.039-.235.069-.126.06-.188.15-.21.304a2 2 0 0 0-.005.144.9.9 0 0 1-.039.304c-.04.131-.097.236-.199.367-.028.035-.034.042-.033.034a.8.8 0 0 0 .016-.274.7.7 0 0 0-.104-.227.4.4 0 0 1-.049-.109.4.4 0 0 1 .012-.197c.006-.019.01-.034.008-.034a.3.3 0 0 0-.042.055.3.3 0 0 0-.036.187.6.6 0 0 0 .071.202c.078.163.066.29-.037.4a.7.7 0 0 1-.108.089l-.034.023-.015-.018-.015-.018.01-.016a.26.26 0 0 0 .038-.123.23.23 0 0 0-.033-.113.22.22 0 0 0-.101-.086c-.041-.014-.061-.008-.081.025a.4.4 0 0 1-.087.093c-.176.129-.411.025-.5-.222l-.017-.056c-.005-.021-.006-.023-.008-.016a1 1 0 0 0 .028.27c.001.006.003.007.029.006a.24.24 0 0 1 .199.116c.021.04.029.098.019.144a.3.3 0 0 1-.122.177c-.021.015-.026.02-.024.026a.5.5 0 0 0 .077.195.26.26 0 0 0 .154.102l.044.015-.059.034a.46.46 0 0 1-.235.072c-.108 0-.199-.046-.289-.145a1 1 0 0 1-.087-.116c-.002-.004-.006-.003-.021.003a.2.2 0 0 1-.105.005q-.113-.03-.197-.206c-.011-.022-.018-.037-.017-.032a1 1 0 0 1 .001.135.16.16 0 0 1-.125.132.4.4 0 0 1-.064.006l-.04.001-.014.028a.42.42 0 0 0-.021.316c.012.03.028.054.062.096l.028.036a2 2 0 0 1-.14-.017.4.4 0 0 1-.308-.267.8.8 0 0 1-.04-.228v-.022l-.038-.002c-.073-.004-.1-.021-.119-.075a.3.3 0 0 1-.016-.105.4.4 0 0 1 .068-.192c.032-.053.055-.085.128-.175.078-.097.11-.141.13-.176q.01-.021-.006-.001a5 5 0 0 1-.179.216c-.103.11-.183.136-.263.087a.4.4 0 0 1-.092-.099c-.014-.023-.017-.025-.024-.023a.4.4 0 0 0-.192.124.3.3 0 0 0-.062.163l-.009.058-.036-.06a.54.54 0 0 1-.098-.3c0-.066.011-.117.038-.179a.6.6 0 0 1 .169-.221q.008-.003.005-.009a.7.7 0 0 1-.039-.184c-.003-.069.009-.115.038-.147.031-.034.066-.04.127-.022.112.033.15.04.214.04a.3.3 0 0 0 .119-.02.4.4 0 0 0-.084-.001c-.131.004-.159-.004-.21-.06-.083-.091-.099-.227-.04-.356a1 1 0 0 1 .046-.081c.004-.006-.023-.045-.055-.08-.088-.094-.175-.124-.285-.097-.044.011-.044.011-.044.004a1 1 0 0 1 .081-.125.43.43 0 0 1 .185-.14q.156-.056.354.049c.03.016.044.025.05.034l.008.011.011-.01a.3.3 0 0 1 .157-.078c.126-.018.243.075.292.234.023.074.028.18.013.263a.2.2 0 0 0 0 .062c.016.134.06.209.138.236a.3.3 0 0 0 .142 0c.154-.036.367-.164.662-.398.13-.103.128-.101.151-.138.195-.314.432-.554.679-.688l.04-.022.011-.03c.048-.136.135-.271.239-.373l.038-.037-.013-.006a.73.73 0 0 0-.409-.064c-.246.038-.407.226-.468.543l-.016.107-.01.072a1 1 0 0 1-.085-.172A1.43 1.43 0 0 1 3.46 6.3c.027-.125.086-.268.149-.363l.014-.021-.011-.013q-.043-.048.005-.197a.3.3 0 0 0 .015-.093l.003-.094a.2.2 0 0 0-.001-.041.2.2 0 0 0-.025.06.6.6 0 0 0-.011.146.3.3 0 0 1-.007.089.34.34 0 0 1-.081.142c-.018.02-.1.098-.132.126-.004.003 0-.012.012-.053a.4.4 0 0 0 .028-.147.5.5 0 0 0-.02-.138c-.009-.034-.017-.054-.053-.144a.9.9 0 0 1-.07-.383 1 1 0 0 1 .025-.164l-.026.021a.43.43 0 0 1-.247.109c-.106.006-.208-.038-.319-.136a2 2 0 0 1-.119-.122.4.4 0 0 1 .064.01c.056.01.067.011.111.01a.23.23 0 0 0 .116-.027.26.26 0 0 0 .119-.132.46.46 0 0 0 .039-.223.56.56 0 0 0-.092-.299c-.111-.169-.164-.29-.183-.419l-.006-.036-.005.01-.037.086c-.075.169-.136.234-.217.234a.15.15 0 0 1-.084-.025l-.025-.014-.035.016a.5.5 0 0 1-.215.057.3.3 0 0 1-.183-.04.5.5 0 0 1-.149-.139 1 1 0 0 1-.077-.132l.049.013a.25.25 0 0 0 .244-.04.4.4 0 0 0 .065-.059.1.1 0 0 0-.01-.028.3.3 0 0 1-.026-.122.2.2 0 0 1 .009-.072c.024-.081.058-.131.18-.268.082-.091.134-.154.141-.167q.006-.01-.011.002a1 1 0 0 1-.254.127.24.24 0 0 1-.122.002q-.092-.034-.131-.166l-.009-.03-.021.002a.34.34 0 0 0-.146.045.2.2 0 0 0-.057.049.3.3 0 0 0-.055.082.2.2 0 0 1-.026.046 2 2 0 0 1-.033-.153.7.7 0 0 1-.001-.151q.036-.247.311-.368l.027-.012.012-.045q.067-.25.256-.215c.077.013.154.051.329.161.076.048.09.056.101.056.026 0 .054-.021.048-.037a.05.05 0 0 0-.034-.033l-.06-.019q-.286-.098-.342-.295a.2.2 0 0 1-.008-.079c0-.044.001-.058.007-.081a.5.5 0 0 1 .07-.155c.013-.019.013-.022.006-.046a.4.4 0 0 0-.133-.2.24.24 0 0 0-.129-.047.2.2 0 0 1-.047-.009 1 1 0 0 1 .115-.091.36.36 0 0 1 .411-.004.7.7 0 0 1 .111.092l.021.022.035-.015a.3.3 0 0 1 .142-.03c.037 0 .052.002.072.008.183.054.242.273.135.505a1 1 0 0 1-.089.153c0 .004.023-.002.034-.009a.5.5 0 0 0 .106-.153.7.7 0 0 0 .054-.19c.009-.127.047-.219.103-.247a.15.15 0 0 1 .116-.003 1 1 0 0 1 .094.049l.014.009.017-.026a.6.6 0 0 0 .06-.139.3.3 0 0 0 .008-.075.3.3 0 0 0-.034-.143l-.021-.049c0-.002.106.046.13.059.195.107.268.301.213.565l-.008.043q.002.004.015.016l.033.03q.106.11.04.266t-.356.402a.2.2 0 0 0-.068.087.35.35 0 0 0-.033.159c0 .102.03.211.099.364a1 1 0 0 0 .102.194c.167.208.247.392.277.64l.009.064c.001.004.101.14.222.302l.22.294.023-.018a.4.4 0 0 1 .178-.08 1 1 0 0 1 .182 0 .8.8 0 0 1 .217.079l-.021.031a.5.5 0 0 0-.096.218.4.4 0 0 0 .002.116.3.3 0 0 0 .083.145c.134.128.386.163.683.095.025-.006.294-.056.598-.111s.556-.102.562-.104q.013-.004.002-.004l-.225-.026-.217-.026-.013.008a.3.3 0 0 1-.137.039.2.2 0 0 1-.118-.023c-.095-.05-.12-.159-.068-.294l.012-.03-.009-.024a.32.32 0 0 1 .007-.238l.011-.03-.044.008a9 9 0 0 1-.295.049 2.5 2.5 0 0 1-.428.029 1.1 1.1 0 0 1-.348-.05.6.6 0 0 1-.246-.168.65.65 0 0 1-.164-.33.4.4 0 0 1-.007-.115c0-.087.005-.121.028-.193a.4.4 0 0 1 .179-.243.5.5 0 0 1 .267-.085.35.35 0 0 1 .147.019c.147.05.249.187.288.384.008.038.021.134.019.141q0 .006-.032-.015c-.096-.062-.17-.084-.235-.07-.114.025-.162.147-.113.287a.23.23 0 0 0 .119.138c.054.03.118.047.229.062a3 3 0 0 0 .653-.025l.011-.002-.038-.043a.8.8 0 0 1-.129-.185 1 1 0 0 1-.105-.423l-.002-.036-.026-.014a.42.42 0 0 1-.19-.231 1 1 0 0 1-.047-.179l.381-.27c.209-.148.382-.272.385-.275s.009-.018.014-.034a.45.45 0 0 1 .266-.297.4.4 0 0 1 .209-.022 5 5 0 0 1 1.683.522.1.1 0 0 0 .03.011c.01 0 .06-.019.063-.025a.3.3 0 0 0-.057-.032 5.7 5.7 0 0 0-1.74-.534l-.061-.01.001-.025c.002-.022.002-.023.011-.021l.074.011a5.7 5.7 0 0 1 1.767.55l.059.03.018-.013q.017-.012.018-.016a6 6 0 0 0-1.87-.605c-.063-.01-.066-.01-.069-.019a3 3 0 0 1 0-.273c.005-.051.015-.12.023-.154l.006-.029-.015-.008a1 1 0 0 1-.112-.065.4.4 0 0 1-.086-.086.3.3 0 0 1-.056-.212l.002-.037h.013c.012 0 .02.005.06.033.112.08.254.16.468.264l.079.04a.2.2 0 0 1-.016.038.5.5 0 0 0-.065.233c0 .041.007.075.025.114q.03.069.098.105a.2.2 0 0 0 .111.031c.127.006.221-.069.253-.203.007-.027.007-.038.007-.093a.5.5 0 0 0-.007-.1l-.004-.039.037-.007a1.1 1.1 0 0 0 .39-.146c.045-.025.063-.034.065-.031l.024.046c.059.118.135.234.243.374.027.035.049.066.049.067l-.033.024q-.108.069-.13.148a.2.2 0 0 0 0 .087.3.3 0 0 0 .098.14.5.5 0 0 0 .121.065.22.22 0 0 0 .154-.003c.047-.022.08-.071.093-.138a.7.7 0 0 0 0-.167l-.004-.036h.011l.042.003c.072.008.19.011.265.007.123-.006.208-.018.328-.046l.059-.012a.6.6 0 0 1-.098.153.3.3 0 0 1-.084.059.3.3 0 0 1-.147.023h-.071l-.02.048a3 3 0 0 1-.157.303l-.027.044.018-.019c.01-.011.034-.039.052-.063l.037-.043c.005 0 .06.128.073.171a.9.9 0 0 1-.01.522l-.012.05.008.015c.045.059.048.215.005.336a.6.6 0 0 1-.075.146.4.4 0 0 0-.067.237c.013.105.09.151.191.114a.5.5 0 0 0 .121-.076l.044-.035c.001.001-.011.106-.017.135a.7.7 0 0 1-.183.373.5.5 0 0 1-.08.06q-.003.003.002.03c.007.038.011.123.007.17-.006.08-.027.182-.059.286a.3.3 0 0 0-.02.092c-.003.053.008.086.039.115a.12.12 0 0 0 .114.028c.081-.019.154-.092.208-.209l.018-.039.02.004.02.004.002.018a2 2 0 0 1-.002.204.6.6 0 0 1-.147.367.3.3 0 0 1-.125.084.4.4 0 0 1-.094.023h-.012l-.024.054a1.1 1.1 0 0 1-.298.399.4.4 0 0 0-.11.135c-.044.095-.03.184.036.221.02.011.061.018.088.016a.55.55 0 0 0 .225-.087c.023-.013.042-.024.043-.023a1 1 0 0 1-.039.14.57.57 0 0 1-.245.312.5.5 0 0 1-.216.063c-.02.001-.036.004-.038.006s-.002.013-.002.024a.5.5 0 0 1-.028.146.54.54 0 0 1-.288.319.1.1 0 0 0-.047.037.23.23 0 0 0-.063.15.1.1 0 0 0 .011.057c.016.037.029.051.071.079a1.7 1.7 0 0 1 .458.444l-.07-.018a.7.7 0 0 0-.167-.033l-.037-.002.086.093c.471.507.787.954.969 1.369.025.056.028.063.048.082.102.104.287.154.473.126.201-.03.349-.139.393-.292.039-.136-.004-.308-.126-.495a2 2 0 0 0-.113-.155 1.3 1.3 0 0 1-.223-.342.5.5 0 0 1-.031-.108 4 4 0 0 0-.115.152l-.118.161c-.004.006-.003-.008.007-.072a3 3 0 0 0 .053-.536c0-.113-.002-.148-.016-.231a.88.88 0 0 0-.438-.631.2.2 0 0 1-.033-.024l.005-.023c.006-.021.007-.021.037-.015.01.002.068.011.13.019.166.024.218.034.292.06.178.062.299.18.386.377.021.048.051.132.056.156q.007.028.008-.005l.003-.2.007-.45.004-.27-.029-.054a4.5 4.5 0 0 1-.401-.994 2 2 0 0 1-.063-.463c0-.113.01-.195.034-.283q.11-.397.559-.507a.7.7 0 0 1 .184-.021c.108 0 .2.016.292.05l.028.011.014-.05c.058-.203.093-.382.112-.579.009-.096.01-.29.002-.372a1.4 1.4 0 0 0-.127-.48.8.8 0 0 0-.136-.195.6.6 0 0 0-.172-.142.24.24 0 0 0-.137-.035c-.04 0-.05.001-.069.008a.26.26 0 0 0-.151.153c-.07.163-.036.384.09.577.026.04.049.069.098.125a.66.66 0 0 1 .166.295c.045.202-.057.401-.279.549a.2.2 0 0 1-.07.037l-.014-.018-.011-.016.012-.018c.021-.031.027-.054.027-.101a.4.4 0 0 0-.045-.18 3 3 0 0 0-.268-.444 6 6 0 0 1-.17-.259.8.8 0 0 1-.093-.508.85.85 0 0 1 .342-.564.66.66 0 0 1 .427-.125.65.65 0 0 1 .339.126q.449.338.53.902c.015.105.02.278.011.394a3 3 0 0 1-.121.651 3 3 0 0 1-.117.358l-.008.012.022.018a.7.7 0 0 1 .232.355.9.9 0 0 1 .01.412 1.8 1.8 0 0 1-.141.407c-.089.21-.126.308-.152.407a.9.9 0 0 0-.027.364l-.039.016a.8.8 0 0 1-.049-.709c.062-.168.085-.279.085-.405 0-.118-.019-.191-.063-.238-.021-.023-.035-.03-.059-.03-.015 0-.015 0-.009.014a.8.8 0 0 1 .052.262c.004.112-.014.235-.054.381a4 4 0 0 1-.073.236 2 2 0 0 1-.047-.139 1 1 0 0 0-.102-.229c-.035-.056-.038-.06-.04-.053l-.014.071c-.047.238-.08.497-.105.828l-.005.064.054.1.173.327.036.069.008.015.021-.015c.099-.071.219-.107.414-.123.093-.008.09-.01.048.031a.8.8 0 0 0-.141.185c-.107.194-.182.495-.236.958-.007.06-.01.095-.01.137 0 .11-.02.176-.066.223-.065.066-.158.06-.263-.018a.3.3 0 0 0-.073-.04c-.012-.003-.013.001-.003.031a.3.3 0 0 0 .075.122c.14.158.223.31.259.472.016.07.018.094.018.175s-.004.115-.022.187a.8.8 0 0 1-.116.257c-.141.21-.374.355-.584.363a.4.4 0 0 1-.179-.026c-.006-.002-.006.001.01.046.037.102.072.235.09.337.017.098.019.132.019.25a1 1 0 0 1-.007.162l-.008.054q.002.004.02.013c.099.045.237.143.426.304a.5.5 0 0 0 .129.095.13.13 0 0 0 .078.011c.059-.012.151-.083.341-.263.161-.153.253-.228.332-.271.085-.047.146-.055.2-.026a.2.2 0 0 1 .068.066l.01.017-.008.267-.009.269a.2.2 0 0 1-.037-.03.4.4 0 0 0-.099-.068.1.1 0 0 0-.052-.008c-.028 0-.035.001-.05.009q-.142.074-.235.583l-.017.099c-.002.012-.007.018.04-.048a.53.53 0 0 1 .206-.192 1 1 0 0 1 .09-.027.3.3 0 0 1-.015.056 3 3 0 0 0-.059.2 1.4 1.4 0 0 0-.011.677.4.4 0 0 0 .041.125c.043.08.089.197.115.288.035.124.055.277.055.414 0 .055-.007.222-.01.222l-.213-.209a13 13 0 0 0-.238-.232 1.3 1.3 0 0 1-.206-.212q-.052-.074-.011-.007c.054.087.155.205.275.321a.7.7 0 0 1 .114.155.83.83 0 0 1 .136.419c0 .028-.012.146-.016.157-.002.005-.009-.007-.028-.051a.34.34 0 0 0-.245-.226c-.123-.037-.23-.137-.309-.292a1 1 0 0 0-.053-.086c-.041-.061-.043-.062-.036-.017.012.074.068.196.162.35.047.077.125.197.186.284l.049.07.029.017a.66.66 0 0 1 .28.321c.025.057.041.11.065.208l.019.081-.017-.015-.05-.046c-.087-.081-.155-.113-.236-.113-.055 0-.085.01-.169.054-.18.095-.258.119-.317.099q-.115-.037-.048-.307c.009-.038.01-.042.006-.062a1 1 0 0 0-.033-.113.2.2 0 0 0-.037-.054l-.009-.007v.147c0 .122-.001.154-.006.191-.023.176-.071.28-.158.341l-.025.017-.002.067a.6.6 0 0 1-.03.193.41.41 0 0 1-.263.262 1 1 0 0 1-.135.032l.026-.042a.3.3 0 0 0 .057-.184.4.4 0 0 0-.03-.153c-.016-.041-.022-.051-.029-.048l-.049.004c-.07.003-.113-.011-.147-.048-.03-.032-.044-.076-.044-.141 0-.022-.001-.038-.003-.035-.1.188-.173.281-.263.337-.061.038-.136.052-.202.038l-.025-.005-.007.01a.6.6 0 0 0-.054.126.3.3 0 0 0-.009.09c0 .054.001.06.008.086.005.015.02.049.033.075l.024.049a1 1 0 0 1-.158-.061.42.42 0 0 1-.223-.302.7.7 0 0 1-.009-.153c.003-.039.002-.04-.004-.042a.4.4 0 0 1-.089-.054.3.3 0 0 1-.088-.15.3.3 0 0 1-.007-.082c0-.06.005-.092.024-.142l.009-.027-.027.055a.3.3 0 0 1-.062.101c-.03.029-.051.039-.083.039q-.095-.002-.16-.154l-.018-.046-.004-.014h-.033a.3.3 0 0 0-.206.089.3.3 0 0 0-.066.107l-.021.046a.65.65 0 0 1-.055-.305.4.4 0 0 1 .017-.087.5.5 0 0 1 .239-.28l.034-.02v-.025q0-.092.059-.126c.019-.011.023-.012.056-.013a.4.4 0 0 1 .15.026l.059.016-.032-.019a.3.3 0 0 1-.084-.067c-.061-.071-.055-.156.014-.235l.058-.054c.035-.027.034-.021.013-.071a.32.32 0 0 0-.165-.18l-.069-.017-.049-.01c-.001-.001.022-.018.049-.039.105-.078.182-.108.273-.108.114 0 .21.05.317.165l.041.044.034-.007c.243-.054.391.191.392.646v.084l.012.003c.024.007.097.022.139.029a.5.5 0 0 0 .158.001.26.26 0 0 0 .141-.08l.017-.02-.005-.079a1.3 1.3 0 0 1 .074-.584c.063-.184.082-.28.075-.359-.005-.057-.026-.088-.07-.103a.4.4 0 0 0-.155-.005 1 1 0 0 1-.162.014.4.4 0 0 1-.14-.018q-.152-.047-.238-.235a1.4 1.4 0 0 1-.102-.396 4 4 0 0 1-.021-.203q-.002-.001-.021.02a.3.3 0 0 1-.102.077.8.8 0 0 1-.212.069.14.14 0 0 0-.116.09.24.24 0 0 0-.019.113.3.3 0 0 0 .036.135.3.3 0 0 0 .125.121c.021.012.037.023.035.024a1 1 0 0 1-.104.067q-.17.094-.297-.026l-.037-.04-.016-.021-.022.033a.5.5 0 0 1-.313.223 1 1 0 0 1-.03-.442c.005-.03.006-.03-.023-.013a.4.4 0 0 1-.164.051.33.33 0 0 1-.29-.151.4.4 0 0 1-.056-.152l-.002-.01h.038a.37.37 0 0 0 .284-.117.2.2 0 0 0 .06-.164.34.34 0 0 0-.068-.176 1.1 1.1 0 0 1-.166-.388.8.8 0 0 1-.018-.218v-.113l-.034-.015a.94.94 0 0 0-.496-.087.7.7 0 0 0-.36.146.6.6 0 0 0-.085.086l-.007.01.014-.011c.066-.049.161-.102.253-.139.05-.02.169-.061.171-.059.001.001-.011.027-.025.058a1.6 1.6 0 0 0-.173.674.9.9 0 0 1-.064.353.5.5 0 0 1-.22.24q-.023.013-.023.017c0 .004.025.017.053.034.101.062.167.112.216.163a.4.4 0 0 1 .098.165.2.2 0 0 1 .009.082.3.3 0 0 1-.008.085.6.6 0 0 1-.053.138.6.6 0 0 0-.071.272.6.6 0 0 0 .016.172c.021.103.03.167.035.251a.9.9 0 0 1-.065.4 1 1 0 0 1-.058.105l-.014-.05a.56.56 0 0 0-.134-.243 2 2 0 0 0-.166-.167.9.9 0 0 1-.178-.212l-.015-.029-.001.035c-.003.112.044.231.149.379l.089.118a1.2 1.2 0 0 1 .176.278.68.68 0 0 1 .048.419l-.013.063-.029-.064a.8.8 0 0 0-.111-.203q-.138-.182-.451-.332c-.063-.03-.187-.1-.227-.128a.5.5 0 0 1-.149-.156q-.01-.017-.013-.019-.002.001-.004.013-.012.076.054.177a1 1 0 0 0 .107.134.7.7 0 0 1 .107.144c.036.067.051.14.043.202a1 1 0 0 1-.029.109l-.034-.062c-.057-.112-.09-.137-.246-.193-.036-.013-.081-.031-.099-.041s-.033-.015-.032-.013a1 1 0 0 1 .062.301l-.049-.035a.7.7 0 0 0-.307-.129q-.002.003.003.008l.013.024q.059.123-.026.267l-.014.024.008.038c.017.08.023.16.014.224a.5.5 0 0 1-.061.174.5.5 0 0 1-.134.135 1 1 0 0 1-.133.071c0-.001.006-.022.015-.046a.3.3 0 0 0 .025-.157q-.009-.091-.067-.179l-.018-.028-.05.001a.3.3 0 0 1-.2-.057.4.4 0 0 1-.124-.196l-.009-.032h-.03l-.005.031a.6.6 0 0 1-.102.241.7.7 0 0 1-.268.226c-.03.014-.031.015-.033.028a.4.4 0 0 0 .029.23.3.3 0 0 0 .081.1.3.3 0 0 1 .038.037 1 1 0 0 1-.135.011l-.06-.005zm.071-.061a.46.46 0 0 1-.053-.391l.008-.029-.008-.011a.17.17 0 0 0-.099-.068.26.26 0 0 0-.126.003.16.16 0 0 0-.103.083c-.011.022-.011.031-.001.076q.035.152.111.239a.34.34 0 0 0 .268.115l.015.001zm5.059-.122a.4.4 0 0 1-.01-.18.5.5 0 0 1 .099-.219c.008-.01.01-.013.008-.024a.17.17 0 0 0-.046-.085.2.2 0 0 0-.057-.043.2.2 0 0 0-.118-.028.14.14 0 0 0-.053.01.14.14 0 0 0-.056.046 1 1 0 0 0-.011.222c.008.059.029.12.058.165a.38.38 0 0 0 .187.148q.005 0-.001-.012m-4.114-.129a.4.4 0 0 0 .09-.078.35.35 0 0 0 .09-.242.6.6 0 0 0-.019-.173c-.012-.051-.017-.063-.033-.075a.13.13 0 0 0-.082-.026.23.23 0 0 0-.169.082.2.2 0 0 0-.045.097l-.002.022.029.031c.065.07.108.157.122.249a.2.2 0 0 1 .002.076l-.006.045c-.003.009-.001.008.023-.008m5.058-.014c.144-.055.222-.159.246-.326.002-.016.004-.057.004-.097 0-.078-.001-.081-.025-.105q-.046-.047-.124-.042a.2.2 0 0 0-.102.029c-.041.022-.086.077-.091.113q0 .008.01.023a.5.5 0 0 1 .061.133c.015.05.018.075.018.134a.3.3 0 0 1-.022.131c-.004.01-.007.019-.005.019l.031-.011m-7.05-.111a.4.4 0 0 1 .079-.146.5.5 0 0 1 .159-.114c.029-.011.03-.012.034-.026a.3.3 0 0 0-.004-.105.3.3 0 0 0-.077-.121.2.2 0 0 0-.092-.047c-.025-.004-.056 0-.069.009a.6.6 0 0 0-.126.236.5.5 0 0 0-.008.152.45.45 0 0 0 .079.188l.013.019.003-.012.008-.033m.611-.021a.2.2 0 0 1 .045-.085c.096-.105.285-.1.368.01.008.01.018.026.022.036.008.017.008.018.003.031l-.004.016a.62.62 0 0 0 .301-.31.5.5 0 0 0 .038-.14l.006-.045c.001-.004.012-.004.052-.002a.2.2 0 0 1 .053.005l.011.036q.015.062.041.111c.016.03.061.08.086.097a.3.3 0 0 0 .139.039h.023l-.009-.008c-.008-.007-.01-.011-.011-.029-.007-.114.099-.234.226-.256.058-.01.13.01.159.044q.007.008.011.009c.004.001.009-.015.017-.033a.2.2 0 0 0 .014-.152c-.012-.039-.026-.058-.081-.112l-.04-.041c-.001-.004.135.018.186.03a.8.8 0 0 1 .231.093l.017.011v-.009a1 1 0 0 0-.034-.136 1 1 0 0 0-.059-.133l-.01-.02.018-.014.018-.014.025.027c.046.049.078.068.185.106a.7.7 0 0 1 .165.078.3.3 0 0 1 .084.097.3.3 0 0 0-.007-.078.4.4 0 0 0-.072-.144l-.065-.076a.7.7 0 0 1-.16-.244.2.2 0 0 1-.009-.07c0-.035.001-.046.007-.065a.5.5 0 0 1 .046-.092c.001 0 .007.013.012.029.04.109.086.165.185.231.039.025.159.092.22.121q.306.149.454.34c.023.031.063.094.077.123l.007.014v-.042a.7.7 0 0 0-.104-.351 1.4 1.4 0 0 0-.133-.187c-.152-.194-.214-.31-.235-.443a.5.5 0 0 1 .01-.193l.005-.02h.015c.022 0 .029.003.031.014a.4.4 0 0 0 .029.084.9.9 0 0 0 .197.231c.146.138.215.222.259.32l.015.033.008-.017a.7.7 0 0 0 .051-.2c.004-.038.005-.064.004-.13a1 1 0 0 0-.022-.214 1 1 0 0 1-.028-.177.7.7 0 0 1 .083-.377.4.4 0 0 0 .049-.185.24.24 0 0 0-.022-.111.3.3 0 0 0-.054-.083c-.054-.063-.123-.114-.292-.216-.037-.022-.066-.041-.064-.043s.021-.012.044-.022a.5.5 0 0 0 .251-.228.85.85 0 0 0 .07-.362 1.6 1.6 0 0 1 .154-.64l-.031.01a1 1 0 0 0-.367.223l-.023.022-.018-.013-.018-.016c0-.007.025-.06.045-.092a.66.66 0 0 1 .39-.277.8.8 0 0 1 .219-.028q.204 0 .402.088l.043.018q.003 0 .003-.009c0-.011.018-.101.026-.133l.006-.024-.022-.029a.7.7 0 0 1-.131-.341 1.6 1.6 0 0 1 .004-.331c.003-.01-.127-.08-.23-.123a1.5 1.5 0 0 0-.467-.117 2 2 0 0 0-.274.005c-.367.047-.71.23-.986.524a1.8 1.8 0 0 0-.24.316.7.7 0 0 1-.242.255.3.3 0 0 1-.152.041.3.3 0 0 1-.147-.024.7.7 0 0 1-.212-.129l.01.026c.021.051.023.097.011.19a.5.5 0 0 0 .005.16q.031.13.14.152a.2.2 0 0 0 .105-.009q.038-.01.035-.006l-.063.12c-.07.133-.095.184-.124.254-.04.095-.07.197-.086.29-.009.051-.008.054.008.04l.042-.027c.052-.028.093-.036.203-.04a.5.5 0 0 0 .159-.024c.095-.035.165-.105.258-.259l.021-.035.039.022-.013.041a.98.98 0 0 0-.024.622c.024.082.054.156.134.331.037.081.04.089.036.096l-.066.078a2.6 2.6 0 0 0-.398.584c-.063.133-.1.246-.127.378l-.012.056c-.002.002-1.23.069-1.232.067-.001-.001.004-.019.01-.041a.4.4 0 0 0 .022-.142c0-.077-.017-.128-.057-.173a.16.16 0 0 0-.159-.053.2.2 0 0 0-.07.031l-.011.007.012.02a.23.23 0 0 1 .031.136c-.011.148-.112.27-.223.27-.022 0-.023 0-.033-.013l-.01-.013.001.035c.001.03.002.038.01.054.01.021.029.043.049.056.013.009.015.009.038.005a.5.5 0 0 1 .122.001.54.54 0 0 1 .237.122c.01.011.012.015.01.023-.002.012-.013.022-.022.022a.1.1 0 0 1-.027-.016c-.1-.08-.214-.119-.307-.104a.12.12 0 0 0-.079.037.3.3 0 0 0-.099.318c.012.044.012.045.025.04a.2.2 0 0 1 .046-.004c.031 0 .039.001.061.01a.3.3 0 0 1 .098.069.3.3 0 0 1 .082.187.2.2 0 0 1-.015.098l-.009.022.018.007c.076.031.151.02.21-.03a.4.4 0 0 0 .096-.166q.006-.02.01-.022l.022.006.018.006-.002.014a.4.4 0 0 1-.053.136.3.3 0 0 1-.096.093c-.01.005-.011.007-.009.017a.4.4 0 0 0 .036.085.4.4 0 0 0 .059.069q.002 0 .005-.012zm5.745-.111c.133-.041.254-.209.397-.552l.03-.07a.1.1 0 0 1 .041.016l-.011.033a1.3 1.3 0 0 0-.063.227.4.4 0 0 0 .004.126q.022.069.107.074a.2.2 0 0 0 .041-.001q.015-.001.007-.01c-.004-.007-.004-.011 0-.032.021-.108.127-.19.25-.19.039 0 .057.003.087.016a.2.2 0 0 1 .082.067q.008.012.012.013.006 0 .022-.016c.05-.04.09-.121.11-.217.019-.094.024-.239.015-.415l-.004-.102a1 1 0 0 0 .08.072c.044.034.069.087.094.195l.008.036-.011.045a.7.7 0 0 0-.023.207c.018.082.097.072.31-.04.106-.056.134-.065.202-.065.072 0 .127.019.194.067l.027.018-.012-.041a.64.64 0 0 0-.296-.388l-.033-.019-.059-.085c-.198-.287-.309-.483-.345-.614a.2.2 0 0 1-.009-.072c0-.041 0-.041.012-.067l.018-.034.006-.008.06.09c.033.049.067.103.075.119a1 1 0 0 0 .079.126c.054.07.141.132.209.15a.4.4 0 0 1 .135.063.5.5 0 0 1 .084.085l.01.014-.002-.028a.8.8 0 0 0-.134-.37.6.6 0 0 0-.118-.153l-.097-.101c-.145-.159-.219-.276-.247-.393a1 1 0 0 1-.022-.155q.001-.006.019-.01c.025-.006.024-.006.029.01a1 1 0 0 0 .342.493c.015.012.106.101.203.197l.176.174.002-.026a2 2 0 0 0-.009-.273 1.4 1.4 0 0 0-.157-.503.3.3 0 0 1-.026-.069 1.5 1.5 0 0 1 .032-.89l.014-.045-.012.005a.44.44 0 0 0-.158.143 3 3 0 0 0-.106.156l-.013.019q-.005.001-.023-.007c-.018-.009-.02-.01-.018-.019l.01-.064c.053-.353.125-.592.209-.699a.22.22 0 0 1 .106-.077.2.2 0 0 1 .083.002.4.4 0 0 1 .087.044c.014.011.014.011.014.003l.011-.381.002-.038-.017-.02a.1.1 0 0 0-.033-.029c-.015-.009-.019-.009-.053-.009a.1.1 0 0 0-.064.011c-.086.036-.175.105-.379.297-.133.125-.19.174-.259.222-.08.056-.145.06-.222.016a1 1 0 0 1-.083-.062 5 5 0 0 0-.268-.215.8.8 0 0 0-.235-.13l.006-.036a1 1 0 0 0 .018-.218c0-.11-.004-.155-.021-.252a2.2 2.2 0 0 0-.122-.416l-.027-.075c.001-.001.02.01.042.024.081.05.121.062.212.061a.3.3 0 0 0 .102-.01.8.8 0 0 0 .502-.392.73.73 0 0 0 .023-.677 1.1 1.1 0 0 0-.198-.296.3.3 0 0 1-.077-.124q-.025-.072.002-.101c.007-.007.011-.008.033-.008s.027.001.056.017l.056.035c.047.035.083.049.124.049a.1.1 0 0 0 .076-.029c.037-.037.053-.095.053-.193 0-.058.007-.129.026-.27.064-.476.161-.785.3-.958l.019-.024h-.01a1 1 0 0 0-.118.018.5.5 0 0 0-.293.157c-.101.11-.154.264-.176.509l-.004.043-.09.088c-.049.048-.09.088-.091.087l.007-.13c.008-.134.018-.339.032-.645.029-.631.059-.976.114-1.31.012-.072.047-.25.05-.256a.6.6 0 0 0-.077-.092c-.015-.014-.018-.016-.02-.011-.08.3-.123.597-.144.981-.009.18-.012.284-.016.582-.006.452-.014.791-.019.797l-.023.005-.021.002-.007-.036a1.3 1.3 0 0 0-.135-.389.6.6 0 0 0-.175-.192.7.7 0 0 0-.265-.101l-.197-.03.028.023q.302.226.363.608c.013.08.015.112.015.229 0 .134-.007.228-.027.372l-.006.052c0 .004.045-.055.101-.131l.101-.138.002.062a.4.4 0 0 0 .026.152c.033.09.102.198.218.339.215.259.303.502.252.694a.4.4 0 0 1-.093.168.58.58 0 0 1-.349.168 1 1 0 0 1-.192 0 .52.52 0 0 1-.318-.151.2.2 0 0 1-.045-.078q-.201-.466-.65-1.007a11 11 0 0 0-.369-.417l-.062-.065-.028.006a.4.4 0 0 0-.094.033 2 2 0 0 1-.167.068q-.382.125-.665-.06a1 1 0 0 1-.271-.288l-.011-.018-.026.038c-.033.047-.097.12-.138.157-.147.13-.353.222-.641.287l-.059.015a.6.6 0 0 0 .075.094c.06.063.132.116.233.171.093.05.151.076.296.129.169.061.222.088.321.159.085.061.147.117.233.211s.143.17.205.273c.126.208.202.432.218.645.004.059.002.171-.005.222a1.1 1.1 0 0 1-.101.331c-.1.239-.143.383-.169.555-.007.044-.007.064-.008.146 0 .104.003.137.021.216a1.1 1.1 0 0 0 .157.358.4.4 0 0 1 .075.189c.011.117-.051.222-.17.288a.44.44 0 0 1-.185.055c-.019 0-.019-.001.003.049a.3.3 0 0 0 .141.141.26.26 0 0 0 .126.024c.077-.004.137-.031.217-.096l.042-.033-.011.071c-.033.193-.033.315-.001.434l.005.019.012-.004.081-.037a.5.5 0 0 0 .182-.202l.024-.04c.001 0 .013.015.026.034.061.092.118.131.188.131a.3.3 0 0 0 .052-.006.5.5 0 0 0 .095-.044l.008-.006-.02-.015a.35.35 0 0 1-.105-.407c.03-.063.094-.111.149-.112a.8.8 0 0 0 .197-.064.24.24 0 0 0 .133-.149l.004-.014.021.002q.02.002.023.004c.003.002.003.032.006.069.023.358.084.594.187.722.037.046.1.087.156.102.057.015.15.016.241.001a.7.7 0 0 1 .177-.003c.122.027.156.13.11.335a2 2 0 0 1-.059.197 1.2 1.2 0 0 0-.072.317c-.007.085-.005.2.006.328l.002.02-.025.028a.3.3 0 0 1-.075.065c-.086.053-.193.058-.372.017l-.072-.016-.017-.004v-.103c0-.144-.008-.234-.031-.332q-.055-.237-.188-.284a.25.25 0 0 0-.116-.004l-.027.006-.002.037a.2.2 0 0 1-.009.058.3.3 0 0 1-.175.174c-.023.009-.03.01-.074.01-.046 0-.049 0-.069-.009l-.036-.02c-.015-.01-.016-.012-.018-.03q-.002-.018-.004-.019a.4.4 0 0 0-.064.057q-.081.092-.015.169c.02.024.039.039.074.058.036.02.086.039.132.05l.038.011v.026l-.002.023-.044.007c-.063.009-.072.008-.174-.019a.5.5 0 0 0-.148-.028c-.022.001-.03.003-.04.01-.016.011-.027.037-.03.07l-.002.024.02.005c.073.018.133.088.16.186a.4.4 0 0 1 .006.148.24.24 0 0 1-.053.107c-.016.018-.022.022-.028.021-.009-.002-.009.002.007.038.041.096.097.14.146.114.028-.015.048-.045.088-.131a.5.5 0 0 1 .091-.153.2.2 0 0 1 .075-.052 1 1 0 0 1 .133-.018c.001.001-.019.018-.043.04a.6.6 0 0 0-.102.103.5.5 0 0 0-.08.166.4.4 0 0 0 0 .15.23.23 0 0 0 .141.164q.002-.002.005-.018c.002-.017.004-.02.026-.044a.2.2 0 0 1 .041-.035c.099-.055.243-.016.319.087.021.028.037.07.04.105.002.018.001.023-.004.029q-.009.008.004.008c.02.004.08-.001.104-.008zm-1.321-.494a.33.33 0 0 1 .164-.093.4.4 0 0 1 .132-.012l.029.003.009-.011a.2.2 0 0 0 .035-.084.3.3 0 0 0-.025-.161q-.039-.086-.112-.104l-.018-.004-.031.017a.6.6 0 0 0-.143.111.36.36 0 0 0-.101.263.4.4 0 0 0 .013.13q0 .009.015-.014l.033-.04m.658-.095.002-.007-.005.007-.002.007zm.015-.024q.008-.012.005-.01c-.004.003-.018.023-.016.023zm-5.564-.483c.05-.012.104-.065.13-.129a.3.3 0 0 0 .02-.112c-.001-.037-.002-.041-.013-.066l-.02-.035a.4.4 0 0 0-.171-.038q-.225-.01-.334.21-.016.03-.009.027l.037-.008a.3.3 0 0 1 .192.036.5.5 0 0 1 .118.089c.014.015.028.028.03.029s.012-.001.021-.004m5.579-.352c.086-.031.149-.108.154-.185a.1.1 0 0 0-.004-.041.7.7 0 0 0-.103-.111.34.34 0 0 0-.208-.088.3.3 0 0 0-.113.016.5.5 0 0 0-.096.046q-.014.009-.005.01a.34.34 0 0 1 .169.146.5.5 0 0 1 .069.189c.005.026.085.037.137.018M7.15 10.864c.022-.076.057-.168.114-.306.063-.153.08-.209.094-.319a1.4 1.4 0 0 0 .001-.231 1.4 1.4 0 0 0-.113-.407l-.022-.049-.038-.039a2 2 0 0 0-.385-.322l-.018-.011-.029.044-.029.044.04.045a1.4 1.4 0 0 1 .315.595l-.014.078-.034.19-.01.076c-.027.232-.008.408.058.547.019.039.057.098.061.093l.01-.028m-4.674-.608a.34.34 0 0 1-.036-.165.5.5 0 0 1 .048-.218l.014-.029-.009-.018c-.045-.092-.184-.131-.282-.077a.2.2 0 0 0-.054.058c-.003.009-.004.02 0 .061q.018.231.143.336a.4.4 0 0 0 .154.073c.038.008.037.009.022-.021m1.071-.226a.4.4 0 0 0 .091-.029l.024-.01-.017-.009a.35.35 0 0 1-.143-.163.6.6 0 0 1-.048-.195c0-.009-.002-.012-.016-.02a.13.13 0 0 0-.078-.02.23.23 0 0 0-.171.081.17.17 0 0 0-.044.111c0 .017.002.02.026.057a.5.5 0 0 0 .201.18.3.3 0 0 0 .174.018m-.913-.217a.11.11 0 0 0 .089-.081.4.4 0 0 0-.054-.284c-.048-.091-.067-.157-.062-.208a1 1 0 0 1 .019-.093c.001-.001.011.013.024.031.068.101.09.15.135.298a.7.7 0 0 0 .07.177q.094.159.211.128c.028-.007.035-.013.035-.028 0-.017.012-.056.024-.079a.27.27 0 0 1 .25-.143.2.2 0 0 1 .119.052l.014.014.017-.015a.25.25 0 0 0 .079-.116.2.2 0 0 0-.003-.11q-.029-.066-.114-.096l-.032-.011-.042.004c-.023.002-.042.004-.043.003l-.007-.041-.014-.088c-.024-.137-.024-.21-.001-.26a.4.4 0 0 1 .062-.08l.006.048a.5.5 0 0 0 .049.191q.057.119.16.172a.2.2 0 0 0 .103.027.2.2 0 0 0 .12-.027.3.3 0 0 0 .113-.11c.042-.066.142-.051.218.032a.27.27 0 0 1 .066.243l-.004.018.015-.011a.5.5 0 0 0 .089-.1.24.24 0 0 0 .028-.139.5.5 0 0 0-.063-.182.5.5 0 0 1-.049-.131.3.3 0 0 1-.008-.088c0-.04.001-.061.005-.079a.3.3 0 0 1 .133-.199 1 1 0 0 1 .092-.041l-.026.054a.5.5 0 0 0-.064.195.26.26 0 0 0 .041.16c.086.134.123.228.128.333l.002.045.023-.038a1 1 0 0 0 .109-.268.7.7 0 0 0 .021-.221 1 1 0 0 1 .014-.211.38.38 0 0 1 .17-.263 1 1 0 0 1 .294-.108l.03-.007.003-.024a2 2 0 0 0-.003-.253l-.013-.102a.8.8 0 0 1 .014-.369.8.8 0 0 1 .081-.175c.006-.01-.105.052-.17.094a1.3 1.3 0 0 0-.248.21 1.1 1.1 0 0 0-.21.327 2.4 2.4 0 0 0-.144.48l-.024.098c-.003 0-.079-.131-.106-.183-.169-.323-.228-.658-.169-.95l.007-.04-.036.019q-.336.199-.614.635l-.035.055-.047.039c-.351.286-.583.431-.763.477a.3.3 0 0 1-.088.01.3.3 0 0 1-.068-.005c-.11-.03-.169-.125-.187-.298a.2.2 0 0 1 .002-.06.5.5 0 0 0 .005-.101.4.4 0 0 0-.008-.106q-.038-.155-.139-.21a.2.2 0 0 0-.065-.022q-.095-.013-.19.076l-.011.01.004.026a.31.31 0 0 1-.11.26.2.2 0 0 1-.14.053l-.029-.004q-.005-.005-.02.02c-.057.092-.07.199-.033.28.023.051.061.091.097.103a.5.5 0 0 0 .129.006c.091 0 .115.001.134.006a.2.2 0 0 1 .071.029l-.003.025-.004.021-.024.002-.054.01a.7.7 0 0 1-.137.027.7.7 0 0 1-.233-.037.3.3 0 0 0-.059-.014q-.042.002-.059.053a.44.44 0 0 0 .025.229l.01.03.017.002c.077.01.157.084.192.179a.25.25 0 0 1-.005.212l-.01.02c0 .006.037.054.053.07.009.008.025.02.037.026a.1.1 0 0 0 .092.002c.047-.021.103-.075.184-.176a2 2 0 0 1 .229-.25l-.004.047c-.011.096-.037.142-.173.313-.138.173-.176.238-.19.326-.008.052.009.124.032.137a.2.2 0 0 0 .089.012l.026-.002.02-.022a.2.2 0 0 1 .09-.054.3.3 0 0 1 .14 0 .25.25 0 0 1 .148.111c.012.022.013.023.026.024a.4.4 0 0 0 .079-.004zm-1.211-.372a.4.4 0 0 1 .025-.051.42.42 0 0 1 .257-.176l.021-.004.007-.018c.023-.064.011-.137-.035-.209-.036-.057-.088-.089-.142-.089-.025 0-.026 0-.041.013a1 1 0 0 0-.088.102.4.4 0 0 0-.071.338.6.6 0 0 0 .04.109q.014.028.014.017zm1.309.021a1 1 0 0 0-.039-.111c-.017-.039-.039-.081-.039-.072 0 .013.01.05.021.076.01.024.057.117.059.117zm2.512-.749c.071-.162.212-.279.457-.376a1 1 0 0 1 .09-.027c.218-.044.384-.097.516-.166a.83.83 0 0 0 .35-.323c.017-.027.032-.048.034-.047s.016.024.032.051c.212.338.469.458.813.379.071-.016.186-.059.26-.096a.4.4 0 0 1 .188-.04c.047 0 .107.006.138.014q.012.003.014.002a2 2 0 0 0-.13-.139 2 2 0 0 0-.24-.186.2.2 0 0 1-.084-.113.25.25 0 0 1-.001-.115.35.35 0 0 1 .075-.133.1.1 0 0 1 .049-.039.48.48 0 0 0 .296-.43v-.021H8.05a.6.6 0 0 1-.276-.058q-.16-.083-.216-.319l-.01-.038c-.001-.001-.018.016-.039.037-.192.193-.351.285-.543.313a1 1 0 0 1-.177.005c-.328-.001-.478.02-.573.082l-.036.028-.013.013-.017-.014q-.016-.013-.017-.017l.054-.121c.136-.301.181-.445.204-.658.006-.056.01-.198.006-.209-.003-.008-.007-.004-.055.053-.147.173-.259.252-.427.303a1 1 0 0 1-.237.038.9.9 0 0 0-.309.063 1 1 0 0 0-.2.116.1.1 0 0 1-.025-.04l.022-.018a.8.8 0 0 0 .201-.309c.029-.076.076-.242.084-.299l.01-.049a.7.7 0 0 1 .12-.266c.03-.042.142-.17.152-.173.015-.005.032.014.027.031l-.056.068c-.126.141-.178.238-.204.385a1.5 1.5 0 0 1-.167.483c-.013.022-.024.04-.023.041l.033-.013a.9.9 0 0 1 .316-.07 1 1 0 0 0 .163-.018.7.7 0 0 0 .357-.171 3 3 0 0 0 .258-.287c.008-.001.01.276.002.349-.023.207-.067.354-.187.625l-.034.076.018-.009a.7.7 0 0 1 .227-.055c.056-.006.097-.008.278-.01l.221-.005L7 6.784a.8.8 0 0 0 .362-.183c.051-.043.089-.078.157-.15a.3.3 0 0 1 .062-.059l.013.065q.021.105.048.17a.34.34 0 0 0 .257.212.7.7 0 0 0 .203.016.6.6 0 0 0 .149-.008.45.45 0 0 0 .318-.249.6.6 0 0 0 .045-.11q-.003 0-.022.009a1 1 0 0 1-.122.045.3.3 0 0 1-.129-.002.13.13 0 0 1-.067-.041c-.089-.09-.052-.276.076-.386a1.1 1.1 0 0 0 .3-.377c.028-.057.033-.051-.043-.056a1 1 0 0 1-.328-.068 1 1 0 0 1-.185-.102.8.8 0 0 1-.135-.14.5.5 0 0 1-.082-.235q0-.032.022-.033.02 0 .025.04c.019.199.184.367.438.446a1 1 0 0 0 .264.042c.107.003.161-.006.219-.036a.3.3 0 0 0 .083-.062.5.5 0 0 0 .122-.269 1 1 0 0 0 .014-.154l-.001-.026-.013.021c-.099.165-.264.22-.361.121a.17.17 0 0 1-.045-.082.2.2 0 0 1-.004-.064.3.3 0 0 1 .021-.108c.03-.098.041-.145.053-.222.01-.062.003-.233-.009-.228a.4.4 0 0 1-.205.013.46.46 0 0 1-.328-.306.7.7 0 0 1-.031-.14c-.003-.035.002-.044.019-.044s.022.008.028.049c.023.183.128.328.277.379a.3.3 0 0 0 .098.018.33.33 0 0 0 .173-.038.5.5 0 0 0 .215-.306.5.5 0 0 0 .022-.101q-.003 0-.023.012a.26.26 0 0 1-.176.046c-.096-.017-.154-.112-.142-.231a.5.5 0 0 1 .073-.205l.035-.056a.5.5 0 0 0 .043-.099c.028-.09.03-.202.004-.256-.007-.014-.007-.014-.011-.008a.7.7 0 0 1-.246.249c-.02 0-.029-.027-.015-.041l.044-.034a.64.64 0 0 0 .188-.221.3.3 0 0 0 .034-.088c.055-.211.05-.363-.017-.533l-.016-.041-.04.045a.55.55 0 0 1-.249.182.6.6 0 0 0-.196.103c-.017.015-.03.038-.03.051s-.015.028-.026.025q-.02-.004-.019-.03 0-.075.142-.15l.043-.023-.013-.007-.07-.035c-.487-.236-1.111-.422-1.568-.466a.4.4 0 0 0-.177.015.41.41 0 0 0-.255.287l-.009.032-.379.269c-.209.148-.379.271-.379.273 0 .008.022.088.033.12a.36.36 0 0 0 .183.222c.043.023.039.016.043.08.003.051.012.132.021.178a.9.9 0 0 0 .105.277.6.6 0 0 0 .098.127.5.5 0 0 0 .037-.09 1 1 0 0 0 .032-.158l.006-.045.039.005a.7.7 0 0 0 .193-.006q.186-.034.404-.172a.3.3 0 0 1 .112-.051c.103-.019.213.057.273.189.024.052.025.059.052.324l.031.289q.021.169-.091.177a.6.6 0 0 1-.159-.022c-.239-.046-.377-.039-.575.032-.066.023-.091.027-.13.018-.08-.018-.146-.088-.188-.2l-.009-.024-.009.015a.3.3 0 0 0-.035.138q0 .051.023.101l.013.029-.015.034a.3.3 0 0 0-.03.124.1.1 0 0 0 .009.059.13.13 0 0 0 .053.06c.03.016.045.02.092.019a.2.2 0 0 0 .121-.03l.034-.018.313.037.314.038.003.025c.002.023.002.024-.005.026l-.646.118c-.351.064-.66.121-.684.127-.307.07-.573.031-.717-.105-.133-.126-.142-.314-.026-.506.012-.02.014-.025.01-.027l-.038-.015a.5.5 0 0 0-.177-.036.37.37 0 0 0-.208.045c-.183.098-.254.334-.177.585.012.039.045.113.068.154a1 1 0 0 0 .082.119c.017.023.031.042.03.044s-.026.003-.056.005a.87.87 0 0 0-.627.281c-.302.328-.363.842-.156 1.325.016.036.012.04.027-.032.056-.269.189-.452.382-.525a.6.6 0 0 1 .212-.038c.101 0 .186.016.288.053.04.015.134.058.133.06l-.044.041a.96.96 0 0 0-.332.662c-.005.055-.002.181.005.235.02.159.063.306.134.462.031.068.088.175.091.171l.018-.075c.058-.252.127-.431.22-.577a1.34 1.34 0 0 1 .493-.446c.058-.032.084-.045.152-.076.01-.005.01-.004.022.014l.012.022q0 .004-.012.016l-.033.042c-.112.154-.144.327-.103.559.009.051.016.158.017.24a.7.7 0 0 1-.041.264.94.94 0 0 0-.006.52l.015-.033zm-3.43-.722a.25.25 0 0 0 .111-.109.2.2 0 0 0 .029-.111c0-.036-.001-.04-.01-.062l-.01-.023-.031-.017a.5.5 0 0 0-.188-.063c-.113-.013-.216.034-.299.136l-.023.028.034.002a.34.34 0 0 1 .23.119c.03.032.065.079.073.1l.004.01.03-.002a.1.1 0 0 0 .048-.009zm8.115-.094.033-.032.006-.051c.014-.142.041-.257.084-.354l.017-.038-.05-.078-.076-.12a.2.2 0 0 0-.026-.037l-.01.218c-.012.253-.018.389-.023.457l-.003.067v.017l.009-.009.041-.04m.179-.54.038-.048.027-.031-.006-.013c-.016-.036-.23-.44-.232-.437l-.008.136-.007.135.045.073c.059.096.127.202.13.202zm-.367-.72.008-.145c.002-.015.001-.019-.014-.048a10 10 0 0 1-.128-.265c-.226-.495-.278-.84-.166-1.097a.6.6 0 0 1 .116-.177.8.8 0 0 1 .177-.141c.029-.017.062-.007.073.02s.002.054-.034.107a.35.35 0 0 0-.076.236.4.4 0 0 0 .025.124.95.95 0 0 0 .252.334c.033.03.066.068.114.133.07.094.116.181.148.28.009.028.017.046.018.043a2 2 0 0 0 .05-.185c.05-.223.041-.384-.028-.545a.1.1 0 0 1-.013-.037.1.1 0 0 1 .029-.014c.112-.04.195.059.212.252.011.125-.019.291-.082.463a.8.8 0 0 0-.048.457 1 1 0 0 0 .03.103l.004-.039c.007-.145.055-.303.187-.615.086-.203.109-.266.132-.363a.82.82 0 0 0-.023-.497.67.67 0 0 0-.401-.38.77.77 0 0 0-.49-.023l-.017.005-.003-.011-.003-.011-.003.012c-.003.012-.004.012-.048.029a.63.63 0 0 0-.349.268q-.168.275-.071.775.088.451.404 1.064l.01.017.007-.129m.019-.272a4 4 0 0 1 .121-.729l.015-.058-.025-.026a.9.9 0 0 1-.179-.253.41.41 0 0 1 .04-.431q.04-.06.03-.06a.63.63 0 0 0-.277.29.6.6 0 0 0-.053.236c-.01.211.051.449.2.789.039.089.122.257.125.255q.003-.003.003-.013m-6.25-.531L3.53 5.8c.016-.035.017-.04.02-.134a1 1 0 0 1 .006-.111c.013-.072.034-.113.077-.149a.2.2 0 0 1 .047-.036c.001.001-.001.07-.003.155-.004.153-.004.153-.013.178a.4.4 0 0 0-.028.128c0 .028 0 .033.006.04l.007.007.024-.03a.93.93 0 0 1 .668-.347l-.02-.033a.8.8 0 0 1-.142-.392.54.54 0 0 1 .101-.367l.017-.021-.219-.293-.226-.303c-.006-.008-.009-.02-.013-.055a1.16 1.16 0 0 0-.269-.649 1 1 0 0 1-.111-.208c-.124-.275-.137-.458-.043-.61a.3.3 0 0 1 .065-.068c.211-.178.319-.308.35-.418a.17.17 0 0 0-.006-.112.3.3 0 0 0-.072-.086l-.016-.012-.01.006a.2.2 0 0 1-.113.034.27.27 0 0 1-.202-.098.22.22 0 0 1-.057-.143c0-.018.001-.022.008-.028.01-.009.009-.011-.026-.03-.134-.074-.193-.024-.212.177a.65.65 0 0 1-.109.301.3.3 0 0 1-.082.089c-.049.027-.095.011-.1-.034-.001-.013 0-.017.013-.034a.6.6 0 0 0 .133-.365c-.007-.128-.082-.212-.198-.222a.3.3 0 0 0-.146.029l-.015.007.005.019a.24.24 0 0 1-.006.105.3.3 0 0 1-.156.172.2.2 0 0 1-.19-.004l-.014-.009-.012.021a.4.4 0 0 0-.041.101.3.3 0 0 0-.007.075c0 .044.001.05.01.076a.36.36 0 0 0 .176.191q.082.046.187.075c.026.007.031.01.043.024a.12.12 0 0 1 .029.064c0 .028-.021.057-.051.071a.2.2 0 0 1-.041.01l-.026.003-.092-.058c-.153-.097-.233-.14-.297-.156a.2.2 0 0 0-.092-.006c-.066.015-.105.064-.137.168-.015.051-.015.055-.004.058.037.01.091.071.114.128a.37.37 0 0 1 .018.204.24.24 0 0 1-.072.12l-.013.01-.025-.006q-.023-.005-.026-.004c-.003.001.002.011.007.024.032.092.08.132.152.125.068-.007.131-.037.326-.154l.112-.067a.4.4 0 0 1-.026.059c-.042.09-.064.121-.202.274-.107.12-.14.165-.163.228a.23.23 0 0 0 .002.171l.007.016.006-.008.013-.023c.009-.018.014-.02.058-.02.028 0 .038.002.058.01a.3.3 0 0 1 .167.196.2.2 0 0 1 .009.078.2.2 0 0 1-.006.063c-.01.029-.01.029.007.039a.1.1 0 0 0 .071.02c.028-.002.05-.015.076-.044.04-.045.07-.102.141-.271l.047-.113.019.007.022.008q.002.003 0 .017a.6.6 0 0 0-.001.145c.017.121.068.237.179.405a.6.6 0 0 1 .085.216.8.8 0 0 1 .006.209c-.028.205-.147.328-.32.331l-.036.001c0 .002.047.041.069.057.15.11.289.109.439-.005a1 1 0 0 0 .102-.093l.047-.045c.001 0-.008.043-.021.096-.03.128-.038.187-.038.255a.9.9 0 0 0 .084.363.64.64 0 0 1 .06.284l-.002.034.02-.023.032-.042zm7.001-1.233c.118-.353.182-.632.205-.9a3 3 0 0 0 0-.317 1.4 1.4 0 0 0-.056-.296 1.26 1.26 0 0 0-.468-.66.58.58 0 0 0-.439-.11.7.7 0 0 0-.434.268.8.8 0 0 0-.161.376 1 1 0 0 0-.002.21.8.8 0 0 0 .09.266c.016.028.093.146.155.236.057.082.143.214.176.268.122.2.172.344.155.446l-.002.022a.7.7 0 0 0 .189-.185.4.4 0 0 0 .068-.256c-.012-.11-.057-.199-.164-.321a1 1 0 0 1-.167-.251.7.7 0 0 1-.068-.324c.009-.184.092-.318.224-.362a.3.3 0 0 1 .128-.006c.074.013.158.06.232.129.069.064.154.174.192.246.072.138.121.319.142.517.008.076.008.286 0 .372a3.3 3.3 0 0 1-.119.616l-.011.038.035.018.049.028.014.01.008-.011a.4.4 0 0 0 .027-.066zM6.34 4.547a1 1 0 0 1 .347-.065c.074 0 .131.007.268.032.121.022.143.024.164.012.024-.013.029-.052.018-.141l-.005-.043-.073-.039a.8.8 0 0 0-.324-.046c-.137.003-.199.011-.507.072l-.154.03.006.023a.3.3 0 0 0 .122.167c.041.022.072.021.137-.002zm-.939-.137q.239-.017.541-.076l.075-.014c.002 0 .01-.009.018-.019l.016-.019q.002.001.006.014t.009.014l.129-.024c.363-.072.468-.085.622-.078a.7.7 0 0 1 .28.06l.029.014-.002-.013c-.006-.047-.004-.042-.024-.05a1.1 1.1 0 0 0-.337-.055 1.5 1.5 0 0 0-.324.029c-.256.038-.441.063-.581.076a3 3 0 0 1-.332.016c-.154 0-.204-.004-.289-.023-.126-.028-.215-.083-.258-.161a.34.34 0 0 1-.022-.295.2.2 0 0 1 .085-.092.2.2 0 0 1 .109-.025.3.3 0 0 1 .136.033c.016.008.03.013.031.012s-.002-.017-.006-.037c-.042-.206-.15-.334-.306-.361a.44.44 0 0 0-.212.018.43.43 0 0 0-.234.174.58.58 0 0 0-.055.401.61.61 0 0 0 .36.433c.07.025.186.046.285.051.058.003.189.002.251-.003m.758-.229c.066-.009.189-.026.272-.039.194-.029.221-.031.327-.029a1.2 1.2 0 0 1 .353.054c.002-.003-.024-.266-.03-.293s-.023-.068-.04-.097c-.054-.088-.128-.134-.2-.123a.2.2 0 0 0-.083.033c-.122.078-.251.14-.35.168a.7.7 0 0 1-.231.031l-.059-.001-.006.037a.8.8 0 0 1-.085.257l-.012.022.011-.002zM2.18 4.079a.5.5 0 0 0 .134-.042l.042-.018L2.364 4a.17.17 0 0 0 .013-.115.26.26 0 0 0-.071-.136q-.052-.056-.112-.057-.024-.002-.025.005a.5.5 0 0 1-.104.12.32.32 0 0 1-.207.082h-.039l.02.028a.4.4 0 0 0 .158.135.4.4 0 0 0 .072.02c.02.003.082.002.109-.003zm-.525-1.065a.36.36 0 0 1 .205-.054q.055 0 .071.005l.014.005.014-.017a.2.2 0 0 0 .036-.077.4.4 0 0 0-.003-.122.24.24 0 0 0-.076-.13l-.035-.018c-.025-.009-.025-.009-.085.022a.44.44 0 0 0-.204.196.4.4 0 0 0-.033.108.5.5 0 0 0 .003.159l.002.011.033-.035a.3.3 0 0 1 .058-.051zm6.982-.505a2.3 2.3 0 0 0 .169-.333l.019-.047.057.003c.127.009.19-.01.252-.078a.2.2 0 0 0 .027-.033 1.8 1.8 0 0 1-.552.028L8.6 2.047l.003.033a.6.6 0 0 1-.01.146.22.22 0 0 1-.14.166.4.4 0 0 1-.149-.001.4.4 0 0 1-.182-.11.27.27 0 0 1-.087-.189c0-.06.019-.108.062-.158a1 1 0 0 1 .069-.062l.011-.007c.003-.002-.006-.016-.038-.059a2.6 2.6 0 0 1-.227-.356l-.042.023a1.2 1.2 0 0 1-.333.13l-.045.01.002.013c.005.031.006.12.002.149-.018.136-.09.231-.205.27-.026.009-.032.01-.086.009a.23.23 0 0 1-.142-.033.29.29 0 0 1-.15-.268c0-.066.014-.129.047-.204l.017-.041-.062-.031a4 4 0 0 1-.446-.253l-.011-.008.002.024q.014.145.175.234c.028.015.068.035.096.046l.008.003-.011.048a1.4 1.4 0 0 0-.027.17 3 3 0 0 0-.002.234l.067.01a6 6 0 0 1 1.786.57c.022.012.042.021.043.02s.021-.03.043-.066m-.935-.382c-.036-.018-.051-.072-.051-.184 0-.093.016-.268.028-.309q.015-.049.076-.073a.14.14 0 0 1 .066-.009.2.2 0 0 1 .063.006c.069.022.12.075.132.138l.003.052-.001.032-.03.051c-.139.236-.225.324-.285.295m.044-.052a.4.4 0 0 0 .046-.043 1.4 1.4 0 0 0 .158-.23l.025-.042-.002-.029a.12.12 0 0 0-.034-.083.16.16 0 0 0-.12-.046c-.042 0-.078.015-.092.039a1.5 1.5 0 0 0-.025.396q.008.043.023.045l.02-.007m-4.095-.22a.15.15 0 0 0 .064-.033c.009-.008.011-.015.018-.044a.7.7 0 0 0 .014-.209.37.37 0 0 0-.197-.298l-.028-.015.005.016a.3.3 0 0 1 .008.049.46.46 0 0 1-.112.328l-.023.026.005.024c.012.06.065.118.129.144a.2.2 0 0 0 .118.013M2.42 1.82a.26.26 0 0 0 .123-.086.18.18 0 0 0 .04-.127c-.002-.025-.003-.026-.023-.048-.139-.155-.291-.202-.436-.135l-.077.045q0 .003.008.005a.4.4 0 0 1 .085.046.44.44 0 0 1 .118.156c.016.035.034.09.038.117.002.015.003.016.018.022a.15.15 0 0 0 .106.004"/></svg>