<svg xmlns="http://www.w3.org/2000/svg" fill="#ffd900" viewBox="0 0 25 18.75" width="25" height="18.75"><path fill="#da2032" d="M0 0h25v18.75H0Z"/><path fill="#0066b3" d="M8.332 0h8.336v18.75H8.332Z"/><path d="M5.73 7.102a1.563 1.563 0 0 1-1.562 1.562 1.563 1.563 0 0 1-1.563-1.562 1.563 1.563 0 0 1 3.125 0"/><path fill="#da2032" d="M5.871 6.391a1.703 1.703 0 0 1-1.703 1.703 1.703 1.703 0 0 1-1.703-1.703 1.703 1.703 0 0 1 3.406 0"/><path d="M5.305 6.676a1.137 1.137 0 0 1-1.137 1.137 1.137 1.137 0 0 1-1.137-1.137 1.137 1.137 0 0 1 2.274 0m-1.02-3.692a.35.35 0 0 0-.203.293c-.008.098.035.207.039.301 0 .164-.168.219-.168.449 0 .078.074.168.074.375-.016.109-.078.137-.145.145a.14.14 0 0 1-.141-.145.16.16 0 0 1 .039-.098l.016-.012c.031-.035.078-.047.078-.133 0-.043-.031-.086-.059-.164s-.008-.203.055-.277c-.102.039-.16.133-.195.219-.031.105 0 .164-.047.254-.027.055-.059.078-.09.125a.5.5 0 0 0-.078.23.711.711 0 0 0 1.418 0 .6.6 0 0 0-.078-.23c-.035-.047-.066-.07-.094-.125-.047-.09-.016-.148-.051-.254-.031-.086-.09-.18-.191-.219a.33.33 0 0 1 .055.277c-.027.078-.055.117-.055.164 0 .086.043.098.078.133l.012.012a.16.16 0 0 1 .039.098.14.14 0 0 1-.141.145c-.078-.012-.137-.047-.145-.145 0-.273.117-.289.117-.492 0-.289-.258-.426-.258-.637 0-.07.016-.195.117-.289m-3.24 5.961h1.418v6.816H1.043Zm4.828 0h1.422v6.816H5.871zm-3.125 0h2.84l-1.418.852Zm0 1.133h2.84v.57h-2.84Zm0 3.98h2.84v.57h-2.84Zm0 .852h2.84l-1.418.852Zm2.844-2.551a1.42 1.42 0 0 1-1.422 1.422 1.42 1.42 0 0 1-1.422-1.422 1.422 1.422 0 0 1 2.844 0"/><g fill="#da2032"><path d="M-32.834 43.027a.284.284 0 0 1-.284.284.284.284 0 0 1-.284-.284.284.284 0 0 1 .568 0m0 1.506a.284.284 0 0 1-.284.283.284.284 0 0 1-.284-.283.284.284 0 0 1 .568 0"/><path d="M-33.118 42.189a.838.838 0 0 1 0 1.676.668.668 0 0 0 0 1.335v.17a.838.838 0 0 1 0-1.676.668.668 0 0 0 0-1.335z"/></g></svg>