<svg width="1200" height="600" viewBox="0 0 13440 6720" fill="none" xml:space="preserve" xmlns="http://www.w3.org/2000/svg"><path fill="#fff" d="M0 0h13440v6720H0Z" style="stroke-width:480"/><path stroke="#c00" d="M480 240h12960m0 960H480m0 960h12960m0 960H480" style="stroke-width:480"/><path fill="#006" d="M0 0h5534.118v3360H0Z" style="stroke-width:395.294"/><path stroke="#c00" d="M0 4080h13440m0 960H0m0 960h13440" style="stroke-width:480"/><path fill="#fc0" d="m3467.92 696.026 87.738 600.224 339.471-502.647-182.035 578.905 523.966-305.852-414.909 442.788 605.144-48.378L3861.51 1680l565.785 218.934-605.144-48.379 414.91 442.789-523.967-305.852 182.035 578.905-339.47-502.647-87.738 600.224-87.738-600.224-339.471 502.647 182.035-578.905-523.966 305.852 414.909-442.789-605.144 48.38L3074.33 1680l-565.785-218.934 605.144 48.379-414.91-442.789 523.967 305.852-182.035-578.905 339.47 502.647zm-491.987 24.6a1049.572 1049.572 0 1 0 0 1918.749 1180.769 1180.769 0 1 1 0-1918.75" style="stroke-width:.819978"/><path d="M0 6720h13440V0Z" fill="#fff" style="stroke-width:12.9326"/><path d="M6720 3360h6720V0Z" fill="red" style="stroke-width:12.9326"/><path style="fill:none;stroke-width:11.2;fill-opacity:1;stroke:#006;stroke-opacity:1;stroke-dasharray:none" d="M0 6720 13440 0Z"/></svg>