<svg xmlns="http://www.w3.org/2000/svg" width="25" height="16.667" viewBox="0 0 25 16.667" xml:space="preserve"><path fill="#F2EA00" d="M17.028 3.356H25V0H0v10.031h7.017Z"/><path fill="#00A13A" d="M18.022 6.636 8.01 13.31H0v3.357h25V6.636Z"/><path fill="#C92725" d="m7.86 6.777 1.3.013-.928-.91-2.268-.555.014-.073 2.308.355 1.206-.485-1.206-.485-2.308.355-.014-.073 2.268-.555.928-.91-1.3.013-1.997 1.211-.042-.062 1.883-1.381.509-1.196-1.196.509-1.381 1.883q-.03-.022-.062-.042l1.211-1.997.013-1.3-.91.928-.555 2.268-.073-.014.355-2.308L5.131.761l-.485 1.206.355 2.308q-.037.006-.073.014l-.555-2.268-.91-.928.013 1.3L4.688 4.39q-.032.019-.062.042L3.245 2.549 2.049 2.04l.509 1.196 1.883 1.381q-.022.03-.042.062L2.402 3.466l-1.3-.013.929.91 2.268.555-.014.073-2.308-.355-1.206.486 1.206.485 2.308-.355.014.073-2.269.555-.927.91 1.3-.013L4.4 5.565q.019.032.042.062L2.557 7.009l-.509 1.196 1.196-.509 1.381-1.883q.03.022.062.042L3.475 7.85l-.013 1.299.91-.928.555-2.268q.036.009.073.014l-.355 2.308.485 1.206.485-1.206-.355-2.308.073-.014.555 2.268.91.928-.013-1.3-1.211-1.997q.032-.019.062-.042l1.381 1.883 1.196.509-.509-1.196-1.882-1.378q.022-.03.042-.062zm-2.729-.943a.713.713 0 0 1 0-1.425.713.713 0 0 1 0 1.425"/><path fill="#FFF" d="M17.525 4.996 7.514 11.671H0v1.639h8.01l10.012-6.674H25v-1.64Z"/><path fill="#2A1F74" d="M17.028 3.356 7.017 10.031H0v1.64h7.514l10.011-6.675H25v-1.64Z"/></svg>