<svg width="900" height="600" viewBox="0 0 238.125 158.75" xmlns="http://www.w3.org/2000/svg"><path fill="#d9211c" style="fill:#dc211c;fill-opacity:1" d="M0-.007h327.508v145.56H0z" transform="translate(0 .005)scale(.72708)"/><path fill="#d9211c" style="fill:#dc211c;fill-opacity:1" d="M0 72.773h327.508v145.559H0z" transform="translate(0 .005)scale(.72708)"/><path fill="#02943f" style="fill:#029433;fill-opacity:1" d="M0 72.773h327.508v72.78H0z" transform="translate(0 .005)scale(.72708)"/><path style="opacity:1;fill:#f3c502;stroke-width:3.5" transform="matrix(-.21642 0 0 -.21674 142.781 104.403)" d="m109.596 420.664-28.262-46.221-37.537 39.065-17.666-51.216-45.057 30.082-6.242-53.816-50.471 19.693 5.472-53.9-53.524 8.383 16.931-51.463-54.075-3.32 27.599-46.62-52.097-14.867 36.975-39.597-47.683-25.718 44.623-30.723-41.04-35.367 50.184-20.413-32.477-43.362 53.4-9.147-22.397-49.33 54.117 2.546-11.268-52.992 52.304 14.12.387-54.175L-.162-122.66l12.024-52.826 41.541 34.778 23.1-49.006 33.093 42.894 33.094-42.894 23.099 49.006 41.54-34.778 12.025 52.826 48.046-25.034.387 54.175 52.304-14.12-11.268 52.992 54.117-2.547-22.396 49.33 53.399 9.148-32.477 43.362 50.184 20.412-41.04 35.368 44.623 30.723-47.683 25.718 36.975 39.597-52.097 14.867 27.599 46.62-54.075 3.32 16.931 51.463-53.524-8.383 5.472 53.9-50.47-19.693-6.243 53.816-45.057-30.082-17.665 51.216-37.538-39.065z"/><path d="M170.323 68.59c4.65-1.7 9.689-2.725 14.637-2.54 2.626.098 5.445.486 7.645 1.923 3.188 2.08 5.438 5.548 7.008 9.015.97 2.142-.383 5.315 1.328 6.928 1.788 1.684 5.092-.107 7.306.955 2.73 1.31 5.441 3.377 6.557 6.286 2.017 5.256-2.488 8.874-.407 12.478.597 1.034 3.864.962 5.276 2.252 2.103 1.923 3.722 4.647 4.045 7.532.812 7.254-4.885 6.778-5.229 10.747-.294 3.401 3.199 6.45 2.832 9.844-.335 3.096-2.021 6.262-4.444 8.219-2.209 1.785-6.161 2.244-8.178 2.387-3.55.275-6.044-2.01-9.152-1.843-1.202.064-2.47.38-3.445 1.089-.587.426-.807 1.208-1.264 1.771-.44.542-.794 1.228-1.417 1.543-1.36.687-2.4.485-3.616.616-1.176.126-2.368.288-3.544.162-2.424-.262-4.824-.932-7.068-1.884-.614-.261-1.332-.486-1.714-1.033-.347-.497.125-1.4-.344-1.785-.977-.803-3.338-.19-3.795.022 0 0-.743 6.298.866 9.017 2.617 4.476 4.81 7.056 9.414 9.466 4.004 1.932 9.255 4.744 12.378 8.718-21.746-.85-45.011 1.317-64.863 0 3.203-3.05 7.66-5.923 11.006-9.4 2.671-2.776 5.256-5.722 7.162-9.07a20 20 0 0 0 2.136-5.556c.437-1.99.398-3.775.4-6.101-1.228-.114-2.186.044-3.019.32-1.556.515-2.675 1.441-4.29 1.78-1.519.32-3.062.575-4.612.622-1.364.042-2.846.28-4.082-.296-1.371-.64-2.047-2.235-3.161-3.26-.428-.394-.785-.965-1.35-1.107-1.906-.48-3.637 1.376-5.53 1.785-2.795.604-5.705 1.45-8.523.97-2.293-.392-4.65-1.383-6.28-3.044-1.187-1.212-1.918-2.94-2.129-4.623-.316-2.528.891-5.017 1.39-7.514.134-.667.428-1.995.428-1.995l-2.648-2.51c-2.092-1.984-4.153-4.512-4.295-7.507-.556-11.695 7.481-12.45 8.522-14.347 0 0 1.325-1.627 1.337-2.493.04-3.02-.231-9.205 2.372-12.592 4.106-5.343 6.955-4.863 11-5.265 1.813-.18 2.961-.12 3.881-1.1 1.083-1.155.345-3.202 1-4.644 1.069-2.349.89-3.91 4.632-6.203 2.866-1.72 5.084-3.356 7.997-3.607 3.729-.321 7.482 1.213 10.872 2.798 1.992.93 3.432 2.788 5.359 3.847 1.227.675 2.5 1.67 3.898 1.568 2.2-.161 3.642-2.584 5.715-3.342z" fill="#02943f" style="fill:#029433;fill-opacity:1;stroke-width:.98313" transform="translate(0 .005)scale(.72708)"/><path style="opacity:1;fill:#dc211c;fill-opacity:1;stroke-width:2.5" transform="translate(61.02 23.118)scale(.13584)" d="m469.01 145.84-42.06-25.135-42.203 24.898 10.909-47.77-36.721-32.443 48.803-4.387 19.507-44.95 19.254 45.06 48.777 4.662-36.904 32.235z"/></svg>