<svg xmlns="http://www.w3.org/2000/svg" xmlns:xlink="http://www.w3.org/1999/xlink" id="Flag_of_Iran_1964" data-name="Flag of Iran 1964" viewBox="0 0 1050.01 600.01" version="1.1"><defs id="defs4"><radialGradient xlink:href="#linearGradient5326" id="radialGradient5328" cx="609.054" cy="252.389" fx="609.054" fy="252.389" r="218.014" gradientTransform="matrix(.16802 -.99558 1.85572 .31319 38.356 789.475)" gradientUnits="userSpaceOnUse"/><linearGradient id="linearGradient5326"><stop style="stop-color:#fea;stop-opacity:1" offset="0" id="stop5322"/><stop style="stop-color:#fea;stop-opacity:0" offset="1" id="stop5324"/></linearGradient><style id="style2">.cls-2{fill:#ffbb26}</style></defs><rect style="opacity:1;fill:#000;fill-opacity:1;stroke:none;stroke-width:8.10099983;stroke-miterlimit:4;stroke-dasharray:none;stroke-opacity:1" id="rect5269" width="375.191" height="605.463" x="345.743" y="0" ry="172.871" rx="0"/><path style="opacity:1;fill:#da0000;fill-opacity:1;stroke:none;stroke-opacity:1" id="rect1009" d="M720.934 0h329.076v605.463H720.934z"/><path style="opacity:1;fill:#da0000;fill-opacity:1;stroke:none;stroke-opacity:1" id="rect1020" d="M0 0h345.743v603.282H0z"/><ellipse style="opacity:1;fill:#0000c8;fill-opacity:1;stroke:#8a8a8a;stroke-width:15.33460522;stroke-miterlimit:4;stroke-dasharray:none;stroke-opacity:1" id="path4976" cx="531.305" cy="293.898" rx="222.794" ry="172.086"/><ellipse style="opacity:1;fill:url(#radialGradient5328);fill-opacity:1;stroke:#fff;stroke-width:8.101;stroke-miterlimit:4;stroke-dasharray:none;stroke-opacity:1" id="path5148" cx="530.986" cy="294.221" rx="213.964" ry="163.063"/><g id="layer1" transform="matrix(1.12141 -.26102 .26446 1.13621 -76.686 88.955)" style="opacity:1"><g id="g60"><g id="g36"><g id="g32"><g id="g58"><path class="cls-2" d="M544.26 205.6c-1.17 0-2.34.03-3.5.08l1.07 63.03-9.37-41.99c-2.44.4-4.85.92-7.22 1.55l11.99 43.02-25.86-59.63c-2.4.9-4.76 1.9-7.08 2.99l28.53 59.99-26.45-38.41a73 73 0 0 0-6 3.98l25.3 33.03-45.25-42.56a92 92 0 0 0-5.22 5.24l48.27 42.59-38.29-23.2a67 67 0 0 0-3.79 5.73l45.48 24.73 1.75-2.75.81.75 3.76-3.44 1.84-1.17v.09l4.04-1.5v.08l3.49-.83h3.49l3.58.83v-.08l4.04 1.5v-.09l1.84 1.17 3.76 3.44.81-.75 1.29 2.09-.92.34 1.93 4.35 1.11 4.25 52.11-9.37c-.33-2.24-.77-4.44-1.32-6.59l-51.07 11.53 68.11-24.55q-1.215-3.345-2.7-6.54l-60.92 24.06 39.54-21.49c-1.17-1.98-2.42-3.9-3.78-5.74l-38.23 23.15 48.23-42.54c-1.66-1.8-3.4-3.54-5.2-5.2l-45.22 42.56 25.24-33.06a76 76 0 0 0-5.97-3.98l-23.86 34.64-.64-.34 26.58-55.89c-2.33-1.1-4.71-2.09-7.12-2.99L552.86 268l-.37-.2 10.99-39.46c-2.39-.64-4.81-1.18-7.26-1.58l-8.67 38.46 1.09-59.48c-1.45-.07-2.9-.11-4.36-.11z" id="path54" style="fill:#ffbb26"/><path d="m562.87 295.02-1.09-4.2-12.1 2.73 11.6-4.18-1.26-2.83-5.31 2.1 5.03-2.73-.44-.98-1.2-1.09-.76.46.64-.57-2.98-2.72-1.35-.85-3.71-1.38-3.97-.92h-3.28l-2.52.6 1.35 4.85-2.03-4.69-.7.17-2.54.95 2.11 4.43-2.86-4.15-.39.15-1.35.85-2.98 2.72.65.57-.76-.46-1.2 1.1-.64-.59-1.63 2.55-46.99-25.56.46-.78c1.17-1.98 2.46-3.93 3.84-5.8l.47-.64 30.6 18.54-41.6-36.71.61-.66c1.8-1.95 3.52-3.68 5.27-5.29l.6-.55 38 35.75-19.3-25.19.72-.53c1.96-1.44 4.01-2.79 6.07-4.02l.7-.42 20.7 30.06-24.19-50.88.79-.37c2.33-1.1 4.74-2.12 7.14-3.02l.78-.29L533 259.28l-8.81-31.62.85-.23a75 75 0 0 1 7.3-1.57l.82-.13 7.67 34.39-.94-55.27.86-.03c1.37-.05 2.49-.08 3.53-.08 1.42 0 2.9.04 4.4.11l.85.04-.95 51.76 6.97-30.91.81.13c2.42.4 4.9.94 7.35 1.6l.85.23-8.64 31.01 20.88-48.13.78.29c2.61.98 4.96 1.97 7.19 3.02l.79.37-24.2 50.9 20.71-30.06.7.42c1.98 1.18 4.02 2.53 6.04 4.02l.72.53-19.3 25.28 38.04-35.8.6.55c1.8 1.66 3.57 3.43 5.25 5.25l.61.66-41.56 36.67 30.55-18.5.47.64c1.32 1.79 2.6 3.74 3.83 5.82l.46.78-27.74 15.08 48.36-19.1.35.75c1 2.15 1.91 4.37 2.73 6.61l.3.82-55.67 20.07 38.14-8.61.21.82c.55 2.15 1 4.39 1.34 6.68l.12.84-53.74 9.66v-.02zm.61-4.59.67 2.58 50.47-9.07c-.27-1.64-.59-3.26-.97-4.84zm-1.83-4.52 1.27 2.86h.01l67.28-24.26c-.62-1.65-1.3-3.29-2.03-4.9l-65.51 25.87.02.04-1.05.38h.01zm-1.73-1.55-.6.55.77-.28zm.76-2.09 1.45 2.34 43.91-23.87c-.9-1.49-1.84-2.91-2.79-4.24l-42.56 25.78h-.01zm-78.05-21.6 43.96 23.91 1.47-2.31-42.63-25.82a69 69 0 0 0-2.81 4.23h.01zm45.83 20.96.99.92 2.48-2.27-51.5-48.44a88 88 0 0 0-3.96 3.98l51.96 45.85.02-.04zm28.38-1.31 2.44 2.23 1-.93.02.04 51.91-45.79a92 92 0 0 0-3.95-3.95zm-4.04-2.78 3.25 2.06.63.57 30.37-39.77c-1.5-1.08-3.01-2.08-4.48-2.98l-23.83 34.6-2.08-1.09 26.56-55.85a94 94 0 0 0-5.49-2.3l-24.46 56.39-1.82-.99 10.94-39.28a75 75 0 0 0-5.51-1.2l-10.38 46.01 1.23-67.19a82 82 0 0 0-3.47-.07c-.8 0-1.64 0-2.61.05l1.19 69.58h3.32l2.6.6v-.24l4.04 1.5zm-51.18-37.18 30.47 39.77.58-.53 1.76-1.12-28.31-41.11c-1.53.93-3.04 1.93-4.51 2.98h.01zm34.3 37.19v.42l2.82-1.05-27.82-64.16c-1.83.71-3.65 1.48-5.44 2.3l29.89 62.84.56-.35zm4.04-1.08v.23l2.51-.6h.12l-10.79-48.39c-1.84.32-3.67.71-5.46 1.17l13.3 47.71.33-.12z" id="path56"/></g><g id="g64"><path class="cls-2" d="M544.26 260.67c-20.33 0-37.05 15.02-37.05 33.75s16.71 33.84 37.05 33.84 37.15-15.1 37.15-33.84-16.82-33.75-37.15-33.75" id="path60" style="fill:#ffbb26"/><path d="M544.26 329.14c-20.91 0-37.93-15.57-37.93-34.72s17.01-34.63 37.93-34.63 38.02 15.53 38.02 34.63-17.06 34.72-38.02 34.72m0-67.59c-19.95 0-36.18 14.75-36.18 32.88s16.23 32.97 36.18 32.97 36.27-14.79 36.27-32.97-16.27-32.88-36.27-32.88" id="path62"/></g><g id="path30"/></g></g></g></g><g id="g5999"><path id="path5035" d="m702.938 375.877-40.9-14.724-27.813-21.813-28.588-39.798-22.673-22.37-22.904-16.906-27.267 23.45-30.512 9.286-.782 94.354" style="fill:#1ea03e;fill-opacity:1;stroke:#fff;stroke-width:3.5999999;stroke-linecap:butt;stroke-linejoin:miter;stroke-miterlimit:4;stroke-dasharray:none;stroke-opacity:1"/><path id="path5033" d="m662.038 361.153-27.813-21.813-28.588-39.798 18.227-5.465 37.628-44.172 7.635.545 11.452 11.997 21.268 12.543 43.291 30.671c-20.792 188.091-350.226 204.2-418.384 39.21l26.078-12.62 26.176-19.633 20.723-13.088 35.992-28.357 20.723-17.451 8.18 10.361 20.723 18.542 16.932 10.377 11.425 15.799 4.363 12.542 1.636 10.907 3.272 7.635 7.657 16.134 13.088 8.725 27.244 17.132" style="fill:#1ea03e;fill-opacity:1;stroke:#fff;stroke-width:3.5999999;stroke-linecap:butt;stroke-linejoin:miter;stroke-miterlimit:4;stroke-dasharray:none;stroke-opacity:1"/></g><g aria-label="پشتونستا" transform="scale(1.09627 .91218)" style="font-style:normal;font-weight:400;font-size:150.55899048px;line-height:1.25;font-family:sans-serif;letter-spacing:0;word-spacing:0;fill:#fff;fill-opacity:1;stroke:none;stroke-width:3.76397491" id="text5430"><path id="path5542" style="font-style:normal;font-variant:normal;font-weight:400;font-stretch:normal;font-family:Scheherazade;-inkscape-font-specification:Scheherazade;fill:#fff;stroke-width:3.76397491" d="M354.023 609.428q-2.426 0-4.705-.441a10.6 10.6 0 0 1-4.043-1.912q-1.764-1.396-3.014-3.823-1.178-2.425-1.544-6.322-.294-2.94-.662-6.69a287 287 0 0 0-.735-8.013 650 650 0 0 0-.956-8.528 334 334 0 0 0-.955-8.38 573 573 0 0 0-.883-6.617q-.368-3.161-.735-5.881-.294-2.72-.514-4.852t-.22-3.455q0-.367.587-1.618.662-1.322 1.397-2.72a47 47 0 0 1 1.544-2.5q.735-1.101.956-1.102.147 0 .367.294.294.294.294 1.176.368 4.118.809 9.704.441 5.588.956 11.69l1.176 12.203q.588 6.102 1.103 11.174.588 5.072 1.102 8.675.587 3.528.956 4.558.588 1.396 1.47 2.279.883.809 1.912 1.25t2.132.588q1.102.073 2.205.073h2.72q2.794 0 4.117 1.47 1.397 1.398 1.397 3.088t-1.397 3.161q-1.323 1.47-4.117 1.47zm27.054 0q-2.059 0-3.456-.662-1.395-.662-2.573-1.911-.808-.883-1.764-2.353a24 24 0 0 1-1.544-2.867q-1.323 1.47-2.646 2.867a18 18 0 0 1-2.94 2.5q-1.619 1.102-3.677 1.764-1.984.662-4.705.662h-2.72q-2.793 0-4.117-1.47-1.396-1.47-1.396-3.162 0-1.69 1.396-3.087 1.324-1.47 4.117-1.47h2.72q5 0 7.94-1.471 3.014-1.544 4.778-3.308 1.765-1.838 2.573-3.308.81-1.544 1.397-1.544.441 0 .588 1.25t.736 2.793q.293.882.735 1.912.514.956 1.102 1.837.663.809 1.47 1.324.883.514 1.986.514h2.867q2.793 0 4.117 1.47 1.395 1.398 1.396 3.088t-1.396 3.161q-1.324 1.47-4.117 1.47zm-1.825-85.054q0 .294-.661 1.47a39 39 0 0 1-1.544 2.5 31 31 0 0 1-1.618 2.278q-.735 1.03-1.029 1.03-.147 0-1.176-.662a221 221 0 0 0-2.132-1.617 156 156 0 0 0-3.014-2.28q-.514-.513-1.03 0a109 109 0 0 0-1.984 2.868 41 41 0 0 1-1.544 1.985q-.661.882-.882.882t-1.323-.662q-1.03-.735-2.206-1.617a47 47 0 0 1-2.132-1.691q-.956-.809-.956-1.03 0-.292.662-1.396.736-1.176 1.617-2.426a89 89 0 0 1 1.618-2.352q.808-1.03.955-1.03.369 0 1.324.735a41 41 0 0 1 1.985 1.47q1.25.957 2.72 2.28.441.368.588.44.22 0 .588-.587a65 65 0 0 1 2.058-2.867 86 86 0 0 1 1.544-1.912q.735-.882.882-.882.221 0 1.324.735t2.279 1.691a47 47 0 0 1 2.132 1.69q.955.81.955.957m76.737 85.054q-3.897 0-6.91-3.235-3.015-3.308-5.147-8.38a42 42 0 0 1-2.058 3.896 15.7 15.7 0 0 1-2.5 3.087 10 10 0 0 1-2.94 2.059q-1.618.735-3.75.735-2.426 0-3.896-.735-1.47-.736-2.353-1.765-.882-1.03-1.323-2.132a14 14 0 0 0-.735-1.838q-2.793 3.823-6.249 6.029-3.381 2.132-8.822 2.132-3.529 0-6.322-1.691-2.72-1.764-4.631-5.808-2.794 4.191-6.25 5.955a16.35 16.35 0 0 1-7.277 1.69h-2.72q-2.794 0-4.117-1.47-1.397-1.47-1.397-3.16 0-1.692 1.397-3.088 1.323-1.47 4.117-1.47h2.72q3.235 0 5.587-.736 2.352-.735 4.043-1.764 1.692-1.103 2.794-2.353a41 41 0 0 0 1.838-2.352q.808-1.103 1.323-1.838t.956-.735q.514 0 .661.735.147.662.295 1.764.22 1.029.514 2.28a7.8 7.8 0 0 0 1.176 2.278q.882 1.029 2.353 1.765 1.544.66 4.043.661 4.999 0 8.087-1.69 3.16-1.765 5.072-3.823 1.912-2.059 2.794-3.75.956-1.764 1.47-1.764.22 0 .662.441.441.441.441 1.544 0 1.03.22 2.132a4.85 4.85 0 0 0 .883 1.985q.66.882 1.764 1.47 1.176.588 3.014.588 2.647 0 4.264-1.323 1.69-1.323 2.72-2.867 1.029-1.618 1.544-2.94.515-1.324.956-1.324t.588.441q.22.368.588 1.25.368 1.25 1.176 2.94a16.4 16.4 0 0 0 2.059 3.235 13.4 13.4 0 0 0 3.087 2.647q1.838 1.102 4.19 1.102h2.72q2.794 0 4.117 1.47 1.397 1.398 1.397 3.088t-1.397 3.161q-1.323 1.47-4.116 1.47zm20.216-19.408q0 5.587-1.323 9.336-1.25 3.75-3.455 6.028a12.7 12.7 0 0 1-5.22 3.161q-2.94.883-6.396.883h-2.72q-2.793 0-4.117-1.47-1.396-1.47-1.396-3.162 0-1.69 1.396-3.087 1.324-1.47 4.117-1.47h2.72q3.162 0 5.587-.515 2.5-.514 4.19-1.324 1.545-.808 2.353-1.69.81-.957.809-1.47 0-.442-.809-1.912a99 99 0 0 0-1.617-3.235 81 81 0 0 0-1.69-3.087q-.736-1.47-.736-1.838 0-.515.662-1.838.735-1.397 1.617-2.867a95 95 0 0 1 1.69-2.72q.81-1.324 1.03-1.618 1.69 3.675 2.5 7.058a28.7 28.7 0 0 1 .808 6.837m-23.79-24.14q0 .295-.662 1.471a61 61 0 0 1-1.544 2.426 31 31 0 0 1-1.617 2.28q-.808 1.028-1.176 1.028-.147 0-1.25-.661-1.03-.662-2.279-1.47a47 47 0 0 1-2.132-1.691q-.955-.81-.955-1.103 0-.294.661-1.397a183 183 0 0 1 1.544-2.426 37 37 0 0 1 1.69-2.352q.81-1.03 1.03-1.03.294 0 1.397.736 1.103.66 2.279 1.543a27 27 0 0 1 2.058 1.691q.956.81.956.956m72.237 43.548h-1.544q-.662 0-1.25.073-.662.074-1.25.074-.441 2.499-1.47 5.734a53 53 0 0 1-2.646 6.763 61 61 0 0 1-3.603 6.837q-1.985 3.383-4.337 6.102-3.897 4.338-7.646 6.175-3.75 1.838-7.719 1.838-2.131 0-4.999-.882a44 44 0 0 1-5.44-1.912q-2.573-1.029-4.337-1.984-1.765-.957-1.765-1.25 0-.441.294-.809.294-.294.883-.294.515 0 1.47.22.882.222 2.132.442 1.176.294 2.573.514t2.867.22q3.161 0 6.396-1.102 3.308-1.029 6.47-2.94a40 40 0 0 0 6.027-4.485 41 41 0 0 0 5.22-5.66 34 34 0 0 0 3.896-6.47q1.617-3.381 2.206-6.91a145 145 0 0 1-6.47-.809q-2.866-.44-4.999-1.25-2.058-.882-3.234-2.205-1.104-1.397-1.103-3.529 0-.956.514-2.646a39 39 0 0 1 1.324-3.75 61 61 0 0 1 1.985-4.043 32 32 0 0 1 2.279-3.676q1.25-1.69 2.5-2.72 1.322-1.103 2.425-1.103 1.91 0 3.529 1.765 1.618 1.69 2.793 4.19a23.8 23.8 0 0 1 1.765 5.367q.66 2.793.661 4.925h6.47q2.793 0 4.117 1.47 1.395 1.398 1.396 3.088t-1.396 3.161q-1.324 1.47-4.117 1.47zm-7.866-9.337q0-1.029-.662-2.205a9.5 9.5 0 0 0-1.69-2.28 10.2 10.2 0 0 0-2.206-1.69q-1.177-.735-2.206-.735-1.47 0-2.205 1.176-.662 1.103-.662 2.573 0 1.029 2.353 2.059 2.425.955 7.278 1.102m34.846 9.337q-2.059 0-3.455-.662-1.398-.662-2.573-1.911-.81-.883-1.765-2.353a24 24 0 0 1-1.544-2.867q-1.323 1.47-2.646 2.867a18 18 0 0 1-2.94 2.5q-1.619 1.102-3.677 1.764-1.984.662-4.705.662h-2.72q-2.793 0-4.116-1.47-1.398-1.47-1.397-3.162 0-1.69 1.397-3.087 1.323-1.47 4.116-1.47h2.72q5 0 7.94-1.471 3.014-1.544 4.779-3.308 1.764-1.838 2.573-3.308.808-1.544 1.396-1.544.44 0 .589 1.25.147 1.25.735 2.793.293.882.735 1.912.514.956 1.103 1.837.66.809 1.47 1.324.882.514 1.985.514h2.867q2.793 0 4.117 1.47 1.395 1.398 1.396 3.088t-1.396 3.161q-1.324 1.47-4.117 1.47zm0-34.626q0 .294-.662 1.47a39 39 0 0 1-1.544 2.5 31 31 0 0 1-1.617 2.279q-.735 1.029-1.03 1.029-.146 0-1.176-.662a221 221 0 0 0-2.131-1.617 156 156 0 0 0-3.015-2.279q-.514-.514-1.029 0a109 109 0 0 0-1.985 2.867 41 41 0 0 1-1.544 1.985q-.66.882-.882.882-.22 0-1.323-.661-1.029-.736-2.205-1.618a47 47 0 0 1-2.132-1.69q-.956-.81-.956-1.03 0-.293.662-1.397a52 52 0 0 1 1.617-2.426 89 89 0 0 1 1.617-2.352q.81-1.03.956-1.03.367 0 1.323.736a41 41 0 0 1 1.985 1.47 45 45 0 0 1 2.72 2.28q.441.366.588.44.22 0 .588-.588a65 65 0 0 1 2.059-2.867 86 86 0 0 1 1.544-1.911q.735-.882.882-.883.22 0 1.323.736 1.102.735 2.28 1.69a47 47 0 0 1 2.131 1.691q.956.81.956.956m74.912 34.626q-3.897 0-6.91-3.235-3.015-3.308-5.147-8.38a42 42 0 0 1-2.058 3.896 15.7 15.7 0 0 1-2.5 3.087 10 10 0 0 1-2.94 2.059q-1.618.735-3.75.735-2.426 0-3.896-.735-1.47-.736-2.352-1.765-.883-1.03-1.324-2.132a14 14 0 0 0-.735-1.838q-2.793 3.823-6.249 6.029-3.382 2.132-8.821 2.132-3.529 0-6.323-1.691-2.72-1.764-4.631-5.808-2.795 4.191-6.249 5.955a16.35 16.35 0 0 1-7.278 1.69h-2.72q-2.793 0-4.117-1.47-1.397-1.47-1.397-3.16 0-1.692 1.397-3.088 1.323-1.47 4.117-1.47h2.72q3.235 0 5.587-.736 2.352-.735 4.044-1.764 1.69-1.103 2.793-2.353a41 41 0 0 0 1.838-2.352q.81-1.103 1.323-1.838.515-.735.956-.735.515 0 .662.735.147.662.294 1.764.22 1.029.514 2.28a7.8 7.8 0 0 0 1.176 2.278q.883 1.029 2.353 1.765 1.544.66 4.043.661 5 0 8.087-1.69 3.16-1.765 5.072-3.823 1.912-2.059 2.794-3.75.955-1.764 1.47-1.764.22 0 .662.441.441.441.441 1.544 0 1.03.22 2.132a4.85 4.85 0 0 0 .883 1.985q.66.882 1.764 1.47 1.177.588 3.014.588 2.647 0 4.264-1.323 1.69-1.323 2.72-2.867 1.03-1.618 1.544-2.94.515-1.324.956-1.324t.588.441q.22.368.588 1.25.367 1.25 1.176 2.94a16.4 16.4 0 0 0 2.059 3.235 13.4 13.4 0 0 0 3.087 2.647q1.838 1.102 4.19 1.102h2.72q2.794 0 4.118 1.47 1.395 1.398 1.396 3.088t-1.396 3.161q-1.324 1.47-4.117 1.47zm-31.465-49.55q0 .296-.661 1.47a81 81 0 0 1-1.47 2.5 31 31 0 0 1-1.618 2.28q-.81 1.028-1.103 1.028-.146 0-1.25-.661-1.029-.736-2.279-1.617a47 47 0 0 1-2.131-1.691q-.957-.882-.956-1.177 0-.294.661-1.396.736-1.177 1.618-2.426a67 67 0 0 1 1.617-2.206q.81-1.029.956-1.029.293 0 1.397.735 1.103.662 2.205 1.544a27 27 0 0 1 2.058 1.69q.957.81.956.956m-.216 67.265c.08.098-.149.367-.252.574q-.147.074-.441.441a56 56 0 0 0-2.058 2.867 41 41 0 0 1-1.544 1.985q-.662.882-.882.882-.221 0-1.324-.661-1.029-.735-2.205-1.618a140 140 0 0 1-2.132-1.764q-.956-.882-.956-1.103t.662-1.323q.735-1.176 1.544-2.426a504 504 0 0 1 1.617-2.279q.81-1.03.956-1.03.368 0 1.323.736 1.029.662 2.058 1.47a45 45 0 0 1 2.647 2.206c.343.245.5.51.647.56.147 0 .34.483.34.483m51.897-37.123q0 5.587-1.323 9.336-1.25 3.75-3.455 6.028a12.7 12.7 0 0 1-5.22 3.161q-2.94.883-6.396.883h-2.72q-2.793 0-4.116-1.47-1.398-1.47-1.397-3.162 0-1.69 1.397-3.087 1.323-1.47 4.116-1.47h2.72q3.161 0 5.588-.515 2.5-.514 4.19-1.324 1.544-.808 2.352-1.69.81-.957.81-1.47 0-.442-.81-1.912a99 99 0 0 0-1.617-3.235 81 81 0 0 0-1.69-3.087q-.736-1.47-.736-1.838 0-.515.662-1.838.735-1.397 1.617-2.867a95 95 0 0 1 1.691-2.72q.809-1.324 1.03-1.618 1.69 3.675 2.499 7.058a28.7 28.7 0 0 1 .808 6.837m2.132 31.685q0 .294-.661 1.396a28 28 0 0 1-1.544 2.426 24 24 0 0 1-1.617 2.353q-.736 1.03-1.03 1.03-.147 0-1.176-.736a70 70 0 0 1-2.132-1.544 156 156 0 0 0-3.014-2.279q-.441-.368-.662-.294-.147.074-.367.441a56 56 0 0 0-2.059 2.867 41 41 0 0 1-1.543 1.985q-.736.882-.956.882-.147 0-1.25-.735a35 35 0 0 1-2.279-1.617 47 47 0 0 1-2.132-1.69q-.956-.81-.956-1.03t.736-1.397q.66-1.176 1.543-2.426t1.618-2.279q.808-1.03.955-1.03.369 0 1.324.663.955.735 2.058 1.543a45 45 0 0 1 2.794 2.206q.441.367.588.367.147.075.588-.514l2.058-2.794a86 86 0 0 1 1.544-1.911q.735-.882.956-.882.294 0 1.323.661 1.103.736 2.28 1.618a27 27 0 0 1 2.058 1.69q.955.81.955 1.03m-5.146 14.556q0 .22-.661 1.323a46 46 0 0 1-1.47 2.426 31 31 0 0 1-1.618 2.279q-.81 1.03-1.176 1.03-.22 0-1.324-.662a64 64 0 0 1-2.279-1.544 27 27 0 0 1-2.131-1.618q-.957-.808-.956-1.102 0-.295.661-1.47l1.618-2.427a56 56 0 0 1 1.69-2.279q.81-1.029 1.03-1.029.294 0 1.323.662 1.103.735 2.28 1.617a46 46 0 0 1 2.058 1.764q.955.81.955 1.03"/></g><g aria-label="ن" transform="scale(1.09627 .91218)" style="font-style:normal;font-variant:normal;font-weight:400;font-stretch:normal;font-size:150.55899048px;line-height:1.25;font-family:Scheherazade;-inkscape-font-specification:Scheherazade;letter-spacing:0;word-spacing:0;fill:#fff;fill-opacity:1;stroke:none;stroke-width:3.76397491" id="text5444"><path id="path5574" style="stroke-width:4.05303335" d="M407.169 550.173q0 2.94-.256 5.44-.255 2.5-1.364 5.072-1.534 3.676-4.347 6.91-2.812 3.162-6.82 5.515-4.005 2.352-9.12 3.675-5.115 1.398-11.422 1.397-4.348 0-8.524-1.03-4.092-1.028-7.33-3.307a17.3 17.3 0 0 1-5.115-5.587q-1.96-3.456-1.96-8.16 0-3.015 1.108-6.543a75 75 0 0 1 2.557-6.69q1.45-3.088 2.642-5.146 1.279-2.06 1.535-2.059.426 0 .767.147.34.147.34.735 0 .147-.767 1.397-.682 1.25-1.534 3.235a45 45 0 0 0-1.62 4.484 18.7 18.7 0 0 0-.681 5.073q0 3.308 1.875 5.807 1.96 2.427 4.859 4.044 2.983 1.617 6.478 2.426 3.58.808 6.904.808 2.984 0 6.393-.514a82 82 0 0 0 6.905-1.47 60 60 0 0 0 6.478-2.206q3.069-1.323 5.114-2.867 2.046-1.47 2.728-3.308.682-1.912.682-2.94 0-1.839-.511-3.897a31 31 0 0 0-1.364-4.264 43 43 0 0 0-1.96-4.337 63 63 0 0 0-2.132-4.19q-1.704-3.09-3.324-5.44-1.534-2.427-1.534-3.897 0-.515.511-1.691.511-1.249 1.108-2.573.681-1.323 1.279-2.352.681-1.104.937-1.324 2.387 3.236 4.262 7.131a63 63 0 0 1 3.325 7.866 61 61 0 0 1 2.13 7.793q.768 3.75.768 6.837m-23.015-4.138q0 .294-.767 1.47a61 61 0 0 1-1.79 2.426 31 31 0 0 1-1.875 2.28q-.938 1.029-1.364 1.029-.17 0-1.45-.662-1.193-.662-2.642-1.47a54 54 0 0 1-2.472-1.691q-1.107-.81-1.108-1.103 0-.294.767-1.397.853-1.175 1.79-2.426a38 38 0 0 1 1.96-2.352q.939-1.03 1.194-1.03.341 0 1.62.736 1.278.66 2.642 1.544 1.365.882 2.387 1.69 1.108.81 1.108.956"/></g></svg>