<svg xmlns="http://www.w3.org/2000/svg" viewBox="0 0 25 23.077" xml:space="preserve" width="25" height="23.077"><path fill="#D8D8D8" d="M-38.462-196.154h419.231v326.923H-38.462z"/><g/><g/><path fill="#109D59" d="M0 0h9.615v23.077H0z"/><path fill="#DC4437" d="M9.615 0H25v23.077H9.615z"/><path fill="#FCBE1F" d="M15.769 11.538a6.154 6.154 0 0 1-6.154 6.154 6.154 6.154 0 0 1-6.153-6.154 6.154 6.154 0 0 1 12.307 0"/><path fill="#DC4437" d="M13.462 13.462s-.538 2.308-3.846 2.308-3.846-2.308-3.846-2.308V8.077h7.692z"/><path fill="#FFF" d="M11.346 12.615s-.25 1.039-1.731 1.039-1.731-1.038-1.731-1.038v-2.424h3.462z"/><g/><g/><g/></svg>