<svg xmlns="http://www.w3.org/2000/svg" width="25" height="25" viewBox="0 0 0.25 0.25"><path d="M0 0h.25v.25H0" fill="#fff"/><path d="M0 .071v.071l.107.107h.071m0-.25H.107L.25.142V.071" fill="#742c64"/><path d="M.036 0h.071L.25.143v.071M.036.179H0V.25h.107" fill="#eb7711"/><path d="M.036 0h.036v.071h.071v.071h.071v.071H.25V.179H.179V.107H.107V.036H.036M0 .214h.036V.25H0" fill="#fcdd09"/><path d="M0 .036v.036l.179.179h.036V.214H.179V.179H.143V.143H.107V.107H.071V.071H.036V.036M.179 0H.25v.071" fill="#078930"/><path d="M0 .071h.036v.071h.071v.071h.071v.036H.143v-.07H.071V.107H0M.179 0h.036v.071h.036V.036H.179" fill="#0f47af"/><path d="M.107 0h.036v.071h.071v.071H.25V.107H.179V.036H.107M0 .143h.036v.071h.071V.25H.071V.179H0" fill="#da121a"/></svg>