<svg xmlns="http://www.w3.org/2000/svg" width="25" height="16.667" viewBox="0 0 43.333 28.889"><path fill="#fad201" d="M0 0h43.333v28.889H0z"/><path fill="#00a3e0" d="M0 0h43.333v14.444H0z"/><path fill="#20603d" d="M0 21.667h43.333v7.222H0z"/><path fill="#e5be01" d="m1280 267.333.189 3.235 1.019-3.076-.655 3.174 1.78-2.707-1.454 2.895 2.42-2.154-2.154 2.42 2.896-1.453-2.707 1.78 3.173-.655-3.075 1.019 3.235.189-3.235.189 3.076 1.019-3.174-.655 2.707 1.78-2.895-1.454 2.154 2.42-2.42-2.154 1.453 2.896-1.78-2.707.655 3.173-1.019-3.075-.189 3.235-.189-3.235-1.019 3.076.655-3.174-1.78 2.707 1.454-2.896-2.42 2.154 2.154-2.42-2.896 1.454 2.707-1.781-3.173.655 3.075-1.018-3.235-.189 3.234-.189-3.076-1.019 3.175.655-2.707-1.78 2.896 1.454-2.154-2.42 2.42 2.154-1.454-2.896 1.781 2.707-.655-3.173 1.018 3.075z"/></svg>