<svg xmlns="http://www.w3.org/2000/svg" viewBox="0 0 25 18.75" width="25" height="18.75"><path fill="#ee1c25" d="M0 0h25v18.75H0z"/><path fill="#0b4ea2" d="M0 0h25v12.5H0z"/><path fill="#fff" d="M0 0h25v6.25H0z"/><path fill="#fff" d="M9.102 14.484c-1.68-.809-4.086-2.418-4.086-5.594 0-3.18.156-4.625.156-4.625h7.863s.152 1.445.152 4.625-2.406 4.782-4.085 5.594"/><path fill="#ee1c25" d="M9.102 14.063c-1.543-.742-3.75-2.219-3.75-5.133s.141-4.242.141-4.242h7.219s.137 1.328.137 4.242c.003 2.918-2.204 4.39-3.747 5.133"/><path fill="#fff" d="M9.43 8.164c.418.008 1.234.023 1.957-.219 0 0-.016.262-.016.563s.02.563.02.563c-.664-.223-1.488-.227-1.961-.223v1.609h-.656V8.848c-.469-.004-1.293 0-1.957.223 0 0 .02-.262.02-.563s-.02-.563-.02-.563c.723.242 1.539.227 1.953.219V7.152c-.379 0-.926.016-1.547.223 0 0 .02-.258.02-.563 0-.301-.02-.563-.02-.563a4.6 4.6 0 0 0 1.547.223c-.02-.641-.207-1.445-.207-1.445s.387.027.539.027.539-.027.539-.027-.188.805-.207 1.445c.379.004.926-.016 1.547-.223 0 0-.02.262-.02.563s.02.563.02.563a4.7 4.7 0 0 0-1.551-.223v1.016z"/><path fill="#0b4ea2" d="M9.102 10.285c-.777 0-1.191 1.074-1.191 1.074s-.234-.508-.867-.508c-.43 0-.742.379-.945.734.781 1.238 2.027 2.004 3.004 2.477.977-.469 2.227-1.238 3.004-2.477-.203-.352-.516-.734-.945-.734-.633 0-.867.508-.867.508s-.412-1.074-1.193-1.074"/></svg>