<svg xmlns="http://www.w3.org/2000/svg" xmlns:xlink="http://www.w3.org/1999/xlink" width="25" height="12.5" viewBox="0 0 6 3" fill="#fff"><defs><path id="a" d="M0-.02.006 0-.01-.012h.021L-.006 0z"/><path id="b" d="m0 0 .006.02L-.01.008h.021L-.006.02z"/></defs><path fill="#ce1126" d="M0 0h6v3H0z"/><path fill="#002b7f" d="M0 0h3v1.5H0z"/><use xlink:href="#a" transform="matrix(20 0 0 20 72 69)"/><use xlink:href="#b" transform="matrix(16 0 0 16 50 21)"/><use xlink:href="#b" transform="matrix(16 0 0 16 72 3)"/><use xlink:href="#b" transform="matrix(15 0 0 15 94.5 18)"/><use xlink:href="#a" transform="matrix(10 0 0 10 83 46)"/></svg>