<svg xmlns="http://www.w3.org/2000/svg" width="25" height="12.5" viewBox="0 0 525 262.5"><defs><clipPath id="a"><path d="M0 0h1.313v1.313H0z"/></clipPath></defs><path fill="#006400" d="M0 0h525v262.6H0z"/><path fill="#ffd200" d="M4.2 37.6H525v187.6H4.2z"/><path fill="#d40000" d="M4.2 75H525v112.6H4.2z"/><path d="M4.2 112.6H525v37.6H4.2z"/><path clip-path="url(#a)" stroke="#000" stroke-width=".063" d="M.875.656 0 1.313V0z" transform="scale(200)"/><path fill="#fff" d="M175 131.2 0 262.6V0z"/><path fill="#d40000" d="m66.667 66.031 34.287 105.527-89.766-65.218h110.958l-89.767 65.218z"/><g fill="none" stroke="#000" stroke-linejoin="round" stroke-linecap="round" stroke-width="38"><path fill="#ffd200" d="M47.708 95.417a3.39 3.39 0 0 1 .167-2.875 3.32 3.32 0 0 1 2.354-1.667 16.5 16.5 0 0 1 3.208-.229 6.05 6.05 0 0 1 4.604-2.75 6.07 6.07 0 0 1 4.958 2.042 10.5 10.5 0 0 1 2.542 6.042l.771 9.667 29.417 23.021a1.792 1.792 0 0 1-1.583 3.125l-1.229-.354c-4.729 2.938-8.229 8.063-8.917 13.563l-1.771 14H51.125L47 142.981a5.54 5.54 0 0 1-.521-6.313 37.4 37.4 0 0 1 5.458-7.188c1.375-1.375 2-3.333 1.729-5.271a41 41 0 0 1-.458-5.792 10.5 10.5 0 0 1 1.021-4.646l-.396-14.458a4.92 4.92 0 0 0-2.479-4.104z"/><path d="M51.354 95.208 54.833 95m-.604 18.771 12.083-8.125m4.833 24.313c4.771 1.333 7.75.938 9.146-2.104m-17.75-11.792c-1.292 3.729 1.042 7.042 4.167 7.938l26.208 7.438m-42.5 13.146c-.979-3.833.438-10.688 6.5-13.542 2.813-1.313 3.729-4.188 3.75-6.625 0-.917.021-1.979 1.333-2.5m-15 21.063.917-2.229c.438 1.646 1.333 2.854 2.5 3.833q.969-2.031 1.688-4.125c.542 1.083.979 2.563 1.354 4.042-.083-3.354 1.688-5.813 4.021-6.854l9.042-4.021c2.938-1.313 5.75-3.917 6.396-7.875m15.458 9.583H62.667m-15.146 9.667H84m-28.042 7.938h27.021m-29.75-7.938 2.729 7.938v6.063m-1.313-10.604 2.667-2.667 2.667 2.667 2.667-2.667 2.667 2.667 2.667-2.667 2.667 2.667 2.667-2.667 2.667 2.667 2.667-2.667 2.667 2.667 2.583-2.583M55.44 151.42l1.875-1.875 2.667 2.667 2.667-2.667 2.667 2.667 2.667-2.667 2.667 2.667 2.667-2.667 2.667 2.667 2.667-2.667 2.667 2.667 2.021-2.021M59.896 92.896a1.583 1.583 0 0 1-1.583 1.583 1.583 1.583 0 0 1-1.584-1.583 1.583 1.583 0 0 1 3.167 0m8.521 47.312a3.02 3.02 0 0 1-3.021 3.021 3.02 3.02 0 0 1-3.021-3.021 3.021 3.021 0 0 1 6.042 0m11.979 0a3.02 3.02 0 0 1-3.021 3.021 3.02 3.02 0 0 1-3.021-3.021 3.021 3.021 0 0 1 6.042 0"/></g></svg>