<svg xmlns="http://www.w3.org/2000/svg" xmlns:xlink="http://www.w3.org/1999/xlink" width="25" height="16.667" viewBox="0 0 25 16.667"><path fill="#3e5eb9" d="M0 0h25v16.667H0z"/><path fill="#ffd900" d="M0 3.125h25v10.417H0z"/><path fill="#b10c0c" d="M0 4.167h25V12.5H0z"/><g transform="scale(1.5)" fill="#ffd900" stroke="#000" stroke-width="1.008"><g id="a"><path d="m13.69 4.286-.675.238.675.238.675-.238z" fill="#fff"/><path d="M3.499 4.444h9.747a.086.079 0 0 1 .087.08.086.079 0 0 1-.087.079H3.499a.086.079 0 0 1-.087-.079.086.079 0 0 1 .087-.08z"/><path d="M13.096 4.603c.04 0 .079-.04.079-.079s-.04-.079-.079-.079m-.079.159c.04 0 .079-.04.079-.079s-.04-.079-.079-.079m-.079.159c.04 0 .079-.04.079-.079s-.04-.079-.079-.079"/></g><use xlink:href="#a" x="-23.27" y="17.15" width="100%" height="100%"/><path stroke-width=".03" d="M1.779 5.437h13.257a.117.119 0 0 1 .117.119.117.119 0 0 1-.117.119H1.779a.117.119 0 0 1-.118-.119.117.119 0 0 1 .118-.119z"/></g><path d="M18.452 8.333c-1.19 1.19-2.778 3.571-5.952 3.571-2.778 0-4.762-2.381-5.952-3.571 1.19-1.191 3.174-3.572 5.952-3.572 3.174 0 4.762 2.381 5.952 3.572z" fill="#fff" stroke="#000" stroke-width=".042"/><path d="M12.084 6.004c.317.356.052.5.387.523.354.026.153.376.45.389.208.009-.021.84.179 1.114.204.286.375.084.378.29.004.213-.555.192-.565.85-.016.379-.471.403-.493.647-.027.229.896.358.884.563s-.997.173-1.04.406c-.022.21 1.352.382 1.462.988-.205.067-.788.13-1.229.13-2.777.002-4.762-2.381-5.952-3.572 1.19-1.191 3.174-3.572 5.952-3.572 0 0-.825.753-.415 1.242z"/><g transform="scale(1.5)" stroke="#fff"><g id="d" stroke-width="6.927"><g id="c"><path id="b" d="M5.943 5.344v-.635m.385 0v.635m.385-.635v.635"/><use xlink:href="#b" y="38.1" width="100%" height="100%"/></g><use xlink:href="#c" x="41.56" width="100%" height="100%"/></g></g><use xlink:href="#d" x="104.76" width="100%" height="100%" transform="scale(1.5)" stroke="#000"/><g fill="#a70000"><path d="M21.306 8.192c-.18.312.138-.104.916.419.144.097.27.354.27.532-.037-.024-.064-.079-.104-.114-.056.057.054.316.07.438-.122-.068-.11-.1-.15-.184.008.101-.021.379.027.487-.096-.027-.089-.104-.139-.12.034.121-.03.253-.013.39-.056-.055-.116-.099-.142-.121-.004.065-.108.236-.11.297a.16.16 0 0 1-.068-.104c-.059.074-.269.348-.282.432-.162-.143-.576-.491-.63-.675-.048.105-.117.14-.253.217-.054-.293-.255-.621-.148-.872-.076.045-.139.091-.216.146.072-.424.441-.921.972-1.167z" fill="#3d5da7" stroke="#000" stroke-width=".036"/><path d="M20.634 9.738c.075-.15.144-.197.192-.293.085-.169.098-.304.172-.284s.074.089-.022.256-.142.202-.342.322m.506.357c-.01-.114.023-.162.017-.235-.01-.129-.063-.218.006-.224s.101.038.101.168-.02.164-.124.291m.384.223c-.03-.159-.008-.23-.027-.332-.033-.18-.1-.299-.036-.316s.102.042.126.225.011.233-.063.423m.4-1.115c-.094-.071-.149-.076-.209-.122-.107-.08-.16-.166-.195-.124-.034.043-.01.089.102.163s.149.08.302.082zm-.066.528c-.049-.103-.101-.129-.134-.195-.057-.116-.057-.217-.118-.191s-.066.078-.001.191c.066.112.1.133.252.195"/><path d="M3.366 8.492c-.01-.091.009-.102-.047-.17.081.034.085.125.184.06.036-.019.052-.019.008-.12.103.005.442.121.496.123.142.007.402-.149.582.042.173.175.115.356.115.598-.069-.033-.036-.05-.11-.136.055.212-.003.593-.003.818-.028-.054-.024-.031-.052-.087-.074.205-.162.247-.162.489-.027-.095-.001-.075-.031-.125-.072.156-.552.288-.367.445-.167-.098-.241-.088-.316-.176a.3.3 0 0 0-.089.116c-.294-.135-.189-.427-.419-.622-.04.082-.022.07-.065.203-.047-.185-.059-.302-.112-.438-.045.075-.041.046-.123.16-.034-.225-.089-.278-.067-.427-.087.062-.03.037-.117.112.083-.577.44-1.003.696-.866z" fill="#3d5da7" stroke="#000" stroke-width=".044"/><path d="M3.004 9.434c.076-.186.144-.244.193-.363.086-.21.101-.378.173-.352.073.026.071.112-.026.319-.097.206-.143.25-.34.397zm.287.465c.03-.166.078-.227.098-.334.035-.188.015-.329.083-.321s.083.079.038.266c-.045.188-.076.232-.219.39zm.343.323c.009-.161.046-.224.052-.328.01-.183-.025-.314.039-.314s.087.065.068.248-.044.229-.159.395m.737-1.055c-.141-.14-.226-.167-.317-.257-.16-.159-.237-.307-.294-.255s-.023.132.146.283.227.173.465.229m-.086.542c-.092-.141-.159-.177-.218-.268-.104-.159-.14-.296-.2-.262-.059.034-.046.105.067.26.113.154.159.183.351.271z"/><path d="M10.575 5.396c-.165.319.289-.106 1 .428.132.099.321.491.321.673-.151-.032-.42-.182-.42-.182s.315.315.315.678c-.111-.069-.167-.059-.204-.144 0 .118.099.193.099.374a1.5 1.5 0 0 0-.216-.144c.105.182-.191.534-.043.652-.259-.037-.524-.203-.629-.385-.056.037-.062.096-.064.159.008.007-.394-.299-.357-.416a.37.37 0 0 0-.074.203c-.148-.146-.283-.292-.333-.48-.066.085-.07.085-.136.171-.049-.299-.049-.288.049-.544-.07.046-.127.092-.197.149.066-.433.403-.94.889-1.191z" fill="#3d5da7" stroke="#000" stroke-width=".034"/><path d="M10.168 6.954c.026-.22.084-.303.101-.444.031-.249-.006-.431.083-.426.088.005.114.096.07.345s-.08.309-.253.526zm.46.402c-.018-.185.016-.264.005-.384-.02-.21-.084-.353-.008-.366s.116.057.124.27c.008.212-.012.269-.121.48m.719.328c-.078-.16-.145-.208-.196-.312-.089-.181-.108-.33-.176-.303-.069.027-.065.104.034.281s.144.214.338.333m.249-1.437c-.199-.105-.301-.106-.43-.173-.226-.118-.357-.251-.404-.178s.016.146.249.254.304.112.585.098zm.073.6c-.145-.121-.231-.138-.324-.216-.165-.136-.247-.27-.302-.216s-.018.126.155.254.232.144.471.177"/></g></svg>