<svg xmlns="http://www.w3.org/2000/svg" width="25" height="16.667" viewBox="0 0 2333.333 1555.556"><path fill="#fff" d="M0 0h2333.333v1555.556H0z"/><path fill="#001489" d="M0 0h2333.333v466.667H0z"/><path fill="#009a44" d="M0 1088.889h2333.333v466.667H0z"/><path d="M1166.667 491.556a21.78 21.78 0 0 1 19.389 11.806c46.111 5.5 70.361 38.889 78.806 77.722 9.861 45.389-.583 107.111-32.611 171.917l123.028 163.25a445 445 0 0 0 19.361-9.639l45.222 95.722a550.67 550.67 0 0 1-506.389 0l45.222-95.722a445 445 0 0 0 19.361 9.639l123.028-163.25c-32.028-64.806-42.472-126.528-32.611-171.917 8.444-38.833 32.694-72.222 78.806-77.722a21.78 21.78 0 0 1 19.389-11.806m48.722 239.056c24.944-55.694 33.056-108.5 25.167-143.417-6.972-30.889-22.611-53.833-53.667-58.722v79.75l38.889 38.889h-31.111v56zm-68.944-202.139c-31.056 4.889-46.694 27.833-53.667 58.722-7.889 34.917.222 87.722 25.167 143.417l20.722-27.5v-56h-31.111l38.889-38.889zM973.779 947.556l-13.306 28.111 21.528-5.778zm-10.833 40.333a516 516 0 0 0 30 11.806l-6.639-18.056zm48.972-4.222 27.917-8.833-8.028-18a464 464 0 0 1-34.111-11.833zm33 2.611-28.694 9.083 4.972 13.5a516 516 0 0 0 38.056 9.611zm31 12.222 30.75-12.611-7.361-13.917a464 464 0 0 1-38.472-7.333zm36.611-1.556-31.556 12.917 6.111 13.75a516 516 0 0 0 42.111 4.806zm31 8.722 38.361-20.056-5.556-8.833a464 464 0 0 1-48.917-1.556zm45.056-9.5-39.222 20.5 6.889 13a516 516 0 0 0 52.5-1.611zm32.194 7.278 30.167-20.722-8.75-12.028a464 464 0 0 1-39.111 4.75zm37.5-10.667-30.833 21.194 7.139 11.306a516 516 0 0 0 42.056-7.333zm28.056-1.139 25.111-22.278-10.25-12.417a464 464 0 0 1-33.722 8.861zm33.056-12.694-25.694 22.806 7.444 10.222a516 516 0 0 0 36.278-11.25zm25.611-5.639 17.028-20.528-7.417-15.694a464 464 0 0 1-29.694 11.944zm22.917-8.111-14.833 17.861 7.417 8.972a516 516 0 0 0 16.722-7.111z"/></svg>