<svg width="25" height="12.5" viewBox="0 0 25 12.5" xml:space="preserve" xmlns:xlink="http://www.w3.org/1999/xlink" xmlns="http://www.w3.org/2000/svg"><path fill="#060" d="M0 0h25v12.5H0Z"/><path fill="#fff" d="M0 0h25v8.929H0Z"/><path fill="#c00" d="M0 0h25v3.571H0Z"/><g transform="translate(-7.875 -233.147)scale(.80637)"><path d="M15.381 20.433a.249.249 0 0 1 .463.117v.995h.187v-.994a.249.249 0 0 1 .463-.117.587.587 0 1 0-1.114 0" fill="#f8c300"/><path d="M15.514 20.174a.4.4 0 0 1 .424.19.4.4 0 0 1 .424-.19.428.428 0 0 0-.847 0" fill="#fff"/><path id="a" d="M15.844 21.147a.756.756 0 0 1-1.27.483.785.785 0 0 1-1.188.347c.073.724 1.158.576 1.239-.128.341.599 1.091.427 1.311-.306z" fill="#f8c300"/><use xlink:href="#a" transform="matrix(-1 0 0 1 713.996 0)" width="100%" height="100%" fill="#f8c300"/><path id="b" d="M15.119 22.434c-.151.327-.454.383-.719.119 0 0 .106-.075.22-.096a.36.36 0 0 1 .084-.285.43.43 0 0 1 .178.236c.16-.021.236.025.236.025z" fill="#f8c300"/><use xlink:href="#b" transform="rotate(9.37 356.998 664.062)" width="100%" height="100%" fill="#f8c300"/><use xlink:href="#b" transform="rotate(18.74 356.998 664.062)" width="100%" height="100%" fill="#f8c300"/><path d="M14.009 23.163a6.76 6.76 0 0 1 3.858 0" fill="none" stroke-width=".318" stroke="#f8c300"/></g><path d="m14.784-471.286.09.279h.294l-.237.172.09.279-.236-.172-.237.172.091-.279-.236-.172h.293zm-.306-1.141.09.278h.294l-.237.173.09.278-.236-.172-.237.172.091-.278-.236-.173h.293zm-.836-.837.091.279h.293l-.236.172.09.279-.236-.173-.237.173.091-.279-.236-.172h.293zm-1.142-.306.09.279h.293l-.237.172.091.279-.236-.173-.237.173.09-.279-.236-.172h.293zm-1.142.306.09.279h.294l-.237.172.091.279-.236-.173-.237.173.091-.279-.237-.172h.294zm-.836.837.091.278h.293l-.236.173.09.278-.236-.172-.237.172.091-.278-.236-.173h.293zm-.306 1.141.091.279h.293l-.236.172.09.279-.236-.172-.237.172.091-.279-.236-.172h.293z" fill="#f8c300"/></svg>