<svg xmlns="http://www.w3.org/2000/svg" xmlns:xlink="http://www.w3.org/1999/xlink" height="16.667" width="25" viewBox="0 0 25 16.667"><path fill="#00843d" d="M0 0h25v16.667H0z"/><g fill="#fff"><path d="M12.412 1.848a2.074 2.074 0 1 1-2.161 3.485 2.1 2.1 0 0 0 .726.165 2.074 2.074 0 0 0 1.434-3.65z"/><path d="m10.434 3.373.235-.723-.615.447h.76l-.615-.447z" id="a"/><use height="600" y="-38.4" xlink:href="#a"/><use y="-18.722" x="37.937" xlink:href="#a"/><use y="18.722" x="-37.936" xlink:href="#a"/><use height="600" y="38.4" xlink:href="#a"/></g><path style="fill:#d22630" d="M3 0h4.5v16.667H3z"/><g id="b" style="fill:#383739"><path d="M3-1.101v.163l.253.237-.085.079.181.168-.079.072v-.104h-.154v.125l.349.327h.177l.019-.115h-.102l.11-.103.276.252-.277.253-.11-.103h.102L3.641.034h-.177L3.115.36v.125h.154V.381l.079.072-.181.168.085.081-.253.235V1.1l.428-.399L3.342.62l.179-.168-.154-.144.103-.094.197.182L4.1 0l-.433-.397-.197.184-.103-.096.154-.144-.179-.168.085-.079zm0 .793v.615l.1-.102V.086h.106L3.291 0l-.085-.085H3.1v-.121zm.73.218-.015.084.015.085.091-.085z"/><path style="fill:#ffc72c" d="M3-1.083v.129l.271.253-.085.079.181.168-.109.102v-.122h-.131v.109l.343.319h.159l.016-.091h-.118l.141-.132.294.269-.294.269-.141-.131h.118L3.629.045H3.47l-.344.32v.109h.131V.352l.109.101-.181.168.085.081-.271.252v.129l.41-.381-.085-.081.179-.168-.154-.144.121-.112.197.184L4.081 0l-.413-.381-.197.184-.121-.112.154-.144-.179-.168L3.41-.7zM3-.29v.58l.088-.088V.074h.113L3.275 0l-.074-.074h-.113v-.128zm.739.224-.01.06.01.06.065-.06z"/></g><use height="100%" width="100%" y="109.207" xlink:href="#b" style="fill:#383739"/><use height="100%" width="100%" y="222.005" xlink:href="#b" style="fill:#383739"/><use height="100%" width="100%" y="334.802" xlink:href="#b" style="fill:#383739"/><use height="100%" width="100%" y="447.598" xlink:href="#b" style="fill:#383739"/><g transform="matrix(-1 0 0 1 377.996 0)" style="fill:#383739"><path d="M3-1.101v.163l.253.237-.085.079.181.168-.079.072v-.104h-.154v.125l.349.327h.177l.019-.115h-.102l.11-.103.276.252-.277.253-.11-.103h.102L3.641.034h-.177L3.115.36v.125h.154V.381l.079.072-.181.168.085.081-.253.235V1.1l.428-.399L3.342.62l.179-.168-.154-.144.103-.094.197.182L4.1 0l-.433-.397-.197.184-.103-.096.154-.144-.179-.168.085-.079zm0 .793v.615l.1-.102V.086h.106L3.291 0l-.085-.085H3.1v-.121zm.73.218-.015.084.015.085.091-.085z"/><path style="fill:#ffc72c" d="M3-1.083v.129l.271.253-.085.079.181.168-.109.102v-.122h-.131v.109l.343.319h.159l.016-.091h-.118l.141-.132.294.269-.294.269-.141-.131h.118L3.629.045H3.47l-.344.32v.109h.131V.352l.109.101-.181.168.085.081-.271.252v.129l.41-.381-.085-.081.179-.168-.154-.144.121-.112.197.184L4.081 0l-.413-.381-.197.184-.121-.112.154-.144-.179-.168L3.41-.7zM3-.29v.58l.088-.088V.074h.113L3.275 0l-.074-.074h-.113v-.128zm.739.224-.01.06.01.06.065-.06z"/><use height="100%" width="100%" y="109.207" xlink:href="#b"/><use height="100%" width="100%" y="222.005" xlink:href="#b"/><use height="100%" width="100%" y="334.802" xlink:href="#b"/><use height="100%" width="100%" y="447.598" xlink:href="#b"/></g><path d="M3.365 14.745c.022.095.097.166.115.264.036-.102.069-.188.044-.3-.018-.08-.085-.137-.093-.22-.073.066-.089.16-.067.255m-.019.397a.6.6 0 0 0 .245.195c-.019-.075.016-.131.056-.191.047-.071.07-.142.032-.224a.5.5 0 0 1-.07.115.34.34 0 0 0-.076.181c-.048-.036-.07-.089-.096-.141a.45.45 0 0 0-.176-.177c.019.083.034.171.086.242m.349.255a.4.4 0 0 0-.022.144c-.041-.044-.096-.078-.145-.113-.066-.054-.144-.092-.198-.16a.32.32 0 0 0 .133.244c.086.065.191.1.276.168-.013-.092.021-.165.05-.249a.23.23 0 0 0-.054-.223c.001.068-.021.126-.04.19m.194.309c.018.069.068.126.102.188-.092-.028-.172-.078-.255-.125-.099-.054-.206-.088-.295-.159.044.165.155.26.316.309.11.033.203.017.337.071a1 1 0 0 0-.085-.27c-.033-.059-.07-.117-.091-.182a.22.22 0 0 0-.028.169m.337.252a.4.4 0 0 0 .125.135c-.13.008-.235-.074-.362-.078-.078-.002-.153.022-.233.015.095.064.194.12.309.135.15.019.288-.018.454-.004-.077-.055-.116-.128-.164-.206-.063-.098-.122-.168-.244-.184.049.055.078.123.114.186m.462.216c-.229.039-.449.089-.683.092.262.091.509.108.769.014a.9.9 0 0 1 .354-.071c.155.011.343.072.552.292l.082-.066c-.299-.266-.69-.326-1.074-.261" style="fill:#ffc72c"/><path d="m3.563 1.954-.361-.221v-.532L3.563.98V.699l.341-.205h.272l.518-.291h1.112l.518.291h.272l.341.205V.98l.361.221v.532l-.361.221v.281l-.341.205h-.272l-.518.292H4.694l-.518-.291h-.272l-.341-.205z" style="fill:#383739"/><path style="fill:#00843d" d="m4.696.215-.518.291h-.271l-.333.2v.281l-.36.221v.518l.36.221v.282l.331.2h.272l.518.291h1.106l.518-.291h.272l.333-.2v-.282l.36-.221v-.518l-.36-.221V.706l-.333-.2h-.272L5.803.215zm.031.107h1.046l.518.291h.271l.252.152v.281l.362.221v.4l-.362.221v.281l-.252.152h-.271l-.518.291H4.727l-.518-.291h-.271l-.253-.152v-.281l-.36-.221v-.4l.36-.221V.765l.253-.152h.271z"/><path style="fill:#ffc72c" d="M5.244 1.473V.334H4.73l-.518.291h-.27l-.244.147v.281l-.361.221v.187h1.919V2.6h.514l.518-.291h.27l.244-.147v-.281l.361-.221v-.187z"/><path style="fill:#fff" d="M3.337 1.473v.187l.361.221v.281l.244.147h.27l.518.291h.514V1.461h1.919v-.187l-.361-.221V.772L6.558.625h-.27L5.77.334h-.514v1.139z"/><g id="d" style="fill:#383739"><g id="c"><path d="M4.124.73 4.035.647l-.088.054.089.083-.114.071h.249l.215.202.069-.072-.209-.197V.654z"/><path d="M4.544.694 4.455.611l-.088.054.089.083-.114.071h.249l.215.202.069-.072-.209-.197V.618zm-.451.274L4.004.885l-.088.054.089.083-.114.071h.249l.215.202.069-.073-.209-.197V.891z"/><path d="M5.25.322h-.225l-.118.113h-.229l-.169.088.039.096.151-.079h.066l.232.268.253-.154z"/><path style="fill:#d22630" d="m4.033.662.08.074-.067.041-.08-.074zm.2.014v.117l.204.192-.052.055-.209-.198h-.212zm.22-.05.08.074-.067.041-.08-.074zm.2.014v.117l.204.192-.052.055-.209-.198h-.212z"/><path style="fill:#d22630" d="m4.003.9.08.074-.067.041-.08-.074zm.2.014v.117l.204.192-.052.055-.209-.198h-.212zm1.041-.58H5.03l-.118.113h-.231l-.157.082.03.074.142-.075h.075L5 .792l.244-.149z"/></g><use height="100%" width="100%" transform="matrix(1 0 0 -1 0 105.623)" xlink:href="#c"/><path d="m3.974 1.103-.107-.04-.003.002-.138.096v.026l-.222.28.222.28v.026l.141.098.107-.04-.065-.043v-.082l.026-.031h.116V1.26h-.116l-.026-.031v-.083z"/><path style="fill:#d22630" d="m3.737 1.167.131-.091.08.03-.051.034v.093l.032.039h.11v.39h-.11l-.032.039v.093l.051.034-.08.03-.131-.091v-.024l-.218-.276.218-.276z"/></g><use height="100%" width="100%" transform="matrix(-1 0 0 1 377.994 0)" xlink:href="#d" style="fill:#383739"/><path d="m3.783 1.702-.06-.052v-.025l-.129-.158.129-.158v-.025l.06-.052.108.088h-.063l.092.094h.211l.166-.13V.941h.416l.483-.296V.567L5.122.518h-.023l-.08.054-.012.04-.063-.086.122-.103h.02l.138-.101h.052l.138.101h.02l.122.103-.063.086-.012-.04-.08-.054h-.023l-.074.049v.078l.483.296h.416v.343l.166.13h.211l.092-.094h-.063l.108-.088.06.052v.025l.13.158-.13.158v.025l-.06.052-.108-.088h.063L6.58 1.52h-.211l-.166.13v.343h-.416l-.484.296v.078l.074.049H5.4l.08-.054.012-.04.063.086-.122.103h-.02l-.138.101h-.052l-.138-.101h-.02l-.122-.103.063-.086.012.04.08.054h.023l.074-.049v-.078l-.483-.296h-.415v-.342l-.166-.13H3.92l-.092.094h.063z" style="fill:#383739"/><path style="fill:#ffc72c" d="m5.256 2.426.053.04-.053.04zm-.168.073h.002l.138.101h.016v-.079l-.072-.055.072-.055v-.148l-.516-.317h-.382v-.319l-.197-.154h-.297l-.075.084-.075-.084h-.088l.121.148v.024l.048.042.077-.06h-.045v-.015l.101-.103h.222l.174.136v.336h.407l.491.301v.091l-.082.055h-.031L5.01 2.37l-.007-.022-.042.058.11.093zM3.777 1.395l.059.067h-.118zM5.244.428l-.053.04.053.04zm1.42 1.045.059.066.059-.067zM5.41.435 5.272.334h-.016v.079l.072.055-.072.055v.148l.516.317h.382v.319l.197.154h.297l.075-.084.075.084h.088l-.121-.148v-.024l-.048-.042-.077.06h.045v.015l-.101.103h-.221l-.174-.136V.952h-.407L5.291.651V.56l.082-.055h.031l.087.058.007.022.042-.058-.11-.093z"/><path style="fill:#fff" d="m5.244 2.506-.053-.04.053-.04zM3.836 1.473l-.059.067-.059-.067zm1.576 1.026H5.41l-.138.101h-.016v-.079l.072-.055-.072-.055v-.148l.516-.317h.382v-.319l.197-.154h.297l.075.084.075-.084h.088l-.121.148v.024l-.048.042-.077-.06h.045v-.015l-.101-.103h-.221l-.174.136v.337h-.407l-.491.301v.091l.082.055h.031l.087-.058.007-.022.042.058-.11.093zm1.311-1.104-.059.067h.118zM5.09.435l.138-.101h.016v.079l-.072.055.072.055v.148l-.516.317h-.382v.318l-.197.154h-.297l-.075-.084-.075.084h-.088l.121-.148v-.024l.048-.042.077.06h-.045v.015l.101.103h.221l.174-.136V.953h.407l.491-.301V.561L5.127.506h-.031l-.087.058-.007.022L4.96.528l.11-.093zm.166.073.053-.04-.053-.04z"/><path style="fill:#00843d" d="M5.244 1.473V.686l-.513.315h-.373v.312l-.19.148h1.088v.787l.513-.315h.373v-.312l.19-.148z"/><path style="fill:#d22630" d="m4.168 1.473.19.148v.312h.373l.513.315v-.787h1.088l-.19-.148V1h-.373L5.256.685v.787z"/><path d="m4.698 1.085-.089-.083-.088.054.089.083-.114.071h.249l.215.202.069-.072-.209-.197v-.134zm1.104.764.089.083.088-.054-.089-.083.114-.071h-.249l-.215-.203-.069.073.209.197v.134zm-1.104 0-.089.083-.088-.054.089-.083-.114-.071h.249l.215-.203.069.073-.209.197v.134zm1.104-.764.089-.083.088.054-.089.083.114.071h-.249l-.215.202-.069-.072.209-.197v-.134z" style="fill:#383739"/><path style="fill:#d22630" d="m5.892 1.917-.08-.074.067-.041.08.074zm-.2-.014v-.117l-.204-.192.052-.055.209.198h.212zm-1.085-.886.08.074-.067.041-.08-.074zm.2.014v.117l.204.192-.052.055-.209-.198h-.212z"/><path style="fill:#00843d" d="m5.892 1.017-.08.074.067.041.08-.074zm-.2.014v.117l-.204.192.052.055.209-.198h.212zm-1.085.886.08-.074-.067-.041-.08.074zm.2-.014v-.117l.204-.192-.052-.055-.209.198h-.212z"/><path d="m5.802 1.467-.552.368-.552-.368.552-.368Z" style="fill:#383739"/><path style="fill:#fff" d="m5.244 1.118-.515.343h1.043l-.515-.343v.698l.515-.343H4.729l.515.343z"/><path d="M5.397 1.593v.101h-.295v-.101h-.191v-.252h.191V1.24h.295v.101h.191v.253z" style="fill:#383739"/><path style="fill:#d22630" d="M5.114 1.251v.101h-.191v.109h.321v-.21zm.142.21h.321v-.109h-.191v-.101h-.13zm-.332.012v.109h.191v.101h.13v-.21zm.333.21h.13v-.101h.191v-.109h-.321z"/><path d="M6.191 5.656v-.162h.444v-.162h.444V3.869h-.444v-.162h-.444v-.162h-.444v-.162h-.994v.162h-.444v.162h-.444v.162h-.444v1.463h.444v.162h.444v.162h.444v.162h.994v-.162Z" style="fill:#383739"/><path style="fill:#ffc72c;fill-opacity:1" d="M4.765 3.394v.162h-.444v.162h-.444v.162h-.445v1.44h.444v.162h.444v.162h.444v.162h.97v-.162h.444v-.162h.444V5.32h.444V3.88h-.444v-.162h-.444v-.162h-.444v-.162zm.118.118h.734v.162h.444v.162h.444v.162h.444v1.205h-.444v.162h-.444v.162h-.444v.162h-.734v-.162h-.444v-.162h-.444v-.162h-.444V3.998h.444v-.162h.444v-.162h.444z"/><path style="fill:#d22630" d="M4.45 5.514v-.162h-.444V5.19h-.444V4.009h.444v-.162h.444v-.162h.444v-.162h.711v.162h.444v.162h.444v.162h.444V5.19h-.444v.162h-.444v.162h-.444v.162h-.711v-.162z"/><path d="m4.553 3.806-.115-.087v.167l-.11.07v-.104l-.106.095-.106-.095v.105l-.122-.078v.155l-.099.071V4.01l-.117.085-.117-.085v.095l-.111-.08v.469h-.13v.213h.13v.469l.111-.08v.095l.117-.085.117.085v-.095l.099.071v.155l.122-.078v.105l.106-.095.106.095v-.105l.11.07v.167l.115-.087v.117l.113-.101.113.101v-.117l.103.078v.178l.154-.141v.165l.213-.137.213.137v-.165l.154.141v-.178l.103-.078v.117l.113-.101.113.101v-.117l.115.087v-.167l.11-.07v.105l.106-.095.106.095v-.105l.122.078v-.155l.099-.071v.095l.117-.085.117.085v-.095l.111.08v-.469h.129v-.213h-.13v-.469l-.111.08V4.01l-.117.085-.117-.085v.095l-.099-.071v-.155l-.122.078v-.105l-.106.095-.106-.095v.105l-.11-.07V3.72l-.115.087V3.69l-.113.101-.113-.101v.117l-.103-.078v-.178l-.154.141v-.165l-.213.137-.213-.137v.165l-.154-.141v.178l-.103.078V3.69l-.113.101-.113-.101z" style="fill:#383739"/><path d="M3.672 4.128v-.095l.105.076.004-.003.102-.074v.095l.111-.08v1.105l-.111-.08v.095l-.105-.076-.105.076v-.095l-.111.08v-.458h-.13v-.19h.13v-.457zm.893-.412.101.09.101-.09v.114l.115-.087v1.715l-.115-.087v.114l-.101-.09-.101.09v-.114l-.115.087V3.743l.115.087zm1.369 0-.101.09-.101-.09v.114l-.115-.087v1.715l.115-.087v.114l.101-.09.101.09v-.114l.115.087V3.743l-.115.087zm.893.412v-.095l-.105.076-.004-.003-.102-.074v.095l-.11-.08v1.105l.11-.08v.095l.105-.076.105.076v-.095l.11.08v-.458h.13v-.19h-.13v-.457z" style="fill:#00843d"/><path d="m4.128 3.878.094.084.094-.084v.1l.122-.078v1.4l-.122-.078v.099l-.094-.084-.094.084v-.099l-.122.078V3.9l.122.078zm.921-.161-.154-.141v2.047l.154-.141v.17l.201-.129.201.129v-.17l.154.141V3.576l-.154.141v-.17l-.201.129-.201-.129zm1.322.161-.094.084-.094-.084v.1L6.061 3.9v1.4l.122-.078v.099l.094-.084.094.084v-.099l.122.078V3.9l-.122.078z" style="fill:#ffc72c"/><g id="f" style="fill:#383739"><g id="e"><path d="M3.73 4.399q.02.02.048.02a.07.07 0 0 0 .048-.02c.042-.042.044-.119.043-.175l-.058.061-.034-.058-.034.058-.058-.061c0 .055.001.132.043.175m.466-.119-.036-.035v-.071l-.082.076.146.145.146-.146-.082-.076v.071l-.036.035v-.125l.063-.054-.092-.079-.092.079.063.054zm.444-.141-.036-.036v-.071l-.082.076.146.146.146-.146-.082-.076v.071l-.036.036v-.125l.063-.054-.092-.079-.092.079.063.054z"/><path style="fill:#fff" d="m3.778 4.251.031.054.047-.05c-.002.063-.015.112-.039.136q-.017.017-.039.017c-.022 0-.028-.006-.039-.017-.024-.024-.038-.073-.039-.136l.047.05zm.905-.242v.16l.059-.059v-.048l.053.049-.129.129-.129-.129.053-.049v.048l.059.059v-.16l-.057-.049.073-.063.073.063z"/><path style="fill:#d22630" d="M4.239 4.149v.16l.059-.059v-.048l.053.049-.129.129-.129-.129.053-.049v.048l.059.059v-.16L4.148 4.1l.073-.063.073.063z"/></g><use height="100%" width="100%" transform="matrix(-1 0 0 1 377.996 0)" xlink:href="#e"/><path d="m5.425 4.193-.048-.066.123-.113-.114-.094v.067l-.048.041v-.121l.108-.08-.195-.144-.195.144.108.08v.121l-.048-.041V3.92l-.114.094.123.113-.048.066z"/><path style="fill:#d22630" d="m5.099 4.181.04-.056-.12-.111.084-.069v.047l.072.061v-.152l-.1-.074.175-.129.175.129-.1.074v.152l.072-.061v-.047l.084.069-.12.111.04.056z"/><path d="m5.161 3.827.089.066.089-.066-.089-.066-.004.003z"/><path style="fill:#00843d" d="m5.25 3.776.069.051-.069.051-.069-.051z"/></g><use height="100%" width="100%" transform="matrix(1 0 0 -1 0 331.216)" xlink:href="#f" style="fill:#383739"/><path d="M6.831 4.532h-.195v-.078h-.598l-.416-.273h-.743l-.416.273h-.598v.078h-.196v.137h.195v.078h.598l.416.273h.743l.416-.273h.598v-.078h.196z" style="fill:#383739"/><path style="fill:#d22630" d="m4.882 4.193-.416.272h-.588v.078h-.196v.113h.196v.078h.589l.416.274h.737l.415-.274h.59v-.078h.196v-.113h-.196v-.078h-.59l-.415-.272Zm.009.04h.718l.381.25v.038h.425v.159H5.99v.038l-.381.249h-.718l-.38-.249V4.68h-.427v-.159h.427v-.038z"/><path style="fill:#d22630" d="m5.606 4.245.372.244v.043h.426v.136h-.426v.043l-.372.244h-.711l-.372-.244v-.043h-.426v-.136h.426v-.043l.372-.244z"/><g style="fill:#383739"><path d="m4.71 4.739.161.121.106-.08-.062-.046-.044.033-.038-.028.606-.455h-.123zm.351.178h.123l.606-.455-.161-.121-.106.079.062.046.044-.033.038.028zm.255 0h.123l-.606-.455.038-.028.044.033.062-.046-.106-.079-.161.121zm.351-.178-.038.028-.044-.033-.062.046.106.08.161-.121-.606-.455h-.123zM4.588 4.6l.108.072.108-.072-.108-.072z"/><path d="m5.142 4.6.108.072.108-.072-.108-.072zm.77 0-.108.072-.108-.072.108-.072z"/><path style="fill:#ffc72c" d="m5.77 4.739-.141.106-.086-.065.042-.031.044.033.058-.043-.59-.443h.083zm-.367.166H5.32l-.59-.443.141-.106.086.065-.042.031-.044-.033-.058.043zm-.223 0h-.083l.59-.443-.058-.043-.044.033-.042-.031.086-.065.141.106zm.14-.609h.083l-.59.443.058.043.044-.033.042.031-.086.065-.141-.106z"/><path style="fill:#00843d" d="m4.696 4.543.087.058-.087.058-.087-.057zm.554 0 .087.058-.087.058-.087-.057zm.554 0-.087.058.087.058.087-.057z"/></g><g style="fill:#383739"><path d="m3.348 7.615-.042.06.076.058-.076.058.042.06.088.01.086-.066.213.136v-.113l-.134-.085.134-.085v-.113l-.213.136-.086-.066z"/><path d="m3.348 7.224-.042.06.076.058-.076.058.042.06.088.01.086-.066.213.136v-.113l-.134-.085.134-.085v-.113l-.213.136-.086-.066zm0 1.019-.042-.06.076-.058-.076-.058.042-.06.088-.01.086.066.213-.136v.113l-.134.085.134.085v.113l-.213-.136-.086.066zm3.804-.628.042.06-.076.058.076.058-.042.06-.088.01-.086-.066-.213.136v-.113l.134-.085-.134-.085v-.113l.213.136.086-.066z"/><path d="m7.152 7.224.042.06-.076.058.076.058-.042.06-.088.01-.086-.066-.213.136v-.113l.134-.085-.134-.085v-.113l.213.136.086-.066zm0 1.019.042-.06-.076-.058.076-.058-.042-.06-.088-.01-.086.066-.213-.136v.113l.134.085-.134.085v.113l.213-.136.086.066zm-.854-1.695v.163h.118v.072h.116v-.131h-.104v-.104Zm.349.257v.163h.118v.072h.116v-.131h-.104v-.104zm-2.445-.257v.163h-.118v.072h-.116v-.131h.104v-.104Zm2.096 2.371v-.163h.118v-.072h.116v.131h-.104v.104zm-2.096 0v-.163h-.118v-.072h-.116v.131h.104v.104zm2.445-.257v-.163h.118v-.072h.116v.131h-.104v.104zM3.853 6.805v.163h-.118v.072h-.116v-.131h.104v-.104zm0 1.857v-.163h-.118v-.072h-.116v.131h.104v.104zm1.835-2.118-.09-.088-.089.082.077.075-.1.097h.148l.053-.052.053.052h.148l-.1-.097.077-.075-.089-.082-.09.088m-.436 0-.09-.088-.089.082.077.075-.1.097h.148l.053-.052.053.052h.148l-.1-.097.077-.075-.089-.082-.09.088m-.436 0 .09-.088.089.082-.077.075.1.097h-.148l-.053-.052-.053.052h-.148l.1-.097-.077-.075.089-.082.09.088m.874 2.379-.09.088-.089-.082.077-.075-.1-.097h.148l.053.052.053-.052h.148l-.1.097.077.075-.089.082-.09-.088m-.436 0-.09.088-.089-.082.077-.075-.1-.097h.148l.053.052.053-.052h.148l-.1.097.077.075-.089.082-.09-.088m-.436 0 .09.088.089-.082-.077-.075.1-.097h-.148l-.053.052-.053-.052h-.148l.1.097-.077.075.089.082.09-.088"/></g><path d="M3.723 7.825v.084l-.202-.128-.088.068-.078-.009-.033-.046.079-.061-.079-.061.033-.046.078-.009.088.068.202-.128v.084l-.145.092zm0-.391v.084l-.202-.128-.088.068-.078-.009-.033-.046.079-.061-.079-.061.033-.046.078-.009.088.068.202-.128v.084l-.145.092zm0 .599v-.084l-.202.128-.088-.068-.078.009-.033.046.079.061-.079.061.033.046.078.009.088-.068.202.128v-.084l-.145-.092zm3.054-.208v.084l.202-.128.088.068.078-.009.033-.046-.079-.061.079-.061-.033-.046-.078-.009-.088.068-.202-.128v.084l.145.092zm0-.391v.084l.202-.128.088.068.078-.009.033-.046-.079-.061.079-.061-.033-.046-.078-.009-.088.068-.202-.128v.084l.145.092zm0 .599v-.084l.202.128.088-.068.078.009.033.046-.079.061.079.061-.033.046-.078.009-.088-.068-.202.128v-.084l.145-.092zm-.36-1.473v.104h.104v.107h-.092v-.072h-.118V6.56zm.349.256v.104h.104v.107h-.092v-.072H6.66v-.139zM4.083 6.56v.104h-.104v.107h.092v-.072h.118V6.56zm2.334 2.347v-.104h.104v-.107h-.092v.072h-.118v.139zm-2.334 0v-.104h-.104v-.107h.092v.072h.118v.139zm2.683-.256v-.104h.104V8.44h-.092v.072H6.66v.139zM3.734 6.816v.104H3.63v.107h.092v-.072h.118v-.139zm0 1.835v-.104H3.63V8.44h.092v.072h.118v.139zm1.863-2.178.09.088.09-.088.071.066-.077.075.088.085h-.114l-.058-.056-.058.056h-.114l.088-.085-.077-.075zm-.438 0 .09.088.09-.088.071.066-.077.075.088.085h-.114l-.058-.056-.058.056h-.114l.087-.085-.077-.075zm-.256 0-.09.088-.09-.088-.071.066.077.075-.088.085h.114l.058-.056.058.056h.114l-.088-.085.077-.075zm.694 2.521.09-.088.09.088.071-.066-.077-.075.088-.085h-.114l-.058.056-.058-.056h-.114l.088.085-.077.075zm-.438 0 .09-.088.09.088.071-.066-.077-.075.088-.085h-.114l-.058.056-.058-.056h-.114l.087.085-.077.075zm-.256 0-.09-.088-.09.088-.071-.066.077-.075-.088-.085h.114l.058.056.058-.056h.114l-.088.085.077.075z" style="fill:#00843d"/><path d="M4.072 8.512v.257h2.357v-.257h.349V6.956h-.349V6.7H4.072v.257h-.349v1.556z" style="fill:#383739"/><path style="fill:#ffc72c;fill-opacity:1" d="M4.084 6.71v.256h-.349v1.533h.349v.256h2.332v-.256h.349V6.966h-.349V6.71zm.15.099h2.032v.247l.084.062h.316v1.231h-.318l-.082.06v.249H4.234v-.247l-.084-.062h-.318V7.118h.316l.085-.062z"/><path style="fill:#d22630" d="M4.246 6.821v.227l.306-.227zm1.701 0 .306.227v-.227Zm-2.101.309v.212l.288-.212zm2.519 0 .29.213V7.13zm.29.993-.29.215h.29zm-2.809.001v.213h.288zm.4.296v.225h.305zm2.007 0-.305.225h.305z"/><path style="fill:#00843d" d="m5.927 6.821.727.537v.75l-.727.537H4.573l-.727-.537v-.75l.727-.537z"/><path d="m4.019 8.195-.084-.097.079-.091-.079-.091.079-.091-.079-.091.079-.091-.079-.091.079-.091-.079-.091.084-.097h2.463l.084.097-.079.091.079.091-.079.091.079.091-.079.091.079.091-.079.091.079.091-.084.097zm1.693-1.257-.097-.084-.091.079-.091-.079-.091.079-.091-.079-.091.079-.091-.079-.091.079-.091-.079-.097.084v1.59l.097.084.091-.079.091.079.091-.079.091.079.091-.079.091.079.091-.079.091.079.097-.084z" style="fill:#383739"/><g style="fill:#ffc72c"><path d="m5.517 6.944-.085-.073-.085.073v1.579l.085.073.085-.073zm-.364 0-.085-.073-.085.073v1.579l.085.073.085-.073z"/><path d="m4.024 8.183-.073-.085.073-.085h2.452l.073.085-.073.085zm2.452-.535.073.085-.073.085H4.024l-.073-.085.073-.085zm0-.194.073-.085-.073-.085H4.024l-.073.085.073.085z"/></g><g style="fill:#d22630"><path d="m5.7 6.944-.085-.073-.085.073v1.579l.085.073.085-.073zm-.729 0-.085-.073-.085.073v1.579l.085.073.085-.073z"/><path d="m4.024 8.001-.073-.085.073-.085h2.452l.073.085-.073.085zm0-.365-.073-.085.073-.085h2.452l.073.085-.073.085z"/><path d="m5.335 8.523-.085.073-.085-.073V6.944l.085-.073.085.073z"/></g><path d="M6.073 6.975H4.421v.131H4.21v1.255h.211v.131h1.658v-.131h.211V7.106h-.211v-.131Z" style="fill:#383739"/><path style="fill:#d22630" d="M4.433 6.987v.131h-.212v1.231h.212v.131h.174l-.346-.29v-.913l.346-.29zm1.461 0 .344.29v.914l-.344.29h.174V8.35h.21V7.118h-.21v-.131z"/><g style="fill:#00843d"><path d="m4.626 6.987-.353.296v.902l.353.296h1.249l.352-.296v-.902l-.352-.296zm.018.05h1.212l.321.269v.855l-.321.268H4.643l-.319-.268v-.855z"/><path d="m4.964 8.175.054.023.01.063-.068.06.099.096h-.095l-.068-.066-.068.066h-.096l.099-.096-.068-.06.01-.063.054-.023.069.055.004-.003zm.355 0 .054.023.01.063-.068.06.099.096h-.095l-.068-.066-.068.066h-.096l.099-.096-.068-.06.01-.063.054-.023.069.055.004-.003zm.216 0-.054.023-.01.063.068.06-.099.096h.095l.068-.066.068.066h.096l-.099-.096.068-.06-.01-.063-.054-.023-.069.055-.004-.003zm-.571-.883.054-.023.01-.063-.068-.06.099-.096h-.095l-.068.066-.068-.066h-.096l.099.096-.068.06.01.063.054.023.069-.055.004.003zm.355 0 .054-.023.01-.063-.068-.06.099-.096h-.095l-.068.066-.068-.066h-.096l.099.096-.068.06.01.063.054.023.069-.055.004.003zm.216 0-.054-.023-.01-.063.068-.06-.099-.096h.095l.068.066.068-.066h.096l-.099.096.068.06-.01.063-.054.023-.069-.055-.004.003zm.629.102-.054.045.054.045v.074l-.083-.069-.06.054-.064-.008-.023-.042.055-.055-.055-.055.023-.042.064-.008.06.054.083-.069zm0 .295-.054.045.054.045v.074l-.083-.069-.06.054-.064-.008-.023-.042.055-.055-.055-.055.023-.042.064-.008.06.054.083-.069zm0 .384-.054-.045.054-.045v-.074l-.083.069-.06-.054-.064.008-.023.042.055.055-.055.055.023.042.064.008.06-.054.083.069zm-1.828-.679.054.045-.054.045v.074l.083-.069.06.054.064-.008.023-.042-.055-.055.055-.055-.023-.042-.064-.008-.06.054-.083-.069zm0 .295.054.045-.054.045v.074l.083-.069.06.054.064-.008.023-.042-.055-.055.055-.055-.023-.042-.064-.008-.06.054-.083-.069zm0 .384.054-.045-.054-.045v-.074l.083.069.06-.054.064.008.023.042-.055.055.055.055-.023.042-.064.008-.06-.054-.083.069z"/></g><path style="fill:#d22630" d="m4.648 7.049-.307.257.078.066.057-.052.075.01.029.054-.053.053.053.053-.029.054-.075.009-.057-.05-.082.069v.024l.082.069.057-.05.075.009.029.054-.053.053.053.053-.029.056-.075.009-.057-.051-.082.069v.025l.082.069.057-.051.075.01.029.054-.053.053.053.053-.029.054-.075.01-.057-.051-.078.065.307.257h.068l.099-.096-.063-.056.012-.077.066-.028.068.053.066-.053.066.028.013.077-.065.056.096.091.096-.091-.065-.056.012-.077.068-.028.066.053.068-.053.066.028.012.077-.063.056.094.093.096-.093-.063-.056.012-.077.068-.028.066.053.066-.053.068.028.012.077-.063.056.099.096h.066l.307-.257-.078-.065-.056.051-.075-.01-.031-.054.053-.053-.053-.053.031-.054.075-.01.056.051.082-.069v-.025l-.082-.069-.056.051-.075-.009-.031-.056.053-.053-.053-.053.031-.054.075-.009.056.05.082-.068v-.026l-.082-.068-.056.05-.075-.009-.031-.054.053-.053-.053-.053.031-.054.075-.01.056.051.079-.065-.309-.259h-.066l-.099.096.063.056-.012.076-.068.029-.066-.053-.066.053-.068-.029-.012-.076.063-.056-.094-.091-.096.091.063.056-.012.076-.066.029-.068-.053-.066.053-.068-.029-.012-.076.065-.056-.096-.091-.096.091.065.056-.013.076-.066.029-.066-.053-.068.053-.066-.029-.012-.076.063-.056-.1-.096zm-.312.655v.06l.035-.031z"/><path d="m4.896 8.369-.051.049h.101zm.354 0-.05.049h.101zm.354 0-.051.049h.103zm-.761-1.32.053.05.051-.05zm.355 0 .051.05.053-.05zm.355 0 .051.05.051-.05zm.61.36-.035.029.035.028zm0 .295-.035.029.035.029zm0 .295-.035.029.035.029zm-1.827-.591v.06l.035-.029zm0 .296v.06l.035-.031zm0 .294v.06l.035-.029z" style="fill:#fff"/><g style="fill:#383739"><path d="M5.553 7.635V7.53h-.107v-.115h-.393v.115h-.107v.105h-.147v.197h.147v.105h.107v.116h.393v-.115h.107v-.105H5.7v-.197z"/><path style="fill:#ffc72c" d="M5.244 7.426v.119l-.169.096v.087h-.263v-.081h.147v-.105h.107v-.115zm.012.615v-.119l.169-.096v-.087h.263v.081h-.147v.105h-.107v.115z"/><path style="fill:#fff" d="M5.425 7.728v-.087l-.169-.096v-.119h.178v.115h.107v.105h.147v.081zm-.613.011h.263v.087l.169.096v.119h-.178v-.115h-.107v-.105h-.147z"/><path style="fill:#d22630" d="M5.087 7.739v.08l.157.089v-.169z"/><path style="fill:#00843d" d="m5.244 7.558-.157.089v.08h.157z"/><path style="fill:#d22630" d="M5.413 7.728v-.08l-.157-.089v.169z"/><path style="fill:#00843d" d="m5.256 7.909.157-.089v-.08h-.157z"/></g><path d="M3.824 9.826v.325h-.31v.295H3.2v.841h.314v.295h.31v.325h1.128l.198.119-.095.057h-.402l-.035-.039h.364l-.103-.103h-.521l.236.246h.489l.167-.1.167.1h.489l.236-.246h-.521l-.103.103h.364l-.035.039h-.402l-.095-.057.198-.119h1.128v-.325h.31v-.295H7.3v-.841h-.314v-.295h-.31v-.325H5.548l-.198-.119.095-.057h.402l.035.039h-.364l.103.103h.521l-.236-.246h-.489l-.167.1-.167-.1h-.489l-.236.246h.521l.103-.103h-.364l.035-.039h.402l.095.057-.198.119z" style="fill:#d22630;fill-opacity:1"/><path style="fill:#ffc72c;fill-opacity:1" d="M5.545 11.895h1.12v-.325h.309v-.296h.315v-.817h-.315v-.294h-.309v-.325h-1.12l-.465-.281h-.481l-.213.222h.488l.079-.079H4.59l.056-.063h.412l.527.318h.962v.325h.31v.296h.315v.583h-.315v.296h-.31v.325h-.962l-.527.316h-.412l-.056-.062h.363l-.079-.079h-.488l.213.222h.481zm-.631-.116h-.962v-.325h-.309v-.296h-.315v-.583h.315v-.296h.309v-.325h.962l.528-.318h.411l.056.063h-.362l.079.079h.488l-.213-.222H5.42l-.465.281h-1.12v.325h-.31v.294H3.21v.817h.315v.296h.31v.325h1.12l.465.281h.481l.213-.222h-.488l-.079.079h.362l-.056.062h-.41z"/><path style="fill:none" d="m5.25 9.766-.333.2h-.953v.326h-.309v.296H3.34v.559h.315v.296h.309v.325h.953l.333.199.333-.199h.953v-.325h.31v-.296h.315v-.559h-.315v-.296h-.31v-.325h-.953zm0 .082.313.188h.903v.325h.31v.294h.313v.419h-.313v.296h-.31v.325h-.903l-.313.188-.312-.188h-.903v-.325h-.31v-.294H3.41v-.419h.315v-.294h.31v-.325h.903z"/><path style="fill:#00843d" d="M6.454 11.36v.325H5.56l-.31.186-.31-.186h-.894v-.325h-.31v-.295h-.314v-.396h.314v-.295h.31v-.325h.894l.31-.186.31.186h.894v.325h.31v.295h.314v.396h-.314v.295z"/><g style="fill:#383739"><path d="M4.163 11.246v.315h.492l-.492-.326zm0-.758v-.315h.492l-.492.326zm2.174.758v.315h-.492l.492-.326zm0-.758v-.315h-.492l.492.326z"/><path style="fill:#d22630" d="m4.175 11.257.44.292h-.44Zm0-.78.44-.292h-.44Zm2.15.78-.44.292h.44zm0-.78-.44-.292h.44z"/></g><g id="g" style="fill:#383739"><path d="M4.79 10.78v-.161h-.055l-.263-.165-.003.002-.26.163h-.055v.161H4.03v.173h.124v.161h.055l.263.165.263-.165h.055v-.161h.188v-.173z"/><path style="fill:#d22630" d="m4.472 10.469.241.151h-.482Zm.241.645-.241.151-.241-.151zm-.059-.322v.149h-.3v-.149z"/><path d="M4.778 10.953v.149h-.3v-.149zm-.312 0v.149h-.3v-.149zm.501-.161v.149h-.301v-.149zm-.625 0v.149h-.3v-.149zm.436-.161v.149h-.3v-.149zm-.312 0v.149h-.3v-.149z" style="fill:#ffc72c"/><path d="M4.26 10.825v.083h-.135v-.083zm.123-.16v.083h-.135v-.083zm.313 0v.083h-.135v-.083zm-.124.16v.083h-.135v-.083zm.312 0v.083h-.135v-.083zm-.188.161v.083h-.135v-.083zm-.313 0v.083h-.135v-.083z"/><path d="M4.247 10.838h-.109v.057h.109zm.124-.161h-.109v.057h.109zm.312 0h-.109v.057h.109zm-.124.161H4.45v.057h.109zm.312 0h-.109v.057h.109zm-.188.161h-.109v.057h.109zm-.312 0h-.109v.057h.109z" style="fill:#fff"/></g><use height="100%" width="100%" transform="matrix(-1 0 0 1 377.995 0)" xlink:href="#g" style="fill:#383739"/><g id="h" style="fill:#383739"><path d="M5.568 10.512v.161h-.055l-.263.165-.003-.002-.26-.163h-.055v-.161h-.156v-.173h.156v-.161h.055l.263-.165.263.165h.055v.161h.156v.173z"/><path style="fill:#ffc72c" d="m5.25 10.823.241-.151h-.482Zm.241-.645-.241-.151-.241.151z"/><path d="M5.556 10.339v-.149h-.3v.149Zm-.312 0v-.149h-.3v.149Zm.468.161v-.149h-.3v.149zm-.312 0v-.149h-.3v.149zm-.312 0v-.149h-.3v.149zm.468.161v-.149h-.3v.149zm-.312 0v-.149h-.3v.149z" style="fill:#d22630"/><path d="M5.161 10.223v.083h-.135v-.083Zm.312 0v.083h-.135v-.083Zm-.468.161v.083H4.87v-.083Zm.312 0v.083h-.135v-.083Zm.313 0v.083h-.135v-.083Zm-.469.161v.083h-.135v-.083zm.312 0v.083h-.135v-.083z"/><path d="M5.149 10.236H5.04v.057h.109zm.312 0h-.109v.057h.109zm-.468.161h-.109v.057h.109zm.312 0h-.109v.057h.109zm.312 0h-.109v.057h.109zm-.468.16H5.04v.057h.109zm.312 0h-.109v.057h.109z" style="fill:#fff"/></g><use height="100%" width="100%" y="31.788" xlink:href="#h" style="fill:#383739"/><path d="m3.547 13.315 1.168-.629h1.071l1.168.629v1.036l-1.168.629H4.715l-1.168-.629Z" style="fill:#383739"/><path style="fill:#00843d" d="m4.718 12.699-1.159.624v1.021l1.159.624h1.064l1.159-.624v-1.022l-1.159-.624zm.021.084h1.023l1.098.59v.922l-1.098.59H4.739l-1.098-.59v-.922z"/><path style="fill:#ffc72c" d="M5.256 13.827v1.046h.503l1.088-.586v-.448H5.244v-1.046h-.503l-1.088.586v.448z"/><path style="fill:#fff" d="M5.244 13.827v1.046h-.503l-1.088-.586v-.448h1.603v-1.046h.503l1.088.586v.448z"/><path d="M5.348 14.814v-.302l-.098.062-.098-.062v.302h-.304l.205-.15v-.215l-.313-.198h-.219v-.835h.219l.313-.198v-.215l-.205-.15h.304v.302l.098-.062.098.062v-.302h.304l-.205.15v.215l.313.198h.219v.835H5.76l-.313.198v.215l.205.15z" style="fill:#383739"/><path style="fill:#ffc72c" d="M5.36 12.865v.312l-.104-.066v.088l.478.304h.157v.324h.075v-.4h-.21l-.321-.203v-.227l.181-.132zm-.825.974v.4h.209l.322.204v.227l-.181.132h.256v-.312l.103.066v-.091l-.478-.302H4.61v-.325z"/><path style="fill:#fff" d="m4.885 12.865.181.132v.227l-.322.203h-.209v.4h.075v-.324h.156l.478-.303v-.09l-.103.066v-.312zm1.006.974v.325h-.157l-.478.302v.091l.104-.066v.312h.256l-.181-.132v-.227l.321-.204h.21v-.4z"/><path style="fill:#d22630" d="M4.621 14.152h.148l.481.305.481-.305h.148v-.637h-.148l-.481-.305-.481.305h-.148z"/><path d="M5.583 13.985h.103v-.049h-.077v-.088h.165v.225h-.158v.154H5.29v-.221h.143v.088h-.056v.044h.15v-.084l-.61-.372h-.103v.049h.077v.088h-.165v-.225h.158v-.154h.326v.221h-.143v-.088h.056v-.044h-.15v.084zm-.056-.372v-.084h-.15v.044h.056v.088H5.29v-.221h.326v.154h.158v.225h-.165v-.088h.077v-.049h-.103l-.61.372v.084h.15v-.044h-.055v-.088h.143v.221h-.326v-.154h-.158v-.225h.165v.088h-.077v.049h.103z" style="fill:#383739"/><path style="fill:#fff" d="M5.539 14.047v.103h-.174v-.068h.056v-.064h-.12v.197h.302v-.154h.158v-.201H5.62v.064h.077v.072h-.118l-.619-.377v-.103h.174v.068h-.056v.064h.12v-.197h-.302v.154h-.158v.201h.141v-.064h-.077v-.072h.118zm.04-.377h.118v.072H5.62v.064h.141v-.201h-.158v-.154h-.302v.197h.12v-.064h-.056v-.068h.174v.103l-.619.377h-.118v-.072h.077v-.064h-.141v.201h.158v.154h.302v-.197h-.12v.065h.056v.068H4.96v-.103z"/><path d="M6.612 13.886v.327h-.139v-.115h-.14v.115h-.139v-.327h.139v.115h.14v-.115zm-.497.433v.327h-.139v-.115h-.14v.115h-.139v-.327h.139v.115h.14v-.115zm.497-.538v-.327h-.139v.115h-.14v-.115h-.139v.327h.139v-.115h.14v.115zm-2.724.105v.327h.139v-.115h.14v.115h.139v-.327h-.139v.115h-.14v-.115zm0-.105v-.327h.139v.115h.14v-.115h.139v.327h-.139v-.115h-.14v.115zm2.227-.434v-.327h-.139v.115h-.14v-.115h-.139v.327h.139v-.115h.14v.115zm-1.73.972v.327h.139v-.115h.14v.115h.139v-.327h-.139v.115h-.14v-.115zm0-.972v-.327h.139v.115h.14v-.115h.139v.327h-.139v-.115h-.14v.115zm1.813-.229v.248h.461zm-1.896 1.43V14.3h-.461zm0-1.43v.248h-.461zm1.896 1.43V14.3h.461z" style="fill:#383739"/><path d="M6.485 14.085v.115H6.6v-.303h-.115v.115h-.164v-.115h-.115v.303h.115v-.115zm-.497.434v.115h.115v-.303h-.115v.115h-.164v-.115h-.115v.303h.115v-.115zm.497-.937v-.115H6.6v.303h-.115v-.115h-.164v.115h-.115v-.304h.115v.115zm-2.47.503v.115H3.9v-.303h.115v.115h.164v-.115h.115v.303h-.115v-.115zm0-.503v-.115H3.9v.303h.115v-.115h.164v.115h.115v-.304h-.115v.115zm1.973-.434v-.115h.115v.303h-.115v-.115h-.164v.115h-.115v-.303h.115v.115zm-1.476 1.371v.115h-.115v-.303h.115v.115h.164v-.115h.115v.303h-.115v-.115zm0-1.371v-.115h-.115v.303h.115v-.115h.164v.115h.115v-.303h-.115v.115z" style="fill:#d22630"/><path style="fill:#ffc72c" d="M6.21 13.138v.216h.402zm-2.322 1.174.402.216v-.216z"/><path style="fill:#fff" d="m4.29 13.138-.402.216h.402zm1.92 1.174v.216l.402-.216z"/><path style="fill:#ffc72c" d="M7.136 14.745c-.022.095-.097.166-.115.264-.036-.102-.069-.188-.044-.3.018-.08.085-.137.093-.22.073.066.089.16.067.255m.019.397a.6.6 0 0 1-.245.195c.019-.075-.016-.131-.056-.191-.047-.071-.07-.142-.032-.224a.5.5 0 0 0 .07.115.34.34 0 0 1 .076.181c.048-.036.07-.089.096-.141a.45.45 0 0 1 .176-.177c-.019.083-.034.171-.086.242m-.349.255a.4.4 0 0 1 .022.144c.041-.044.096-.078.145-.113.066-.054.144-.092.198-.16a.32.32 0 0 1-.133.244c-.086.065-.191.1-.276.168.013-.092-.021-.165-.05-.249a.23.23 0 0 1 .054-.223c-.001.068.021.126.04.19m-.194.309c-.018.069-.068.126-.102.188.092-.028.172-.078.255-.125.099-.054.206-.088.295-.159-.044.165-.155.26-.316.309-.11.033-.203.017-.337.071a1 1 0 0 1 .085-.27c.033-.059.07-.117.091-.182.03.053.044.108.028.169m-.337.252a.4.4 0 0 1-.125.135c.13.008.235-.074.362-.078.078-.002.153.022.233.015a.7.7 0 0 1-.309.135c-.15.019-.288-.018-.454-.004.077-.055.116-.128.164-.206.063-.098.122-.168.244-.184-.049.055-.078.123-.114.186m-.462.216c.229.039.449.089.683.092-.262.091-.509.108-.769.014a.9.9 0 0 0-.354-.071c-.155.011-.343.072-.552.292l-.082-.066c.299-.266.69-.326 1.074-.261"/></svg>