<svg xmlns="http://www.w3.org/2000/svg" xmlns:xlink="http://www.w3.org/1999/xlink" width="25" height="12.5" viewBox="-0.583 -0.938 3.75 1.875" fill="#fcd116"><path fill="#0038a8" d="M-.583-.938h3.75V0L0 .917z"/><path fill="#ce1126" d="M0 0h3.167v.938h-3.75z"/><path fill="#fff" d="M1.04 0-.583.938V-.937z"/><g id="c"><g id="b"><path id="a" d="m0 0-.066-.331.02-.02zl-.024-.371L0-.396l.024.024zl.046-.351.02.02z"/><use transform="scale(-1)" xlink:href="#a"/></g><use transform="rotate(90)" xlink:href="#b"/></g><use transform="rotate(45)" xlink:href="#c"/><path id="d" d="M.853 0 .782.024.78.099.735.04.664.062.707 0 .664-.061l.071.022.045-.059.002.075z"/><use transform="rotate(120 -2.019 0)" xlink:href="#d"/><use transform="rotate(240 -2.019 0)" xlink:href="#d"/></svg>