<svg xmlns="http://www.w3.org/2000/svg" viewBox="0 0 25 18.75" width="25" height="18.75"><g fill-rule="evenodd"><path fill="#e30a17" d="M0 0h25v18.75H0z"/><path fill="#fff" d="M15.898 9.668c0 2.586-2.133 4.684-4.766 4.684s-4.766-2.098-4.766-4.688 2.133-4.68 4.766-4.68 4.766 2.098 4.766 4.684"/><path fill="#e30a17" d="M16.133 9.668c0 2.07-1.703 3.746-3.809 3.746s-3.813-1.68-3.813-3.75 1.707-3.742 3.813-3.742 3.813 1.676 3.813 3.746z"/><path fill="#fff" d="m16.824 7.48-.039 1.73-1.613.438 1.594.566-.039 1.59 1.035-1.242 1.57.547-.906-1.332 1.105-1.324-1.699.469-1.008-1.445z"/></g></svg>