<svg xmlns="http://www.w3.org/2000/svg" height="16.667" width="25" viewBox="0 0 25 16.667"><path d="M0 0h12.5v16.667H0z"/><path fill-rule="evenodd" fill="#039" d="M12.5 0H25v16.667H12.5z"/><path fill-rule="evenodd" fill="#FFF" d="M12.5 5.556H25v5.555H12.5z"/><path fill="#FFF" d="M0 0h12.5v5.729H0z"/><path fill="#007168" d="M0 0h12.5v5.208H0z"/><path fill="#FFF" d="M0 10.931h12.5v5.736H0z"/><path fill="#fce100" d="M0 11.458h12.5v5.209H0z"/><path d="M8.156 10.861c-.312-.088-.71-.38-.71-.521 0-.205.686-.638 1.207-.763.632-.151.94-.15 1.445.003.26.079.584.144.721.144.25.001.793-.214.793-.313 0-.107-1.008-.418-2.199-.677-2.812-.612-3.173-.65-3.733-.396-.473.215-.846.257-1.205.138-.245-.081-.308-.14-.308-.287 0-.326.43-.424 1.884-.428 1.297-.004 1.463-.045 1.247-.305-.102-.123-.038-.185.434-.423.39-.197.532-.205.626-.037.103.183.268.059.168-.127-.089-.166-.074-.18.39-.341.448-.156.69-.156.69 0 0 .067.043.107.096.089s.086-.104.074-.191c-.018-.127.049-.183.342-.282.386-.132.722-.162.724-.066.005.266.385.286.385.021 0-.15.277-.233.781-.233.248 0 .299.027.299.154q0 .154.154.154c.154 0 .154-.051.154-.154 0-.137.051-.154.444-.153.499.001.681.079.612.261q-.046.122.073.123c.066 0 .139-.07.161-.156.043-.164.059-.164.871-.005.238.047.267.078.245.261-.03.252.18.294.257.051.054-.17.097-.167.72.061.308.113.331.14.291.341-.052.261.131.308.26.067.092-.172.159-.155.715.178.405.242.398.233.289.437-.055.103-.05.162.019.207.053.034.704.063 1.447.063 1.385 0 1.698.058 1.698.314 0 .065-.162.186-.366.274-.429.185-.843.151-1.192-.097-.169-.12-.294-.149-.51-.115-.157.024-.65.084-1.096.132-1.354.145-3.879.836-4.192 1.147-.035.035.094.125.288.199.346.132.364.131.913-.048.683-.223 1.1-.224 1.759-.004.508.17 1.078.559 1.078.737 0 .148-.395.479-.687.577-.333.111-1.042.112-1.553.003-.414-.089-.534-.142-1.039-.461-.366-.231-1.141-.57-1.471-.642-.246-.054-1.139.274-2.328.855-.473.232-.655.277-1.196.3-.358.015-.784-.014-.97-.066zm1.875-.287c.409-.198.529-.333.468-.526-.052-.165-.591-.438-.75-.38-.06.022-.015.061.106.093.237.063.349.303.215.464-.049.059-.317.183-.596.276-.386.128-.615.159-.965.127-.489-.044-.539-.001-.122.105.409.105 1.27.021 1.643-.16zm6.867.046c.236-.154.212-.257-.03-.128-.444.238-1.746.035-2.07-.323-.11-.122-.112-.155-.017-.248.061-.059.284-.161.496-.228l.386-.121-.463.045c-.519.051-.832.207-.795.397.037.193.59.541 1.065.671.522.143 1.151.113 1.427-.067zm-3.395-1.913c1.023-.341 2.189-.642 2.803-.723.22-.029.399-.075.399-.101s-.104-.117-.231-.202c-.142-.095-.231-.221-.231-.328 0-.197-.093-.225-.224-.067-.074.089-.155.082-.511-.049q-.425-.156-.423-.286c0-.219-.103-.25-.237-.071-.123.164-.142.166-.582.061-.391-.093-.453-.132-.448-.281.007-.204-.165-.235-.216-.039-.03.114-.109.131-.511.109-.407-.022-.475-.047-.475-.174 0-.106-.054-.147-.193-.147s-.193.042-.193.147c0 .126-.068.151-.475.174s-.481.006-.512-.113c-.052-.199-.291-.127-.268.081.014.133-.041.183-.27.247-.158.044-.401.08-.539.08-.203 0-.251-.03-.251-.16 0-.094-.04-.147-.096-.128-.053.018-.087.116-.075.219.019.159-.037.21-.386.352-.352.143-.424.151-.529.058-.217-.193-.418-.1-.218.1.061.061.005.139-.207.283-.189.129-.253.209-.181.229.061.017.787.197 1.615.399s1.73.446 2.006.543.554.158.617.137l1.042-.347zm-5.362-1.08c.219-.137.243-.175.128-.2q-.144-.03-.104-.178c.048-.182-.1-.192-.416-.028-.265.137-.233.266.069.269.189.002.196.012.073.105-.141.107-.177.201-.077.201.032 0 .179-.076.328-.169zm8.957-.146c.088-.088.149-.17.135-.182-.078-.066-.374-.197-.445-.197-.045 0-.082.069-.082.154s-.041.154-.092.154c-.096 0 .164.225.266.229.032.001.13-.07.219-.158zm-7.586-.518c.017-.051-.028-.093-.101-.093-.105 0-.113-.022-.041-.109.138-.166-.03-.225-.343-.122-.3.099-.349.224-.112.286.113.029.143.082.11.188-.044.138-.031.141.205.045.138-.056.266-.144.283-.196zm6.345.125c0-.05.056-.153.125-.229.117-.129.112-.144-.072-.228-.24-.11-.454-.044-.391.12.025.065.007.119-.04.119-.151 0-.091.157.088.229.239.096.289.094.289-.011zm-5.17-.374c.096-.063.098-.087.011-.143-.068-.044-.085-.128-.05-.239.051-.16.038-.168-.204-.117-.319.067-.449.176-.313.26.054.033.076.119.049.19-.039.102-.003.129.171.128a.75.75 0 0 0 .336-.077zm3.97.008c.024-.039 0-.087-.053-.107-.067-.025-.05-.072.057-.155.189-.145.141-.201-.226-.261-.276-.045-.282-.04-.233.158.032.128.019.204-.034.204-.137 0-.098.14.049.178.236.062.395.055.44-.017m-2.624-.23c.023-.038-.018-.093-.092-.121-.128-.049-.128-.057-.001-.151.175-.129.095-.199-.224-.199-.177 0-.257.036-.257.116 0 .064.035.116.077.116.111 0 .095.211-.019.258-.053.021.032.042.188.045.157.003.304-.025.327-.063zm1.355-.008c0-.042-.035-.077-.077-.077s-.077-.052-.077-.116.052-.116.116-.116.116-.035.116-.077-.139-.077-.309-.077c-.294 0-.4.089-.23.194.043.027.058.081.034.12a.16.16 0 0 0 .003.149c.062.1.424.1.424 0"/><path fill="#d21034" d="M0 0v16.667l10.938-8.333z"/><path fill="#fce100" d="M5.677 11.458 3.645 9.97l-2.029 1.488.787-2.392-2.042-1.47 2.518.009.767-2.397.769 2.398 2.516-.011-2.043 1.473z"/></svg>