<svg width="25" height="25" viewBox="0 0 1.125 1.125" xmlns="http://www.w3.org/2000/svg" aria-hidden="true" class="iconify iconify--twemoji"><path fill="#004600" d="M1 .156H.281v.813H1a.125.125 0 0 0 .125-.125V.281A.125.125 0 0 0 1 .156m-.297.64A.234.234 0 0 1 .469.562C.469.446.554.35.665.331A.203.203 0 0 0 .75.718.2.2 0 0 0 .934.6a.234.234 0 0 1-.231.196M.863.47.825.533.819.46.747.443.815.414.809.341l.048.056.068-.029-.038.063.048.056z"/><path fill="#EEE" d="M.125.156A.125.125 0 0 0 0 .281v.563a.125.125 0 0 0 .125.125h.156V.156z"/><path fill="#FFF" d="M.924.368.856.397.808.341l.006.073-.068.029.072.017.006.073L.862.47l.072.017L.886.431z"/><path fill="#FFF" d="M.75.718A.203.203 0 0 1 .664.331a.234.234 0 0 0-.196.231.234.234 0 0 0 .234.234A.235.235 0 0 0 .933.6.2.2 0 0 1 .75.718"/></svg>