<svg xmlns="http://www.w3.org/2000/svg" xmlns:xlink="http://www.w3.org/1999/xlink" viewBox="0 0 25 18.75" width="25" height="18.75"><path fill="#1eb53a" d="M0 12.5h25v6.25H0z"/><path fill="#0099b5" d="M0 0h25v6.25H0z"/><path fill="#ce1126" d="M0 6h25v6.75H0z"/><path fill="#fff" d="M0 6.375h25v6H0zM7.5 3a2.25 2.25 0 0 1-2.25 2.25A2.25 2.25 0 0 1 3 3a2.25 2.25 0 0 1 4.5 0"/><path fill="#0099b5" d="M8.25 3A2.25 2.25 0 0 1 6 5.25 2.25 2.25 0 0 1 3.75 3a2.25 2.25 0 0 1 4.5 0"/><g fill="#fff" transform="translate(261.1 122.9)scale(1.92)"><g id="e"><g id="d"><g id="c"><g id="b"><path id="a" d="m0-.234-.074.222.113.039"/><use xlink:href="#a" width="100%" height="100%" transform="scale(-1 1)"/></g><use xlink:href="#b" width="100%" height="100%" transform="rotate(72)"/></g><use xlink:href="#b" width="100%" height="100%" transform="rotate(-72)"/><use xlink:href="#c" width="100%" height="100%" transform="rotate(144)"/></g><use xlink:href="#d" width="100%" height="100%" y="-24"/><use xlink:href="#d" width="100%" height="100%" y="-48"/></g><use xlink:href="#e" width="100%" height="100%" x="24"/><use xlink:href="#e" width="100%" height="100%" x="48"/><use xlink:href="#d" width="100%" height="100%" x="-48"/><use xlink:href="#d" width="100%" height="100%" x="-24"/><use xlink:href="#d" width="100%" height="100%" x="-24" y="-24"/></g></svg>