<svg xmlns="http://www.w3.org/2000/svg" xmlns:xlink="http://www.w3.org/1999/xlink" width="25" height="18.182" viewBox="0 0 25 18.182"><path fill="#fff" d="M0 0h25v18.182H0z"/><path d="M0 1.705h25v2.84H0zm0 11.931h25v2.841H0zM8.738 6.55a3.762 3.762 0 1 0 7.523 0h-.358a3.403 3.403 0 1 1-6.807 0z"/><path d="M9.82 6.566a2.68 2.68 0 1 0 5.359 0h-.361a2.319 2.319 0 1 1-4.638 0z"/><path d="M10.915 6.55a1.585 1.585 0 1 0 3.17 0h-.358a1.227 1.227 0 1 1-2.454 0z"/><path d="M10.552 12.041v.245h3.897v-.245l-1.769-.394V6.274h-.358v5.372z"/><g id="b"><path id="a" d="M8.46 6.099h.914l-.278.376h-.358z"/><use xlink:href="#a" x="28.731"/><use xlink:href="#a" x="57.461"/></g><use xlink:href="#a" x="94.577" y="-7.261"/><use xlink:href="#b" x="131.693"/></svg>