<svg class="my-3 mx-auto d-block" viewBox="0 0 309.27 59.135" width="309.27" height="59.135" xmlns="http://www.w3.org/2000/svg"><g class="logo-section-main" fill-rule="evenodd" fill="none"><path d="M88.363 28.314h-6.18q-.042 2.68.975 4.63a9.1 9.1 0 0 0 2.745 3.21q1.728 1.26 3.984 1.848 2.257.59 4.656.589 2.968 0 5.225-.69t3.781-1.93q1.526-1.24 2.298-2.945.772-1.706.772-3.696 0-2.437-1.037-4.002-1.035-1.563-2.46-2.498-1.422-.934-2.866-1.36t-2.257-.59q-2.724-.69-4.412-1.137-1.686-.447-2.642-.894-.956-.446-1.281-.974-.326-.529-.326-1.382 0-.933.407-1.543a3.5 3.5 0 0 1 1.037-1.016q.63-.406 1.403-.568a7.5 7.5 0 0 1 1.545-.163q1.179 0 2.175.203a5.2 5.2 0 0 1 1.769.69c.522.333.95.795 1.24 1.341q.468.854.549 2.153h6.18q0-2.518-.955-4.285a8.3 8.3 0 0 0-2.582-2.905q-1.627-1.137-3.72-1.645a18.5 18.5 0 0 0-4.372-.508q-1.95 0-3.903.528c-1.253.33-2.437.88-3.497 1.625a8.65 8.65 0 0 0-2.5 2.742q-.956 1.645-.956 3.88 0 1.99.752 3.391a7.2 7.2 0 0 0 1.972 2.336 10.9 10.9 0 0 0 2.765 1.523 28 28 0 0 0 3.172.995q1.585.448 3.13.813 1.545.366 2.766.853 1.22.487 1.972 1.219.752.73.752 1.909 0 1.095-.57 1.807a4 4 0 0 1-1.423 1.117 6.4 6.4 0 0 1-1.83.549q-.975.142-1.829.142-1.26 0-2.44-.305-1.179-.304-2.053-.934a4.6 4.6 0 0 1-1.403-1.645q-.528-1.015-.528-2.478M116.825 14.3v23.641h6.384V14.3h8.7V8.938h-23.785V14.3zm24.803 7.758v-8.163h6.993q2.196 0 3.294.954 1.098.955 1.098 3.067 0 2.194-1.098 3.169-1.098.974-3.294.974zm-6.384-13.12v29.003h6.384V26.608h6.383q2.4 0 3.456 1.056 1.058 1.056 1.383 3.331.245 1.746.366 3.656.122 1.91.65 3.29h6.384q-.447-.609-.67-1.483a13 13 0 0 1-.326-1.848 32 32 0 0 1-.142-1.909q-.042-.934-.082-1.625a17 17 0 0 0-.305-2.193 7.4 7.4 0 0 0-.711-2.011 5.5 5.5 0 0 0-1.26-1.584q-.773-.67-1.952-.995v-.082q2.439-.975 3.517-2.843 1.077-1.869 1.077-4.428 0-1.665-.59-3.107a7.5 7.5 0 0 0-1.707-2.539 8.1 8.1 0 0 0-2.684-1.726q-1.565-.63-3.517-.63zm29.357 0v29.003h6.383V8.938Zm18.378 13.648v-8.691h4.96q1.099 0 2.115.162a4.9 4.9 0 0 1 1.79.63q.772.466 1.24 1.32.467.853.467 2.234t-.468 2.234a3.43 3.43 0 0 1-1.24 1.32q-.772.468-1.789.63t-2.114.162h-4.96zm-6.383-13.648v29.003h6.383V27.542h6.71q2.723 0 4.634-.792t3.11-2.092a8 8 0 0 0 1.75-2.985 11 11 0 0 0 .548-3.433q0-1.786-.549-3.453a8 8 0 0 0-1.748-2.965q-1.2-1.3-3.11-2.092-1.912-.792-4.636-.792zm47.897 8.733h3.863q-.326-2.315-1.382-4.082a10.1 10.1 0 0 0-2.643-2.945q-1.586-1.178-3.619-1.787a15 15 0 0 0-4.31-.61q-3.334 0-5.916 1.199t-4.31 3.27-2.623 4.854q-.894 2.782-.894 5.95 0 3.17.833 5.931.834 2.763 2.5 4.794 1.668 2.031 4.189 3.188t5.896 1.158q5.57 0 8.782-3.047 3.213-3.046 3.782-8.53h-3.863a11 11 0 0 1-.732 3.331 8 8 0 0 1-1.687 2.66 7.7 7.7 0 0 1-2.562 1.747q-1.484.63-3.395.63-2.602 0-4.473-.975a8.7 8.7 0 0 1-3.07-2.62q-1.2-1.645-1.768-3.859-.57-2.214-.57-4.692 0-2.274.57-4.387t1.768-3.757a8.8 8.8 0 0 1 3.05-2.62q1.85-.975 4.452-.975 3.05 0 5.266 1.544 2.216 1.543 2.866 4.63m8.946-8.733v29.003h3.862V24.658h15.289v13.283h3.862V8.938h-3.862v12.47H237.3V8.938zm34.358 17.02 4.92-13.527h.08l4.84 13.527zm2.887-17.02L259.38 37.941h3.944l3.253-8.733h12.28l3.17 8.733h4.27L274.953 8.938zm25.046 3.25v25.753h3.863V12.188h9.677v-3.25h-23.217v3.25z" fill="#fff"/><path style="display:inline;fill:#a2252d;fill-opacity:1;stroke:none;stroke-width:0;stroke-dasharray:none" d="M4.441 89.03c0-.05.438-.817.973-1.706 1.978-3.291 4.841-8.893 4.841-9.473 0-.947-.247-1.323-2.36-3.59-3.025-3.248-4.901-6.219-6.137-9.72C.8 61.824.548 60.229.55 56.91c.002-2.595.067-3.27.48-5.024C3.573 41.08 13.196 32.794 26.061 30.335c1.806-.346 2.706-.4 6.632-.4 3.985 0 4.805.052 6.686.417a43 43 0 0 1 1.65.352c6.693 1.572 12.186 4.61 16.557 9.156 4.864 5.058 7.232 10.637 7.236 17.05.002 2.914-.175 4.121-.997 6.813-2.456 8.043-9.215 14.732-18.324 18.13-2.766 1.033-6.252 1.839-8.899 2.058-1.193.098-1.403.07-1.66-.227-.258-.297-.308-1.377-.411-8.802l-.118-8.462.411-.57c.227-.313 3.223-3.809 6.658-7.769s6.255-7.335 6.268-7.5c.02-.28-1.134-.303-15.328-.303-14.037 0-15.354.026-15.406.296-.035.177 2.528 3.287 6.387 7.752 3.544 4.1 6.532 7.62 6.64 7.822.133.248.197 3.085.197 8.737 0 8.127-.01 8.38-.364 8.733-.453.453-.702.452-3.474-.02-1.237-.21-2.624-.345-3.083-.301-.496.048-1.713.49-2.998 1.09a51.4 51.4 0 0 1-7.855 2.945c-3.375.97-8.026 1.953-8.026 1.697" transform="translate(-.55 -29.935)"/></g><text xml:space="preserve" style="font-size:21.3333px;font-family:&quot;Segoe UI&quot;;-inkscape-font-specification:&quot;Segoe UI&quot;;text-align:start;writing-mode:lr-tb;direction:ltr;text-anchor:start;fill:#000;fill-opacity:.5" x="82.075" y="88.645" transform="translate(-.55 -29.935)" class="logo-section-ultimate"><tspan x="82.075" y="88.645" style="font-style:italic;font-variant:normal;font-weight:700;font-stretch:normal;font-size:21.3333px;font-family:&quot;Segoe UI&quot;;-inkscape-font-specification:&quot;Segoe UI Bold Italic&quot;;fill:#9932cc;fill-opacity:.501961">ENHANCED</tspan></text></svg>